M48
METRIC,LZ,000.000
;FILE_FORMAT=3:3
;TYPE=PLATED
;Layer: PTH_Through_Via
;EasyEDA v6.5.51, 2025-12-27 20:08:00
;bdb22dcb27374e0e8d35cee5088a979a,10
;Gerber Generator version 0.2
;Holesize 1 = 0.310 mm
T01C0.310
;Holesize 2 = 0.501 mm
T02C0.501
%
G05
G90
T01
X-075000Y029000
X-067892Y035007
X-073200Y033400
X-068992Y032715
X-068100Y029100
X-073401Y028600
X-059000Y031500
X-069173Y028292
X-074800Y034600
X-002500Y050000
X012978Y047000
X-085001Y029500
X-097500Y042500
X-091700Y039500
X-097500Y044273
X-092000Y047500
X-095000Y043664
X-090128Y045344
X-094900Y045200
X-090100Y042000
X-069733Y029567
X-079800Y025400
X005500Y044500
X004000Y048500
X-004500Y049000
X000000Y023000
T02
X-090000Y054000
X-089000Y053000
X-088000Y054000
X-087000Y053000
X-086000Y054000
X-085000Y053000
X-084000Y054000
X-091000Y053000
X-083000Y053000
X-082000Y054000
X-081000Y053000
X-080000Y054000
X-079000Y053000
X-078000Y054000
X-077000Y053000
X-076000Y054000
X-075000Y053000
X-074000Y054000
X-073000Y053000
X-072000Y054000
X-071000Y053000
X-070000Y054000
X-069000Y053000
X-062000Y045500
X-062500Y043500
X-062500Y047500
X-062000Y049500
X-062500Y051500
X-060000Y052000
X-061000Y053500
X-059000Y053500
X-057500Y052000
X-056000Y053500
X-054500Y052000
X-053000Y053500
X-051500Y052000
X-050000Y053500
X-050000Y050500
X-048500Y049000
X-048500Y052000
X-047000Y050500
X-045500Y049000
X-047000Y053500
X-045500Y052000
X-044000Y050500
X-042500Y049000
X-044000Y053500
X-042500Y052000
X-041000Y050500
X-039500Y049000
X-041000Y053500
X-039500Y052000
X-038000Y050500
X-038000Y053500
X-025500Y043000
X-025500Y040500
X-028000Y040500
X-026000Y038500
X-023000Y040500
X-023500Y038500
X-024000Y036000
X-021000Y038500
X-021500Y036000
M30
