G04 Layer: BottomSilkscreenLayer*
G04 EasyEDA v6.5.51, 2025-12-27 20:08:00*
G04 bdb22dcb27374e0e8d35cee5088a979a,10*
G04 Gerber Generator version 0.2*
G04 Scale: 100 percent, Rotated: No, Reflected: No *
G04 Dimensions in millimeters *
G04 leading zeros omitted , absolute positions ,4 integer and 5 decimal *
%FSLAX45Y45*%
%MOMM*%

%ADD10C,0.8000*%
%ADD11C,0.1524*%
%ADD12C,0.0111*%

%LPD*%
G36*
X917041Y5383682D02*
G01*
X912926Y5383326D01*
X908202Y5382564D01*
X905306Y5380990D01*
X901192Y5377840D01*
X897432Y5374487D01*
X895654Y5371947D01*
X893114Y5369864D01*
X891438Y5368188D01*
X889101Y5365343D01*
X888187Y5364632D01*
X886764Y5362752D01*
X885240Y5360263D01*
X882091Y5356453D01*
X879805Y5352491D01*
X877468Y5349544D01*
X875030Y5344972D01*
X872591Y5343855D01*
X871016Y5340197D01*
X869696Y5338114D01*
X866851Y5334508D01*
X864260Y5330545D01*
X863498Y5329783D01*
X859637Y5323890D01*
X858367Y5322620D01*
X856996Y5320792D01*
X855268Y5317744D01*
X852982Y5314848D01*
X850646Y5310886D01*
X848309Y5308193D01*
X845413Y5302961D01*
X843635Y5301742D01*
X842314Y5300014D01*
X839927Y5296052D01*
X837641Y5293004D01*
X835304Y5289245D01*
X834237Y5288229D01*
X831037Y5283149D01*
X828040Y5279440D01*
X826160Y5276189D01*
X823823Y5273548D01*
X820928Y5269128D01*
X818337Y5266182D01*
X816711Y5262880D01*
X813155Y5258257D01*
X811885Y5255869D01*
X808939Y5252313D01*
X807516Y5249976D01*
X806246Y5247386D01*
X804418Y5246116D01*
X803097Y5244388D01*
X801370Y5241340D01*
X799033Y5238394D01*
X797306Y5235346D01*
X794410Y5231790D01*
X791819Y5227523D01*
X789482Y5224830D01*
X787603Y5221579D01*
X784555Y5217820D01*
X782523Y5214366D01*
X781151Y5212435D01*
X780084Y5211521D01*
X776325Y5205679D01*
X773379Y5201818D01*
X773074Y5200904D01*
X770585Y5197856D01*
X768959Y5195519D01*
X767029Y5191810D01*
X765200Y5190540D01*
X763778Y5188661D01*
X758647Y5180736D01*
X758494Y5179263D01*
X755954Y5176977D01*
X754329Y5174843D01*
X751992Y5171084D01*
X750925Y5170068D01*
X749604Y5168239D01*
X747674Y5164937D01*
X745134Y5161940D01*
X743813Y5159654D01*
X742492Y5156758D01*
X741172Y5156200D01*
X740054Y5154777D01*
X738936Y5152745D01*
X734161Y5146192D01*
X733450Y5144668D01*
X730504Y5141112D01*
X729081Y5138775D01*
X727811Y5136184D01*
X725982Y5134914D01*
X724712Y5133289D01*
X722884Y5130088D01*
X720344Y5126583D01*
X718820Y5123738D01*
X715772Y5120182D01*
X712774Y5115356D01*
X710996Y5113629D01*
X708507Y5109413D01*
X706780Y5107482D01*
X705408Y5105501D01*
X704088Y5103114D01*
X702716Y5101234D01*
X701649Y5100320D01*
X697839Y5094427D01*
X694944Y5090617D01*
X694639Y5089702D01*
X693724Y5088331D01*
X692251Y5086705D01*
X690575Y5084318D01*
X688543Y5080304D01*
X687222Y5079695D01*
X686054Y5078171D01*
X683260Y5073700D01*
X681786Y5071922D01*
X680059Y5068773D01*
X676910Y5064963D01*
X673709Y5059832D01*
X671271Y5056987D01*
X668274Y5052009D01*
X666242Y5049621D01*
X664870Y5047386D01*
X663448Y5045557D01*
X662432Y5044694D01*
X661314Y5043220D01*
X660298Y5041290D01*
X655726Y5034991D01*
X655066Y5033467D01*
X652170Y5030012D01*
X649427Y5024983D01*
X647547Y5023713D01*
X646277Y5022037D01*
X641299Y5014214D01*
X640537Y5012486D01*
X639470Y5010962D01*
X637540Y5008829D01*
X633730Y5003241D01*
X632663Y5002225D01*
X629056Y4996434D01*
X627024Y4994046D01*
X625652Y4991811D01*
X622655Y4988306D01*
X619709Y4983124D01*
X618439Y4981702D01*
X614730Y4975961D01*
X613816Y4975301D01*
X609650Y4969256D01*
X608685Y4968392D01*
X604520Y4961686D01*
X603707Y4960924D01*
X600659Y4955946D01*
X598271Y4953203D01*
X594512Y4947615D01*
X593445Y4946599D01*
X590550Y4941874D01*
X588264Y4939030D01*
X585266Y4934254D01*
X583793Y4932730D01*
X580440Y4927447D01*
X579170Y4926076D01*
X576630Y4922012D01*
X575157Y4920081D01*
X572922Y4918202D01*
X572109Y4914900D01*
X569214Y4912055D01*
X565404Y4906264D01*
X564337Y4905095D01*
X560527Y4899304D01*
X558444Y4897526D01*
X556260Y4892294D01*
X553770Y4890922D01*
X551992Y4887366D01*
X548487Y4882540D01*
X547471Y4880660D01*
X546049Y4878679D01*
X544576Y4877104D01*
X543255Y4875276D01*
X542391Y4873548D01*
X540004Y4870450D01*
X536346Y4865014D01*
X534517Y4862880D01*
X531926Y4858562D01*
X529234Y4855565D01*
X526796Y4851552D01*
X524001Y4847894D01*
X522427Y4845253D01*
X519633Y4842611D01*
X516991Y4836769D01*
X515213Y4835550D01*
X513943Y4833924D01*
X511200Y4829454D01*
X508660Y4825847D01*
X508355Y4824984D01*
X504088Y4819700D01*
X502005Y4816246D01*
X500126Y4814011D01*
X497840Y4810201D01*
X495198Y4807051D01*
X492709Y4803089D01*
X489508Y4799380D01*
X488188Y4796840D01*
X484733Y4792014D01*
X483463Y4789627D01*
X480517Y4786122D01*
X479094Y4783785D01*
X477824Y4781194D01*
X475996Y4779924D01*
X474726Y4778298D01*
X471982Y4773879D01*
X469442Y4770272D01*
X468680Y4768697D01*
X465531Y4765040D01*
X463296Y4761179D01*
X460857Y4758283D01*
X457962Y4753711D01*
X455371Y4750511D01*
X454304Y4748580D01*
X449834Y4743145D01*
X449478Y4742129D01*
X445483Y4736338D01*
X533603Y4736338D01*
X533603Y4738116D01*
X535482Y4741773D01*
X536600Y4743297D01*
X537514Y4743958D01*
X541070Y4749495D01*
X543407Y4752594D01*
X545947Y4756505D01*
X547166Y4757674D01*
X551484Y4764227D01*
X552856Y4765700D01*
X553872Y4767275D01*
X554532Y4769459D01*
X558088Y4772456D01*
X560070Y4777638D01*
X562457Y4778756D01*
X564540Y4782718D01*
X567131Y4786122D01*
X570331Y4792065D01*
X571703Y4792065D01*
X575259Y4798974D01*
X577646Y4800092D01*
X578764Y4802835D01*
X579932Y4804664D01*
X581253Y4806238D01*
X582879Y4808677D01*
X584200Y4811115D01*
X585724Y4812944D01*
X586384Y4812944D01*
X588924Y4817668D01*
X590397Y4819853D01*
X592023Y4821682D01*
X595172Y4826660D01*
X597204Y4829048D01*
X599592Y4833010D01*
X600405Y4833772D01*
X601065Y4833772D01*
X603554Y4838496D01*
X605028Y4840681D01*
X606145Y4841748D01*
X609955Y4847691D01*
X611022Y4848707D01*
X612241Y4850384D01*
X613410Y4852466D01*
X614934Y4854549D01*
X616407Y4855972D01*
X617575Y4857546D01*
X618693Y4859832D01*
X621690Y4863744D01*
X624128Y4867808D01*
X625754Y4869586D01*
X627126Y4871516D01*
X628446Y4873904D01*
X629818Y4875834D01*
X630885Y4876800D01*
X632053Y4878374D01*
X633730Y4881270D01*
X636320Y4884318D01*
X637641Y4886960D01*
X638911Y4888890D01*
X640384Y4890414D01*
X641858Y4892446D01*
X642874Y4894326D01*
X646785Y4899406D01*
X649071Y4903114D01*
X650341Y4904486D01*
X651662Y4906365D01*
X652678Y4908245D01*
X656539Y4913223D01*
X657504Y4915052D01*
X661162Y4919929D01*
X662330Y4922113D01*
X663448Y4923688D01*
X664921Y4925212D01*
X666546Y4927549D01*
X668528Y4931511D01*
X670356Y4932121D01*
X672388Y4936134D01*
X674573Y4938928D01*
X678383Y4944922D01*
X679450Y4945888D01*
X683615Y4952288D01*
X684428Y4952949D01*
X685596Y4954473D01*
X687476Y4957622D01*
X689254Y4959756D01*
X691794Y4963972D01*
X693166Y4965801D01*
X694283Y4966766D01*
X695553Y4968494D01*
X697280Y4971542D01*
X699668Y4974539D01*
X701446Y4977587D01*
X702767Y4979416D01*
X703986Y4980635D01*
X705510Y4982768D01*
X706882Y4985308D01*
X708202Y4987086D01*
X709117Y4987747D01*
X710234Y4989271D01*
X712622Y4993284D01*
X713740Y4994554D01*
X717753Y5000650D01*
X719836Y5002174D01*
X721766Y5007356D01*
X725373Y5010353D01*
X725982Y5012486D01*
X726846Y5013807D01*
X728014Y5014925D01*
X729640Y5017211D01*
X732129Y5021834D01*
X734060Y5022494D01*
X735838Y5026050D01*
X740003Y5031689D01*
X742035Y5035042D01*
X744626Y5038394D01*
X746099Y5040782D01*
X747572Y5042712D01*
X749198Y5043881D01*
X750671Y5047386D01*
X752043Y5049621D01*
X754938Y5053431D01*
X756005Y5055311D01*
X757275Y5056733D01*
X757936Y5056733D01*
X760628Y5061762D01*
X762101Y5063947D01*
X763066Y5064760D01*
X765911Y5069382D01*
X768299Y5072380D01*
X770077Y5075428D01*
X773379Y5079390D01*
X776173Y5083911D01*
X778916Y5087213D01*
X780338Y5090109D01*
X782929Y5093208D01*
X785622Y5097576D01*
X788060Y5100116D01*
X790498Y5104180D01*
X793343Y5107787D01*
X795832Y5112308D01*
X797204Y5112308D01*
X799744Y5117084D01*
X801217Y5119268D01*
X803452Y5122011D01*
X804519Y5124043D01*
X806856Y5127091D01*
X809955Y5132019D01*
X811885Y5134102D01*
X816152Y5140604D01*
X817524Y5142077D01*
X818591Y5143601D01*
X819150Y5144973D01*
X820318Y5146598D01*
X822807Y5148935D01*
X824687Y5153609D01*
X827684Y5155641D01*
X829665Y5160873D01*
X831545Y5162448D01*
X832967Y5164480D01*
X835050Y5168442D01*
X836421Y5168442D01*
X839012Y5173218D01*
X840740Y5175605D01*
X842975Y5177586D01*
X843686Y5179771D01*
X844956Y5181803D01*
X846632Y5183784D01*
X847953Y5185816D01*
X848664Y5188102D01*
X852220Y5191099D01*
X854202Y5196281D01*
X857097Y5197957D01*
X858215Y5200650D01*
X862126Y5206034D01*
X863244Y5208066D01*
X865733Y5211064D01*
X869899Y5217515D01*
X870762Y5218176D01*
X873353Y5222240D01*
X874572Y5223814D01*
X874979Y5224068D01*
X875639Y5224068D01*
X878179Y5228793D01*
X879652Y5231028D01*
X880719Y5232044D01*
X882954Y5235752D01*
X885952Y5239766D01*
X888441Y5243982D01*
X889914Y5245506D01*
X893775Y5251297D01*
X896010Y5253736D01*
X898652Y5258257D01*
X900937Y5261102D01*
X902665Y5264099D01*
X903935Y5265724D01*
X905002Y5266690D01*
X906322Y5268315D01*
X908202Y5271668D01*
X912621Y5274868D01*
X919632Y5274868D01*
X922782Y5272379D01*
X924458Y5270601D01*
X926185Y5268214D01*
X928979Y5265064D01*
X930605Y5262118D01*
X934364Y5257088D01*
X935431Y5255056D01*
X936599Y5253431D01*
X937666Y5252415D01*
X939139Y5250180D01*
X941679Y5245455D01*
X943051Y5245455D01*
X945134Y5241442D01*
X946454Y5239562D01*
X947521Y5238445D01*
X949045Y5236260D01*
X951484Y5231536D01*
X952500Y5231384D01*
X953465Y5230164D01*
X955903Y5226202D01*
X957275Y5224627D01*
X959662Y5220716D01*
X963574Y5215636D01*
X964590Y5213756D01*
X966063Y5211775D01*
X967536Y5210251D01*
X968705Y5208676D01*
X969822Y5206492D01*
X972819Y5202631D01*
X975868Y5197805D01*
X976934Y5196789D01*
X978255Y5194960D01*
X980135Y5191709D01*
X981811Y5189829D01*
X985774Y5183936D01*
X986637Y5183276D01*
X987755Y5181701D01*
X988974Y5179364D01*
X990600Y5177078D01*
X992073Y5175453D01*
X993394Y5173573D01*
X994156Y5171846D01*
X995222Y5170271D01*
X997102Y5168188D01*
X999744Y5163870D01*
X1001268Y5162346D01*
X1002588Y5160518D01*
X1003909Y5158130D01*
X1005382Y5156047D01*
X1007313Y5153964D01*
X1010462Y5149037D01*
X1012850Y5145887D01*
X1014730Y5142280D01*
X1017016Y5141214D01*
X1018184Y5138369D01*
X1019657Y5136083D01*
X1021384Y5134000D01*
X1023721Y5129987D01*
X1026414Y5126685D01*
X1029208Y5122164D01*
X1031087Y5120081D01*
X1034643Y5114798D01*
X1036269Y5113070D01*
X1038809Y5108041D01*
X1041501Y5106466D01*
X1043482Y5101234D01*
X1045768Y5099304D01*
X1047242Y5097322D01*
X1049020Y5094274D01*
X1054760Y5086350D01*
X1055471Y5085842D01*
X1059840Y5079085D01*
X1061008Y5077968D01*
X1061923Y5076596D01*
X1062888Y5074462D01*
X1065631Y5071110D01*
X1068882Y5066182D01*
X1070660Y5064455D01*
X1073200Y5060188D01*
X1075486Y5057241D01*
X1078280Y5052060D01*
X1080211Y5051399D01*
X1083818Y5044389D01*
X1085646Y5043830D01*
X1087170Y5040579D01*
X1089812Y5037226D01*
X1093927Y5030774D01*
X1094689Y5030266D01*
X1098905Y5023662D01*
X1099972Y5022646D01*
X1101902Y5019548D01*
X1105763Y5014620D01*
X1106779Y5012740D01*
X1108252Y5010708D01*
X1109726Y5009184D01*
X1110996Y5007305D01*
X1112266Y5004714D01*
X1114602Y5001818D01*
X1117092Y4997805D01*
X1118514Y4996383D01*
X1120038Y4995367D01*
X1122629Y4989271D01*
X1124508Y4988661D01*
X1126540Y4984800D01*
X1127810Y4982921D01*
X1129538Y4980889D01*
X1131112Y4978298D01*
X1132840Y4974894D01*
X1134211Y4974894D01*
X1136040Y4971288D01*
X1137462Y4969205D01*
X1139545Y4966817D01*
X1141984Y4962702D01*
X1142949Y4961788D01*
X1143863Y4961483D01*
X1145844Y4957521D01*
X1147470Y4955184D01*
X1148943Y4953609D01*
X1151890Y4948936D01*
X1153414Y4947107D01*
X1156106Y4942738D01*
X1157427Y4941062D01*
X1159256Y4939792D01*
X1160678Y4936439D01*
X1161999Y4934458D01*
X1164031Y4932121D01*
X1166418Y4928057D01*
X1168755Y4925466D01*
X1171397Y4921148D01*
X1173988Y4918252D01*
X1176223Y4914595D01*
X1178458Y4911801D01*
X1181150Y4907229D01*
X1182166Y4906162D01*
X1183030Y4905908D01*
X1186383Y4898948D01*
X1188669Y4897932D01*
X1190498Y4894326D01*
X1194155Y4889246D01*
X1195984Y4885690D01*
X1198422Y4884572D01*
X1200404Y4879340D01*
X1202283Y4877765D01*
X1203604Y4875987D01*
X1205331Y4873091D01*
X1207871Y4870043D01*
X1211021Y4865217D01*
X1212342Y4863998D01*
X1216304Y4857699D01*
X1217422Y4856429D01*
X1220368Y4851552D01*
X1222502Y4849317D01*
X1225245Y4844745D01*
X1228598Y4840732D01*
X1231036Y4836769D01*
X1233373Y4833670D01*
X1234490Y4831588D01*
X1235811Y4829911D01*
X1236929Y4828946D01*
X1240993Y4822748D01*
X1242263Y4821377D01*
X1244701Y4817465D01*
X1247190Y4814620D01*
X1250746Y4808880D01*
X1251559Y4808372D01*
X1252829Y4806594D01*
X1254353Y4803902D01*
X1255928Y4801616D01*
X1257604Y4799838D01*
X1258265Y4798466D01*
X1258620Y4796942D01*
X1260906Y4794961D01*
X1262634Y4792522D01*
X1265224Y4787798D01*
X1266545Y4787798D01*
X1269034Y4783074D01*
X1270457Y4780940D01*
X1272133Y4779010D01*
X1274775Y4774742D01*
X1275689Y4773879D01*
X1276350Y4773879D01*
X1278229Y4770272D01*
X1279652Y4768189D01*
X1281684Y4765802D01*
X1284071Y4761788D01*
X1286408Y4759045D01*
X1289710Y4753051D01*
X1290421Y4753051D01*
X1291183Y4752390D01*
X1293469Y4748682D01*
X1297025Y4744008D01*
X1299311Y4740351D01*
X1301394Y4738319D01*
X1302207Y4733899D01*
X1297025Y4728972D01*
X584657Y4729175D01*
X536905Y4729327D01*
X535533Y4729632D01*
X534212Y4733137D01*
X533603Y4736338D01*
X445483Y4736338D01*
X444246Y4734052D01*
X441401Y4730597D01*
X439928Y4728210D01*
X438607Y4725568D01*
X436067Y4724044D01*
X434898Y4721555D01*
X433070Y4718608D01*
X431292Y4716526D01*
X429006Y4712614D01*
X427532Y4711496D01*
X425704Y4709312D01*
X422605Y4691888D01*
X425754Y4677664D01*
X428751Y4674158D01*
X431952Y4669891D01*
X434644Y4667199D01*
X437946Y4664354D01*
X441655Y4662678D01*
X443331Y4661662D01*
X444601Y4660493D01*
X446125Y4659731D01*
X448056Y4659122D01*
X455066Y4657750D01*
X460400Y4656226D01*
X1383893Y4656531D01*
X1386738Y4657852D01*
X1394612Y4659934D01*
X1397660Y4662220D01*
X1400556Y4663744D01*
X1404569Y4666792D01*
X1411071Y4672431D01*
X1412189Y4675276D01*
X1415186Y4679797D01*
X1416050Y4681982D01*
X1416608Y4684928D01*
X1417370Y4695037D01*
X1415999Y4705705D01*
X1413814Y4708550D01*
X1412392Y4711242D01*
X1410665Y4715713D01*
X1408480Y4717897D01*
X1407109Y4719980D01*
X1405534Y4723638D01*
X1403146Y4724755D01*
X1401064Y4728667D01*
X1399743Y4730597D01*
X1398676Y4731613D01*
X1397355Y4733493D01*
X1396136Y4735779D01*
X1394866Y4737506D01*
X1393952Y4738268D01*
X1388008Y4746498D01*
X1385366Y4750866D01*
X1382522Y4754981D01*
X1382166Y4755946D01*
X1381099Y4757420D01*
X1379372Y4759198D01*
X1376375Y4763414D01*
X1374546Y4765446D01*
X1371549Y4770424D01*
X1369822Y4772304D01*
X1366774Y4777028D01*
X1365300Y4778959D01*
X1364335Y4779772D01*
X1363167Y4781346D01*
X1362100Y4783429D01*
X1359763Y4786528D01*
X1356715Y4791405D01*
X1354023Y4794402D01*
X1350721Y4799533D01*
X1348994Y4801463D01*
X1346504Y4805680D01*
X1344676Y4807508D01*
X1341577Y4812538D01*
X1339392Y4814722D01*
X1336954Y4818634D01*
X1334516Y4821783D01*
X1331772Y4826508D01*
X1329537Y4828895D01*
X1327404Y4832400D01*
X1326083Y4834178D01*
X1325168Y4834839D01*
X1323949Y4836515D01*
X1322679Y4838801D01*
X1321308Y4840732D01*
X1320241Y4841748D01*
X1318920Y4843627D01*
X1317701Y4845862D01*
X1316228Y4847844D01*
X1314958Y4849012D01*
X1313789Y4850587D01*
X1312367Y4853025D01*
X1310030Y4855972D01*
X1307287Y4860696D01*
X1305052Y4863134D01*
X1302207Y4867656D01*
X1300632Y4869078D01*
X1299514Y4870551D01*
X1296924Y4874768D01*
X1295704Y4876139D01*
X1293622Y4879543D01*
X1289354Y4884826D01*
X1288643Y4886452D01*
X1285646Y4890566D01*
X1283157Y4894681D01*
X1281938Y4895900D01*
X1280718Y4896612D01*
X1278585Y4900726D01*
X1277213Y4902708D01*
X1276146Y4903724D01*
X1272133Y4909312D01*
X1270965Y4910429D01*
X1269898Y4912004D01*
X1269136Y4913731D01*
X1267866Y4915611D01*
X1265732Y4918049D01*
X1263700Y4921504D01*
X1261110Y4924806D01*
X1258620Y4928870D01*
X1257452Y4930089D01*
X1256182Y4930851D01*
X1254048Y4934966D01*
X1252728Y4936947D01*
X1251661Y4937912D01*
X1249273Y4941366D01*
X1246581Y4944618D01*
X1245260Y4946700D01*
X1244244Y4948885D01*
X1243126Y4950561D01*
X1242060Y4951476D01*
X1238605Y4956505D01*
X1236776Y4958689D01*
X1234084Y4963566D01*
X1231646Y4965090D01*
X1229715Y4968849D01*
X1228090Y4971186D01*
X1225600Y4974183D01*
X1224838Y4975860D01*
X1221536Y4980127D01*
X1219200Y4983988D01*
X1214729Y4989372D01*
X1209751Y4997145D01*
X1208024Y4999024D01*
X1203604Y5005882D01*
X1202131Y5007203D01*
X1199642Y5011115D01*
X1197356Y5014061D01*
X1194917Y5018125D01*
X1192225Y5021122D01*
X1189583Y5025440D01*
X1187246Y5028133D01*
X1184706Y5032349D01*
X1182979Y5034127D01*
X1179779Y5038750D01*
X1177239Y5041646D01*
X1175461Y5045151D01*
X1169822Y5053025D01*
X1167282Y5055362D01*
X1165860Y5058765D01*
X1164386Y5061000D01*
X1162862Y5062626D01*
X1161897Y5063998D01*
X1161542Y5064912D01*
X1155954Y5072634D01*
X1152042Y5077358D01*
X1151788Y5078222D01*
X1149197Y5081828D01*
X1146505Y5086248D01*
X1145235Y5087874D01*
X1143406Y5089144D01*
X1141476Y5092852D01*
X1139850Y5095189D01*
X1137361Y5098237D01*
X1136599Y5099913D01*
X1133297Y5104180D01*
X1130604Y5109006D01*
X1128826Y5109921D01*
X1128115Y5110632D01*
X1127861Y5111445D01*
X1123086Y5118506D01*
X1121968Y5120538D01*
X1120698Y5122113D01*
X1118870Y5123332D01*
X1116990Y5127091D01*
X1112875Y5132374D01*
X1112520Y5133289D01*
X1107998Y5139944D01*
X1107643Y5140909D01*
X1103223Y5146294D01*
X1102156Y5148224D01*
X1100632Y5150307D01*
X1099108Y5151932D01*
X1098143Y5153304D01*
X1097889Y5154218D01*
X1095451Y5157165D01*
X1092403Y5161534D01*
X1088339Y5166614D01*
X1087983Y5167528D01*
X1083513Y5174132D01*
X1083157Y5175097D01*
X1082040Y5176570D01*
X1080312Y5178348D01*
X1076147Y5184495D01*
X1073658Y5187543D01*
X1073353Y5188407D01*
X1069136Y5193944D01*
X1067714Y5196433D01*
X1066190Y5198567D01*
X1064971Y5199735D01*
X1063752Y5201310D01*
X1062329Y5203748D01*
X1059992Y5206746D01*
X1057249Y5211419D01*
X1055065Y5213756D01*
X1052271Y5217972D01*
X1049985Y5220512D01*
X1047648Y5224424D01*
X1045108Y5227421D01*
X1042924Y5231282D01*
X1039774Y5234940D01*
X1038606Y5237175D01*
X1035608Y5241290D01*
X1033119Y5245404D01*
X1031900Y5246624D01*
X1030630Y5247386D01*
X1028496Y5251500D01*
X1027125Y5253482D01*
X1025550Y5255158D01*
X1023061Y5258816D01*
X1020521Y5261914D01*
X1018387Y5265521D01*
X1015237Y5269128D01*
X1014526Y5270703D01*
X1010361Y5276748D01*
X1008583Y5280152D01*
X1006094Y5281523D01*
X1004011Y5286603D01*
X1001217Y5289296D01*
X1000099Y5290667D01*
X999794Y5291632D01*
X992733Y5301488D01*
X991869Y5302097D01*
X988263Y5307634D01*
X987145Y5308904D01*
X984758Y5312867D01*
X983437Y5314543D01*
X981608Y5315813D01*
X979728Y5319572D01*
X975614Y5324906D01*
X975258Y5325821D01*
X974140Y5327548D01*
X972362Y5329682D01*
X968603Y5335524D01*
X966876Y5337251D01*
X964082Y5341467D01*
X962253Y5343601D01*
X959713Y5347817D01*
X957275Y5350713D01*
X954227Y5355742D01*
X952855Y5357418D01*
X951585Y5358384D01*
X950163Y5362448D01*
X948893Y5364784D01*
X945184Y5370017D01*
X942136Y5373471D01*
X939698Y5376722D01*
X932840Y5381345D01*
X930757Y5382158D01*
X928166Y5382818D01*
X920902Y5383682D01*
G37*
G36*
X943254Y5202224D02*
G01*
X922832Y5200700D01*
X896569Y5199430D01*
X877163Y5198770D01*
X874471Y5196433D01*
X877417Y5186527D01*
X879754Y5183936D01*
X881786Y5176215D01*
X884732Y5171744D01*
X886663Y5163921D01*
X889609Y5160162D01*
X891540Y5152186D01*
X893622Y5148884D01*
X895096Y5145481D01*
X897026Y5139537D01*
X899414Y5136642D01*
X901293Y5128920D01*
X904392Y5124602D01*
X906221Y5116880D01*
X909269Y5112359D01*
X911250Y5104790D01*
X914146Y5101082D01*
X916635Y5092293D01*
X918870Y5089601D01*
X920953Y5081371D01*
X924001Y5077460D01*
X925728Y5069636D01*
X928827Y5065522D01*
X930808Y5058054D01*
X933805Y5053533D01*
X935736Y5046014D01*
X938733Y5042204D01*
X940562Y5034584D01*
X942797Y5030927D01*
X944118Y5027777D01*
X945083Y5024729D01*
X946353Y5021681D01*
X948486Y5018328D01*
X950417Y5011013D01*
X953363Y5006543D01*
X955040Y5000498D01*
X955751Y4998720D01*
X956564Y4997399D01*
X957783Y4996027D01*
X958138Y4995316D01*
X957884Y4994452D01*
X952398Y4994097D01*
X947674Y4997399D01*
X942340Y4998567D01*
X937971Y5001615D01*
X931519Y5003241D01*
X929335Y5005324D01*
X921664Y5007559D01*
X919480Y5009692D01*
X914501Y5011064D01*
X905865Y5015026D01*
X903884Y5015585D01*
X901293Y5016703D01*
X897077Y5019141D01*
X892860Y5019852D01*
X888288Y5023053D01*
X884580Y5023967D01*
X881837Y5025085D01*
X879398Y5026456D01*
X876604Y5027676D01*
X874115Y5028438D01*
X866800Y5031943D01*
X864311Y5032756D01*
X861771Y5033873D01*
X858977Y5035854D01*
X855167Y5036769D01*
X847394Y5040376D01*
X844753Y5041290D01*
X841756Y5042712D01*
X839216Y5044287D01*
X836676Y5045456D01*
X833831Y5046116D01*
X830834Y5044389D01*
X830884Y5042560D01*
X832764Y5029758D01*
X834847Y5024577D01*
X836472Y5017160D01*
X837793Y5009540D01*
X838758Y5006543D01*
X840536Y5002936D01*
X841959Y4993538D01*
X843483Y4987442D01*
X845464Y4983632D01*
X847394Y4969916D01*
X850442Y4963414D01*
X852373Y4950053D01*
X855370Y4942586D01*
X857300Y4929784D01*
X860196Y4923688D01*
X862228Y4910886D01*
X862888Y4908956D01*
X865022Y4904587D01*
X867003Y4890922D01*
X870051Y4883861D01*
X871931Y4870551D01*
X874014Y4865624D01*
X875131Y4862372D01*
X875995Y4858461D01*
X874877Y4856784D01*
X844956Y4856784D01*
X841806Y4855514D01*
X841197Y4853279D01*
X842670Y4849825D01*
X843940Y4847844D01*
X845159Y4846472D01*
X846328Y4844694D01*
X847699Y4841900D01*
X850341Y4838344D01*
X852881Y4833416D01*
X854151Y4831892D01*
X855370Y4830927D01*
X857199Y4825390D01*
X860196Y4822901D01*
X862126Y4817872D01*
X865124Y4815433D01*
X867156Y4809998D01*
X869238Y4807864D01*
X870559Y4805730D01*
X871524Y4803495D01*
X872845Y4801362D01*
X874115Y4799888D01*
X875537Y4797552D01*
X876706Y4795012D01*
X877925Y4793030D01*
X878890Y4792014D01*
X880211Y4790084D01*
X882243Y4786477D01*
X884580Y4783328D01*
X886714Y4778857D01*
X888034Y4777130D01*
X889508Y4775758D01*
X891540Y4770323D01*
X894486Y4768037D01*
X896416Y4762246D01*
X898753Y4760417D01*
X903833Y4761179D01*
X905510Y4763719D01*
X906627Y4766665D01*
X908100Y4772202D01*
X910640Y4774996D01*
X913028Y4783226D01*
X916076Y4787341D01*
X917651Y4794453D01*
X921359Y4800346D01*
X922883Y4807254D01*
X925677Y4810150D01*
X927658Y4817973D01*
X930656Y4821732D01*
X932535Y4829403D01*
X935532Y4833315D01*
X937615Y4841544D01*
X940308Y4844338D01*
X942644Y4854905D01*
X938377Y4856734D01*
X902716Y4856784D01*
X898855Y4857953D01*
X897483Y4974488D01*
X898804Y4975606D01*
X901395Y4974590D01*
X902969Y4973675D01*
X904240Y4972659D01*
X906526Y4971440D01*
X909116Y4970373D01*
X910844Y4969408D01*
X911402Y4968748D01*
X918768Y4964836D01*
X919683Y4964023D01*
X926541Y4960569D01*
X931316Y4957876D01*
X933754Y4957267D01*
X935075Y4955082D01*
X939190Y4953508D01*
X941374Y4952390D01*
X942746Y4951425D01*
X947267Y4949342D01*
X949350Y4948123D01*
X950721Y4947056D01*
X952855Y4945888D01*
X955192Y4944922D01*
X959053Y4942535D01*
X964641Y4939690D01*
X965911Y4938674D01*
X968197Y4937506D01*
X972667Y4935728D01*
X974090Y4934204D01*
X976020Y4933086D01*
X980744Y4930851D01*
X982370Y4929682D01*
X988263Y4926685D01*
X989330Y4925771D01*
X996187Y4922215D01*
X998169Y4920894D01*
X1000201Y4919878D01*
X1002893Y4919268D01*
X1005128Y4917287D01*
X1007516Y4915814D01*
X1011986Y4913477D01*
X1012850Y4912664D01*
X1019352Y4909464D01*
X1021943Y4907737D01*
X1026312Y4905908D01*
X1028750Y4907026D01*
X1029157Y4908397D01*
X1029309Y4910226D01*
X1029055Y4912512D01*
X1028344Y4915154D01*
X1025601Y4921453D01*
X1023874Y4932121D01*
X1020876Y4938369D01*
X1018844Y4950612D01*
X1015847Y4956403D01*
X1013968Y4967681D01*
X1010919Y4973574D01*
X1009396Y4982718D01*
X1008024Y4987442D01*
X1006043Y4990947D01*
X1004214Y5002428D01*
X1001217Y5008118D01*
X999236Y5020614D01*
X996340Y5026253D01*
X995070Y5033873D01*
X994460Y5036413D01*
X991514Y5043068D01*
X989482Y5054803D01*
X986536Y5060442D01*
X985164Y5069027D01*
X983640Y5074716D01*
X981557Y5078628D01*
X980287Y5086654D01*
X979576Y5089753D01*
X978763Y5092242D01*
X976731Y5096002D01*
X975360Y5103977D01*
X973785Y5109464D01*
X971753Y5113324D01*
X969873Y5125415D01*
X966876Y5131308D01*
X964437Y5144414D01*
X962101Y5148427D01*
X960119Y5159400D01*
X957071Y5165750D01*
X955141Y5177840D01*
X952093Y5183682D01*
X950214Y5195417D01*
X947877Y5199430D01*
G37*
G36*
X1992172Y4357776D02*
G01*
X99720Y4357268D01*
X-32664Y4357014D01*
X-32867Y4317339D01*
X-33070Y4105097D01*
X-32969Y3494227D01*
X-32766Y3351123D01*
X-27076Y3351123D01*
X-27076Y4348276D01*
X-24739Y4350613D01*
X1714855Y4350512D01*
X1912620Y4350308D01*
X1986178Y4349699D01*
X1987600Y4208068D01*
X1987092Y3351123D01*
X1983739Y3348634D01*
X-23723Y3348634D01*
X-27076Y3351123D01*
X-32766Y3351123D01*
X-32664Y3342741D01*
X27635Y3342487D01*
X404926Y3342284D01*
X1704035Y3342284D01*
X1992579Y3342589D01*
X1992833Y3386328D01*
X1993036Y3628491D01*
X1992934Y4268876D01*
X1992680Y4356912D01*
G37*
G36*
X1936242Y4303572D02*
G01*
X22707Y4303115D01*
X20980Y4300423D01*
X20935Y3448202D01*
X69443Y3448202D01*
X69443Y4251452D01*
X73456Y4254246D01*
X1886508Y4254093D01*
X1890522Y4252163D01*
X1890572Y3447135D01*
X1886000Y3445408D01*
X73456Y3445408D01*
X69443Y3448202D01*
X20935Y3448202D01*
X20929Y3398875D01*
X23774Y3396081D01*
X1936242Y3396081D01*
X1939036Y3398875D01*
X1939036Y4300728D01*
G37*
G36*
X1593291Y4202074D02*
G01*
X1591360Y4201922D01*
X1589836Y4201414D01*
X1588617Y4200652D01*
X1594205Y4183379D01*
X1595678Y4179366D01*
X1596847Y4177029D01*
X1597558Y4173982D01*
X1607058Y4147515D01*
X1616100Y4121404D01*
X1629511Y4083913D01*
X1631340Y4079595D01*
X1632712Y4074007D01*
X1634896Y4068724D01*
X1638807Y4057548D01*
X1640382Y4052214D01*
X1641297Y4050080D01*
X1642110Y4048963D01*
X1642618Y4047540D01*
X1642821Y4045915D01*
X1643481Y4043527D01*
X1649882Y4026306D01*
X1650949Y4024274D01*
X1651609Y4022242D01*
X1651762Y4020413D01*
X1652219Y4018483D01*
X1653336Y4016095D01*
X1666646Y3978859D01*
X1669542Y3970274D01*
X1672082Y3963873D01*
X1672691Y3961180D01*
X1674926Y3955440D01*
X1679651Y3941978D01*
X1680565Y3937965D01*
X1681327Y3935729D01*
X1683664Y3930700D01*
X1694129Y3900932D01*
X1696008Y3894937D01*
X1699209Y3886911D01*
X1699412Y3885641D01*
X1700123Y3883710D01*
X1702054Y3879900D01*
X1701038Y3875786D01*
X1692097Y3881069D01*
X1681937Y3887622D01*
X1677619Y3890721D01*
X1673555Y3892651D01*
X1672488Y3893413D01*
X1672082Y3894226D01*
X1670253Y3895598D01*
X1666036Y3898087D01*
X1623568Y3925570D01*
X1600504Y3940810D01*
X1552549Y3972001D01*
X1542948Y3978046D01*
X1540865Y3979621D01*
X1540205Y3980434D01*
X1527759Y3988003D01*
X1521053Y3991813D01*
X1519580Y3992372D01*
X1518767Y3992372D01*
X1518869Y3987444D01*
X1519428Y3983736D01*
X1522933Y3967835D01*
X1532077Y3923436D01*
X1541576Y3875735D01*
X1542846Y3872229D01*
X1543405Y3866743D01*
X1546809Y3851910D01*
X1549704Y3836720D01*
X1553006Y3821328D01*
X1554784Y3811574D01*
X1557477Y3799687D01*
X1571853Y3728059D01*
X1573072Y3720388D01*
X1573936Y3716578D01*
X1574698Y3714496D01*
X1576120Y3706114D01*
X1576882Y3702862D01*
X1577543Y3701846D01*
X1578000Y3700068D01*
X1578152Y3697478D01*
X1578813Y3693312D01*
X1583893Y3670046D01*
X1591614Y3631895D01*
X1593037Y3623157D01*
X1593545Y3618484D01*
X1592732Y3618484D01*
X1591056Y3619195D01*
X1583639Y3624326D01*
X1570685Y3634486D01*
X1555394Y3645966D01*
X1553311Y3647186D01*
X1550619Y3649421D01*
X1547215Y3651859D01*
X1545590Y3651961D01*
X1545894Y3650030D01*
X1549450Y3644849D01*
X1551178Y3641801D01*
X1552244Y3638905D01*
X1553565Y3637737D01*
X1557680Y3630523D01*
X1568856Y3611879D01*
X1580184Y3592271D01*
X1583893Y3586276D01*
X1588566Y3577945D01*
X1594053Y3569055D01*
X1599946Y3558590D01*
X1627784Y3510940D01*
X1630578Y3506825D01*
X1631442Y3505962D01*
X1632864Y3505047D01*
X1634083Y3507079D01*
X1634540Y3509111D01*
X1634693Y3511296D01*
X1635201Y3513429D01*
X1636064Y3515512D01*
X1643380Y3541623D01*
X1644650Y3545027D01*
X1645310Y3547922D01*
X1645462Y3550208D01*
X1645920Y3552088D01*
X1646631Y3553307D01*
X1647545Y3556152D01*
X1649628Y3564788D01*
X1659128Y3598265D01*
X1661160Y3606698D01*
X1663293Y3612845D01*
X1663496Y3614470D01*
X1676349Y3660546D01*
X1676755Y3663035D01*
X1676806Y3665982D01*
X1665071Y3653282D01*
X1650898Y3636619D01*
X1647494Y3632911D01*
X1642618Y3626510D01*
X1638147Y3626510D01*
X1637639Y3628339D01*
X1634236Y3674618D01*
X1633321Y3683457D01*
X1632457Y3689096D01*
X1631442Y3699611D01*
X1629460Y3729634D01*
X1628089Y3745280D01*
X1627581Y3748481D01*
X1625041Y3778910D01*
X1622958Y3807256D01*
X1621332Y3821226D01*
X1620062Y3841496D01*
X1618538Y3854043D01*
X1616862Y3873550D01*
X1619554Y3875684D01*
X1620824Y3875227D01*
X1685340Y3833520D01*
X1689354Y3831336D01*
X1692757Y3828440D01*
X1693824Y3828084D01*
X1705813Y3820007D01*
X1718411Y3812082D01*
X1763471Y3782669D01*
X1781708Y3771137D01*
X1785772Y3768801D01*
X1787347Y3768242D01*
X1788464Y3771087D01*
X1786483Y3777843D01*
X1783740Y3791254D01*
X1782673Y3794912D01*
X1782013Y3799128D01*
X1781860Y3802684D01*
X1781403Y3805631D01*
X1780133Y3809542D01*
X1777746Y3820668D01*
X1776018Y3830726D01*
X1775460Y3832250D01*
X1774545Y3836111D01*
X1764385Y3888333D01*
X1763572Y3893616D01*
X1762658Y3897680D01*
X1761337Y3901694D01*
X1759407Y3912260D01*
X1756867Y3924554D01*
X1754987Y3935171D01*
X1753514Y3939794D01*
X1751838Y3948379D01*
X1750009Y3959250D01*
X1749094Y3963314D01*
X1748282Y3965905D01*
X1741982Y3999280D01*
X1740255Y4005834D01*
X1730349Y4055872D01*
X1729282Y4059275D01*
X1727606Y4070858D01*
X1726590Y4073906D01*
X1724406Y4083507D01*
X1720697Y4102354D01*
X1719427Y4110685D01*
X1718157Y4115358D01*
X1703781Y4186885D01*
X1701749Y4193844D01*
X1700885Y4195470D01*
X1700123Y4196384D01*
X1669745Y4197705D01*
X1611325Y4200906D01*
G37*
G36*
X762863Y4190339D02*
G01*
X757021Y4190136D01*
X741578Y4188206D01*
X731774Y4183379D01*
X725068Y4179265D01*
X716432Y4172915D01*
X714502Y4169410D01*
X712927Y4167682D01*
X710590Y4166311D01*
X710539Y4163872D01*
X710082Y4162704D01*
X707593Y4159402D01*
X705256Y4153560D01*
X703021Y4145686D01*
X701192Y4136796D01*
X699617Y4127449D01*
X700227Y4119778D01*
X701153Y4112971D01*
X727303Y4112971D01*
X727303Y4136288D01*
X729437Y4143501D01*
X731316Y4148531D01*
X734314Y4155135D01*
X741172Y4161688D01*
X744372Y4164177D01*
X747776Y4165346D01*
X751484Y4167174D01*
X767638Y4168038D01*
X772312Y4166920D01*
X776173Y4165549D01*
X782167Y4162958D01*
X785571Y4159504D01*
X788670Y4155998D01*
X791108Y4152493D01*
X793140Y4148531D01*
X796950Y4138015D01*
X796340Y4107637D01*
X789482Y4093768D01*
X779932Y4085082D01*
X768705Y4080967D01*
X752348Y4081729D01*
X748334Y4083558D01*
X741680Y4087317D01*
X736549Y4092295D01*
X732434Y4099153D01*
X728776Y4108500D01*
X727303Y4112971D01*
X701153Y4112971D01*
X703224Y4102201D01*
X705307Y4094937D01*
X707847Y4090162D01*
X707898Y4089552D01*
X709472Y4086555D01*
X718616Y4074160D01*
X727405Y4067810D01*
X731774Y4065015D01*
X747572Y4059428D01*
X775868Y4059275D01*
X781202Y4060951D01*
X789127Y4063796D01*
X795680Y4067048D01*
X801573Y4071162D01*
X807567Y4076598D01*
X812698Y4081627D01*
X818438Y4093921D01*
X821436Y4101541D01*
X823874Y4110329D01*
X823214Y4139895D01*
X822045Y4145279D01*
X820521Y4150410D01*
X818286Y4156049D01*
X815492Y4161739D01*
X812292Y4167073D01*
X809142Y4171797D01*
X796340Y4182211D01*
X783793Y4188155D01*
X768756Y4190085D01*
G37*
G36*
X516788Y4190339D02*
G01*
X510133Y4190034D01*
X503275Y4189272D01*
X494639Y4187951D01*
X486105Y4184345D01*
X479958Y4180941D01*
X471728Y4175201D01*
X464718Y4166565D01*
X462330Y4162856D01*
X460197Y4158945D01*
X458419Y4154830D01*
X456844Y4150360D01*
X455574Y4145584D01*
X454507Y4140403D01*
X453080Y4130040D01*
X479094Y4130040D01*
X481177Y4139133D01*
X482854Y4145279D01*
X485495Y4153001D01*
X493166Y4161536D01*
X503682Y4167174D01*
X518210Y4167733D01*
X523189Y4167327D01*
X527456Y4166108D01*
X531825Y4164076D01*
X536651Y4161434D01*
X544830Y4152188D01*
X547268Y4144975D01*
X548640Y4138574D01*
X549960Y4128262D01*
X548894Y4108094D01*
X543255Y4096765D01*
X540156Y4092397D01*
X534974Y4086656D01*
X525170Y4081678D01*
X507796Y4080967D01*
X503478Y4082592D01*
X498093Y4084980D01*
X493572Y4087825D01*
X489762Y4091330D01*
X486664Y4095496D01*
X484174Y4100525D01*
X482244Y4106468D01*
X480872Y4113428D01*
X479856Y4121505D01*
X479094Y4130040D01*
X453080Y4130040D01*
X452577Y4126128D01*
X454812Y4104944D01*
X457403Y4096765D01*
X459841Y4090771D01*
X464058Y4082491D01*
X473659Y4072839D01*
X478485Y4068622D01*
X486918Y4064203D01*
X491947Y4062171D01*
X500938Y4059275D01*
X529640Y4059478D01*
X538175Y4062374D01*
X543864Y4064711D01*
X551180Y4068165D01*
X562559Y4079392D01*
X565556Y4082999D01*
X567944Y4086860D01*
X570534Y4091940D01*
X572516Y4096613D01*
X574040Y4101592D01*
X575157Y4107230D01*
X576834Y4122877D01*
X575868Y4140809D01*
X572465Y4151985D01*
X570687Y4156710D01*
X568706Y4160774D01*
X562000Y4171442D01*
X555244Y4176979D01*
X548995Y4181652D01*
X542848Y4185056D01*
X536143Y4187545D01*
X528320Y4189476D01*
X522935Y4190136D01*
G37*
G36*
X887577Y4190187D02*
G01*
X881837Y4189984D01*
X876300Y4189222D01*
X871016Y4188053D01*
X865987Y4186428D01*
X861263Y4184345D01*
X856843Y4181856D01*
X852779Y4178909D01*
X849020Y4175556D01*
X845718Y4171797D01*
X841654Y4165752D01*
X840130Y4162856D01*
X839063Y4159656D01*
X837184Y4155795D01*
X837742Y4154424D01*
X838809Y4153255D01*
X840790Y4152188D01*
X843280Y4151426D01*
X846785Y4151020D01*
X849477Y4150360D01*
X853135Y4149090D01*
X858723Y4148277D01*
X862990Y4148429D01*
X865327Y4154119D01*
X867816Y4158183D01*
X872337Y4163618D01*
X880770Y4167581D01*
X897839Y4167632D01*
X905916Y4163974D01*
X915365Y4155186D01*
X915466Y4153052D01*
X916178Y4151680D01*
X917194Y4150512D01*
X917956Y4148886D01*
X918870Y4143654D01*
X920750Y4137355D01*
X920750Y4110532D01*
X917346Y4100372D01*
X915568Y4096308D01*
X913688Y4093159D01*
X911352Y4090263D01*
X907796Y4086351D01*
X897432Y4081170D01*
X883462Y4081221D01*
X878586Y4083100D01*
X874877Y4085285D01*
X869543Y4089400D01*
X866343Y4094987D01*
X861009Y4107179D01*
X855421Y4105757D01*
X837641Y4100169D01*
X837336Y4097121D01*
X837895Y4094327D01*
X839978Y4089095D01*
X841756Y4085691D01*
X847648Y4077055D01*
X851611Y4072686D01*
X858875Y4065981D01*
X864666Y4063441D01*
X867359Y4062476D01*
X868680Y4062222D01*
X870661Y4061409D01*
X874471Y4059377D01*
X901446Y4059224D01*
X908710Y4061663D01*
X914400Y4064050D01*
X922680Y4068165D01*
X932992Y4077462D01*
X941374Y4089806D01*
X945134Y4102404D01*
X947623Y4112107D01*
X947521Y4127347D01*
X947115Y4135221D01*
X944930Y4148023D01*
X942543Y4154220D01*
X936142Y4167682D01*
X930452Y4173169D01*
X925271Y4177792D01*
X919835Y4181957D01*
X915212Y4184904D01*
X912266Y4186072D01*
X910590Y4186377D01*
X905306Y4188155D01*
X899668Y4189272D01*
X893521Y4189984D01*
G37*
G36*
X1093571Y4188764D02*
G01*
X1090879Y4187037D01*
X1090726Y4154068D01*
X1090320Y4140962D01*
X1090066Y4138676D01*
X1089456Y4137660D01*
X1050239Y4137660D01*
X1040079Y4135526D01*
X1033729Y4133545D01*
X1026515Y4130344D01*
X1018387Y4122877D01*
X1012748Y4113022D01*
X1010043Y4099051D01*
X1036624Y4099051D01*
X1039520Y4107942D01*
X1044549Y4112768D01*
X1058570Y4116120D01*
X1089456Y4116120D01*
X1090015Y4115206D01*
X1090523Y4110278D01*
X1091031Y4085183D01*
X1089507Y4082034D01*
X1070711Y4082135D01*
X1059129Y4082643D01*
X1046022Y4083964D01*
X1040180Y4089603D01*
X1036624Y4099051D01*
X1010043Y4099051D01*
X1009853Y4098086D01*
X1012596Y4084421D01*
X1015441Y4079443D01*
X1019048Y4073956D01*
X1022959Y4069689D01*
X1027582Y4066387D01*
X1033221Y4063796D01*
X1037437Y4062171D01*
X1066800Y4060951D01*
X1092403Y4060545D01*
X1114552Y4060545D01*
X1117396Y4063339D01*
X1117346Y4185615D01*
X1116330Y4187037D01*
X1115263Y4187850D01*
X1113383Y4188307D01*
X1107389Y4188612D01*
G37*
G36*
X587705Y4188764D02*
G01*
X587197Y4186326D01*
X587552Y4170172D01*
X600964Y4169308D01*
X607415Y4164380D01*
X617728Y4140200D01*
X621233Y4132884D01*
X627075Y4128262D01*
X627075Y4125214D01*
X625144Y4124604D01*
X620623Y4121861D01*
X615645Y4116425D01*
X610260Y4108500D01*
X604774Y4098340D01*
X589940Y4068826D01*
X588060Y4064457D01*
X588010Y4062476D01*
X589381Y4061460D01*
X591159Y4060494D01*
X615848Y4061002D01*
X638860Y4107687D01*
X646734Y4116222D01*
X653592Y4115663D01*
X654761Y4060748D01*
X676808Y4060545D01*
X680059Y4063492D01*
X680059Y4185970D01*
X677265Y4188764D01*
X655116Y4188764D01*
X654558Y4187342D01*
X654202Y4179163D01*
X653897Y4143705D01*
X653542Y4135577D01*
X653034Y4134256D01*
X648614Y4135374D01*
X645515Y4136796D01*
X641350Y4139641D01*
X636828Y4149344D01*
X626618Y4173626D01*
X614984Y4185665D01*
X602386Y4188764D01*
G37*
G36*
X429971Y4188714D02*
G01*
X339293Y4188307D01*
X338683Y4174591D01*
X338734Y4168901D01*
X338937Y4167835D01*
X339496Y4167124D01*
X405130Y4166819D01*
X406654Y4165295D01*
X407212Y4141165D01*
X405079Y4138574D01*
X345490Y4138574D01*
X343306Y4136390D01*
X343357Y4124807D01*
X343865Y4118457D01*
X344424Y4117035D01*
X404926Y4117035D01*
X407060Y4114901D01*
X407060Y4085031D01*
X403707Y4081983D01*
X358089Y4082135D01*
X340055Y4081881D01*
X337108Y4081678D01*
X336143Y4081068D01*
X336194Y4068673D01*
X336499Y4063187D01*
X337210Y4060545D01*
X430834Y4060647D01*
X433120Y4062577D01*
X433120Y4186885D01*
G37*
G36*
X985215Y4188510D02*
G01*
X971143Y4188307D01*
X969670Y4186834D01*
X969213Y4063695D01*
X970889Y4061104D01*
X993292Y4060494D01*
X996187Y4063339D01*
X996137Y4185615D01*
X995070Y4187088D01*
X993749Y4187901D01*
X991514Y4188307D01*
G37*
G36*
X1222146Y4188460D02*
G01*
X1175308Y4188053D01*
X1170838Y4186732D01*
X1164386Y4184192D01*
X1158494Y4180890D01*
X1154125Y4177487D01*
X1152398Y4174744D01*
X1152093Y4173728D01*
X1149908Y4171340D01*
X1148486Y4168597D01*
X1147216Y4165092D01*
X1146200Y4161231D01*
X1145286Y4156608D01*
X1146759Y4149090D01*
X1147326Y4147159D01*
X1171244Y4147159D01*
X1171244Y4157319D01*
X1174394Y4163618D01*
X1182471Y4166615D01*
X1218641Y4167428D01*
X1219301Y4166412D01*
X1219708Y4161840D01*
X1219911Y4139234D01*
X1218184Y4137507D01*
X1182471Y4138218D01*
X1175258Y4141368D01*
X1171244Y4147159D01*
X1147326Y4147159D01*
X1148435Y4144060D01*
X1151534Y4137660D01*
X1161999Y4128160D01*
X1152144Y4123740D01*
X1142593Y4113174D01*
X1140510Y4105910D01*
X1139444Y4101185D01*
X1138732Y4095496D01*
X1165860Y4095394D01*
X1165910Y4102252D01*
X1167587Y4105910D01*
X1169365Y4109008D01*
X1171752Y4111396D01*
X1174851Y4113276D01*
X1178864Y4114749D01*
X1183690Y4116120D01*
X1218895Y4116120D01*
X1219352Y4114952D01*
X1219758Y4109923D01*
X1220317Y4085183D01*
X1218793Y4082034D01*
X1200810Y4082135D01*
X1189228Y4082643D01*
X1175308Y4083964D01*
X1173327Y4085590D01*
X1171803Y4086504D01*
X1169568Y4087368D01*
X1165860Y4095394D01*
X1138761Y4095394D01*
X1141831Y4085082D01*
X1143762Y4080814D01*
X1146048Y4076852D01*
X1152347Y4068876D01*
X1165656Y4062374D01*
X1196492Y4060951D01*
X1217472Y4060545D01*
X1243888Y4060545D01*
X1246682Y4063339D01*
X1246682Y4185615D01*
X1245666Y4187037D01*
X1243990Y4188155D01*
X1233170Y4188460D01*
G37*
G36*
X653999Y4014673D02*
G01*
X652678Y4014470D01*
X651510Y4013708D01*
X650443Y4012641D01*
X650443Y3996029D01*
X657606Y3994912D01*
X665226Y3994099D01*
X670814Y3988765D01*
X683056Y3960215D01*
X687425Y3955796D01*
X689965Y3953814D01*
X690676Y3953814D01*
X689762Y3950309D01*
X687933Y3949750D01*
X685393Y3948633D01*
X682853Y3946804D01*
X680161Y3943858D01*
X677011Y3939387D01*
X673150Y3932986D01*
X662381Y3912870D01*
X650189Y3888994D01*
X651865Y3886301D01*
X674471Y3886606D01*
X677316Y3887114D01*
X679450Y3888282D01*
X681329Y3890518D01*
X683209Y3894023D01*
X688695Y3906316D01*
X696214Y3921760D01*
X700074Y3928872D01*
X706577Y3939387D01*
X710031Y3940759D01*
X712317Y3941165D01*
X715213Y3940810D01*
X715060Y3888790D01*
X717346Y3885946D01*
X739800Y3887012D01*
X740664Y3940810D01*
X744728Y3941419D01*
X749858Y3937711D01*
X754634Y3929684D01*
X763422Y3912412D01*
X775258Y3887419D01*
X777290Y3886758D01*
X782320Y3886403D01*
X803859Y3886657D01*
X804722Y3888994D01*
X783132Y3931869D01*
X778713Y3938727D01*
X775157Y3943350D01*
X771804Y3946601D01*
X766521Y3950106D01*
X764743Y3951732D01*
X764489Y3952240D01*
X765454Y3953764D01*
X771194Y3959047D01*
X774090Y3964990D01*
X781456Y3982465D01*
X784199Y3987901D01*
X786739Y3991203D01*
X789686Y3993438D01*
X792378Y3995064D01*
X803046Y3995064D01*
X804976Y3998671D01*
X804418Y4013454D01*
X788263Y4014012D01*
X780135Y4011523D01*
X776427Y4009694D01*
X773074Y4007307D01*
X770026Y4004310D01*
X767232Y4000652D01*
X764590Y3996182D01*
X762000Y3990949D01*
X755599Y3975506D01*
X750824Y3965397D01*
X748487Y3963212D01*
X746556Y3961790D01*
X744169Y3960418D01*
X742086Y3959555D01*
X740968Y3959504D01*
X739800Y4013454D01*
X717600Y4013962D01*
X715111Y4011879D01*
X715111Y3961180D01*
X713638Y3960622D01*
X710895Y3960825D01*
X707542Y3962450D01*
X704646Y3964787D01*
X696671Y3982262D01*
X692404Y3992118D01*
X687679Y4001719D01*
X679551Y4009999D01*
X670661Y4013250D01*
G37*
G36*
X1253490Y4013962D02*
G01*
X1228394Y4013454D01*
X1215593Y3982872D01*
X1207058Y3961180D01*
X1198727Y3941216D01*
X1198270Y3939489D01*
X1198118Y3937965D01*
X1197759Y3937101D01*
X1225448Y3937101D01*
X1225448Y3937914D01*
X1226667Y3942181D01*
X1231747Y3956812D01*
X1237335Y3970680D01*
X1239266Y3976471D01*
X1242923Y3982720D01*
X1247241Y3969664D01*
X1256944Y3942486D01*
X1257554Y3939286D01*
X1257350Y3937406D01*
X1256284Y3936746D01*
X1238453Y3936644D01*
X1229461Y3936796D01*
X1225448Y3937101D01*
X1197759Y3937101D01*
X1195933Y3934663D01*
X1194562Y3929583D01*
X1177696Y3888435D01*
X1179779Y3886758D01*
X1201369Y3886454D01*
X1205026Y3886555D01*
X1210462Y3900017D01*
X1213408Y3908044D01*
X1215288Y3914190D01*
X1217320Y3914698D01*
X1225143Y3915105D01*
X1240028Y3915257D01*
X1255268Y3915105D01*
X1264056Y3914698D01*
X1267510Y3914140D01*
X1270914Y3905351D01*
X1274978Y3893616D01*
X1276654Y3887927D01*
X1278280Y3886962D01*
X1282395Y3886555D01*
X1302664Y3886504D01*
X1303731Y3888638D01*
X1303477Y3890264D01*
X1298448Y3902557D01*
X1297533Y3905961D01*
X1290116Y3924350D01*
X1289659Y3926636D01*
X1288948Y3928313D01*
X1287475Y3930904D01*
X1287119Y3932834D01*
X1287119Y3934764D01*
X1284427Y3937000D01*
X1284376Y3939946D01*
X1283919Y3941318D01*
X1283258Y3942029D01*
X1282496Y3943654D01*
X1280922Y3948531D01*
X1273759Y3965803D01*
X1272641Y3969715D01*
X1267917Y3981602D01*
X1266037Y3985158D01*
X1265631Y3986428D01*
X1265478Y3987901D01*
X1264767Y3990086D01*
X1262278Y3995724D01*
X1258874Y4004665D01*
X1255776Y4011676D01*
X1254861Y4012793D01*
G37*
G36*
X415848Y4013962D02*
G01*
X413359Y4011879D01*
X413359Y3887571D01*
X414426Y3886911D01*
X418439Y3886454D01*
X437591Y3886149D01*
X438099Y3887470D01*
X438454Y3895801D01*
X438505Y3939032D01*
X439928Y3941216D01*
X488797Y3941724D01*
X489254Y3940556D01*
X489559Y3932072D01*
X489712Y3887571D01*
X490372Y3887165D01*
X494080Y3886758D01*
X512876Y3886149D01*
X514400Y3887622D01*
X515315Y4012539D01*
X513486Y4013911D01*
X490169Y4013454D01*
X489254Y3965956D01*
X487781Y3963670D01*
X439216Y3963924D01*
X438048Y4013454D01*
G37*
G36*
X310845Y4013962D02*
G01*
X285394Y4013454D01*
X285089Y3907383D01*
X285343Y3887927D01*
X285800Y3886149D01*
X307695Y3886504D01*
X309168Y3888841D01*
X309219Y3965397D01*
X310896Y3966413D01*
X315163Y3958945D01*
X326034Y3941267D01*
X337870Y3922674D01*
X355549Y3894023D01*
X360527Y3886555D01*
X384251Y3886555D01*
X386435Y3888740D01*
X386435Y4012844D01*
X385318Y4013301D01*
X381457Y4013708D01*
X367487Y4013708D01*
X363626Y4013352D01*
X362204Y4012844D01*
X362204Y3933190D01*
X360781Y3933393D01*
X359867Y3934053D01*
X358546Y3935577D01*
X353771Y3942791D01*
X317804Y4001668D01*
X312064Y4011472D01*
G37*
G36*
X1320546Y4013911D02*
G01*
X1318615Y4011574D01*
X1318564Y3888841D01*
X1320088Y3886403D01*
X1342237Y3886657D01*
X1344625Y3888638D01*
X1344422Y3939692D01*
X1345946Y3941165D01*
X1393952Y3941724D01*
X1394409Y3940556D01*
X1394714Y3932224D01*
X1395323Y3887317D01*
X1395780Y3886149D01*
X1418336Y3886454D01*
X1420926Y3888587D01*
X1420926Y4012844D01*
X1419809Y4013352D01*
X1415542Y4013606D01*
X1395323Y4013454D01*
X1394155Y3963924D01*
X1379016Y3963822D01*
X1345031Y3964127D01*
X1344574Y4012488D01*
X1342339Y4013860D01*
G37*
G36*
X1065377Y4013911D02*
G01*
X1063498Y4010456D01*
X1063650Y3906774D01*
X1064056Y3887978D01*
X1064615Y3886555D01*
X1088542Y3886555D01*
X1089050Y3887419D01*
X1089406Y3903116D01*
X1089660Y3991356D01*
X1091031Y3991864D01*
X1098651Y3992219D01*
X1137615Y3992372D01*
X1139393Y3991051D01*
X1139393Y3888232D01*
X1142441Y3885996D01*
X1164234Y3886250D01*
X1165860Y3888841D01*
X1165860Y4010456D01*
X1164031Y4013911D01*
G37*
G36*
X540969Y4013911D02*
G01*
X540461Y4013098D01*
X540004Y4009644D01*
X539242Y3996232D01*
X539292Y3993083D01*
X607771Y3991965D01*
X608126Y3974998D01*
X607822Y3965701D01*
X607314Y3963670D01*
X546709Y3963670D01*
X544118Y3961993D01*
X543763Y3945128D01*
X545287Y3942638D01*
X607771Y3941724D01*
X608126Y3920439D01*
X607872Y3909466D01*
X607415Y3907637D01*
X539343Y3908145D01*
X537210Y3905554D01*
X537108Y3889400D01*
X538886Y3886250D01*
X611479Y3886708D01*
X633069Y3887215D01*
X634288Y3887673D01*
X634288Y4012844D01*
X633171Y4013301D01*
X618998Y4013657D01*
G37*
G36*
X256794Y4013911D02*
G01*
X164185Y4013454D01*
X164185Y3992829D01*
X231140Y3991965D01*
X232714Y3989425D01*
X232917Y3966718D01*
X229616Y3963720D01*
X169570Y3963263D01*
X169570Y3942638D01*
X230479Y3942130D01*
X232867Y3940149D01*
X232867Y3910126D01*
X230276Y3907993D01*
X162915Y3908145D01*
X161036Y3904640D01*
X161036Y3887419D01*
X162153Y3887012D01*
X176733Y3886657D01*
X257098Y3886149D01*
X257556Y3887317D01*
X257860Y3906418D01*
X258013Y4012692D01*
G37*
G36*
X1015796Y4013657D02*
G01*
X971448Y4013250D01*
X959358Y4009644D01*
X955903Y4007307D01*
X950925Y4003141D01*
X946759Y3998112D01*
X943457Y3992168D01*
X940968Y3985260D01*
X939596Y3980383D01*
X939647Y3969512D01*
X939946Y3968394D01*
X966520Y3968394D01*
X966520Y3978808D01*
X967790Y3979722D01*
X968248Y3980840D01*
X968298Y3983075D01*
X972667Y3987037D01*
X976121Y3989324D01*
X981354Y3991610D01*
X1009192Y3992524D01*
X1011885Y3990644D01*
X1012342Y3958742D01*
X1010666Y3956202D01*
X995730Y3955542D01*
X977747Y3957624D01*
X975715Y3959250D01*
X973988Y3960164D01*
X971194Y3961079D01*
X969619Y3964787D01*
X968349Y3966768D01*
X966520Y3968394D01*
X939946Y3968394D01*
X943051Y3956608D01*
X949452Y3946651D01*
X958596Y3939946D01*
X963015Y3937914D01*
X968451Y3936492D01*
X975969Y3935374D01*
X985824Y3934206D01*
X1011224Y3934104D01*
X1011783Y3932682D01*
X1012190Y3925417D01*
X1012444Y3894429D01*
X1012799Y3887266D01*
X1013256Y3886047D01*
X1028598Y3886454D01*
X1036319Y3887012D01*
X1037488Y3887419D01*
X1037488Y4012844D01*
X1036319Y4013352D01*
X1033373Y4013555D01*
G37*
G36*
X854710Y4013555D02*
G01*
X821486Y4013454D01*
X821385Y3988815D01*
X847039Y3988815D01*
X848969Y3992372D01*
X872439Y3992168D01*
X882599Y3991813D01*
X892911Y3989476D01*
X896061Y3985564D01*
X897737Y3982212D01*
X899312Y3976928D01*
X898347Y3971899D01*
X896975Y3968496D01*
X894232Y3964127D01*
X886155Y3960164D01*
X847547Y3960571D01*
X847039Y3988815D01*
X821385Y3988815D01*
X821182Y3913479D01*
X821436Y3887927D01*
X821893Y3886149D01*
X844854Y3886758D01*
X847090Y3888587D01*
X847090Y3937457D01*
X849579Y3939540D01*
X862787Y3938473D01*
X870864Y3934815D01*
X877569Y3926484D01*
X883107Y3918762D01*
X903782Y3887927D01*
X907948Y3886149D01*
X931722Y3886403D01*
X934313Y3888994D01*
X920851Y3909923D01*
X917803Y3915664D01*
X910996Y3924655D01*
X903427Y3933545D01*
X897991Y3938524D01*
X896264Y3939794D01*
X895350Y3941216D01*
X894943Y3942740D01*
X908456Y3946906D01*
X915974Y3953357D01*
X919175Y3956558D01*
X922172Y3962196D01*
X923442Y3965803D01*
X925220Y3972204D01*
X925169Y3984751D01*
X923798Y3988815D01*
X921359Y3994912D01*
X918565Y3999992D01*
X915517Y4003852D01*
X912266Y4006443D01*
X907287Y4008932D01*
X902055Y4010914D01*
X896467Y4012387D01*
X890625Y4013352D01*
X878992Y4013555D01*
G37*
G36*
X1113739Y3841597D02*
G01*
X1109573Y3841343D01*
X1094841Y3837990D01*
X1090523Y3836415D01*
X1086154Y3834231D01*
X1075182Y3827221D01*
X1066241Y3817061D01*
X1058926Y3802735D01*
X1056132Y3791102D01*
X1055268Y3764178D01*
X1055406Y3763568D01*
X1082344Y3763568D01*
X1082344Y3788410D01*
X1086053Y3799179D01*
X1088186Y3804513D01*
X1096264Y3813251D01*
X1102360Y3816197D01*
X1107338Y3817823D01*
X1109726Y3818331D01*
X1118362Y3819144D01*
X1126185Y3818128D01*
X1133348Y3815181D01*
X1140104Y3810355D01*
X1144422Y3806545D01*
X1147775Y3799636D01*
X1149908Y3793490D01*
X1152398Y3783329D01*
X1152347Y3766870D01*
X1149756Y3756558D01*
X1146810Y3748938D01*
X1141933Y3742334D01*
X1135329Y3737000D01*
X1127252Y3733190D01*
X1121410Y3731260D01*
X1107948Y3732174D01*
X1098092Y3736695D01*
X1094384Y3740099D01*
X1091031Y3743655D01*
X1088339Y3747515D01*
X1086154Y3751935D01*
X1082344Y3763568D01*
X1055406Y3763568D01*
X1058011Y3752342D01*
X1059434Y3747871D01*
X1061262Y3743401D01*
X1066444Y3732784D01*
X1079246Y3720134D01*
X1091590Y3713886D01*
X1095502Y3712464D01*
X1102563Y3710482D01*
X1128572Y3709822D01*
X1140256Y3713226D01*
X1145946Y3715512D01*
X1150467Y3717696D01*
X1154074Y3720592D01*
X1154582Y3720693D01*
X1158290Y3723284D01*
X1163929Y3729228D01*
X1169009Y3735730D01*
X1171956Y3741521D01*
X1172972Y3743096D01*
X1174394Y3746449D01*
X1176680Y3754424D01*
X1177848Y3760317D01*
X1178712Y3766159D01*
X1179118Y3771950D01*
X1179169Y3777589D01*
X1178864Y3783177D01*
X1178204Y3788613D01*
X1177188Y3793896D01*
X1175766Y3799027D01*
X1173988Y3804005D01*
X1171905Y3808780D01*
X1169416Y3813352D01*
X1166622Y3817670D01*
X1163472Y3821785D01*
X1160018Y3825646D01*
X1151890Y3832910D01*
X1138478Y3838701D01*
X1124762Y3840987D01*
X1118463Y3841546D01*
G37*
G36*
X470154Y3841496D02*
G01*
X465328Y3841292D01*
X460146Y3840683D01*
X454761Y3839718D01*
X449376Y3838346D01*
X444195Y3836720D01*
X439369Y3834739D01*
X435051Y3832606D01*
X429971Y3829710D01*
X418287Y3817975D01*
X413207Y3807866D01*
X411175Y3802430D01*
X409448Y3796588D01*
X407247Y3786581D01*
X433679Y3786581D01*
X436067Y3794912D01*
X438048Y3800246D01*
X441147Y3806545D01*
X445414Y3810355D01*
X448970Y3813200D01*
X452170Y3815334D01*
X455574Y3816858D01*
X459638Y3818128D01*
X466598Y3819296D01*
X473354Y3819093D01*
X479704Y3817569D01*
X485597Y3814826D01*
X490829Y3810914D01*
X495401Y3805936D01*
X499059Y3799941D01*
X501751Y3793032D01*
X503326Y3787800D01*
X503275Y3761486D01*
X499922Y3752951D01*
X497281Y3747617D01*
X493217Y3741420D01*
X484682Y3735171D01*
X473303Y3731209D01*
X459638Y3732072D01*
X449326Y3736949D01*
X442214Y3743756D01*
X438150Y3751478D01*
X435914Y3756914D01*
X433781Y3764178D01*
X433679Y3786581D01*
X407247Y3786581D01*
X407060Y3785615D01*
X407009Y3763416D01*
X409752Y3752443D01*
X410819Y3749141D01*
X411480Y3746195D01*
X411632Y3744366D01*
X412089Y3743045D01*
X412902Y3742131D01*
X414477Y3739642D01*
X417423Y3733749D01*
X428701Y3721760D01*
X441451Y3714089D01*
X456946Y3709924D01*
X481736Y3709924D01*
X488848Y3712210D01*
X495706Y3715054D01*
X507390Y3720642D01*
X512419Y3725824D01*
X518210Y3732377D01*
X522427Y3738676D01*
X525627Y3745788D01*
X528320Y3754678D01*
X530098Y3761333D01*
X530098Y3788867D01*
X528218Y3796233D01*
X526643Y3801516D01*
X524662Y3806596D01*
X522376Y3811422D01*
X519785Y3815994D01*
X516940Y3820160D01*
X513842Y3823868D01*
X510641Y3827068D01*
X507288Y3829659D01*
X499973Y3834129D01*
X493014Y3837228D01*
X484936Y3839413D01*
X474421Y3841191D01*
G37*
G36*
X737108Y3840734D02*
G01*
X719328Y3840124D01*
X713638Y3839464D01*
X708558Y3838448D01*
X703986Y3836974D01*
X699820Y3834993D01*
X695858Y3832504D01*
X691997Y3829354D01*
X684022Y3821328D01*
X680161Y3813810D01*
X678434Y3809542D01*
X677519Y3805326D01*
X678992Y3802938D01*
X695452Y3799332D01*
X700735Y3798519D01*
X702614Y3800144D01*
X703326Y3801567D01*
X703427Y3802278D01*
X704392Y3804767D01*
X706882Y3808272D01*
X710133Y3811828D01*
X713536Y3814673D01*
X717346Y3817213D01*
X728675Y3819601D01*
X741578Y3817213D01*
X746099Y3813810D01*
X751281Y3809187D01*
X754989Y3803904D01*
X757631Y3797147D01*
X759612Y3788206D01*
X761085Y3779418D01*
X759917Y3764787D01*
X759104Y3758996D01*
X758037Y3754069D01*
X756767Y3749801D01*
X755142Y3745331D01*
X745185Y3735324D01*
X733602Y3731463D01*
X723646Y3731463D01*
X719734Y3733241D01*
X713841Y3736644D01*
X709117Y3740962D01*
X705510Y3746296D01*
X702970Y3752799D01*
X701598Y3757320D01*
X700024Y3757625D01*
X696366Y3756863D01*
X689559Y3754882D01*
X682599Y3752545D01*
X678332Y3750767D01*
X677164Y3750056D01*
X677773Y3746347D01*
X680008Y3739184D01*
X684174Y3731615D01*
X689914Y3724452D01*
X696569Y3718407D01*
X699160Y3716680D01*
X702056Y3715156D01*
X715518Y3710432D01*
X741629Y3709822D01*
X756462Y3715562D01*
X766724Y3722268D01*
X771448Y3727704D01*
X775411Y3732784D01*
X778916Y3738422D01*
X781862Y3744569D01*
X784301Y3751173D01*
X786434Y3757879D01*
X786282Y3792880D01*
X782980Y3803294D01*
X781456Y3807053D01*
X774446Y3819855D01*
X761949Y3831742D01*
X747877Y3838498D01*
G37*
G36*
X869391Y3839108D02*
G01*
X843178Y3838600D01*
X840994Y3834739D01*
X840130Y3832504D01*
X839114Y3828796D01*
X835253Y3819855D01*
X813106Y3764584D01*
X840638Y3764584D01*
X853948Y3801465D01*
X855319Y3804107D01*
X857758Y3807206D01*
X872337Y3766312D01*
X871778Y3762400D01*
X841654Y3761892D01*
X840638Y3764584D01*
X813106Y3764584D01*
X796391Y3723081D01*
X794156Y3717086D01*
X793394Y3713683D01*
X793699Y3712159D01*
X819912Y3711651D01*
X829259Y3736390D01*
X830071Y3739337D01*
X832103Y3739845D01*
X840384Y3740251D01*
X881176Y3740404D01*
X883005Y3737305D01*
X884275Y3734358D01*
X885698Y3729837D01*
X890371Y3718051D01*
X891235Y3715004D01*
X891946Y3713734D01*
X893927Y3711701D01*
X916940Y3711701D01*
X919022Y3714292D01*
X912215Y3731107D01*
X894994Y3775811D01*
X891489Y3784041D01*
X890371Y3787952D01*
X872591Y3833063D01*
X871829Y3836263D01*
X870813Y3837686D01*
G37*
G36*
X966317Y3838956D02*
G01*
X939393Y3838701D01*
X934719Y3838498D01*
X933297Y3837990D01*
X933297Y3713734D01*
X935786Y3711651D01*
X957986Y3712159D01*
X958900Y3817061D01*
X1007262Y3817569D01*
X1008786Y3816045D01*
X1008837Y3714038D01*
X1010767Y3711701D01*
X1032611Y3711701D01*
X1034796Y3713886D01*
X1034796Y3837990D01*
X1033627Y3838448D01*
X1017727Y3838854D01*
G37*
G36*
X645363Y3838905D02*
G01*
X628446Y3838600D01*
X627278Y3789070D01*
X579577Y3788816D01*
X578154Y3791102D01*
X577240Y3838600D01*
X552094Y3838600D01*
X551789Y3742537D01*
X552094Y3713734D01*
X552602Y3711701D01*
X575564Y3711701D01*
X577697Y3713886D01*
X577697Y3765296D01*
X580186Y3767328D01*
X625652Y3767226D01*
X627989Y3765296D01*
X627989Y3713886D01*
X630123Y3711701D01*
X652932Y3711701D01*
X653491Y3713124D01*
X653846Y3732225D01*
X654050Y3837838D01*
X653389Y3838498D01*
X649376Y3838854D01*
G37*
G36*
X561086Y3666845D02*
G01*
X553466Y3665524D01*
X546049Y3663848D01*
X539953Y3661613D01*
X534771Y3658565D01*
X529844Y3654450D01*
X525576Y3650335D01*
X523087Y3644950D01*
X521614Y3640582D01*
X520141Y3633876D01*
X522782Y3620973D01*
X526643Y3616401D01*
X528066Y3614420D01*
X533450Y3609543D01*
X537972Y3605834D01*
X538886Y3604818D01*
X538734Y3603802D01*
X537260Y3602634D01*
X532231Y3599891D01*
X527456Y3596589D01*
X521309Y3591102D01*
X516635Y3581755D01*
X516635Y3562858D01*
X522071Y3551428D01*
X530301Y3543198D01*
X538530Y3539337D01*
X543661Y3537356D01*
X549402Y3535629D01*
X576376Y3534968D01*
X585825Y3537051D01*
X590092Y3538270D01*
X600100Y3543300D01*
X607822Y3551834D01*
X611886Y3560318D01*
X613308Y3564280D01*
X613460Y3565296D01*
X613156Y3566617D01*
X604875Y3569563D01*
X596696Y3571900D01*
X590296Y3572916D01*
X586892Y3565093D01*
X582422Y3561079D01*
X578967Y3558794D01*
X573887Y3556609D01*
X556615Y3556660D01*
X548640Y3560622D01*
X543509Y3567023D01*
X543407Y3579063D01*
X545592Y3582212D01*
X547928Y3584549D01*
X552094Y3587800D01*
X560324Y3589782D01*
X565658Y3590544D01*
X572109Y3590645D01*
X573836Y3592880D01*
X574192Y3605631D01*
X572363Y3610406D01*
X561746Y3610406D01*
X556717Y3612692D01*
X553618Y3614521D01*
X550113Y3617163D01*
X546252Y3625850D01*
X546252Y3631996D01*
X549910Y3638600D01*
X551891Y3640836D01*
X554431Y3642614D01*
X561441Y3645560D01*
X573633Y3644849D01*
X581202Y3640023D01*
X587552Y3630117D01*
X589686Y3630269D01*
X599440Y3632758D01*
X610463Y3635044D01*
X611022Y3640480D01*
X606145Y3648456D01*
X602386Y3653282D01*
X596900Y3658615D01*
X588975Y3662273D01*
X582828Y3664407D01*
X573633Y3666642D01*
G37*
G36*
X753110Y3665321D02*
G01*
X749198Y3663238D01*
X749198Y3648252D01*
X750366Y3647287D01*
X753008Y3646424D01*
X757682Y3645712D01*
X763828Y3645103D01*
X769721Y3639921D01*
X773480Y3631692D01*
X776173Y3625240D01*
X777748Y3620719D01*
X779729Y3616198D01*
X783437Y3609035D01*
X788670Y3604209D01*
X789381Y3602888D01*
X788517Y3601720D01*
X782320Y3597401D01*
X778916Y3593947D01*
X775462Y3589375D01*
X771448Y3583025D01*
X749249Y3539236D01*
X751281Y3536797D01*
X772668Y3537051D01*
X777290Y3537762D01*
X779729Y3539947D01*
X793953Y3570478D01*
X801878Y3584194D01*
X804672Y3588410D01*
X806907Y3591102D01*
X811530Y3592372D01*
X813866Y3590442D01*
X813866Y3538728D01*
X817118Y3537000D01*
X836777Y3536899D01*
X839368Y3538524D01*
X839520Y3590594D01*
X841552Y3592677D01*
X848410Y3589324D01*
X852525Y3582873D01*
X857402Y3573627D01*
X863244Y3561740D01*
X868984Y3549446D01*
X873607Y3538778D01*
X877671Y3536899D01*
X901293Y3536950D01*
X904544Y3538677D01*
X889152Y3569411D01*
X882497Y3582060D01*
X877824Y3589324D01*
X873048Y3595014D01*
X867511Y3599942D01*
X863193Y3603396D01*
X871931Y3611981D01*
X874877Y3619652D01*
X876401Y3622852D01*
X877163Y3623818D01*
X877569Y3625037D01*
X877722Y3626662D01*
X878382Y3628898D01*
X881024Y3634536D01*
X883310Y3640074D01*
X889914Y3645306D01*
X902309Y3646474D01*
X904544Y3649268D01*
X904544Y3663187D01*
X901446Y3665169D01*
X883513Y3664000D01*
X872693Y3659581D01*
X866749Y3652265D01*
X864514Y3648964D01*
X862584Y3644087D01*
X856487Y3631082D01*
X855776Y3628898D01*
X853846Y3624630D01*
X848715Y3614369D01*
X841502Y3610203D01*
X839520Y3612235D01*
X839368Y3663746D01*
X814324Y3663746D01*
X813866Y3611829D01*
X811834Y3610559D01*
X806653Y3612387D01*
X804570Y3615182D01*
X802690Y3618179D01*
X797915Y3627983D01*
X790397Y3645255D01*
X785571Y3653282D01*
X780389Y3658615D01*
X774293Y3662070D01*
X769213Y3664102D01*
G37*
G36*
X1312824Y3664204D02*
G01*
X1225600Y3663746D01*
X1225143Y3560826D01*
X1251153Y3560826D01*
X1251661Y3642207D01*
X1287881Y3642715D01*
X1288389Y3641902D01*
X1288999Y3634892D01*
X1290675Y3602075D01*
X1291590Y3591560D01*
X1294333Y3576624D01*
X1296212Y3568700D01*
X1298549Y3560318D01*
X1296619Y3558387D01*
X1253185Y3558387D01*
X1251153Y3560826D01*
X1225143Y3560775D01*
X1223111Y3558387D01*
X1214323Y3558387D01*
X1214831Y3509518D01*
X1234795Y3509010D01*
X1235354Y3511042D01*
X1235760Y3515715D01*
X1236370Y3536137D01*
X1236827Y3537305D01*
X1296670Y3536950D01*
X1314602Y3536492D01*
X1315821Y3536035D01*
X1315923Y3519932D01*
X1316177Y3512769D01*
X1316939Y3509060D01*
X1335532Y3509060D01*
X1337411Y3512515D01*
X1337411Y3556254D01*
X1335227Y3558387D01*
X1331010Y3558438D01*
X1328318Y3558895D01*
X1325067Y3560064D01*
X1324203Y3563416D01*
X1319631Y3577336D01*
X1318666Y3582873D01*
X1317548Y3587546D01*
X1316075Y3596894D01*
X1313992Y3615334D01*
X1313992Y3648456D01*
X1313688Y3661511D01*
X1313434Y3663594D01*
G37*
G36*
X1098550Y3664204D02*
G01*
X1098702Y3557574D01*
X1099058Y3538270D01*
X1099616Y3536848D01*
X1120648Y3536848D01*
X1123848Y3539185D01*
X1123696Y3641750D01*
X1125728Y3642258D01*
X1132179Y3642512D01*
X1162151Y3642207D01*
X1162862Y3558844D01*
X1166317Y3547414D01*
X1174394Y3538931D01*
X1186992Y3535832D01*
X1205433Y3537102D01*
X1206957Y3539998D01*
X1206703Y3553053D01*
X1205992Y3555695D01*
X1204112Y3556711D01*
X1198067Y3557117D01*
X1193952Y3557778D01*
X1190040Y3559251D01*
X1187450Y3565499D01*
X1187348Y3641547D01*
X1186840Y3663594D01*
X1183132Y3663848D01*
X1159459Y3664153D01*
G37*
G36*
X632561Y3664204D02*
G01*
X632053Y3663289D01*
X631647Y3644595D01*
X631647Y3539236D01*
X633577Y3536848D01*
X652373Y3536848D01*
X655777Y3538677D01*
X655929Y3603244D01*
X656285Y3614928D01*
X657148Y3615690D01*
X658114Y3615436D01*
X659282Y3614064D01*
X663803Y3606139D01*
X672388Y3592576D01*
X673404Y3591560D01*
X675944Y3587038D01*
X694791Y3556406D01*
X704342Y3541420D01*
X706526Y3538524D01*
X708050Y3537051D01*
X731012Y3536848D01*
X732790Y3539083D01*
X732942Y3631437D01*
X732536Y3660495D01*
X731926Y3664204D01*
X709676Y3664204D01*
X708202Y3660140D01*
X707898Y3600907D01*
X707390Y3583381D01*
X706831Y3582466D01*
X694080Y3603802D01*
X689305Y3611321D01*
X687425Y3614775D01*
X661314Y3657396D01*
X659739Y3660444D01*
X656386Y3664204D01*
G37*
G36*
X405384Y3664204D02*
G01*
X396748Y3664051D01*
X392328Y3663645D01*
X390906Y3663086D01*
X390956Y3540607D01*
X394055Y3536797D01*
X416509Y3537305D01*
X417423Y3592017D01*
X465277Y3592474D01*
X468274Y3589477D01*
X467817Y3539032D01*
X469138Y3536848D01*
X491134Y3536848D01*
X493268Y3539032D01*
X493268Y3662984D01*
X492658Y3663645D01*
X488696Y3664000D01*
X467969Y3663746D01*
X467563Y3615639D01*
X465023Y3614013D01*
X418084Y3613962D01*
X417525Y3615994D01*
X417118Y3624224D01*
X416966Y3664204D01*
G37*
G36*
X263398Y3664204D02*
G01*
X263855Y3537305D01*
X282905Y3536797D01*
X287629Y3538575D01*
X287477Y3615029D01*
X289407Y3616960D01*
X290423Y3614318D01*
X293979Y3608933D01*
X302260Y3595573D01*
X304596Y3591306D01*
X315112Y3574999D01*
X316788Y3571697D01*
X334873Y3542995D01*
X337718Y3539032D01*
X340106Y3536848D01*
X361950Y3536848D01*
X364032Y3539337D01*
X364439Y3663289D01*
X363524Y3663696D01*
X352145Y3664102D01*
X341630Y3664204D01*
X340360Y3662121D01*
X340766Y3584549D01*
X337464Y3583889D01*
X310083Y3629304D01*
X309016Y3630472D01*
X307949Y3632860D01*
X296773Y3650945D01*
X289356Y3664204D01*
G37*
G36*
X1043330Y3664051D02*
G01*
X969670Y3663746D01*
X969457Y3611321D01*
X996137Y3611321D01*
X996594Y3642207D01*
X1035202Y3642614D01*
X1043381Y3639007D01*
X1047597Y3631336D01*
X1046784Y3620566D01*
X1042720Y3614826D01*
X1035202Y3610864D01*
X1010970Y3610457D01*
X998321Y3610762D01*
X996137Y3611321D01*
X969457Y3611321D01*
X969213Y3538728D01*
X973023Y3536696D01*
X994511Y3537458D01*
X996187Y3539998D01*
X996137Y3573119D01*
X996391Y3586530D01*
X996594Y3589020D01*
X997203Y3590493D01*
X1016000Y3588105D01*
X1020216Y3584397D01*
X1022553Y3581857D01*
X1042924Y3552850D01*
X1052474Y3538728D01*
X1054811Y3537508D01*
X1059332Y3537051D01*
X1080262Y3536899D01*
X1083157Y3539083D01*
X1064056Y3569614D01*
X1057757Y3577894D01*
X1052474Y3583889D01*
X1047191Y3588918D01*
X1041908Y3593287D01*
X1049883Y3595370D01*
X1054709Y3597198D01*
X1058976Y3599535D01*
X1062634Y3602278D01*
X1065834Y3605631D01*
X1068578Y3609492D01*
X1070914Y3613962D01*
X1072896Y3619093D01*
X1074420Y3623767D01*
X1073708Y3636822D01*
X1070711Y3644290D01*
X1068781Y3647948D01*
X1066647Y3651148D01*
X1060704Y3657650D01*
X1054506Y3660292D01*
X1049883Y3662019D01*
G37*
G36*
X-9068765Y3650487D02*
G01*
X-9532467Y3650284D01*
X-9535058Y3648100D01*
X-9537903Y3646424D01*
X-9543084Y3643934D01*
X-9545523Y3638804D01*
X-9547199Y3635959D01*
X-9549434Y3633317D01*
X-9549434Y2899867D01*
X-9535312Y2899867D01*
X-9535210Y3627628D01*
X-9532975Y3633876D01*
X-9526727Y3636111D01*
X-8754516Y3636111D01*
X-8748268Y3633876D01*
X-8746032Y3627628D01*
X-8745880Y2900222D01*
X-8748725Y2894787D01*
X-8754516Y2891231D01*
X-9526930Y2891231D01*
X-9531299Y2894279D01*
X-9533534Y2896616D01*
X-9535312Y2899867D01*
X-9549434Y2899867D01*
X-9549434Y2894380D01*
X-9546590Y2890621D01*
X-9545015Y2887675D01*
X-9543491Y2883357D01*
X-9540240Y2881782D01*
X-9527844Y2877616D01*
X-8753398Y2877616D01*
X-8742680Y2881376D01*
X-8739479Y2883001D01*
X-8737498Y2884678D01*
X-8736634Y2886964D01*
X-8735314Y2889453D01*
X-8731859Y2894431D01*
X-8731859Y3633063D01*
X-8738260Y3643934D01*
X-8748014Y3649167D01*
X-8749995Y3649979D01*
X-8777579Y3650183D01*
G37*
G36*
X-9263888Y3540963D02*
G01*
X-9273438Y3535984D01*
X-9275572Y3532174D01*
X-9280398Y3524656D01*
X-9284716Y3517188D01*
X-9288881Y3512565D01*
X-9292183Y3506673D01*
X-9296908Y3499612D01*
X-9298178Y3496919D01*
X-9298686Y3494786D01*
X-9303207Y3491839D01*
X-9305290Y3487165D01*
X-9307626Y3483305D01*
X-9310217Y3479749D01*
X-9311894Y3476904D01*
X-9312554Y3475278D01*
X-9315246Y3471824D01*
X-9322308Y3464407D01*
X-9326118Y3466744D01*
X-9335363Y3471468D01*
X-9338919Y3473704D01*
X-9340443Y3475177D01*
X-9343948Y3477260D01*
X-9351619Y3481324D01*
X-9352483Y3482441D01*
X-9355531Y3484422D01*
X-9364827Y3489502D01*
X-9367875Y3491534D01*
X-9371279Y3493008D01*
X-9376054Y3494074D01*
X-9379000Y3497732D01*
X-9381591Y3496462D01*
X-9381947Y3495598D01*
X-9381490Y3494481D01*
X-9378645Y3491484D01*
X-9376816Y3485134D01*
X-9374987Y3481019D01*
X-9371888Y3475736D01*
X-9367428Y3466490D01*
X-9354159Y3466490D01*
X-9351873Y3468928D01*
X-9350806Y3469132D01*
X-9349486Y3468471D01*
X-9345269Y3464356D01*
X-9335414Y3460343D01*
X-9334601Y3458870D01*
X-9332772Y3457244D01*
X-9321596Y3450894D01*
X-9312605Y3455212D01*
X-9309506Y3461004D01*
X-9307525Y3464153D01*
X-9305950Y3466185D01*
X-9304020Y3469182D01*
X-9302292Y3472383D01*
X-9300362Y3475024D01*
X-9298736Y3476650D01*
X-9296552Y3479749D01*
X-9292742Y3486353D01*
X-9291624Y3487521D01*
X-9287967Y3493770D01*
X-9285884Y3496665D01*
X-9283293Y3498240D01*
X-9281210Y3503320D01*
X-9279280Y3506622D01*
X-9277299Y3509213D01*
X-9273743Y3515156D01*
X-9271711Y3518052D01*
X-9267444Y3523234D01*
X-9264446Y3527806D01*
X-9261754Y3528364D01*
X-9242298Y3528822D01*
X-9139783Y3529177D01*
X-9136786Y3524656D01*
X-9139072Y3519271D01*
X-9140952Y3516426D01*
X-9141866Y3515461D01*
X-9143949Y3513886D01*
X-9145625Y3508603D01*
X-9147403Y3505250D01*
X-9149334Y3502507D01*
X-9151518Y3498443D01*
X-9153245Y3494227D01*
X-9155226Y3490722D01*
X-9156852Y3488740D01*
X-9158630Y3485692D01*
X-9160916Y3480409D01*
X-9164218Y3475278D01*
X-9165376Y3473043D01*
X-9150807Y3473043D01*
X-9149588Y3481171D01*
X-9145219Y3484981D01*
X-9142272Y3493770D01*
X-9138005Y3499053D01*
X-9136329Y3501847D01*
X-9135872Y3503574D01*
X-9134703Y3506317D01*
X-9130334Y3514242D01*
X-9126880Y3521456D01*
X-9119362Y3529177D01*
X-9067596Y3529025D01*
X-9053728Y3525875D01*
X-9049613Y3521862D01*
X-9044787Y3518560D01*
X-9041180Y3515106D01*
X-9037726Y3511194D01*
X-9033967Y3505606D01*
X-9030919Y3503117D01*
X-9028125Y3496208D01*
X-9026194Y3492804D01*
X-9024518Y3490874D01*
X-9022588Y3487724D01*
X-9020860Y3484067D01*
X-9018930Y3480765D01*
X-9017304Y3478682D01*
X-9015476Y3475482D01*
X-9013799Y3471926D01*
X-9011869Y3468776D01*
X-9010142Y3466744D01*
X-9008160Y3463188D01*
X-9006382Y3459073D01*
X-9004452Y3455619D01*
X-9002725Y3453637D01*
X-9000591Y3450031D01*
X-8997340Y3443528D01*
X-8993835Y3438347D01*
X-8990736Y3432149D01*
X-8987231Y3426968D01*
X-8982811Y3417519D01*
X-8980119Y3416503D01*
X-8977071Y3407105D01*
X-8973413Y3402939D01*
X-8970873Y3398672D01*
X-8968790Y3394405D01*
X-8967114Y3391662D01*
X-8966200Y3391052D01*
X-8965184Y3389731D01*
X-8963507Y3386277D01*
X-8973210Y3377793D01*
X-8978036Y3376218D01*
X-8981541Y3374237D01*
X-8984792Y3372002D01*
X-8988907Y3369818D01*
X-8992666Y3368344D01*
X-8995867Y3366617D01*
X-8997848Y3364992D01*
X-9001302Y3363061D01*
X-9005519Y3361334D01*
X-9009684Y3359200D01*
X-9012631Y3357321D01*
X-9016390Y3355390D01*
X-9019997Y3353866D01*
X-9023096Y3352088D01*
X-9025686Y3349447D01*
X-9035084Y3346704D01*
X-9039352Y3342182D01*
X-9049054Y3339337D01*
X-9051696Y3336798D01*
X-9054134Y3334867D01*
X-9056979Y3333445D01*
X-9060383Y3332530D01*
X-9068511Y3331819D01*
X-9071305Y3337509D01*
X-9073337Y3340506D01*
X-9076131Y3342894D01*
X-9078823Y3349751D01*
X-9080957Y3353562D01*
X-9082887Y3356051D01*
X-9084665Y3359099D01*
X-9085884Y3362248D01*
X-9088120Y3366008D01*
X-9090660Y3369259D01*
X-9092285Y3371850D01*
X-9092793Y3373424D01*
X-9099448Y3384651D01*
X-9100972Y3387902D01*
X-9102852Y3391001D01*
X-9104731Y3393338D01*
X-9106662Y3396742D01*
X-9108236Y3400247D01*
X-9110167Y3403650D01*
X-9112046Y3405987D01*
X-9113926Y3409086D01*
X-9115399Y3412185D01*
X-9117380Y3415436D01*
X-9119311Y3418078D01*
X-9121089Y3421481D01*
X-9122816Y3426764D01*
X-9126931Y3430015D01*
X-9130690Y3439972D01*
X-9133484Y3442665D01*
X-9135414Y3445764D01*
X-9137091Y3449218D01*
X-9138920Y3452368D01*
X-9140494Y3454501D01*
X-9145778Y3464102D01*
X-9146692Y3465372D01*
X-9147962Y3466388D01*
X-9149181Y3468420D01*
X-9150807Y3473043D01*
X-9165376Y3473043D01*
X-9168130Y3467658D01*
X-9170212Y3464712D01*
X-9172346Y3462426D01*
X-9176004Y3451758D01*
X-9179509Y3449320D01*
X-9182354Y3441954D01*
X-9184538Y3437839D01*
X-9186468Y3435146D01*
X-9188145Y3431895D01*
X-9189161Y3428898D01*
X-9190431Y3426409D01*
X-9192564Y3423869D01*
X-9194190Y3421126D01*
X-9195460Y3418332D01*
X-9196171Y3415588D01*
X-9197390Y3413404D01*
X-9199321Y3410762D01*
X-9201810Y3406495D01*
X-9203944Y3402076D01*
X-9206077Y3398367D01*
X-9207601Y3396589D01*
X-9208566Y3394811D01*
X-9208668Y3392373D01*
X-9201404Y3383229D01*
X-9197594Y3381806D01*
X-9194596Y3379876D01*
X-9188399Y3375304D01*
X-9185554Y3373678D01*
X-9183217Y3371850D01*
X-9181693Y3370224D01*
X-9178899Y3368395D01*
X-9173311Y3365906D01*
X-9173362Y3363722D01*
X-9173921Y3361944D01*
X-9175292Y3359200D01*
X-9252204Y3361131D01*
X-9300514Y3362706D01*
X-9301988Y3363163D01*
X-9304121Y3369106D01*
X-9306102Y3372713D01*
X-9308033Y3375406D01*
X-9309760Y3378657D01*
X-9310827Y3381756D01*
X-9312503Y3385210D01*
X-9314535Y3388258D01*
X-9316720Y3392576D01*
X-9318498Y3396894D01*
X-9320682Y3400907D01*
X-9322612Y3403600D01*
X-9324289Y3406901D01*
X-9326219Y3411778D01*
X-9330131Y3417976D01*
X-9331706Y3421735D01*
X-9332976Y3425901D01*
X-9338208Y3431895D01*
X-9340392Y3440937D01*
X-9344863Y3445154D01*
X-9347758Y3455060D01*
X-9351975Y3459327D01*
X-9354159Y3466490D01*
X-9367428Y3466490D01*
X-9364268Y3461664D01*
X-9362440Y3456838D01*
X-9360611Y3453129D01*
X-9358528Y3449726D01*
X-9356344Y3445459D01*
X-9354667Y3441496D01*
X-9352788Y3438093D01*
X-9351162Y3435908D01*
X-9349333Y3432505D01*
X-9347708Y3428593D01*
X-9345574Y3424377D01*
X-9343491Y3421024D01*
X-9341713Y3417315D01*
X-9339783Y3412388D01*
X-9337649Y3409086D01*
X-9335058Y3405835D01*
X-9332823Y3397707D01*
X-9328404Y3393592D01*
X-9325559Y3383737D01*
X-9320479Y3378454D01*
X-9318548Y3370681D01*
X-9314688Y3365703D01*
X-9312706Y3362096D01*
X-9310370Y3356305D01*
X-9308592Y3353358D01*
X-9297162Y3350514D01*
X-9222994Y3348380D01*
X-9141714Y3346450D01*
X-9139377Y3347974D01*
X-9137650Y3349447D01*
X-9137142Y3350768D01*
X-9137853Y3352037D01*
X-9143593Y3356406D01*
X-9145676Y3358489D01*
X-9149130Y3360877D01*
X-9152940Y3363010D01*
X-9155988Y3365144D01*
X-9157462Y3366719D01*
X-9159646Y3368446D01*
X-9162288Y3369970D01*
X-9165640Y3372358D01*
X-9168536Y3374847D01*
X-9170822Y3376472D01*
X-9172041Y3376980D01*
X-9177934Y3381400D01*
X-9181541Y3383787D01*
X-9184081Y3385108D01*
X-9185859Y3386480D01*
X-9186824Y3387801D01*
X-9189110Y3389782D01*
X-9194393Y3393236D01*
X-9193225Y3401568D01*
X-9189923Y3405276D01*
X-9187688Y3409187D01*
X-9184944Y3416096D01*
X-9181592Y3418484D01*
X-9178747Y3425799D01*
X-9176562Y3429914D01*
X-9174632Y3432657D01*
X-9172956Y3435908D01*
X-9171838Y3439058D01*
X-9169908Y3442715D01*
X-9167622Y3445916D01*
X-9165691Y3449472D01*
X-9164269Y3453739D01*
X-9163253Y3455517D01*
X-9161780Y3456686D01*
X-9156496Y3458921D01*
X-9154871Y3458921D01*
X-9153855Y3457549D01*
X-9151467Y3449574D01*
X-9148064Y3446170D01*
X-9145625Y3442360D01*
X-9143593Y3438194D01*
X-9141510Y3434537D01*
X-9139885Y3432454D01*
X-9138208Y3429558D01*
X-9136786Y3426460D01*
X-9135110Y3423564D01*
X-9133484Y3421430D01*
X-9131350Y3417722D01*
X-9129369Y3413556D01*
X-9127439Y3410407D01*
X-9126016Y3409035D01*
X-9124238Y3406241D01*
X-9122460Y3402431D01*
X-9120327Y3398824D01*
X-9118447Y3396437D01*
X-9116720Y3393389D01*
X-9115501Y3390239D01*
X-9113570Y3386886D01*
X-9111488Y3384092D01*
X-9109557Y3380790D01*
X-9108389Y3377844D01*
X-9106611Y3374898D01*
X-9103512Y3371646D01*
X-9099702Y3361436D01*
X-9095587Y3358743D01*
X-9093860Y3353358D01*
X-9091930Y3349802D01*
X-9089745Y3346958D01*
X-9087764Y3343706D01*
X-9086342Y3340709D01*
X-9084157Y3337001D01*
X-9081770Y3333648D01*
X-9079890Y3330295D01*
X-9078112Y3326434D01*
X-9075623Y3322980D01*
X-9072626Y3319576D01*
X-9069882Y3317138D01*
X-9068206Y3315919D01*
X-9062618Y3318001D01*
X-9059570Y3319627D01*
X-9055506Y3322421D01*
X-9037929Y3331565D01*
X-9033560Y3333648D01*
X-9027769Y3337306D01*
X-9024569Y3338576D01*
X-9021318Y3339439D01*
X-9015425Y3344824D01*
X-9005214Y3347110D01*
X-9003334Y3351225D01*
X-8991803Y3355086D01*
X-8989364Y3358591D01*
X-8978950Y3362147D01*
X-8974480Y3365957D01*
X-8972092Y3367430D01*
X-8969502Y3368040D01*
X-8967063Y3369106D01*
X-8964472Y3370579D01*
X-8961272Y3372865D01*
X-8958072Y3374542D01*
X-8954516Y3375964D01*
X-8950909Y3378149D01*
X-8949791Y3379520D01*
X-8956040Y3396640D01*
X-8959443Y3400399D01*
X-8961526Y3403701D01*
X-8962999Y3406851D01*
X-8964676Y3409746D01*
X-8966301Y3411829D01*
X-8968384Y3415537D01*
X-8970365Y3419703D01*
X-8972143Y3422751D01*
X-8973362Y3424174D01*
X-8975344Y3427628D01*
X-8979052Y3435756D01*
X-8981643Y3436721D01*
X-8985707Y3447592D01*
X-8987332Y3448710D01*
X-8988145Y3449523D01*
X-8990177Y3452825D01*
X-8992158Y3456940D01*
X-8993936Y3459987D01*
X-8995156Y3461359D01*
X-8997086Y3464763D01*
X-8999220Y3469284D01*
X-9001150Y3472637D01*
X-9002420Y3474059D01*
X-9004300Y3477361D01*
X-9006484Y3481882D01*
X-9008668Y3485540D01*
X-9010243Y3487369D01*
X-9012072Y3490264D01*
X-9013698Y3493719D01*
X-9015780Y3497122D01*
X-9018524Y3500932D01*
X-9021470Y3507384D01*
X-9025737Y3513226D01*
X-9027515Y3516020D01*
X-9032544Y3522776D01*
X-9039860Y3529076D01*
X-9048242Y3534206D01*
X-9056573Y3537254D01*
X-9061145Y3538423D01*
X-9064752Y3539642D01*
X-9067596Y3540912D01*
G37*
G36*
X-9365284Y3377539D02*
G01*
X-9366554Y3376980D01*
X-9368180Y3375507D01*
X-9369653Y3373526D01*
X-9371025Y3370579D01*
X-9372752Y3367735D01*
X-9374936Y3364737D01*
X-9376918Y3361182D01*
X-9378086Y3358184D01*
X-9379762Y3355187D01*
X-9381642Y3352850D01*
X-9383572Y3349447D01*
X-9385147Y3345891D01*
X-9387332Y3342233D01*
X-9391040Y3338118D01*
X-9393682Y3329279D01*
X-9396831Y3325723D01*
X-9398609Y3322624D01*
X-9400641Y3317951D01*
X-9403486Y3313734D01*
X-9405366Y3310331D01*
X-9406737Y3306978D01*
X-9408617Y3303574D01*
X-9411614Y3299155D01*
X-9415119Y3291586D01*
X-9419031Y3285693D01*
X-9420707Y3281832D01*
X-9422231Y3277362D01*
X-9427108Y3272790D01*
X-9430004Y3262833D01*
X-9433560Y3260648D01*
X-9436455Y3253232D01*
X-9438640Y3249066D01*
X-9440570Y3246424D01*
X-9442043Y3243732D01*
X-9447377Y3223869D01*
X-9448176Y3218129D01*
X-9436455Y3218129D01*
X-9433407Y3234639D01*
X-9432340Y3238754D01*
X-9431172Y3241243D01*
X-9427362Y3245408D01*
X-9425889Y3250336D01*
X-9424009Y3253943D01*
X-9420656Y3258870D01*
X-9417761Y3265322D01*
X-9414052Y3271012D01*
X-9410598Y3278581D01*
X-9406788Y3284220D01*
X-9403334Y3291382D01*
X-9399270Y3297326D01*
X-9395409Y3305606D01*
X-9391599Y3311245D01*
X-9388703Y3317595D01*
X-9384385Y3324199D01*
X-9381439Y3330752D01*
X-9377527Y3337153D01*
X-9373768Y3344570D01*
X-9371990Y3346958D01*
X-9370314Y3348583D01*
X-9367062Y3358845D01*
X-9360865Y3361588D01*
X-9359036Y3361944D01*
X-9357055Y3361588D01*
X-9350400Y3358997D01*
X-9346590Y3354171D01*
X-9341612Y3352495D01*
X-9338106Y3350564D01*
X-9335211Y3348482D01*
X-9332417Y3346805D01*
X-9329013Y3345129D01*
X-9323070Y3340862D01*
X-9317583Y3338169D01*
X-9313976Y3336036D01*
X-9311233Y3333851D01*
X-9307880Y3331718D01*
X-9304680Y3330244D01*
X-9301784Y3328517D01*
X-9299752Y3326942D01*
X-9296603Y3325063D01*
X-9293199Y3323488D01*
X-9290304Y3321659D01*
X-9288475Y3320084D01*
X-9284817Y3317900D01*
X-9276994Y3314293D01*
X-9275978Y3311601D01*
X-9267240Y3308400D01*
X-9263126Y3304032D01*
X-9263126Y3299002D01*
X-9267596Y3294786D01*
X-9269730Y3288690D01*
X-9271406Y3285540D01*
X-9273032Y3283661D01*
X-9274759Y3280562D01*
X-9276283Y3276955D01*
X-9278264Y3273094D01*
X-9280245Y3270046D01*
X-9282328Y3265982D01*
X-9283954Y3262020D01*
X-9285833Y3258565D01*
X-9287459Y3256381D01*
X-9289440Y3252978D01*
X-9291218Y3249117D01*
X-9293148Y3245764D01*
X-9294723Y3243681D01*
X-9296501Y3240532D01*
X-9298025Y3236976D01*
X-9300260Y3233318D01*
X-9304070Y3229102D01*
X-9306560Y3219551D01*
X-9310166Y3217011D01*
X-9312554Y3210763D01*
X-9314688Y3206800D01*
X-9316770Y3203702D01*
X-9318701Y3200196D01*
X-9319920Y3197098D01*
X-9321698Y3193846D01*
X-9323628Y3191256D01*
X-9325508Y3187750D01*
X-9326930Y3184398D01*
X-9328556Y3181299D01*
X-9330893Y3178149D01*
X-9332417Y3175609D01*
X-9333484Y3173120D01*
X-9334093Y3170478D01*
X-9335516Y3168192D01*
X-9339834Y3162350D01*
X-9342170Y3157931D01*
X-9345980Y3156813D01*
X-9354108Y3155899D01*
X-9366300Y3154934D01*
X-9401606Y3153206D01*
X-9410598Y3160064D01*
X-9412884Y3165906D01*
X-9414611Y3169107D01*
X-9416288Y3171342D01*
X-9418523Y3175152D01*
X-9420656Y3179318D01*
X-9422434Y3182112D01*
X-9423501Y3182924D01*
X-9425178Y3185718D01*
X-9427210Y3189986D01*
X-9429648Y3193999D01*
X-9432899Y3197707D01*
X-9435033Y3210966D01*
X-9436455Y3218129D01*
X-9448176Y3218129D01*
X-9448241Y3212490D01*
X-9445193Y3204260D01*
X-9443466Y3198672D01*
X-9441688Y3191560D01*
X-9437420Y3186328D01*
X-9435795Y3183737D01*
X-9434677Y3180892D01*
X-9430054Y3173323D01*
X-9428378Y3169716D01*
X-9427311Y3166465D01*
X-9423908Y3163112D01*
X-9421723Y3159810D01*
X-9420047Y3156305D01*
X-9418167Y3153156D01*
X-9416592Y3151124D01*
X-9414916Y3148279D01*
X-9413443Y3145129D01*
X-9411309Y3141522D01*
X-9409543Y3139033D01*
X-9397847Y3139033D01*
X-9395866Y3142132D01*
X-9371634Y3142996D01*
X-9286290Y3147568D01*
X-9252204Y3149193D01*
X-9244939Y3149955D01*
X-9240367Y3153968D01*
X-9238538Y3170428D01*
X-9237776Y3181299D01*
X-9237573Y3189427D01*
X-9237167Y3195421D01*
X-9236608Y3197860D01*
X-9235694Y3199231D01*
X-9234170Y3199892D01*
X-9231985Y3194812D01*
X-9229852Y3191306D01*
X-9227667Y3188309D01*
X-9225737Y3184804D01*
X-9224518Y3181756D01*
X-9222740Y3178860D01*
X-9219590Y3175711D01*
X-9216694Y3166668D01*
X-9211665Y3162096D01*
X-9209938Y3157169D01*
X-9208211Y3153968D01*
X-9206280Y3151327D01*
X-9204147Y3147669D01*
X-9202369Y3143910D01*
X-9200184Y3140202D01*
X-9198305Y3137611D01*
X-9196527Y3134410D01*
X-9195308Y3131312D01*
X-9193326Y3127908D01*
X-9189720Y3123590D01*
X-9187484Y3116173D01*
X-9182658Y3111296D01*
X-9180322Y3105099D01*
X-9178594Y3101949D01*
X-9177020Y3100019D01*
X-9174835Y3096310D01*
X-9171381Y3088589D01*
X-9173464Y3081020D01*
X-9174886Y3077819D01*
X-9176664Y3074873D01*
X-9179864Y3070758D01*
X-9181236Y3068523D01*
X-9181642Y3067100D01*
X-9182862Y3064967D01*
X-9184792Y3062427D01*
X-9187129Y3058515D01*
X-9190278Y3051860D01*
X-9194901Y3048254D01*
X-9197746Y3039922D01*
X-9201556Y3035452D01*
X-9203029Y3033115D01*
X-9203385Y3031693D01*
X-9204553Y3029661D01*
X-9206433Y3027121D01*
X-9209125Y3022752D01*
X-9211564Y3018129D01*
X-9213596Y3015081D01*
X-9214713Y3014319D01*
X-9216237Y3012033D01*
X-9217914Y3008477D01*
X-9220098Y3004820D01*
X-9222079Y3002127D01*
X-9224213Y2998419D01*
X-9226956Y2992221D01*
X-9231274Y2990240D01*
X-9232696Y2987497D01*
X-9234779Y2984500D01*
X-9236049Y2985922D01*
X-9236659Y2992577D01*
X-9236862Y3016504D01*
X-9237319Y3022650D01*
X-9238386Y3025495D01*
X-9243060Y3028289D01*
X-9276588Y3028543D01*
X-9299549Y3029305D01*
X-9328607Y3030778D01*
X-9332112Y3034030D01*
X-9334550Y3035808D01*
X-9337649Y3037484D01*
X-9340951Y3044952D01*
X-9342628Y3047796D01*
X-9343644Y3048711D01*
X-9345472Y3051759D01*
X-9347657Y3056331D01*
X-9349638Y3059785D01*
X-9351772Y3062630D01*
X-9356547Y3072739D01*
X-9358477Y3072739D01*
X-9362135Y3080715D01*
X-9364319Y3084423D01*
X-9365945Y3086303D01*
X-9368129Y3090011D01*
X-9370314Y3094532D01*
X-9372193Y3097834D01*
X-9373362Y3099104D01*
X-9374936Y3101848D01*
X-9377730Y3108198D01*
X-9380931Y3109925D01*
X-9383318Y3116122D01*
X-9385503Y3119882D01*
X-9387687Y3122726D01*
X-9390278Y3126841D01*
X-9392462Y3131108D01*
X-9394799Y3135122D01*
X-9397847Y3139033D01*
X-9409543Y3139033D01*
X-9407956Y3136392D01*
X-9406128Y3132378D01*
X-9404553Y3128060D01*
X-9401200Y3126282D01*
X-9397746Y3118866D01*
X-9395561Y3115157D01*
X-9393986Y3113024D01*
X-9392310Y3110128D01*
X-9390888Y3107029D01*
X-9389160Y3104134D01*
X-9387535Y3102051D01*
X-9385452Y3098342D01*
X-9382252Y3091180D01*
X-9379508Y3090113D01*
X-9377070Y3083814D01*
X-9374886Y3080054D01*
X-9372650Y3077159D01*
X-9370060Y3073044D01*
X-9363100Y3059887D01*
X-9360763Y3056280D01*
X-9358376Y3053588D01*
X-9356547Y3050540D01*
X-9354769Y3046730D01*
X-9352635Y3043123D01*
X-9350756Y3040735D01*
X-9349079Y3037687D01*
X-9347809Y3034588D01*
X-9345523Y3030778D01*
X-9340799Y3024581D01*
X-9339732Y3022904D01*
X-9338310Y3021533D01*
X-9335770Y3020060D01*
X-9278518Y3018586D01*
X-9258808Y3017824D01*
X-9249460Y3017113D01*
X-9247276Y3013303D01*
X-9246362Y2952089D01*
X-9242348Y2948127D01*
X-9240977Y2949244D01*
X-9239605Y2951327D01*
X-9238183Y2954731D01*
X-9236760Y2959100D01*
X-9233966Y2961741D01*
X-9232036Y2964688D01*
X-9230360Y2967990D01*
X-9228328Y2971342D01*
X-9225178Y2975813D01*
X-9221012Y2983280D01*
X-9218320Y2986735D01*
X-9213748Y2994863D01*
X-9212834Y2996082D01*
X-9211716Y2996946D01*
X-9209836Y3000044D01*
X-9207652Y3004616D01*
X-9205722Y3008020D01*
X-9204553Y3009290D01*
X-9200946Y3015437D01*
X-9198965Y3018383D01*
X-9197390Y3020161D01*
X-9195358Y3023463D01*
X-9193326Y3027680D01*
X-9190736Y3031896D01*
X-9188551Y3034741D01*
X-9187129Y3037027D01*
X-9186265Y3039414D01*
X-9182404Y3044952D01*
X-9180220Y3049016D01*
X-9178086Y3053689D01*
X-9173464Y3057296D01*
X-9170619Y3065627D01*
X-9166809Y3070047D01*
X-9165336Y3072384D01*
X-9164878Y3073908D01*
X-9163253Y3076498D01*
X-9159036Y3081680D01*
X-9157868Y3089097D01*
X-9159900Y3092958D01*
X-9161322Y3094685D01*
X-9163202Y3095548D01*
X-9165640Y3102051D01*
X-9167825Y3105962D01*
X-9171432Y3110179D01*
X-9174276Y3118815D01*
X-9177070Y3121507D01*
X-9179153Y3124809D01*
X-9180982Y3128568D01*
X-9182811Y3131616D01*
X-9184233Y3133293D01*
X-9185808Y3136341D01*
X-9187992Y3142742D01*
X-9193174Y3148025D01*
X-9195104Y3155188D01*
X-9199473Y3160522D01*
X-9201200Y3163163D01*
X-9201658Y3164738D01*
X-9207957Y3175508D01*
X-9209278Y3178505D01*
X-9211056Y3181400D01*
X-9212884Y3183839D01*
X-9215018Y3187801D01*
X-9217914Y3195218D01*
X-9221317Y3197098D01*
X-9223756Y3203651D01*
X-9225686Y3207156D01*
X-9227515Y3209442D01*
X-9229598Y3212896D01*
X-9233204Y3219958D01*
X-9234678Y3221939D01*
X-9236710Y3225342D01*
X-9240012Y3231997D01*
X-9243974Y3232556D01*
X-9246565Y3227425D01*
X-9247428Y3200552D01*
X-9248038Y3188665D01*
X-9248902Y3179622D01*
X-9250019Y3172053D01*
X-9252153Y3162096D01*
X-9256064Y3158947D01*
X-9277858Y3158794D01*
X-9295587Y3158388D01*
X-9322562Y3157372D01*
X-9324797Y3158896D01*
X-9325914Y3160217D01*
X-9326676Y3162300D01*
X-9323933Y3168599D01*
X-9322054Y3171748D01*
X-9320479Y3173679D01*
X-9318752Y3176778D01*
X-9316364Y3182975D01*
X-9311284Y3188462D01*
X-9308592Y3197301D01*
X-9305442Y3200857D01*
X-9303715Y3203905D01*
X-9302496Y3206953D01*
X-9300514Y3210458D01*
X-9298330Y3213557D01*
X-9296349Y3217113D01*
X-9295130Y3220161D01*
X-9293453Y3223463D01*
X-9291574Y3226308D01*
X-9289288Y3230422D01*
X-9287306Y3234537D01*
X-9285376Y3237788D01*
X-9283954Y3239465D01*
X-9282379Y3242614D01*
X-9280144Y3249218D01*
X-9275165Y3254197D01*
X-9272778Y3262680D01*
X-9268612Y3266287D01*
X-9266326Y3272332D01*
X-9264294Y3276142D01*
X-9262313Y3279190D01*
X-9260281Y3283204D01*
X-9258655Y3287115D01*
X-9256572Y3290925D01*
X-9254591Y3293719D01*
X-9252559Y3297580D01*
X-9249918Y3304082D01*
X-9249105Y3304946D01*
X-9248698Y3305911D01*
X-9248597Y3307740D01*
X-9254134Y3311651D01*
X-9259214Y3315766D01*
X-9262567Y3317748D01*
X-9266377Y3319526D01*
X-9269780Y3321456D01*
X-9271863Y3323082D01*
X-9275013Y3325012D01*
X-9278467Y3326739D01*
X-9281668Y3328822D01*
X-9284665Y3331819D01*
X-9293860Y3335121D01*
X-9294876Y3337814D01*
X-9301683Y3340912D01*
X-9305391Y3343351D01*
X-9306661Y3344418D01*
X-9308896Y3346856D01*
X-9316720Y3348837D01*
X-9318802Y3351428D01*
X-9322308Y3353714D01*
X-9326676Y3356000D01*
X-9330436Y3358387D01*
X-9332417Y3360165D01*
X-9335058Y3361740D01*
X-9338005Y3362960D01*
X-9341866Y3365144D01*
X-9345320Y3367582D01*
X-9348114Y3369208D01*
X-9349689Y3369665D01*
X-9352026Y3371189D01*
X-9356598Y3375101D01*
G37*
G36*
X-8997035Y3344976D02*
G01*
X-9003385Y3342284D01*
X-9006687Y3338271D01*
X-9007957Y3336188D01*
X-9008313Y3334918D01*
X-9009532Y3333191D01*
X-9012631Y3330143D01*
X-9015730Y3321812D01*
X-9020708Y3317036D01*
X-9022283Y3311702D01*
X-9024010Y3308350D01*
X-9025940Y3305606D01*
X-9028125Y3301847D01*
X-9029903Y3298088D01*
X-9031833Y3294735D01*
X-9033459Y3292652D01*
X-9035288Y3289452D01*
X-9036964Y3285896D01*
X-9039098Y3282442D01*
X-9041079Y3279952D01*
X-9042806Y3276752D01*
X-9044482Y3271520D01*
X-9049867Y3265627D01*
X-9051950Y3259582D01*
X-9053474Y3256686D01*
X-9054896Y3255010D01*
X-9056827Y3251758D01*
X-9058808Y3247593D01*
X-9061145Y3243630D01*
X-9063024Y3241040D01*
X-9064752Y3237839D01*
X-9065920Y3234791D01*
X-9067647Y3231794D01*
X-9069527Y3229356D01*
X-9071813Y3225393D01*
X-9075149Y3218840D01*
X-9061704Y3218840D01*
X-9061704Y3221736D01*
X-9058046Y3222650D01*
X-9058046Y3224733D01*
X-9057487Y3227679D01*
X-9056116Y3231337D01*
X-9054338Y3234639D01*
X-9052661Y3236671D01*
X-9050934Y3237890D01*
X-9047937Y3246983D01*
X-9041739Y3254400D01*
X-9041739Y3256026D01*
X-9041028Y3258007D01*
X-9037167Y3263747D01*
X-9032951Y3271875D01*
X-9029293Y3276854D01*
X-9027617Y3280359D01*
X-9026042Y3284626D01*
X-9020860Y3290112D01*
X-9018016Y3299663D01*
X-9016746Y3300171D01*
X-9016034Y3300780D01*
X-9014053Y3303778D01*
X-9009583Y3312210D01*
X-9007754Y3314954D01*
X-9003741Y3322574D01*
X-9001048Y3326485D01*
X-8998153Y3330194D01*
X-8995918Y3332479D01*
X-8993530Y3332886D01*
X-8987180Y3332987D01*
X-8949283Y3331972D01*
X-8923528Y3331565D01*
X-8880297Y3331362D01*
X-8876233Y3329330D01*
X-8875928Y3328466D01*
X-8877198Y3327450D01*
X-8884767Y3323945D01*
X-8886545Y3320592D01*
X-8896096Y3317544D01*
X-8899398Y3314141D01*
X-8902903Y3311753D01*
X-8909253Y3308705D01*
X-8910421Y3305759D01*
X-8908034Y3300780D01*
X-8904681Y3292195D01*
X-8902547Y3288182D01*
X-8900617Y3285490D01*
X-8899093Y3282746D01*
X-8897721Y3278682D01*
X-8896299Y3275685D01*
X-8894927Y3273348D01*
X-8893403Y3271926D01*
X-8891981Y3268929D01*
X-8889288Y3261106D01*
X-8886190Y3257550D01*
X-8884208Y3253892D01*
X-8882583Y3249980D01*
X-8880602Y3246272D01*
X-8877808Y3241903D01*
X-8874709Y3234486D01*
X-8871051Y3229457D01*
X-8869629Y3225495D01*
X-8869172Y3220669D01*
X-8869680Y3215386D01*
X-8870391Y3211474D01*
X-8874607Y3208731D01*
X-8878316Y3197809D01*
X-8882583Y3194456D01*
X-8884310Y3189274D01*
X-8886494Y3184855D01*
X-8889085Y3180638D01*
X-8891066Y3176727D01*
X-8891930Y3174238D01*
X-8893454Y3171393D01*
X-8895334Y3168599D01*
X-8897518Y3164738D01*
X-8899296Y3160979D01*
X-8901176Y3157677D01*
X-8902801Y3155594D01*
X-8904478Y3152444D01*
X-8906611Y3146704D01*
X-8911793Y3141218D01*
X-8913926Y3133090D01*
X-8917533Y3129026D01*
X-8919464Y3125724D01*
X-8920734Y3122574D01*
X-8922664Y3119170D01*
X-8925915Y3114903D01*
X-8929014Y3109874D01*
X-8930182Y3109214D01*
X-8931300Y3110077D01*
X-8933535Y3113938D01*
X-8935262Y3116427D01*
X-8936786Y3118053D01*
X-8938818Y3121152D01*
X-8940952Y3125063D01*
X-8943543Y3129076D01*
X-8946591Y3133090D01*
X-8948267Y3136950D01*
X-8953246Y3144316D01*
X-8955176Y3148126D01*
X-8956649Y3151733D01*
X-8960002Y3153511D01*
X-8962745Y3159556D01*
X-8965184Y3163417D01*
X-8967470Y3166262D01*
X-8968892Y3168599D01*
X-8969349Y3170123D01*
X-8970721Y3172409D01*
X-8972956Y3175254D01*
X-8975598Y3179572D01*
X-8978900Y3186785D01*
X-8981897Y3187954D01*
X-8984335Y3193440D01*
X-8986062Y3196234D01*
X-8987637Y3198012D01*
X-8989872Y3201670D01*
X-8993428Y3209493D01*
X-8996324Y3210610D01*
X-8999423Y3217468D01*
X-9001150Y3220415D01*
X-9003080Y3222802D01*
X-9007195Y3230422D01*
X-9013240Y3236214D01*
X-9016187Y3238449D01*
X-9016949Y3238804D01*
X-9018930Y3238398D01*
X-9021368Y3237433D01*
X-9023705Y3236163D01*
X-9025280Y3234842D01*
X-9026499Y3233369D01*
X-9038945Y3229660D01*
X-9044127Y3225241D01*
X-9052966Y3222345D01*
X-9056928Y3220618D01*
X-9058452Y3219551D01*
X-9059773Y3218942D01*
X-9075149Y3218840D01*
X-9077604Y3215538D01*
X-9086494Y3198622D01*
X-9085072Y3196590D01*
X-9083751Y3195624D01*
X-9081465Y3195066D01*
X-9076639Y3199587D01*
X-9066326Y3202533D01*
X-9061246Y3206800D01*
X-9050832Y3209798D01*
X-9046260Y3214065D01*
X-9035643Y3217011D01*
X-9034018Y3218789D01*
X-9031833Y3220364D01*
X-9028430Y3221786D01*
X-9024467Y3222955D01*
X-9020454Y3223564D01*
X-9016847Y3223818D01*
X-9013545Y3218027D01*
X-9011361Y3215081D01*
X-9009532Y3213201D01*
X-9007348Y3209950D01*
X-9005468Y3206242D01*
X-9003893Y3203752D01*
X-9002928Y3203041D01*
X-9001353Y3200450D01*
X-8999524Y3196640D01*
X-8997594Y3193389D01*
X-8995054Y3190290D01*
X-8990584Y3182569D01*
X-8987028Y3177844D01*
X-8985656Y3175558D01*
X-8985300Y3174136D01*
X-8984081Y3172053D01*
X-8982202Y3169564D01*
X-8980271Y3166465D01*
X-8978290Y3161893D01*
X-8981389Y3159201D01*
X-9058859Y3158236D01*
X-9087256Y3157677D01*
X-9110421Y3156915D01*
X-9129522Y3155950D01*
X-9142882Y3155035D01*
X-9148572Y3149346D01*
X-9149232Y3142742D01*
X-9150045Y3115208D01*
X-9151636Y3030474D01*
X-9139783Y3030474D01*
X-9139174Y3040735D01*
X-9138005Y3097022D01*
X-9137751Y3127654D01*
X-9137396Y3138525D01*
X-9137142Y3140405D01*
X-9133179Y3143859D01*
X-9054693Y3147212D01*
X-8995613Y3149142D01*
X-8972854Y3149650D01*
X-8967927Y3146399D01*
X-8966098Y3144469D01*
X-8964574Y3142132D01*
X-8961628Y3135274D01*
X-8958326Y3133496D01*
X-8955532Y3127349D01*
X-8953398Y3123844D01*
X-8950350Y3119780D01*
X-8946591Y3113024D01*
X-8944864Y3111347D01*
X-8943187Y3108553D01*
X-8941104Y3104337D01*
X-8938666Y3100273D01*
X-8935466Y3096564D01*
X-8940546Y3086811D01*
X-8942527Y3082493D01*
X-8942984Y3080867D01*
X-8944203Y3079089D01*
X-8947302Y3076092D01*
X-8949588Y3070098D01*
X-8951569Y3066643D01*
X-8953500Y3064103D01*
X-8955633Y3060242D01*
X-8958376Y3053283D01*
X-8963558Y3047187D01*
X-8967571Y3043072D01*
X-8974378Y3036671D01*
X-8980627Y3035046D01*
X-8985148Y3033318D01*
X-8991346Y3030220D01*
X-8998153Y3029559D01*
X-9042044Y3028696D01*
X-9133789Y3027578D01*
X-9139783Y3030474D01*
X-9151636Y3030474D01*
X-9151772Y3023006D01*
X-9148267Y3016910D01*
X-9143085Y3016554D01*
X-9123476Y3016758D01*
X-8985910Y3019806D01*
X-8970924Y3027324D01*
X-8966657Y3029762D01*
X-8962034Y3033064D01*
X-8957157Y3036925D01*
X-8952128Y3044139D01*
X-8949182Y3048965D01*
X-8947200Y3052724D01*
X-8945067Y3056229D01*
X-8943187Y3058769D01*
X-8941257Y3062427D01*
X-8939682Y3066186D01*
X-8937701Y3069742D01*
X-8935770Y3072282D01*
X-8933637Y3076041D01*
X-8931960Y3079953D01*
X-8930132Y3083407D01*
X-8928506Y3085490D01*
X-8926525Y3089249D01*
X-8923629Y3096666D01*
X-8920226Y3099054D01*
X-8917432Y3106369D01*
X-8915247Y3110484D01*
X-8913317Y3113125D01*
X-8911590Y3116326D01*
X-8910472Y3119323D01*
X-8908999Y3122117D01*
X-8907424Y3124250D01*
X-8905290Y3128060D01*
X-8903157Y3132582D01*
X-8900718Y3136798D01*
X-8898788Y3139490D01*
X-8897112Y3142640D01*
X-8895080Y3147263D01*
X-8891320Y3152851D01*
X-8889593Y3156712D01*
X-8888120Y3161182D01*
X-8882938Y3166719D01*
X-8880348Y3175355D01*
X-8875674Y3180029D01*
X-8874201Y3185058D01*
X-8872524Y3188309D01*
X-8870594Y3191002D01*
X-8868410Y3195066D01*
X-8866632Y3199282D01*
X-8864701Y3202838D01*
X-8863025Y3204870D01*
X-8861044Y3208477D01*
X-8859316Y3212693D01*
X-8856522Y3217570D01*
X-8854744Y3219450D01*
X-8862161Y3234537D01*
X-8864142Y3238042D01*
X-8867343Y3242462D01*
X-8868511Y3249472D01*
X-8873794Y3255365D01*
X-8875928Y3261461D01*
X-8877604Y3264611D01*
X-8879230Y3266643D01*
X-8881414Y3270758D01*
X-8883497Y3275787D01*
X-8885682Y3279901D01*
X-8886545Y3280968D01*
X-8888323Y3282594D01*
X-8891066Y3292043D01*
X-8895689Y3298037D01*
X-8896299Y3299764D01*
X-8895435Y3301593D01*
X-8889746Y3307994D01*
X-8883904Y3310585D01*
X-8880754Y3312414D01*
X-8878620Y3313988D01*
X-8874861Y3315919D01*
X-8867495Y3318764D01*
X-8865666Y3322116D01*
X-8858300Y3325571D01*
X-8854541Y3327704D01*
X-8852458Y3329279D01*
X-8849817Y3330701D01*
X-8845550Y3332429D01*
X-8843213Y3333699D01*
X-8841740Y3335020D01*
X-8841181Y3336239D01*
X-8841181Y3337509D01*
X-8847937Y3340709D01*
X-8922512Y3341979D01*
X-8950858Y3342894D01*
X-8970873Y3344214D01*
G37*
G36*
X-9095740Y2824073D02*
G01*
X-9111132Y2822194D01*
X-9114231Y2820314D01*
X-9118041Y2818841D01*
X-9125559Y2816606D01*
X-9135770Y2806395D01*
X-9143796Y2790088D01*
X-9143796Y2783738D01*
X-9115348Y2783738D01*
X-9112859Y2791866D01*
X-9106916Y2794762D01*
X-9100108Y2797251D01*
X-9095435Y2798673D01*
X-9064802Y2798216D01*
X-9060738Y2797657D01*
X-9058046Y2792425D01*
X-9058046Y2761691D01*
X-9060992Y2759252D01*
X-9075115Y2758795D01*
X-9086697Y2758998D01*
X-9104376Y2759862D01*
X-9109811Y2764434D01*
X-9112504Y2767076D01*
X-9114485Y2769768D01*
X-9115348Y2783738D01*
X-9143796Y2783738D01*
X-9143796Y2768295D01*
X-9139732Y2759913D01*
X-9138158Y2756204D01*
X-9137142Y2752648D01*
X-9135059Y2749753D01*
X-9131858Y2746705D01*
X-9127794Y2743708D01*
X-9123121Y2740964D01*
X-9118142Y2738577D01*
X-9113012Y2736697D01*
X-9107982Y2735580D01*
X-9099346Y2734259D01*
X-9079230Y2734208D01*
X-9068816Y2733903D01*
X-9060078Y2733141D01*
X-9058046Y2726334D01*
X-9058046Y2681630D01*
X-9054287Y2677820D01*
X-9035491Y2678480D01*
X-9030665Y2682087D01*
X-9031071Y2805785D01*
X-9031427Y2820670D01*
X-9032646Y2821686D01*
X-9037624Y2824022D01*
G37*
G36*
X-9177528Y2824073D02*
G01*
X-9181033Y2820263D01*
X-9181896Y2785364D01*
X-9184284Y2782519D01*
X-9195054Y2788107D01*
X-9213850Y2788107D01*
X-9223248Y2783484D01*
X-9228988Y2781046D01*
X-9232036Y2778455D01*
X-9236913Y2773426D01*
X-9239351Y2770428D01*
X-9244533Y2762097D01*
X-9245295Y2760268D01*
X-9247225Y2753258D01*
X-9250426Y2738323D01*
X-9250476Y2728366D01*
X-9248867Y2720187D01*
X-9223451Y2720187D01*
X-9223400Y2737459D01*
X-9223044Y2745536D01*
X-9222130Y2750667D01*
X-9213138Y2761945D01*
X-9206433Y2765044D01*
X-9198254Y2765044D01*
X-9194952Y2763316D01*
X-9191904Y2761081D01*
X-9188348Y2757728D01*
X-9185097Y2753969D01*
X-9182811Y2750566D01*
X-9181592Y2748229D01*
X-9180372Y2729280D01*
X-9182404Y2711145D01*
X-9185198Y2709062D01*
X-9187281Y2706624D01*
X-9190278Y2702052D01*
X-9198610Y2700070D01*
X-9202420Y2699867D01*
X-9206128Y2700223D01*
X-9209887Y2701239D01*
X-9214154Y2702712D01*
X-9216186Y2706370D01*
X-9218117Y2708656D01*
X-9221317Y2711348D01*
X-9223451Y2720187D01*
X-9248867Y2720187D01*
X-9245549Y2703118D01*
X-9242094Y2699004D01*
X-9237675Y2692400D01*
X-9234881Y2689453D01*
X-9230969Y2685948D01*
X-9222232Y2679039D01*
X-9211868Y2676753D01*
X-9193733Y2676702D01*
X-9184284Y2679954D01*
X-9177375Y2678023D01*
X-9160510Y2678023D01*
X-9155988Y2682494D01*
X-9156496Y2820568D01*
X-9161068Y2824073D01*
G37*
G36*
X-7961426Y3590594D02*
G01*
X-7963966Y3588765D01*
X-7968742Y3583838D01*
X-7970672Y3581146D01*
X-7976514Y3574592D01*
X-7989824Y3558489D01*
X-7990789Y3556965D01*
X-8000136Y3546551D01*
X-8006638Y3538321D01*
X-8039963Y3498087D01*
X-8047786Y3488944D01*
X-8051190Y3487165D01*
X-8054746Y3488893D01*
X-8055508Y3489502D01*
X-8065668Y3493973D01*
X-8068919Y3495141D01*
X-8070138Y3497732D01*
X-8070545Y3508705D01*
X-8072475Y3519373D01*
X-8072983Y3523284D01*
X-8076946Y3528110D01*
X-8081111Y3530295D01*
X-8088122Y3530295D01*
X-8091424Y3528923D01*
X-8095589Y3524656D01*
X-8097062Y3517798D01*
X-8097469Y3515004D01*
X-8098180Y3512972D01*
X-8098790Y3508298D01*
X-8101177Y3506571D01*
X-8106257Y3507790D01*
X-8110981Y3509568D01*
X-8114284Y3510381D01*
X-8120481Y3511296D01*
X-8124190Y3513175D01*
X-8134197Y3514598D01*
X-8137956Y3516528D01*
X-8148269Y3517696D01*
X-8152079Y3518560D01*
X-8154568Y3519779D01*
X-8156448Y3521557D01*
X-8157819Y3523234D01*
X-8159546Y3528923D01*
X-8166709Y3536187D01*
X-8168182Y3537458D01*
X-8171332Y3539439D01*
X-8179663Y3541826D01*
X-8182864Y3543249D01*
X-8193735Y3544214D01*
X-8201609Y3544620D01*
X-8212378Y3544773D01*
X-8227161Y3543249D01*
X-8232343Y3541522D01*
X-8236051Y3540760D01*
X-8244230Y3536289D01*
X-8247532Y3532936D01*
X-8249716Y3530193D01*
X-8252510Y3526028D01*
X-8253628Y3518408D01*
X-8255050Y3517747D01*
X-8264093Y3515817D01*
X-8268970Y3514140D01*
X-8277047Y3513277D01*
X-8282279Y3510889D01*
X-8289696Y3509873D01*
X-8292592Y3508501D01*
X-8302193Y3505860D01*
X-8303310Y3505301D01*
X-8312505Y3502660D01*
X-8324900Y3497834D01*
X-8328659Y3496614D01*
X-8333028Y3494582D01*
X-8335822Y3493719D01*
X-8342020Y3490874D01*
X-8343696Y3490417D01*
X-8349792Y3487369D01*
X-8354314Y3485743D01*
X-8355126Y3487420D01*
X-8355584Y3490061D01*
X-8356092Y3495598D01*
X-8360257Y3503422D01*
X-8366455Y3509822D01*
X-8371078Y3511702D01*
X-8373973Y3513429D01*
X-8387334Y3513429D01*
X-8390382Y3511753D01*
X-8393684Y3511753D01*
X-8395766Y3514648D01*
X-8408416Y3529736D01*
X-8415274Y3538321D01*
X-8449868Y3579368D01*
X-8453272Y3583686D01*
X-8454390Y3584295D01*
X-8456980Y3585006D01*
X-8460130Y3583025D01*
X-8471306Y3573729D01*
X-8471916Y3573424D01*
X-8475522Y3568446D01*
X-8444992Y3531870D01*
X-8436203Y3521760D01*
X-8435136Y3520033D01*
X-8417306Y3498799D01*
X-8413924Y3495344D01*
X-8381187Y3495344D01*
X-8380882Y3496919D01*
X-8379815Y3497224D01*
X-8377986Y3497326D01*
X-8376107Y3496716D01*
X-8374380Y3495395D01*
X-8371890Y3491941D01*
X-8371890Y3488029D01*
X-8374024Y3486556D01*
X-8381187Y3495344D01*
X-8413924Y3495344D01*
X-8412683Y3493312D01*
X-8411514Y3492093D01*
X-8406231Y3485387D01*
X-8405266Y3481476D01*
X-8403996Y3478174D01*
X-8401405Y3472942D01*
X-8400764Y3472230D01*
X-8345830Y3472230D01*
X-8339632Y3474720D01*
X-8338058Y3475532D01*
X-8332724Y3477463D01*
X-8329269Y3479495D01*
X-8325002Y3480765D01*
X-8319363Y3483152D01*
X-8316975Y3483914D01*
X-8310880Y3486404D01*
X-8304987Y3488080D01*
X-8302853Y3489096D01*
X-8294878Y3491382D01*
X-8291931Y3492804D01*
X-8286597Y3493820D01*
X-8283498Y3494633D01*
X-8280298Y3496056D01*
X-8273796Y3497122D01*
X-8269528Y3498138D01*
X-8264194Y3499815D01*
X-8254746Y3500932D01*
X-8249970Y3502812D01*
X-8235696Y3504234D01*
X-8227161Y3506470D01*
X-8205165Y3507638D01*
X-8191957Y3507892D01*
X-8171535Y3506012D01*
X-8164372Y3504133D01*
X-8152333Y3503320D01*
X-8146796Y3500882D01*
X-8136331Y3499815D01*
X-8131556Y3498240D01*
X-8122818Y3496411D01*
X-8115604Y3494024D01*
X-8110880Y3492957D01*
X-8104124Y3490772D01*
X-8100669Y3489909D01*
X-8097723Y3488893D01*
X-8095996Y3488080D01*
X-8088833Y3485946D01*
X-8086648Y3484930D01*
X-8080451Y3482797D01*
X-8077047Y3481070D01*
X-8072780Y3479647D01*
X-8066836Y3477056D01*
X-8061807Y3475431D01*
X-8060334Y3472230D01*
X-8061959Y3471011D01*
X-8071256Y3470757D01*
X-8343595Y3470656D01*
X-8345830Y3472230D01*
X-8400764Y3472230D01*
X-8396681Y3467811D01*
X-8388350Y3463036D01*
X-8384489Y3459175D01*
X-8378573Y3452114D01*
X-8343239Y3452114D01*
X-8342579Y3453942D01*
X-8342020Y3454857D01*
X-8341156Y3455670D01*
X-8077352Y3455720D01*
X-8077149Y3452063D01*
X-8111591Y3410407D01*
X-8139125Y3377793D01*
X-8141258Y3374948D01*
X-8157667Y3355848D01*
X-8158530Y3356660D01*
X-8162137Y3361842D01*
X-8166506Y3366871D01*
X-8169148Y3368395D01*
X-8171027Y3369919D01*
X-8179765Y3372307D01*
X-8181238Y3372967D01*
X-8240471Y3373120D01*
X-8242706Y3372053D01*
X-8249666Y3370224D01*
X-8255304Y3366312D01*
X-8257133Y3364788D01*
X-8258454Y3363214D01*
X-8260588Y3359556D01*
X-8263077Y3355949D01*
X-8263890Y3355187D01*
X-8264448Y3354933D01*
X-8266379Y3357879D01*
X-8268258Y3360267D01*
X-8271865Y3364229D01*
X-8288578Y3383991D01*
X-8288985Y3384854D01*
X-8309406Y3409442D01*
X-8321852Y3423920D01*
X-8324291Y3427272D01*
X-8341715Y3447643D01*
X-8343239Y3452114D01*
X-8378573Y3452114D01*
X-8371382Y3443782D01*
X-8362035Y3432301D01*
X-8358682Y3428593D01*
X-8357108Y3426053D01*
X-8356092Y3423361D01*
X-8354618Y3409899D01*
X-8353501Y3405530D01*
X-8354110Y3404057D01*
X-8354872Y3403092D01*
X-8355898Y3402329D01*
X-8338007Y3402329D01*
X-8337346Y3403396D01*
X-8336381Y3402228D01*
X-8336229Y3401009D01*
X-8334705Y3401009D01*
X-8327542Y3393084D01*
X-8314842Y3377793D01*
X-8309609Y3371850D01*
X-8307578Y3369056D01*
X-8293032Y3351784D01*
X-8247176Y3351784D01*
X-8246109Y3354222D01*
X-8244890Y3356305D01*
X-8241385Y3357270D01*
X-8185200Y3357118D01*
X-8178850Y3356610D01*
X-8177377Y3356152D01*
X-8173364Y3352749D01*
X-8173770Y3348736D01*
X-8180831Y3344926D01*
X-8240928Y3345230D01*
X-8245856Y3348075D01*
X-8247125Y3349802D01*
X-8247176Y3351784D01*
X-8293032Y3351784D01*
X-8274216Y3328924D01*
X-8242147Y3328924D01*
X-8240826Y3330244D01*
X-8187690Y3330346D01*
X-8180882Y3330143D01*
X-8179866Y3328924D01*
X-8183625Y3324656D01*
X-8189061Y3318001D01*
X-8190331Y3316122D01*
X-8196224Y3309569D01*
X-8199678Y3305048D01*
X-8207756Y3295548D01*
X-8211007Y3292754D01*
X-8215172Y3296665D01*
X-8221522Y3303879D01*
X-8234273Y3319526D01*
X-8239150Y3325114D01*
X-8242147Y3328924D01*
X-8274216Y3328924D01*
X-8246364Y3295853D01*
X-8245703Y3294634D01*
X-8237067Y3284728D01*
X-8231784Y3278276D01*
X-8229600Y3275279D01*
X-8228336Y3272942D01*
X-8193887Y3272942D01*
X-8193024Y3274872D01*
X-8189874Y3279038D01*
X-8179511Y3291027D01*
X-8169605Y3303219D01*
X-8136788Y3342386D01*
X-8130387Y3350463D01*
X-8110474Y3373932D01*
X-8058251Y3436569D01*
X-8057032Y3437737D01*
X-8054187Y3441547D01*
X-8051190Y3444951D01*
X-8049615Y3442563D01*
X-8051088Y3421735D01*
X-8052104Y3419805D01*
X-8053882Y3386632D01*
X-8055813Y3373678D01*
X-8056676Y3353714D01*
X-8059115Y3334715D01*
X-8059928Y3318814D01*
X-8060944Y3307943D01*
X-8062163Y3298037D01*
X-8063382Y3276244D01*
X-8064804Y3266795D01*
X-8065770Y3256026D01*
X-8066481Y3244951D01*
X-8068005Y3230270D01*
X-8070646Y3199130D01*
X-8071662Y3191662D01*
X-8072526Y3182569D01*
X-8073440Y3166922D01*
X-8075066Y3156712D01*
X-8076133Y3146450D01*
X-8076742Y3134766D01*
X-8077758Y3132480D01*
X-8079079Y3134055D01*
X-8081264Y3135630D01*
X-8085886Y3141624D01*
X-8092084Y3148888D01*
X-8093709Y3151479D01*
X-8095132Y3152800D01*
X-8122462Y3185109D01*
X-8123326Y3186480D01*
X-8129066Y3193034D01*
X-8144154Y3211576D01*
X-8153908Y3222650D01*
X-8157464Y3227527D01*
X-8184286Y3259277D01*
X-8190636Y3267303D01*
X-8192770Y3269030D01*
X-8193786Y3270910D01*
X-8193887Y3272942D01*
X-8228336Y3272942D01*
X-8227974Y3272180D01*
X-8228533Y3271723D01*
X-8229346Y3268979D01*
X-8231886Y3266490D01*
X-8249767Y3245002D01*
X-8261807Y3231032D01*
X-8263788Y3228086D01*
X-8275980Y3213811D01*
X-8278114Y3211576D01*
X-8279892Y3208782D01*
X-8285073Y3202940D01*
X-8288121Y3198977D01*
X-8292185Y3194354D01*
X-8293506Y3192475D01*
X-8305546Y3178606D01*
X-8309508Y3174644D01*
X-8310880Y3173831D01*
X-8312099Y3176422D01*
X-8312861Y3188766D01*
X-8314080Y3198774D01*
X-8315096Y3204057D01*
X-8316315Y3218180D01*
X-8318296Y3231794D01*
X-8319719Y3247390D01*
X-8321598Y3259531D01*
X-8322919Y3277158D01*
X-8324291Y3283762D01*
X-8325307Y3292094D01*
X-8326526Y3306876D01*
X-8328558Y3318306D01*
X-8329675Y3336594D01*
X-8331555Y3344570D01*
X-8332774Y3360775D01*
X-8333790Y3369208D01*
X-8334451Y3372205D01*
X-8335822Y3387648D01*
X-8337042Y3398215D01*
X-8338007Y3402329D01*
X-8355898Y3402329D01*
X-8356396Y3401974D01*
X-8389213Y3401923D01*
X-8397849Y3400196D01*
X-8401659Y3397605D01*
X-8404606Y3395116D01*
X-8408822Y3390798D01*
X-8411921Y3381400D01*
X-8411477Y3378555D01*
X-8395716Y3378555D01*
X-8394700Y3383178D01*
X-8389721Y3386531D01*
X-8358378Y3386632D01*
X-8352231Y3386124D01*
X-8350250Y3384296D01*
X-8349234Y3375304D01*
X-8350808Y3373932D01*
X-8388299Y3373932D01*
X-8391702Y3374847D01*
X-8395716Y3378555D01*
X-8411477Y3378555D01*
X-8410041Y3373120D01*
X-8408720Y3369056D01*
X-8405215Y3365703D01*
X-8402726Y3363620D01*
X-8399221Y3361080D01*
X-8390483Y3358184D01*
X-8351062Y3358235D01*
X-8348573Y3356101D01*
X-8345982Y3336391D01*
X-8345373Y3328314D01*
X-8344509Y3321507D01*
X-8342884Y3313074D01*
X-8341969Y3297072D01*
X-8340547Y3289401D01*
X-8340090Y3285388D01*
X-8339074Y3282035D01*
X-8338972Y3274618D01*
X-8338007Y3265830D01*
X-8336635Y3255924D01*
X-8335975Y3249422D01*
X-8335314Y3239160D01*
X-8333892Y3232099D01*
X-8332673Y3221634D01*
X-8332317Y3215944D01*
X-8331555Y3209848D01*
X-8329625Y3197809D01*
X-8328253Y3179114D01*
X-8327136Y3177032D01*
X-8326069Y3166770D01*
X-8325662Y3159810D01*
X-8325764Y3155797D01*
X-8336076Y3143351D01*
X-8337042Y3141827D01*
X-8340954Y3137611D01*
X-8306053Y3137611D01*
X-8305698Y3139998D01*
X-8294014Y3154070D01*
X-8290204Y3158337D01*
X-8285327Y3164382D01*
X-8269478Y3183178D01*
X-8261908Y3192780D01*
X-8250580Y3205886D01*
X-8244992Y3213150D01*
X-8222030Y3240430D01*
X-8213648Y3249828D01*
X-8210803Y3252673D01*
X-8203031Y3243681D01*
X-8201507Y3241395D01*
X-8200898Y3241040D01*
X-8177377Y3213354D01*
X-8172094Y3206597D01*
X-8157921Y3189833D01*
X-8144256Y3173171D01*
X-8141512Y3170174D01*
X-8138007Y3165703D01*
X-8126984Y3152800D01*
X-8125917Y3151174D01*
X-8097520Y3117596D01*
X-8095437Y3114497D01*
X-8089798Y3108147D01*
X-8082788Y3099511D01*
X-8080959Y3095701D01*
X-8081772Y3092043D01*
X-8082483Y3085033D01*
X-8083346Y3073095D01*
X-8085124Y3062224D01*
X-8086801Y3045460D01*
X-8088680Y3043783D01*
X-8234476Y3043580D01*
X-8234984Y3044748D01*
X-8236254Y3054705D01*
X-8237981Y3058464D01*
X-8238794Y3060801D01*
X-8239353Y3063443D01*
X-8240979Y3065729D01*
X-8243011Y3069945D01*
X-8244586Y3072130D01*
X-8256117Y3084068D01*
X-8259216Y3085744D01*
X-8261045Y3087166D01*
X-8264194Y3088487D01*
X-8267700Y3090672D01*
X-8272322Y3091891D01*
X-8274964Y3092856D01*
X-8277504Y3094177D01*
X-8301126Y3094177D01*
X-8302040Y3095802D01*
X-8302904Y3109874D01*
X-8305342Y3122218D01*
X-8306053Y3137611D01*
X-8340954Y3137611D01*
X-8372449Y3100171D01*
X-8380628Y3089859D01*
X-8386216Y3083407D01*
X-8413699Y3050235D01*
X-8418017Y3045409D01*
X-8427161Y3034233D01*
X-8438692Y3020669D01*
X-8445195Y3012490D01*
X-8455914Y3000044D01*
X-8456574Y2996184D01*
X-8447278Y2988310D01*
X-8440216Y2982772D01*
X-8437270Y2981248D01*
X-8430107Y2989275D01*
X-8413089Y3009442D01*
X-8407400Y3016504D01*
X-8396528Y3029407D01*
X-8393887Y3032963D01*
X-8391906Y3034893D01*
X-8362442Y3070301D01*
X-8361273Y3072180D01*
X-8352637Y3081934D01*
X-8341156Y3095802D01*
X-8337092Y3100425D01*
X-8327694Y3111855D01*
X-8324291Y3116478D01*
X-8320684Y3118612D01*
X-8319668Y3116021D01*
X-8318652Y3103727D01*
X-8317992Y3098393D01*
X-8317026Y3094024D01*
X-8316264Y3089148D01*
X-8317738Y3086709D01*
X-8320531Y3084068D01*
X-8325154Y3080613D01*
X-8329523Y3075533D01*
X-8334451Y3068116D01*
X-8338718Y3058820D01*
X-8340547Y3050133D01*
X-8341589Y3042513D01*
X-8321192Y3042513D01*
X-8319211Y3050489D01*
X-8318906Y3052724D01*
X-8317738Y3056178D01*
X-8316518Y3057753D01*
X-8315909Y3059074D01*
X-8310880Y3066338D01*
X-8308746Y3067253D01*
X-8306866Y3068574D01*
X-8303869Y3071114D01*
X-8302193Y3071215D01*
X-8295589Y3074212D01*
X-8281822Y3074365D01*
X-8278469Y3073654D01*
X-8276590Y3072942D01*
X-8269173Y3068828D01*
X-8265007Y3065373D01*
X-8261299Y3061766D01*
X-8257844Y3056128D01*
X-8256879Y3053537D01*
X-8255406Y3048457D01*
X-8255457Y3034741D01*
X-8256879Y3028645D01*
X-8258606Y3025749D01*
X-8262264Y3020720D01*
X-8266785Y3016046D01*
X-8271154Y3012592D01*
X-8278164Y3009595D01*
X-8283041Y3008528D01*
X-8289645Y3007817D01*
X-8293557Y3008680D01*
X-8299043Y3010662D01*
X-8300923Y3010763D01*
X-8307476Y3015030D01*
X-8311794Y3018586D01*
X-8313623Y3021076D01*
X-8314080Y3021380D01*
X-8318601Y3028594D01*
X-8321192Y3042513D01*
X-8341589Y3042513D01*
X-8342122Y3038449D01*
X-8339937Y3029813D01*
X-8338769Y3024225D01*
X-8334806Y3015488D01*
X-8332470Y3011678D01*
X-8329320Y3007258D01*
X-8324240Y3002026D01*
X-8318550Y2997352D01*
X-8310067Y2992424D01*
X-8308390Y2991256D01*
X-8303666Y2990646D01*
X-8300720Y2988868D01*
X-8292947Y2987852D01*
X-8277047Y2988208D01*
X-8274507Y2989376D01*
X-8267598Y2991307D01*
X-8258657Y2996336D01*
X-8254238Y2999435D01*
X-8250580Y3002584D01*
X-8247583Y3005836D01*
X-8242401Y3012643D01*
X-8239252Y3018231D01*
X-8236356Y3025546D01*
X-8235899Y3026257D01*
X-8234730Y3027324D01*
X-8133842Y3027476D01*
X-8131708Y3026308D01*
X-8132165Y3012694D01*
X-8131824Y3011932D01*
X-8115909Y3011932D01*
X-8115706Y3026511D01*
X-8114588Y3027832D01*
X-8104378Y3027832D01*
X-8103108Y3026359D01*
X-8103158Y3011932D01*
X-8105038Y3008325D01*
X-8106918Y3005277D01*
X-8111286Y3004972D01*
X-8112709Y3006699D01*
X-8114639Y3009595D01*
X-8115909Y3011932D01*
X-8131824Y3011932D01*
X-8130946Y3009798D01*
X-8130184Y3007207D01*
X-8129320Y3003042D01*
X-8126679Y2999435D01*
X-8124545Y2996031D01*
X-8122158Y2993847D01*
X-8119059Y2991967D01*
X-8115198Y2990342D01*
X-8111134Y2988919D01*
X-8107324Y2988767D01*
X-8101380Y2991002D01*
X-8099602Y2991866D01*
X-8093811Y2996031D01*
X-8091474Y3000146D01*
X-8089595Y3002889D01*
X-8087156Y3012490D01*
X-8087004Y3026460D01*
X-8085581Y3027070D01*
X-8076438Y3027680D01*
X-8073593Y3029051D01*
X-8071510Y3044037D01*
X-8070596Y3048914D01*
X-8068106Y3072790D01*
X-8066176Y3075127D01*
X-8064753Y3075940D01*
X-8053070Y3062274D01*
X-8051749Y3060293D01*
X-8050936Y3059734D01*
X-8049056Y3057093D01*
X-8044383Y3051962D01*
X-8041995Y3048660D01*
X-8036509Y3042513D01*
X-8028127Y3032099D01*
X-8021675Y3024733D01*
X-7992973Y2990037D01*
X-7982458Y2977946D01*
X-7976920Y2977946D01*
X-7965643Y2987395D01*
X-7963560Y2989529D01*
X-7961223Y2992882D01*
X-7962747Y2995371D01*
X-7979765Y3016148D01*
X-7982610Y3019348D01*
X-7990027Y3028594D01*
X-7998815Y3038805D01*
X-8001965Y3042869D01*
X-8008112Y3049778D01*
X-8010906Y3053435D01*
X-8032902Y3079953D01*
X-8037525Y3085033D01*
X-8041284Y3089960D01*
X-8062925Y3115919D01*
X-8062671Y3121152D01*
X-8061655Y3131159D01*
X-8060842Y3136188D01*
X-8059928Y3145282D01*
X-8059166Y3159302D01*
X-8057134Y3175863D01*
X-8055000Y3200755D01*
X-8054187Y3206089D01*
X-8053171Y3217418D01*
X-8052816Y3226003D01*
X-8051952Y3234537D01*
X-8050834Y3241802D01*
X-8048853Y3268421D01*
X-8047634Y3278682D01*
X-8045094Y3311144D01*
X-8044078Y3319424D01*
X-8041995Y3348329D01*
X-8040928Y3356762D01*
X-8039963Y3367379D01*
X-8039404Y3378454D01*
X-8038744Y3386683D01*
X-8037677Y3395319D01*
X-8036661Y3406648D01*
X-8035950Y3420110D01*
X-8034883Y3431336D01*
X-8033867Y3438245D01*
X-8033359Y3443681D01*
X-8032902Y3452571D01*
X-8031530Y3454704D01*
X-8024926Y3454654D01*
X-8019796Y3456686D01*
X-8016748Y3458768D01*
X-8016189Y3464102D01*
X-8017357Y3468979D01*
X-8022336Y3471926D01*
X-8024164Y3475431D01*
X-8022285Y3478174D01*
X-8019288Y3481222D01*
X-8018525Y3482695D01*
X-8016341Y3484930D01*
X-8011363Y3490722D01*
X-8008315Y3494786D01*
X-8000187Y3504133D01*
X-7990382Y3516020D01*
X-7988452Y3518763D01*
X-7984998Y3522421D01*
X-7963611Y3548278D01*
X-7950047Y3564077D01*
X-7948675Y3566109D01*
X-7945628Y3569411D01*
X-7944103Y3571392D01*
X-7943342Y3573068D01*
X-7943138Y3575812D01*
X-7952587Y3583838D01*
X-7954873Y3585514D01*
X-7958378Y3588918D01*
X-7960004Y3589985D01*
G37*
G36*
X-8287613Y3064103D02*
G01*
X-8289899Y3063849D01*
X-8292439Y3063189D01*
X-8299805Y3060446D01*
X-8306308Y3054146D01*
X-8306409Y3052978D01*
X-8307019Y3051810D01*
X-8308746Y3049727D01*
X-8309711Y3042361D01*
X-8309102Y3034741D01*
X-8306104Y3029153D01*
X-8304530Y3026968D01*
X-8302955Y3025292D01*
X-8299399Y3023006D01*
X-8297976Y3021787D01*
X-8289950Y3019298D01*
X-8287918Y3018942D01*
X-8285988Y3019196D01*
X-8279384Y3021177D01*
X-8277148Y3022092D01*
X-8275523Y3023209D01*
X-8270849Y3027629D01*
X-8266125Y3034741D01*
X-8265820Y3046374D01*
X-8269833Y3054705D01*
X-8276285Y3061055D01*
X-8280450Y3062274D01*
X-8284413Y3063798D01*
G37*
G36*
X-8522004Y2478176D02*
G01*
X-8542985Y2477312D01*
X-8546134Y2476398D01*
X-8565337Y2474620D01*
X-8571128Y2473299D01*
X-8595258Y2468829D01*
X-8606383Y2466187D01*
X-8625179Y2461158D01*
X-8626500Y2460040D01*
X-8632291Y2458872D01*
X-8636762Y2456840D01*
X-8641080Y2455875D01*
X-8643010Y2454605D01*
X-8647836Y2453233D01*
X-8648954Y2452268D01*
X-8654643Y2450642D01*
X-8659215Y2448306D01*
X-8660333Y2448306D01*
X-8665921Y2445664D01*
X-8668258Y2445054D01*
X-8668258Y2444343D01*
X-8671610Y2443276D01*
X-8684971Y2436977D01*
X-8686342Y2435910D01*
X-8689441Y2434742D01*
X-8691219Y2433218D01*
X-8695029Y2431745D01*
X-8698382Y2429662D01*
X-8700211Y2429052D01*
X-8703513Y2426055D01*
X-8703513Y2344318D01*
X-8702040Y2342845D01*
X-8698839Y2343404D01*
X-8696604Y2345182D01*
X-8693505Y2346553D01*
X-8690813Y2348585D01*
X-8688679Y2349246D01*
X-8685530Y2351379D01*
X-8684463Y2351379D01*
X-8682431Y2353157D01*
X-8678316Y2354681D01*
X-8675166Y2356764D01*
X-8673947Y2356764D01*
X-8664854Y2361133D01*
X-8659215Y2362962D01*
X-8656421Y2364689D01*
X-8652814Y2365298D01*
X-8651951Y2366060D01*
X-8631834Y2372512D01*
X-8625586Y2373630D01*
X-8621725Y2375103D01*
X-8614867Y2376068D01*
X-8607602Y2377744D01*
X-8594344Y2379065D01*
X-8586317Y2380335D01*
X-8571585Y2380894D01*
X-8561578Y2379624D01*
X-8560714Y2379065D01*
X-8551367Y2377795D01*
X-8546998Y2376068D01*
X-8543442Y2375408D01*
X-8538972Y2373325D01*
X-8535314Y2372360D01*
X-8533180Y2370734D01*
X-8530945Y2370074D01*
X-8526932Y2367788D01*
X-8520938Y2363876D01*
X-8520125Y2363876D01*
X-8518499Y2362098D01*
X-8517686Y2362098D01*
X-8505799Y2351836D01*
X-8497366Y2341778D01*
X-8492998Y2335276D01*
X-8489289Y2328824D01*
X-8488629Y2326589D01*
X-8486495Y2323490D01*
X-8486495Y2322220D01*
X-8483955Y2316784D01*
X-8483295Y2312771D01*
X-8481161Y2307945D01*
X-8481161Y2305964D01*
X-8478774Y2292654D01*
X-8478723Y2277059D01*
X-8480196Y2269439D01*
X-8481212Y2262327D01*
X-8483803Y2254554D01*
X-8483803Y2252929D01*
X-8486495Y2247595D01*
X-8486495Y2246528D01*
X-8492540Y2234996D01*
X-8494522Y2232507D01*
X-8494522Y2231593D01*
X-8502345Y2221687D01*
X-8510879Y2213203D01*
X-8520023Y2205786D01*
X-8522360Y2204872D01*
X-8525408Y2202230D01*
X-8526576Y2202230D01*
X-8529574Y2200198D01*
X-8533638Y2198624D01*
X-8534958Y2197455D01*
X-8538514Y2196338D01*
X-8543036Y2194255D01*
X-8548776Y2192934D01*
X-8552840Y2191512D01*
X-8560866Y2190242D01*
X-8564880Y2189327D01*
X-8588095Y2189378D01*
X-8592566Y2190191D01*
X-8609076Y2192070D01*
X-8612632Y2193239D01*
X-8618016Y2193798D01*
X-8623350Y2194814D01*
X-8625890Y2196033D01*
X-8631428Y2196896D01*
X-8651494Y2203246D01*
X-8652408Y2203958D01*
X-8656421Y2205024D01*
X-8663381Y2208072D01*
X-8664397Y2208072D01*
X-8677605Y2213965D01*
X-8677605Y2214626D01*
X-8681821Y2216251D01*
X-8688120Y2219655D01*
X-8691219Y2221077D01*
X-8695842Y2224125D01*
X-8696452Y2224125D01*
X-8699144Y2226360D01*
X-8701786Y2226360D01*
X-8703513Y2225446D01*
X-8703513Y2151126D01*
X-8692388Y2151126D01*
X-8692134Y2206498D01*
X-8690051Y2206802D01*
X-8686800Y2204618D01*
X-8683498Y2203551D01*
X-8681415Y2201976D01*
X-8676944Y2200300D01*
X-8675166Y2199233D01*
X-8670239Y2197658D01*
X-8668105Y2195982D01*
X-8666530Y2195982D01*
X-8662212Y2194102D01*
X-8656878Y2192324D01*
X-8654186Y2191156D01*
X-8649716Y2190140D01*
X-8646160Y2188464D01*
X-8640572Y2187549D01*
X-8636660Y2185822D01*
X-8632748Y2185212D01*
X-8625179Y2183130D01*
X-8618016Y2182164D01*
X-8613089Y2180793D01*
X-8603742Y2179929D01*
X-8584234Y2177592D01*
X-8564422Y2178050D01*
X-8556853Y2179523D01*
X-8549690Y2180386D01*
X-8538972Y2183841D01*
X-8533180Y2185924D01*
X-8530132Y2187956D01*
X-8528659Y2187956D01*
X-8524595Y2190546D01*
X-8522665Y2191156D01*
X-8517077Y2194661D01*
X-8513673Y2196490D01*
X-8507831Y2201113D01*
X-8500567Y2207412D01*
X-8493404Y2214981D01*
X-8488730Y2220417D01*
X-8488730Y2221331D01*
X-8486749Y2223516D01*
X-8482584Y2229916D01*
X-8478113Y2238197D01*
X-8475370Y2243988D01*
X-8474049Y2248611D01*
X-8472779Y2250694D01*
X-8471255Y2256942D01*
X-8470493Y2257856D01*
X-8469122Y2266746D01*
X-8467648Y2271674D01*
X-8467242Y2294432D01*
X-8470392Y2310079D01*
X-8473033Y2319578D01*
X-8474354Y2321712D01*
X-8475878Y2327503D01*
X-8476589Y2327960D01*
X-8478520Y2332431D01*
X-8481263Y2337765D01*
X-8481923Y2338222D01*
X-8483854Y2341778D01*
X-8488781Y2348941D01*
X-8493455Y2354732D01*
X-8502904Y2364232D01*
X-8514080Y2373274D01*
X-8517331Y2374646D01*
X-8517331Y2375408D01*
X-8526475Y2380386D01*
X-8530336Y2382215D01*
X-8531250Y2382215D01*
X-8533638Y2383891D01*
X-8538057Y2385212D01*
X-8540750Y2386685D01*
X-8542172Y2386685D01*
X-8550148Y2389225D01*
X-8558631Y2390292D01*
X-8565743Y2391765D01*
X-8587638Y2391714D01*
X-8597493Y2390292D01*
X-8613190Y2388920D01*
X-8616696Y2387701D01*
X-8624265Y2386584D01*
X-8635441Y2383942D01*
X-8639454Y2382570D01*
X-8646566Y2380945D01*
X-8649258Y2379522D01*
X-8650630Y2379522D01*
X-8662517Y2375560D01*
X-8663533Y2374696D01*
X-8667597Y2373630D01*
X-8671610Y2371648D01*
X-8676487Y2370023D01*
X-8677706Y2369058D01*
X-8682228Y2367483D01*
X-8683650Y2366264D01*
X-8687917Y2364638D01*
X-8688425Y2363825D01*
X-8690711Y2362962D01*
X-8692337Y2363520D01*
X-8692286Y2418130D01*
X-8691626Y2420366D01*
X-8689695Y2421331D01*
X-8688120Y2422702D01*
X-8684209Y2424226D01*
X-8681415Y2426309D01*
X-8679180Y2426970D01*
X-8675624Y2429002D01*
X-8673388Y2429662D01*
X-8672017Y2430729D01*
X-8668004Y2432304D01*
X-8666683Y2433421D01*
X-8663127Y2434539D01*
X-8652408Y2439314D01*
X-8649766Y2439924D01*
X-8644940Y2442464D01*
X-8643162Y2442464D01*
X-8637219Y2445054D01*
X-8634222Y2445715D01*
X-8629396Y2447848D01*
X-8627364Y2447848D01*
X-8623909Y2449576D01*
X-8617153Y2451100D01*
X-8613444Y2452725D01*
X-8607298Y2454046D01*
X-8602014Y2455875D01*
X-8599576Y2455875D01*
X-8593023Y2458008D01*
X-8585098Y2459075D01*
X-8581847Y2460294D01*
X-8576056Y2461260D01*
X-8569807Y2462022D01*
X-8559088Y2463850D01*
X-8541664Y2465679D01*
X-8528710Y2466644D01*
X-8498789Y2467000D01*
X-8497011Y2466644D01*
X-8479129Y2465628D01*
X-8472017Y2464409D01*
X-8465312Y2463850D01*
X-8456523Y2462072D01*
X-8446566Y2460802D01*
X-8441639Y2459431D01*
X-8435848Y2458516D01*
X-8418423Y2454046D01*
X-8411464Y2452776D01*
X-8408568Y2451049D01*
X-8403844Y2450084D01*
X-8399119Y2447848D01*
X-8397849Y2447848D01*
X-8392515Y2445156D01*
X-8391144Y2445156D01*
X-8387994Y2443022D01*
X-8384489Y2442057D01*
X-8381796Y2440228D01*
X-8373770Y2436114D01*
X-8373313Y2435453D01*
X-8369147Y2433320D01*
X-8358581Y2426157D01*
X-8348776Y2418435D01*
X-8342477Y2412898D01*
X-8336229Y2406853D01*
X-8323529Y2392883D01*
X-8323529Y2392273D01*
X-8321192Y2389581D01*
X-8319109Y2386279D01*
X-8318144Y2385720D01*
X-8316925Y2382875D01*
X-8315248Y2381097D01*
X-8311743Y2375255D01*
X-8310575Y2373833D01*
X-8303463Y2360320D01*
X-8302091Y2358288D01*
X-8301177Y2354935D01*
X-8299043Y2351836D01*
X-8298434Y2348179D01*
X-8296300Y2344470D01*
X-8296300Y2342692D01*
X-8294624Y2339543D01*
X-8292642Y2331618D01*
X-8291474Y2329281D01*
X-8290458Y2322576D01*
X-8288324Y2314549D01*
X-8286038Y2293061D01*
X-8286038Y2276602D01*
X-8288274Y2254707D01*
X-8290407Y2247595D01*
X-8291372Y2240686D01*
X-8293455Y2235047D01*
X-8294624Y2230170D01*
X-8295741Y2228392D01*
X-8296402Y2225243D01*
X-8298434Y2220772D01*
X-8299043Y2218537D01*
X-8300313Y2215692D01*
X-8301126Y2215184D01*
X-8301736Y2212390D01*
X-8305698Y2204720D01*
X-8306460Y2203805D01*
X-8307476Y2200605D01*
X-8309102Y2198827D01*
X-8309762Y2196642D01*
X-8312353Y2193391D01*
X-8312353Y2192883D01*
X-8316061Y2187295D01*
X-8317026Y2186381D01*
X-8321294Y2180132D01*
X-8325967Y2174240D01*
X-8335822Y2163267D01*
X-8340344Y2158695D01*
X-8347456Y2151989D01*
X-8355888Y2145588D01*
X-8359140Y2142845D01*
X-8359851Y2142845D01*
X-8361273Y2141474D01*
X-8367318Y2137511D01*
X-8368131Y2137511D01*
X-8368893Y2136190D01*
X-8386267Y2126843D01*
X-8387638Y2126792D01*
X-8390686Y2124557D01*
X-8393836Y2123998D01*
X-8396528Y2122424D01*
X-8401456Y2120849D01*
X-8403234Y2119731D01*
X-8409279Y2118258D01*
X-8412175Y2116632D01*
X-8418830Y2115566D01*
X-8419846Y2114753D01*
X-8429142Y2112822D01*
X-8430717Y2112010D01*
X-8441486Y2110232D01*
X-8443112Y2109368D01*
X-8457996Y2107133D01*
X-8458606Y2106777D01*
X-8468410Y2105406D01*
X-8485378Y2103628D01*
X-8499703Y2102561D01*
X-8530945Y2103069D01*
X-8544306Y2103983D01*
X-8550605Y2104898D01*
X-8564880Y2106320D01*
X-8568893Y2107539D01*
X-8582812Y2109266D01*
X-8584641Y2110232D01*
X-8595258Y2111959D01*
X-8597798Y2112975D01*
X-8604605Y2114296D01*
X-8607755Y2115616D01*
X-8614562Y2116886D01*
X-8618474Y2118664D01*
X-8624976Y2120036D01*
X-8626043Y2120900D01*
X-8636762Y2124202D01*
X-8643010Y2126742D01*
X-8648141Y2128164D01*
X-8648649Y2128977D01*
X-8654542Y2130806D01*
X-8655507Y2131568D01*
X-8659977Y2133193D01*
X-8661704Y2134362D01*
X-8666683Y2135886D01*
X-8668766Y2137460D01*
X-8672017Y2138527D01*
X-8674404Y2140204D01*
X-8675014Y2140204D01*
X-8684107Y2144674D01*
X-8686800Y2146350D01*
X-8687866Y2146452D01*
X-8691930Y2149195D01*
X-8692388Y2151126D01*
X-8703513Y2151126D01*
X-8703513Y2143810D01*
X-8698534Y2139746D01*
X-8697569Y2139746D01*
X-8693454Y2137156D01*
X-8691219Y2136495D01*
X-8689441Y2134920D01*
X-8687206Y2134260D01*
X-8684564Y2132279D01*
X-8681262Y2131212D01*
X-8679180Y2129536D01*
X-8675522Y2128570D01*
X-8673338Y2126894D01*
X-8669375Y2125827D01*
X-8667953Y2124557D01*
X-8664448Y2123338D01*
X-8659368Y2121001D01*
X-8658199Y2120950D01*
X-8654592Y2118918D01*
X-8650274Y2117801D01*
X-8646160Y2115616D01*
X-8644585Y2115616D01*
X-8639657Y2113381D01*
X-8636762Y2112772D01*
X-8632190Y2110790D01*
X-8627059Y2109825D01*
X-8624265Y2108098D01*
X-8620709Y2107488D01*
X-8604605Y2102764D01*
X-8600135Y2102154D01*
X-8593023Y2100021D01*
X-8583168Y2098598D01*
X-8580069Y2097430D01*
X-8574227Y2096820D01*
X-8562644Y2094687D01*
X-8554161Y2094128D01*
X-8542121Y2092350D01*
X-8530031Y2091436D01*
X-8483600Y2091842D01*
X-8476538Y2093315D01*
X-8459927Y2095042D01*
X-8456828Y2095906D01*
X-8449208Y2096922D01*
X-8443874Y2098192D01*
X-8434933Y2099614D01*
X-8429599Y2101291D01*
X-8421522Y2102764D01*
X-8401913Y2108352D01*
X-8398764Y2110130D01*
X-8395309Y2110790D01*
X-8382812Y2116175D01*
X-8379663Y2118309D01*
X-8378240Y2118309D01*
X-8375548Y2120138D01*
X-8371078Y2122170D01*
X-8369858Y2123643D01*
X-8368436Y2123643D01*
X-8355431Y2132177D01*
X-8352993Y2134362D01*
X-8352180Y2134362D01*
X-8338515Y2145334D01*
X-8322868Y2160981D01*
X-8317026Y2167737D01*
X-8311032Y2175205D01*
X-8311032Y2176221D01*
X-8309762Y2177288D01*
X-8301786Y2189073D01*
X-8299754Y2193086D01*
X-8299043Y2193544D01*
X-8295284Y2201113D01*
X-8293658Y2203450D01*
X-8292185Y2207818D01*
X-8290915Y2209241D01*
X-8289137Y2214422D01*
X-8288324Y2215438D01*
X-8284616Y2225903D01*
X-8284057Y2227935D01*
X-8282940Y2229713D01*
X-8281466Y2237282D01*
X-8280298Y2239162D01*
X-8277910Y2249779D01*
X-8275726Y2262733D01*
X-8274405Y2269236D01*
X-8274354Y2299360D01*
X-8275370Y2306523D01*
X-8275726Y2307082D01*
X-8278012Y2319934D01*
X-8280146Y2329789D01*
X-8281466Y2332431D01*
X-8282584Y2338679D01*
X-8284159Y2341829D01*
X-8285683Y2347163D01*
X-8286445Y2348128D01*
X-8288324Y2354224D01*
X-8289493Y2356104D01*
X-8290102Y2358288D01*
X-8297976Y2373934D01*
X-8301075Y2378862D01*
X-8301685Y2380843D01*
X-8302498Y2380843D01*
X-8304428Y2384552D01*
X-8309914Y2392680D01*
X-8310880Y2393594D01*
X-8313623Y2397607D01*
X-8324138Y2410104D01*
X-8336229Y2422042D01*
X-8346541Y2430780D01*
X-8358581Y2439619D01*
X-8361680Y2441346D01*
X-8364270Y2443429D01*
X-8367064Y2444750D01*
X-8377783Y2450795D01*
X-8380882Y2452014D01*
X-8382253Y2453132D01*
X-8386267Y2454656D01*
X-8394750Y2458567D01*
X-8400084Y2459939D01*
X-8402066Y2461209D01*
X-8409940Y2463546D01*
X-8418271Y2465730D01*
X-8419744Y2466492D01*
X-8430463Y2468422D01*
X-8431936Y2469235D01*
X-8440318Y2470658D01*
X-8447887Y2472385D01*
X-8457539Y2473807D01*
X-8459622Y2474569D01*
X-8478266Y2476449D01*
X-8482736Y2477465D01*
X-8495639Y2478074D01*
G37*
G36*
X-9377121Y2473604D02*
G01*
X-9399117Y2473502D01*
X-9400997Y2471267D01*
X-9400997Y2419248D01*
X-9399676Y2415997D01*
X-9384690Y2416505D01*
X-9366859Y2415692D01*
X-9360154Y2414727D01*
X-9355683Y2413508D01*
X-9348673Y2412542D01*
X-9344710Y2410815D01*
X-9339681Y2409901D01*
X-9336024Y2408174D01*
X-9330791Y2406802D01*
X-9329318Y2405481D01*
X-9325660Y2404668D01*
X-9322206Y2402281D01*
X-9320834Y2402281D01*
X-9316821Y2399639D01*
X-9316212Y2399588D01*
X-9310573Y2396337D01*
X-9309100Y2395067D01*
X-9306407Y2393594D01*
X-9300464Y2389124D01*
X-9293148Y2382977D01*
X-9290050Y2380081D01*
X-9279534Y2368346D01*
X-9279534Y2367584D01*
X-9277553Y2365400D01*
X-9274403Y2360980D01*
X-9273336Y2358542D01*
X-9272524Y2358542D01*
X-9270847Y2354732D01*
X-9269780Y2353868D01*
X-9265107Y2344470D01*
X-9263481Y2342337D01*
X-9263481Y2340864D01*
X-9261297Y2337663D01*
X-9260636Y2335072D01*
X-9258096Y2330297D01*
X-9258096Y2328824D01*
X-9255912Y2324709D01*
X-9254642Y2319477D01*
X-9254032Y2318004D01*
X-9257131Y2316530D01*
X-9361474Y2316581D01*
X-9363506Y2314295D01*
X-9363506Y2260701D01*
X-9362135Y2258060D01*
X-9256522Y2258060D01*
X-9254693Y2256790D01*
X-9255455Y2251608D01*
X-9259062Y2240991D01*
X-9260230Y2239060D01*
X-9261652Y2234082D01*
X-9263024Y2232964D01*
X-9263024Y2231898D01*
X-9267088Y2223922D01*
X-9268206Y2222550D01*
X-9269831Y2218791D01*
X-9271508Y2217318D01*
X-9271508Y2216556D01*
X-9276892Y2208733D01*
X-9282734Y2201316D01*
X-9291370Y2192223D01*
X-9300311Y2184349D01*
X-9303461Y2182418D01*
X-9304324Y2181301D01*
X-9307626Y2179929D01*
X-9308185Y2179015D01*
X-9311843Y2176576D01*
X-9321546Y2171242D01*
X-9322206Y2170633D01*
X-9326829Y2169160D01*
X-9327794Y2167940D01*
X-9330232Y2167382D01*
X-9334703Y2165299D01*
X-9339173Y2164232D01*
X-9342272Y2162657D01*
X-9345879Y2161997D01*
X-9352127Y2159863D01*
X-9368180Y2157222D01*
X-9385604Y2156307D01*
X-9398304Y2156917D01*
X-9400082Y2155596D01*
X-9400184Y2103069D01*
X-9398812Y2100986D01*
X-9394799Y2099970D01*
X-9370618Y2099970D01*
X-9357918Y2101748D01*
X-9348368Y2102713D01*
X-9344863Y2103932D01*
X-9336024Y2105406D01*
X-9329623Y2107590D01*
X-9327743Y2107590D01*
X-9324441Y2109012D01*
X-9317228Y2111044D01*
X-9313722Y2112822D01*
X-9310624Y2113381D01*
X-9309252Y2114651D01*
X-9303867Y2116175D01*
X-9301835Y2117801D01*
X-9298533Y2118868D01*
X-9296095Y2120544D01*
X-9293148Y2121560D01*
X-9291828Y2122678D01*
X-9283344Y2126996D01*
X-9281109Y2129028D01*
X-9279331Y2129586D01*
X-9276994Y2131466D01*
X-9274403Y2132990D01*
X-9270390Y2136140D01*
X-9267901Y2137562D01*
X-9266275Y2139086D01*
X-9261652Y2142642D01*
X-9253016Y2150211D01*
X-9244177Y2158949D01*
X-9243364Y2158949D01*
X-9243364Y2159914D01*
X-9240926Y2162403D01*
X-9238234Y2165705D01*
X-9236760Y2167178D01*
X-9232442Y2172817D01*
X-9230969Y2174341D01*
X-9229496Y2177237D01*
X-9228632Y2177237D01*
X-9227820Y2179269D01*
X-9224619Y2183282D01*
X-9224619Y2184298D01*
X-9223298Y2185365D01*
X-9221317Y2189276D01*
X-9220708Y2189276D01*
X-9219184Y2193086D01*
X-9218015Y2194407D01*
X-9214967Y2200249D01*
X-9213748Y2203348D01*
X-9212630Y2204720D01*
X-9210700Y2209596D01*
X-9210040Y2210054D01*
X-9208160Y2215438D01*
X-9206331Y2218944D01*
X-9205772Y2222144D01*
X-9204604Y2223465D01*
X-9203131Y2229256D01*
X-9201505Y2233269D01*
X-9200388Y2239060D01*
X-9199219Y2241397D01*
X-9197390Y2252268D01*
X-9196578Y2254402D01*
X-9195206Y2266746D01*
X-9194038Y2281529D01*
X-9194038Y2291791D01*
X-9196120Y2316327D01*
X-9197441Y2321712D01*
X-9199168Y2332126D01*
X-9200032Y2334209D01*
X-9201912Y2341778D01*
X-9202775Y2342845D01*
X-9204502Y2348839D01*
X-9205722Y2350719D01*
X-9206839Y2354732D01*
X-9208414Y2357475D01*
X-9209532Y2360980D01*
X-9211106Y2363673D01*
X-9212681Y2367889D01*
X-9213342Y2367889D01*
X-9215374Y2373274D01*
X-9216034Y2373274D01*
X-9218066Y2378202D01*
X-9218777Y2378202D01*
X-9220657Y2382418D01*
X-9221368Y2382875D01*
X-9226042Y2391206D01*
X-9228175Y2393492D01*
X-9228175Y2394204D01*
X-9234119Y2402078D01*
X-9236252Y2404211D01*
X-9236252Y2405075D01*
X-9238234Y2407056D01*
X-9241383Y2410917D01*
X-9248038Y2418130D01*
X-9252102Y2422194D01*
X-9260586Y2429459D01*
X-9266834Y2434386D01*
X-9277858Y2442260D01*
X-9286443Y2447391D01*
X-9298076Y2453487D01*
X-9302343Y2455113D01*
X-9302343Y2455824D01*
X-9307017Y2457297D01*
X-9308795Y2458415D01*
X-9314434Y2460345D01*
X-9316364Y2461564D01*
X-9321292Y2462682D01*
X-9323374Y2464003D01*
X-9328251Y2465273D01*
X-9329775Y2465273D01*
X-9332468Y2466644D01*
X-9340850Y2468422D01*
X-9342272Y2469184D01*
X-9350552Y2470607D01*
X-9353092Y2470607D01*
X-9356140Y2471877D01*
X-9371736Y2473299D01*
G37*
G36*
X-9061856Y2473248D02*
G01*
X-9082836Y2472842D01*
X-9084614Y2471013D01*
X-9084919Y2418486D01*
X-9083954Y2414828D01*
X-9081820Y2414270D01*
X-9072118Y2415794D01*
X-9048038Y2415286D01*
X-9041790Y2413863D01*
X-9032341Y2412238D01*
X-9030157Y2411069D01*
X-9024518Y2409901D01*
X-9019794Y2407666D01*
X-9018320Y2407666D01*
X-9013291Y2404973D01*
X-9012072Y2404973D01*
X-9008719Y2402890D01*
X-9006535Y2402179D01*
X-9003792Y2400503D01*
X-9000693Y2399080D01*
X-8998153Y2396947D01*
X-8997340Y2396947D01*
X-8989568Y2391613D01*
X-8984386Y2387549D01*
X-8973108Y2377490D01*
X-8966555Y2370836D01*
X-8959138Y2361895D01*
X-8952687Y2353259D01*
X-8952687Y2351989D01*
X-8951010Y2350465D01*
X-8949944Y2346756D01*
X-8947353Y2342184D01*
X-8947302Y2340914D01*
X-8944660Y2335580D01*
X-8944660Y2334260D01*
X-8942374Y2329484D01*
X-8941460Y2324608D01*
X-8939784Y2320798D01*
X-8938768Y2314549D01*
X-8937091Y2309571D01*
X-8935720Y2295804D01*
X-8934856Y2292197D01*
X-8934805Y2275636D01*
X-8935720Y2270810D01*
X-8937091Y2258364D01*
X-8938768Y2252929D01*
X-8940241Y2246223D01*
X-8941409Y2244445D01*
X-8942476Y2239568D01*
X-8944660Y2235809D01*
X-8944660Y2234438D01*
X-8951417Y2221230D01*
X-8953347Y2217928D01*
X-8956852Y2212746D01*
X-8957614Y2212441D01*
X-8957614Y2211171D01*
X-8960612Y2207818D01*
X-8961628Y2205837D01*
X-8966098Y2201011D01*
X-8966098Y2200351D01*
X-8977020Y2189480D01*
X-8986418Y2182622D01*
X-8987739Y2181352D01*
X-8990634Y2179878D01*
X-8990634Y2179066D01*
X-8995105Y2177135D01*
X-8995105Y2176424D01*
X-9004350Y2171649D01*
X-9005620Y2170684D01*
X-9009989Y2169210D01*
X-9011412Y2168042D01*
X-9015425Y2166874D01*
X-9018117Y2165299D01*
X-9022588Y2164181D01*
X-9025382Y2162911D01*
X-9039098Y2159406D01*
X-9047480Y2158390D01*
X-9049816Y2157425D01*
X-9072118Y2157069D01*
X-9080246Y2158593D01*
X-9082582Y2155799D01*
X-9082582Y2105101D01*
X-9082125Y2100986D01*
X-9079280Y2099564D01*
X-9061856Y2098751D01*
X-9043568Y2099513D01*
X-9037320Y2100072D01*
X-9031478Y2101342D01*
X-9020759Y2103069D01*
X-9013190Y2104999D01*
X-9005163Y2107488D01*
X-9002115Y2108149D01*
X-8998000Y2110181D01*
X-8995054Y2110790D01*
X-8991295Y2112924D01*
X-8989669Y2112924D01*
X-8977020Y2119223D01*
X-8970772Y2122728D01*
X-8967419Y2124252D01*
X-8967419Y2124913D01*
X-8963406Y2126945D01*
X-8961932Y2128570D01*
X-8961170Y2128570D01*
X-8955278Y2132584D01*
X-8953957Y2133955D01*
X-8952026Y2134971D01*
X-8945829Y2139950D01*
X-8943949Y2141728D01*
X-8940444Y2144369D01*
X-8925204Y2159762D01*
X-8916873Y2169414D01*
X-8912250Y2175256D01*
X-8905595Y2185314D01*
X-8902750Y2189988D01*
X-8901734Y2191105D01*
X-8899906Y2195169D01*
X-8897772Y2198370D01*
X-8897772Y2199894D01*
X-8896553Y2200910D01*
X-8894927Y2205177D01*
X-8893454Y2207361D01*
X-8892235Y2211425D01*
X-8891066Y2212797D01*
X-8889644Y2217674D01*
X-8888425Y2219604D01*
X-8886494Y2227021D01*
X-8885631Y2228138D01*
X-8883853Y2235911D01*
X-8883040Y2236927D01*
X-8881262Y2246833D01*
X-8880398Y2249068D01*
X-8878011Y2266746D01*
X-8877300Y2274366D01*
X-8877300Y2295347D01*
X-8880246Y2320340D01*
X-8881313Y2323033D01*
X-8882989Y2333396D01*
X-8884361Y2335987D01*
X-8884361Y2337562D01*
X-8885834Y2343556D01*
X-8886494Y2344470D01*
X-8888323Y2351887D01*
X-8889238Y2353005D01*
X-8891168Y2359202D01*
X-8892235Y2360523D01*
X-8893911Y2364536D01*
X-8894978Y2365908D01*
X-8896858Y2369921D01*
X-8899499Y2374392D01*
X-8901684Y2378964D01*
X-8902598Y2379522D01*
X-8904528Y2383282D01*
X-8906611Y2385771D01*
X-8907221Y2387549D01*
X-8907830Y2387549D01*
X-8910015Y2391562D01*
X-8910523Y2391562D01*
X-8914079Y2396591D01*
X-8917076Y2400300D01*
X-8917990Y2402281D01*
X-8918651Y2402281D01*
X-8925661Y2410866D01*
X-8938666Y2423972D01*
X-8946794Y2430881D01*
X-8952788Y2435555D01*
X-8954922Y2437485D01*
X-8957614Y2438552D01*
X-8957614Y2439263D01*
X-8960764Y2441244D01*
X-8961882Y2442362D01*
X-8964676Y2443835D01*
X-8972550Y2448560D01*
X-8981694Y2453436D01*
X-8993530Y2458974D01*
X-8997797Y2460345D01*
X-8999778Y2461564D01*
X-9005620Y2463139D01*
X-9006484Y2463850D01*
X-9014206Y2465679D01*
X-9017203Y2466949D01*
X-9025585Y2468372D01*
X-9026702Y2469286D01*
X-9040418Y2471013D01*
X-9043263Y2472029D01*
G37*
G36*
X-7887309Y2459431D02*
G01*
X-7889036Y2458516D01*
X-7889036Y2422144D01*
X-7887970Y2421026D01*
X-7850581Y2421026D01*
X-7848853Y2420112D01*
X-7848853Y2304999D01*
X-7850581Y2304034D01*
X-7887970Y2304034D01*
X-7889036Y2302967D01*
X-7889036Y2266746D01*
X-7887970Y2265680D01*
X-7849920Y2265680D01*
X-7848853Y2264562D01*
X-7848853Y2149754D01*
X-7849920Y2148687D01*
X-7888020Y2148687D01*
X-7889036Y2147468D01*
X-7889087Y2111146D01*
X-7888528Y2110282D01*
X-7810906Y2110282D01*
X-7810906Y2459431D01*
G37*
G36*
X-8042706Y2459431D02*
G01*
X-8044434Y2458516D01*
X-8044434Y2419045D01*
X-8003387Y2419045D01*
X-8002879Y2421026D01*
X-7967827Y2421026D01*
X-7966760Y2419959D01*
X-7966760Y2305050D01*
X-7967980Y2304034D01*
X-8003133Y2304288D01*
X-8003387Y2419045D01*
X-8044434Y2419045D01*
X-8044434Y2111349D01*
X-8043367Y2110282D01*
X-8004302Y2110282D01*
X-8003336Y2112010D01*
X-8003336Y2264257D01*
X-8002828Y2265680D01*
X-7967827Y2265680D01*
X-7966760Y2264562D01*
X-7966760Y2111349D01*
X-7965694Y2110282D01*
X-7926628Y2110282D01*
X-7925460Y2111908D01*
X-7925866Y2458567D01*
X-7927238Y2459431D01*
G37*
G36*
X-8157921Y2459431D02*
G01*
X-8159648Y2458516D01*
X-8159648Y2422144D01*
X-8158581Y2421026D01*
X-8123224Y2421026D01*
X-8122158Y2419959D01*
X-8122158Y2149754D01*
X-8123224Y2148687D01*
X-8157921Y2148687D01*
X-8159648Y2147722D01*
X-8159648Y2111349D01*
X-8158581Y2110282D01*
X-8081975Y2110282D01*
X-8081060Y2112010D01*
X-8081060Y2458059D01*
X-8082483Y2459431D01*
G37*
G36*
X-8393836Y2391968D02*
G01*
X-8400542Y2391206D01*
X-8410397Y2389225D01*
X-8413953Y2387650D01*
X-8417509Y2386533D01*
X-8424214Y2383383D01*
X-8432241Y2378151D01*
X-8437118Y2373934D01*
X-8440877Y2370378D01*
X-8448344Y2361031D01*
X-8454339Y2350312D01*
X-8454339Y2348687D01*
X-8456574Y2344369D01*
X-8457387Y2339086D01*
X-8459165Y2333752D01*
X-8459774Y2321712D01*
X-8458809Y2311450D01*
X-8457031Y2305761D01*
X-8457031Y2303475D01*
X-8454339Y2297785D01*
X-8454339Y2296668D01*
X-8448446Y2285542D01*
X-8443874Y2279751D01*
X-8440318Y2275789D01*
X-8435695Y2271217D01*
X-8429142Y2266238D01*
X-8419744Y2261006D01*
X-8414105Y2259025D01*
X-8413038Y2258161D01*
X-8407349Y2257094D01*
X-8401913Y2255367D01*
X-8387130Y2254808D01*
X-8377936Y2255824D01*
X-8375548Y2257094D01*
X-8374024Y2258771D01*
X-8373872Y2293518D01*
X-8375853Y2295144D01*
X-8377529Y2295144D01*
X-8381136Y2293213D01*
X-8388502Y2292350D01*
X-8398764Y2292908D01*
X-8402777Y2294128D01*
X-8409279Y2297734D01*
X-8413496Y2301443D01*
X-8417763Y2306726D01*
X-8421471Y2314448D01*
X-8422233Y2323033D01*
X-8421725Y2330602D01*
X-8420709Y2334666D01*
X-8419642Y2335987D01*
X-8417712Y2340000D01*
X-8415477Y2343150D01*
X-8409940Y2348687D01*
X-8409025Y2348687D01*
X-8404656Y2351836D01*
X-8403742Y2351836D01*
X-8398764Y2354224D01*
X-8383574Y2354224D01*
X-8377681Y2351379D01*
X-8376818Y2351379D01*
X-8371484Y2347620D01*
X-8365947Y2342337D01*
X-8365947Y2341524D01*
X-8363356Y2338222D01*
X-8362746Y2335987D01*
X-8360359Y2331059D01*
X-8359902Y2180590D01*
X-8358835Y2178710D01*
X-8356092Y2177542D01*
X-8349640Y2179523D01*
X-8345271Y2180437D01*
X-8342477Y2182520D01*
X-8340242Y2183180D01*
X-8334197Y2188159D01*
X-8331200Y2191308D01*
X-8327999Y2195576D01*
X-8327999Y2196338D01*
X-8325612Y2199792D01*
X-8323478Y2206040D01*
X-8322614Y2209647D01*
X-8322868Y2333752D01*
X-8323986Y2336342D01*
X-8325815Y2344420D01*
X-8326678Y2345486D01*
X-8328406Y2351532D01*
X-8329625Y2352954D01*
X-8331555Y2356967D01*
X-8336838Y2364994D01*
X-8338718Y2366721D01*
X-8338718Y2367686D01*
X-8344763Y2373477D01*
X-8350199Y2378252D01*
X-8355025Y2381402D01*
X-8362340Y2385212D01*
X-8363508Y2386076D01*
X-8368385Y2387701D01*
X-8370163Y2388819D01*
X-8378240Y2390292D01*
X-8381796Y2391257D01*
X-8387130Y2391867D01*
G37*
G36*
X-8766403Y2333548D02*
G01*
X-8767826Y2332126D01*
X-8767826Y2307742D01*
X-8756650Y2307742D01*
X-8756650Y2320645D01*
X-8755735Y2322372D01*
X-8650427Y2322372D01*
X-8649208Y2321153D01*
X-8649055Y2308453D01*
X-8649970Y2304999D01*
X-8651494Y2304542D01*
X-8678976Y2304694D01*
X-8680856Y2302814D01*
X-8680958Y2248712D01*
X-8682736Y2247392D01*
X-8723223Y2247341D01*
X-8724493Y2248611D01*
X-8724493Y2303018D01*
X-8726373Y2304745D01*
X-8752433Y2304440D01*
X-8755735Y2305050D01*
X-8756650Y2307742D01*
X-8767826Y2307742D01*
X-8767826Y2295804D01*
X-8766657Y2293569D01*
X-8737244Y2293264D01*
X-8735669Y2291842D01*
X-8735669Y2237587D01*
X-8734247Y2236165D01*
X-8671661Y2236165D01*
X-8670036Y2237689D01*
X-8670036Y2291994D01*
X-8667292Y2293366D01*
X-8640064Y2293315D01*
X-8637524Y2295855D01*
X-8637422Y2331720D01*
X-8639403Y2333548D01*
G37*
G36*
X-7737500Y3280105D02*
G01*
X-7743139Y3279597D01*
X-7748422Y3278022D01*
X-7753299Y3275380D01*
X-7757820Y3271723D01*
X-7761731Y3267303D01*
X-7764475Y3262325D01*
X-7766151Y3256889D01*
X-7766710Y3250895D01*
X-7766608Y3225647D01*
X-7765846Y3223971D01*
X-7764424Y3222548D01*
X-7762748Y3221786D01*
X-7761020Y3221786D01*
X-7759344Y3222396D01*
X-7757922Y3223666D01*
X-7757159Y3225444D01*
X-7757058Y3250895D01*
X-7756702Y3254806D01*
X-7755585Y3258413D01*
X-7753756Y3261664D01*
X-7751216Y3264611D01*
X-7748270Y3267151D01*
X-7745018Y3268979D01*
X-7741412Y3270097D01*
X-7737500Y3270453D01*
X-7659268Y3270453D01*
X-7655458Y3270097D01*
X-7651902Y3268979D01*
X-7648600Y3267151D01*
X-7645552Y3264611D01*
X-7643012Y3261664D01*
X-7641183Y3258413D01*
X-7640066Y3254806D01*
X-7639710Y3250895D01*
X-7639608Y3225647D01*
X-7638846Y3223971D01*
X-7637424Y3222548D01*
X-7635748Y3221786D01*
X-7634020Y3221786D01*
X-7632344Y3222396D01*
X-7630922Y3223666D01*
X-7630159Y3225444D01*
X-7630058Y3250895D01*
X-7630566Y3256483D01*
X-7632141Y3261715D01*
X-7634782Y3266643D01*
X-7638440Y3271215D01*
X-7642961Y3275126D01*
X-7647990Y3277870D01*
X-7653375Y3279546D01*
X-7659268Y3280105D01*
G37*
G36*
X-7702702Y3202127D02*
G01*
X-7712659Y3201466D01*
X-7722209Y3199536D01*
X-7731302Y3196285D01*
X-7740040Y3191713D01*
X-7748574Y3185464D01*
X-7755788Y3178048D01*
X-7761782Y3169564D01*
X-7766456Y3159963D01*
X-7766710Y3157931D01*
X-7766354Y3156102D01*
X-7765186Y3154629D01*
X-7763560Y3153664D01*
X-7761630Y3153359D01*
X-7759344Y3153867D01*
X-7758328Y3154883D01*
X-7757312Y3156407D01*
X-7753502Y3164535D01*
X-7751013Y3168243D01*
X-7745526Y3174695D01*
X-7742478Y3177641D01*
X-7738922Y3180537D01*
X-7734960Y3183331D01*
X-7728762Y3186633D01*
X-7721752Y3189427D01*
X-7718145Y3190646D01*
X-7714640Y3191510D01*
X-7711287Y3192068D01*
X-7659268Y3192221D01*
X-7655458Y3191865D01*
X-7651902Y3190748D01*
X-7648600Y3188919D01*
X-7645552Y3186379D01*
X-7643012Y3183331D01*
X-7641183Y3180080D01*
X-7640066Y3176625D01*
X-7639710Y3172917D01*
X-7639710Y3163011D01*
X-7640066Y3159099D01*
X-7641132Y3155442D01*
X-7642859Y3152089D01*
X-7645298Y3149041D01*
X-7648346Y3146602D01*
X-7651699Y3144875D01*
X-7655356Y3143808D01*
X-7659268Y3143453D01*
X-7678826Y3143453D01*
X-7682738Y3143808D01*
X-7686344Y3144875D01*
X-7689596Y3146602D01*
X-7692542Y3149041D01*
X-7695082Y3152038D01*
X-7696911Y3155340D01*
X-7698028Y3158998D01*
X-7698384Y3163011D01*
X-7698384Y3192221D01*
X-7708036Y3192221D01*
X-7708036Y3163011D01*
X-7707528Y3157169D01*
X-7705953Y3151733D01*
X-7703312Y3146755D01*
X-7699654Y3142183D01*
X-7695133Y3138525D01*
X-7690154Y3135884D01*
X-7684719Y3134309D01*
X-7678826Y3133801D01*
X-7659268Y3133801D01*
X-7653375Y3134309D01*
X-7647990Y3135884D01*
X-7642961Y3138525D01*
X-7638440Y3142183D01*
X-7634782Y3146755D01*
X-7632141Y3151733D01*
X-7630566Y3157169D01*
X-7630058Y3163011D01*
X-7630058Y3172917D01*
X-7630566Y3178352D01*
X-7632141Y3183534D01*
X-7634782Y3188411D01*
X-7638440Y3192983D01*
X-7642961Y3196996D01*
X-7647990Y3199841D01*
X-7653375Y3201568D01*
X-7659268Y3202127D01*
G37*
G36*
X-6981901Y3290315D02*
G01*
X-6983984Y3290011D01*
X-6985508Y3289096D01*
X-6986422Y3287572D01*
X-6986727Y3285490D01*
X-6986727Y3280359D01*
X-6918401Y3280359D01*
X-6918401Y3251149D01*
X-6918756Y3247390D01*
X-6919772Y3243783D01*
X-6921550Y3240481D01*
X-6923989Y3237433D01*
X-6926935Y3234893D01*
X-6930288Y3233064D01*
X-6933946Y3231997D01*
X-6937959Y3231591D01*
X-6957517Y3231591D01*
X-6961327Y3231946D01*
X-6964883Y3233013D01*
X-6968185Y3234740D01*
X-6971233Y3237230D01*
X-6973773Y3240278D01*
X-6975602Y3243630D01*
X-6976719Y3247237D01*
X-6977075Y3251149D01*
X-6977075Y3280359D01*
X-6986727Y3280359D01*
X-6986727Y3251149D01*
X-6986168Y3245408D01*
X-6984542Y3240024D01*
X-6981850Y3234994D01*
X-6978091Y3230372D01*
X-6973671Y3226562D01*
X-6968744Y3223869D01*
X-6963359Y3222244D01*
X-6957517Y3221685D01*
X-6937959Y3221685D01*
X-6932066Y3222244D01*
X-6926681Y3223869D01*
X-6921804Y3226562D01*
X-6917385Y3230372D01*
X-6913575Y3234893D01*
X-6910882Y3239871D01*
X-6909257Y3245307D01*
X-6908749Y3252419D01*
X-6856780Y3222142D01*
X-6855510Y3221736D01*
X-6853986Y3221786D01*
X-6852208Y3222548D01*
X-6851345Y3223209D01*
X-6850380Y3225038D01*
X-6850075Y3226816D01*
X-6850176Y3227984D01*
X-6850583Y3229051D01*
X-6851294Y3230016D01*
X-6852361Y3230880D01*
X-6908749Y3263646D01*
X-6908749Y3280359D01*
X-6853783Y3280460D01*
X-6851903Y3281222D01*
X-6851091Y3281883D01*
X-6850329Y3283407D01*
X-6850075Y3285490D01*
X-6851091Y3288741D01*
X-6851802Y3289452D01*
X-6853681Y3290214D01*
G37*
G36*
X-6952691Y3202127D02*
G01*
X-6953910Y3201822D01*
X-6955993Y3200857D01*
X-6985863Y3170885D01*
X-6986625Y3169259D01*
X-6986625Y3167380D01*
X-6985863Y3165602D01*
X-6984492Y3164128D01*
X-6982866Y3163366D01*
X-6854901Y3163316D01*
X-6852818Y3163620D01*
X-6851091Y3164535D01*
X-6850329Y3166211D01*
X-6850075Y3168091D01*
X-6850329Y3169513D01*
X-6851091Y3171698D01*
X-6852666Y3172612D01*
X-6854901Y3172917D01*
X-6970217Y3172917D01*
X-6948474Y3194710D01*
X-6947966Y3195472D01*
X-6947611Y3197301D01*
X-6947966Y3199231D01*
X-6949135Y3200857D01*
X-6950760Y3201822D01*
G37*
G36*
X-6981901Y3143707D02*
G01*
X-6983984Y3143453D01*
X-6985508Y3142538D01*
X-6986422Y3141014D01*
X-6986727Y3138932D01*
X-6986625Y3089249D01*
X-6985863Y3087624D01*
X-6983628Y3085490D01*
X-6981901Y3085033D01*
X-6980174Y3085388D01*
X-6978599Y3086354D01*
X-6977430Y3087928D01*
X-6977075Y3090164D01*
X-6977075Y3134106D01*
X-6928053Y3134106D01*
X-6928053Y3114243D01*
X-6927494Y3108502D01*
X-6925868Y3103168D01*
X-6923176Y3098241D01*
X-6919417Y3093669D01*
X-6914896Y3089910D01*
X-6909968Y3087217D01*
X-6904583Y3085592D01*
X-6898843Y3085033D01*
X-6879285Y3085033D01*
X-6873494Y3085592D01*
X-6868159Y3087217D01*
X-6863232Y3089910D01*
X-6858711Y3093669D01*
X-6854901Y3098241D01*
X-6852208Y3103168D01*
X-6850583Y3108502D01*
X-6850075Y3114243D01*
X-6850125Y3139998D01*
X-6850786Y3141776D01*
X-6851345Y3142488D01*
X-6852970Y3143402D01*
X-6854901Y3143707D01*
X-6856171Y3143402D01*
X-6857949Y3142488D01*
X-6859270Y3140964D01*
X-6859625Y3139998D01*
X-6859727Y3114243D01*
X-6860082Y3110382D01*
X-6861098Y3106775D01*
X-6862876Y3103524D01*
X-6865315Y3100527D01*
X-6868363Y3098088D01*
X-6871716Y3096361D01*
X-6875373Y3095294D01*
X-6879285Y3094990D01*
X-6898843Y3094990D01*
X-6902754Y3095294D01*
X-6906310Y3096361D01*
X-6909612Y3098088D01*
X-6912559Y3100527D01*
X-6914997Y3103524D01*
X-6916724Y3106775D01*
X-6917791Y3110382D01*
X-6918147Y3114243D01*
X-6918147Y3138932D01*
X-6918452Y3141014D01*
X-6919417Y3142538D01*
X-6920992Y3143453D01*
X-6923227Y3143707D01*
G37*
G36*
X-7761935Y2720289D02*
G01*
X-7764068Y2719984D01*
X-7765542Y2719070D01*
X-7766456Y2717596D01*
X-7766761Y2715463D01*
X-7766761Y2710383D01*
X-7698435Y2710383D01*
X-7698435Y2681173D01*
X-7698790Y2677363D01*
X-7699857Y2673807D01*
X-7701584Y2670505D01*
X-7704023Y2667457D01*
X-7706969Y2664917D01*
X-7710322Y2663088D01*
X-7713980Y2661970D01*
X-7717993Y2661615D01*
X-7737297Y2661615D01*
X-7741208Y2661970D01*
X-7744866Y2663037D01*
X-7748219Y2664764D01*
X-7751267Y2667203D01*
X-7753705Y2670251D01*
X-7755483Y2673604D01*
X-7756499Y2677261D01*
X-7756855Y2681173D01*
X-7756855Y2710383D01*
X-7766761Y2710383D01*
X-7766761Y2681173D01*
X-7766202Y2675382D01*
X-7764627Y2669997D01*
X-7761884Y2664968D01*
X-7758125Y2660345D01*
X-7753603Y2656586D01*
X-7748625Y2653893D01*
X-7743190Y2652268D01*
X-7737297Y2651709D01*
X-7717993Y2651709D01*
X-7712100Y2652268D01*
X-7706715Y2653893D01*
X-7701686Y2656586D01*
X-7697165Y2660345D01*
X-7693507Y2664866D01*
X-7690866Y2669895D01*
X-7689291Y2675280D01*
X-7688783Y2682443D01*
X-7636662Y2652115D01*
X-7635392Y2651760D01*
X-7633817Y2651810D01*
X-7632141Y2652572D01*
X-7631379Y2653233D01*
X-7630414Y2655011D01*
X-7630109Y2656789D01*
X-7630363Y2659075D01*
X-7632395Y2660853D01*
X-7688783Y2693619D01*
X-7688783Y2710383D01*
X-7633766Y2710484D01*
X-7631836Y2711246D01*
X-7630668Y2712618D01*
X-7630159Y2714396D01*
X-7630159Y2715971D01*
X-7631125Y2718765D01*
X-7632700Y2719933D01*
X-7634935Y2720289D01*
G37*
G36*
X-7732725Y2632151D02*
G01*
X-7733944Y2631846D01*
X-7736027Y2630881D01*
X-7765237Y2601671D01*
X-7766202Y2600096D01*
X-7766507Y2598369D01*
X-7766202Y2596489D01*
X-7765237Y2594813D01*
X-7763764Y2593695D01*
X-7761935Y2593289D01*
X-7633766Y2593390D01*
X-7632700Y2593594D01*
X-7631125Y2594559D01*
X-7630363Y2596235D01*
X-7630109Y2598115D01*
X-7630363Y2599537D01*
X-7631125Y2601671D01*
X-7632700Y2602636D01*
X-7634935Y2602941D01*
X-7749997Y2602941D01*
X-7728508Y2624683D01*
X-7727746Y2626360D01*
X-7727746Y2628290D01*
X-7728508Y2630068D01*
X-7729169Y2630881D01*
X-7730845Y2631846D01*
G37*
G36*
X-7702753Y2573731D02*
G01*
X-7712709Y2573070D01*
X-7722260Y2571140D01*
X-7731353Y2567889D01*
X-7738634Y2564079D01*
X-7659319Y2564079D01*
X-7655509Y2563723D01*
X-7651953Y2562555D01*
X-7648651Y2560675D01*
X-7645603Y2557983D01*
X-7643063Y2554935D01*
X-7641234Y2551684D01*
X-7640116Y2548229D01*
X-7639761Y2544521D01*
X-7639761Y2534615D01*
X-7640116Y2530703D01*
X-7641183Y2527147D01*
X-7642910Y2523845D01*
X-7645349Y2520899D01*
X-7648397Y2518359D01*
X-7651750Y2516530D01*
X-7655407Y2515412D01*
X-7659319Y2515057D01*
X-7678877Y2515057D01*
X-7682788Y2515412D01*
X-7686395Y2516479D01*
X-7689646Y2518206D01*
X-7692593Y2520645D01*
X-7695133Y2523693D01*
X-7696962Y2527046D01*
X-7698079Y2530703D01*
X-7698435Y2534615D01*
X-7698435Y2564079D01*
X-7738634Y2564079D01*
X-7740091Y2563317D01*
X-7748625Y2557068D01*
X-7755839Y2549652D01*
X-7761833Y2541168D01*
X-7766507Y2531567D01*
X-7766761Y2529535D01*
X-7766405Y2527706D01*
X-7765237Y2526233D01*
X-7763611Y2525268D01*
X-7761681Y2524963D01*
X-7759395Y2525471D01*
X-7757109Y2528011D01*
X-7756601Y2529789D01*
X-7755585Y2532075D01*
X-7752232Y2538018D01*
X-7749692Y2541574D01*
X-7745577Y2546248D01*
X-7742428Y2549245D01*
X-7738821Y2552090D01*
X-7734757Y2554935D01*
X-7728610Y2558237D01*
X-7721803Y2561031D01*
X-7718196Y2562250D01*
X-7714691Y2563114D01*
X-7711338Y2563672D01*
X-7708087Y2563825D01*
X-7708087Y2534615D01*
X-7707579Y2528722D01*
X-7706004Y2523337D01*
X-7703362Y2518308D01*
X-7699705Y2513787D01*
X-7695184Y2510129D01*
X-7690205Y2507488D01*
X-7684770Y2505913D01*
X-7678877Y2505405D01*
X-7659319Y2505405D01*
X-7653426Y2505964D01*
X-7648041Y2507589D01*
X-7643012Y2510282D01*
X-7638491Y2514041D01*
X-7634833Y2518460D01*
X-7632192Y2523388D01*
X-7630617Y2528773D01*
X-7630109Y2534615D01*
X-7630109Y2544521D01*
X-7630617Y2549956D01*
X-7632192Y2555138D01*
X-7634833Y2560015D01*
X-7638491Y2564587D01*
X-7642961Y2568600D01*
X-7647889Y2571445D01*
X-7653375Y2573172D01*
X-7659319Y2573731D01*
G37*
D10*
X-3629992Y2329995D02*
G01*
X-3629992Y2069995D01*
X-3629995Y4729990D02*
G01*
X-3629992Y4129994D01*
D11*
X-7409497Y3381011D02*
G01*
X-7409497Y3240011D01*
X-7590218Y3240011D02*
G01*
X-7590218Y3381011D01*
X-7574978Y3396251D02*
G01*
X-7424737Y3396251D01*
X-7409497Y3018772D02*
G01*
X-7409497Y3159772D01*
X-7590218Y3159772D02*
G01*
X-7590218Y3018772D01*
X-7574978Y3003532D02*
G01*
X-7424737Y3003532D01*
X-7211583Y3247511D02*
G01*
X-7211583Y3376005D01*
X-7028164Y3376005D01*
X-7028164Y3247511D01*
X-7211583Y3152272D02*
G01*
X-7211583Y3023778D01*
X-7028164Y3023778D01*
X-7028164Y3152272D01*
X-7581661Y2667629D02*
G01*
X-7581661Y2796123D01*
X-7398242Y2796123D01*
X-7398242Y2667629D01*
X-7581661Y2572390D02*
G01*
X-7581661Y2443896D01*
X-7398242Y2443896D01*
X-7398242Y2572390D01*
G75*
G01*
X-7590218Y3381012D02*
G02*
X-7574978Y3396252I15240J0D01*
G75*
G01*
X-7424737Y3396252D02*
G02*
X-7409498Y3381012I0J-15240D01*
G75*
G01*
X-7590218Y3018772D02*
G03*
X-7574978Y3003532I15240J0D01*
G75*
G01*
X-7424737Y3003532D02*
G03*
X-7409498Y3018772I0J15240D01*
M02*
