G04 Layer: TopSolderMaskLayer*
G04 EasyEDA v6.5.51, 2025-12-27 20:08:00*
G04 bdb22dcb27374e0e8d35cee5088a979a,10*
G04 Gerber Generator version 0.2*
G04 Scale: 100 percent, Rotated: No, Reflected: No *
G04 Dimensions in millimeters *
G04 leading zeros omitted , absolute positions ,4 integer and 5 decimal *
%FSLAX45Y45*%
%MOMM*%

%AMMACRO1*4,1,8,-1.6707,-1.1,-1.7,-1.0707,-1.7,1.0707,-1.6707,1.1,1.6707,1.1,1.7,1.0707,1.7,-1.0707,1.6707,-1.1,-1.6707,-1.1,0*%
%AMMACRO2*4,1,8,-0.3207,-0.8,-0.35,-0.7707,-0.35,0.7707,-0.3207,0.8,0.3207,0.8,0.35,0.7707,0.35,-0.7707,0.3207,-0.8,-0.3207,-0.8,0*%
%AMMACRO3*4,1,8,-0.6961,-0.7558,-0.7258,-0.726,-0.7258,0.7261,-0.6961,0.7558,0.696,0.7558,0.7258,0.7261,0.7258,-0.726,0.696,-0.7558,-0.6961,-0.7558,0*%
%AMMACRO4*4,1,8,-1.749,-0.7933,-1.7788,-0.7635,-1.7788,0.7635,-1.749,0.7933,1.749,0.7933,1.7788,0.7635,1.7788,-0.7635,1.749,-0.7933,-1.749,-0.7933,0*%
%AMMACRO5*4,1,8,-0.2711,-0.3208,-0.3008,-0.291,-0.3008,0.2911,-0.2711,0.3208,0.271,0.3208,0.3008,0.2911,0.3008,-0.291,0.271,-0.3208,-0.2711,-0.3208,0*%
%AMMACRO6*4,1,8,-0.5211,-0.5008,-0.5508,-0.471,-0.5508,0.471,-0.5211,0.5008,0.521,0.5008,0.5508,0.471,0.5508,-0.471,0.521,-0.5008,-0.5211,-0.5008,0*%
%AMMACRO7*4,1,8,-0.7095,-0.6171,-0.7393,-0.5873,-0.7393,0.5873,-0.7095,0.6171,0.7095,0.6171,0.7393,0.5873,0.7393,-0.5873,0.7095,-0.6171,-0.7095,-0.6171,0*%
%AMMACRO8*4,1,8,-0.5873,-0.7393,-0.6171,-0.7095,-0.6171,0.7095,-0.5873,0.7393,0.5873,0.7393,0.6171,0.7095,0.6171,-0.7095,0.5873,-0.7393,-0.5873,-0.7393,0*%
%AMMACRO9*4,1,8,-0.8716,-0.6546,-0.9013,-0.6248,-0.9013,0.6248,-0.8716,0.6546,0.8715,0.6546,0.9013,0.6248,0.9013,-0.6248,0.8715,-0.6546,-0.8716,-0.6546,0*%
%AMMACRO10*4,1,8,-0.6248,-0.9013,-0.6546,-0.8715,-0.6546,0.8716,-0.6248,0.9013,0.6248,0.9013,0.6546,0.8716,0.6546,-0.8715,0.6248,-0.9013,-0.6248,-0.9013,0*%
%AMMACRO11*4,1,8,-1.749,-0.6921,-1.7788,-0.6623,-1.7788,0.6623,-1.749,0.6921,1.749,0.6921,1.7788,0.6623,1.7788,-0.6623,1.749,-0.6921,-1.749,-0.6921,0*%
%AMMACRO12*4,1,8,-0.6623,-1.7788,-0.6921,-1.749,-0.6921,1.749,-0.6623,1.7788,0.6623,1.7788,0.6921,1.749,0.6921,-1.749,0.6623,-1.7788,-0.6623,-1.7788,0*%
%AMMACRO13*4,1,8,-0.7711,-0.7508,-0.8008,-0.721,-0.8008,0.7211,-0.7711,0.7508,0.771,0.7508,0.8008,0.7211,0.8008,-0.721,0.771,-0.7508,-0.7711,-0.7508,0*%
%AMMACRO14*4,1,8,-1.1172,-1.0745,-1.147,-1.0448,-1.147,1.0448,-1.1172,1.0745,1.1172,1.0745,1.147,1.0448,1.147,-1.0448,1.1172,-1.0745,-1.1172,-1.0745,0*%
%AMMACRO15*4,1,8,-0.8311,-1.074,-0.8608,-1.0442,-0.8608,1.0442,-0.8311,1.074,0.831,1.074,0.8608,1.0442,0.8608,-1.0442,0.831,-1.074,-0.8311,-1.074,0*%
%AMMACRO16*4,1,8,-1.0442,-0.8608,-1.074,-0.831,-1.074,0.8311,-1.0442,0.8608,1.0442,0.8608,1.074,0.8311,1.074,-0.831,1.0442,-0.8608,-1.0442,-0.8608,0*%
%AMMACRO17*4,1,8,-1.6711,-1.4008,-1.7008,-1.371,-1.7008,1.3711,-1.6711,1.4008,1.671,1.4008,1.7008,1.3711,1.7008,-1.371,1.671,-1.4008,-1.6711,-1.4008,0*%
%AMMACRO18*4,1,8,-0.5103,-1.2553,-0.5401,-1.2256,-0.5401,1.2256,-0.5103,1.2553,0.5103,1.2553,0.5401,1.2256,0.5401,-1.2256,0.5103,-1.2553,-0.5103,-1.2553,0*%
%AMMACRO19*4,1,8,-2.7952,-2.9063,-2.825,-2.8766,-2.825,2.8766,-2.7952,2.9063,2.7952,2.9063,2.825,2.8766,2.825,-2.8766,2.7952,-2.9063,-2.7952,-2.9063,0*%
%AMMACRO20*4,1,8,-2.0211,-0.7008,-2.0508,-0.671,-2.0508,0.6711,-2.0211,0.7008,2.021,0.7008,2.0508,0.6711,2.0508,-0.671,2.021,-0.7008,-2.0211,-0.7008,0*%
%AMMACRO21*4,1,8,-4.221,-5.334,-4.2508,-5.3042,-4.2508,5.3043,-4.221,5.334,4.221,5.334,4.2508,5.3043,4.2508,-5.3042,4.221,-5.334,-4.221,-5.334,0*%
%AMMACRO22*4,1,8,-0.7261,-0.7258,-0.7558,-0.696,-0.7558,0.6961,-0.7261,0.7258,0.726,0.7258,0.7558,0.6961,0.7558,-0.696,0.726,-0.7258,-0.7261,-0.7258,0*%
%AMMACRO23*4,1,8,-0.5957,-0.35,-0.625,-0.3207,-0.625,0.3207,-0.5957,0.35,0.5957,0.35,0.625,0.3207,0.625,-0.3207,0.5957,-0.35,-0.5957,-0.35,0*%
%AMMACRO24*4,1,8,-0.5957,-0.2,-0.625,-0.1707,-0.625,0.1707,-0.5957,0.2,0.5957,0.2,0.625,0.1707,0.625,-0.1707,0.5957,-0.2,-0.5957,-0.2,0*%
%AMMACRO25*4,1,8,-2.9311,-1.9628,-2.9608,-1.933,-2.9608,1.9331,-2.9311,1.9628,2.931,1.9628,2.9608,1.9331,2.9608,-1.933,2.931,-1.9628,-2.9311,-1.9628,0*%
%AMMACRO26*4,1,8,-0.8851,-0.7933,-0.9148,-0.7635,-0.9148,0.7635,-0.8851,0.7933,0.885,0.7933,0.9148,0.7635,0.9148,-0.7635,0.885,-0.7933,-0.8851,-0.7933,0*%
%ADD10C,1.9016*%
%ADD11O,2.072589X0.703605*%
%ADD12MACRO1*%
%ADD13MACRO2*%
%ADD14C,2.1016*%
%ADD15C,0.0153*%
%ADD16MACRO3*%
%ADD17MACRO4*%
%ADD18MACRO5*%
%ADD19MACRO6*%
%ADD20MACRO7*%
%ADD21MACRO8*%
%ADD22MACRO9*%
%ADD23MACRO10*%
%ADD24MACRO11*%
%ADD25MACRO12*%
%ADD26MACRO13*%
%ADD27MACRO14*%
%ADD28MACRO15*%
%ADD29MACRO16*%
%ADD30MACRO17*%
%ADD31MACRO18*%
%ADD32MACRO19*%
%ADD33MACRO20*%
%ADD34MACRO21*%
%ADD35MACRO22*%
%ADD36MACRO23*%
%ADD37MACRO24*%
%ADD38O,2.200021X1.100023*%
%ADD39O,1.900022X1.100023*%
%ADD40MACRO25*%
%ADD41MACRO26*%
%ADD42C,1.1016*%

%LPD*%
D10*
G01*
X-5431028Y4030903D03*
G01*
X-5431028Y3776903D03*
G01*
X-4669028Y3776903D03*
G01*
X-4669028Y4030903D03*
G01*
X-5431028Y3522903D03*
G01*
X-5431028Y3268903D03*
G01*
X-4669028Y3522903D03*
G01*
X-4669028Y3268903D03*
D11*
G01*
X-7683500Y3337813D03*
G01*
X-7683500Y3210813D03*
G01*
X-7683500Y3083813D03*
G01*
X-7683500Y2956813D03*
G01*
X-7683500Y2829813D03*
G01*
X-7683500Y2702813D03*
G01*
X-7683500Y2575813D03*
G01*
X-7683500Y2448813D03*
G01*
X-7136384Y3337813D03*
G01*
X-7136384Y3210813D03*
G01*
X-7136384Y3083813D03*
G01*
X-7136384Y2956813D03*
G01*
X-7136384Y2829813D03*
G01*
X-7136384Y2702813D03*
G01*
X-7136384Y2575813D03*
G01*
X-7136384Y2448813D03*
D12*
G01*
X-8912090Y4362183D03*
D13*
G01*
X-8712090Y4662182D03*
G01*
X-8812090Y4662182D03*
G01*
X-8912090Y4662182D03*
G01*
X-9012090Y4662182D03*
G01*
X-9112089Y4662182D03*
G01*
X-9112089Y4062183D03*
G01*
X-9012090Y4062181D03*
G01*
X-8912092Y4062178D03*
G01*
X-8812090Y4062181D03*
G01*
X-8712090Y4062183D03*
D14*
G01*
X2399893Y4207916D03*
G01*
X2399893Y3191916D03*
G01*
X2399893Y3699916D03*
D16*
G01*
X-5899912Y3600015D03*
G01*
X-5899912Y3800020D03*
G01*
X-8400034Y4149925D03*
G01*
X-8400034Y4349930D03*
D17*
G01*
X-4249927Y4170791D03*
G01*
X-4249927Y4629292D03*
D16*
G01*
X-8599931Y2350081D03*
G01*
X-8599931Y2550086D03*
G01*
X800100Y2550086D03*
G01*
X800100Y2350081D03*
D14*
G01*
X-449961Y4103878D03*
G01*
X-449961Y3595878D03*
D18*
G01*
X-8008021Y2999994D03*
G01*
X-8092022Y2999994D03*
D16*
G01*
X-450088Y5299890D03*
G01*
X-450088Y5099885D03*
G01*
X400050Y5099885D03*
G01*
X400050Y5299890D03*
D19*
G01*
X-8049953Y4165114D03*
G01*
X-8049953Y4335114D03*
D20*
G01*
X-7599934Y4909891D03*
G01*
X-7599934Y5109900D03*
G01*
X-7450073Y4349932D03*
G01*
X-7450073Y4149923D03*
D21*
G01*
X-9139864Y3700017D03*
G01*
X-8939855Y3700017D03*
D22*
G01*
X-8428481Y5103670D03*
G01*
X-8428481Y4807917D03*
D21*
G01*
X-8200064Y2350007D03*
G01*
X-8000055Y2350007D03*
D22*
G01*
X-5899912Y4397804D03*
G01*
X-5899912Y4102051D03*
D20*
G01*
X-7750048Y4349932D03*
G01*
X-7750048Y4149923D03*
D23*
G01*
X-8997744Y3400043D03*
G01*
X-8701991Y3400043D03*
G01*
X-8814259Y5012181D03*
G01*
X-9110012Y5012181D03*
D21*
G01*
X-8460049Y3709923D03*
G01*
X-8660058Y3709923D03*
D20*
G01*
X-1899919Y4200072D03*
G01*
X-1899919Y4000063D03*
D24*
G01*
X299973Y2756710D03*
G01*
X299973Y2143457D03*
D23*
G01*
X-4102051Y3800093D03*
G01*
X-4397804Y3800093D03*
D24*
G01*
X-299973Y2143457D03*
G01*
X-299973Y2756710D03*
D22*
G01*
X-4400042Y2702003D03*
G01*
X-4400042Y2997756D03*
D20*
G01*
X-6649973Y3260018D03*
G01*
X-6649973Y3060009D03*
D21*
G01*
X-6649902Y2800096D03*
G01*
X-6449893Y2800096D03*
D24*
G01*
X-899922Y2756710D03*
G01*
X-899922Y2143457D03*
D20*
G01*
X-6350000Y3260018D03*
G01*
X-6350000Y3060009D03*
G01*
X-6050026Y3050103D03*
G01*
X-6050026Y3250112D03*
G01*
X-5750051Y3050103D03*
G01*
X-5750051Y3250112D03*
D24*
G01*
X1249934Y2756710D03*
G01*
X1249934Y2143457D03*
D21*
G01*
X-7979989Y2739898D03*
G01*
X-8179998Y2739898D03*
G01*
X-7450002Y3649980D03*
G01*
X-7249993Y3649980D03*
D22*
G01*
X1249934Y5297980D03*
G01*
X1249934Y5002227D03*
D20*
G01*
X800100Y5099883D03*
G01*
X800100Y5299892D03*
G01*
X0Y5299892D03*
G01*
X0Y5099883D03*
D25*
G01*
X1166670Y4160011D03*
G01*
X553417Y4160011D03*
D26*
G01*
X-9800080Y2869935D03*
G01*
X-9800080Y3629921D03*
D27*
G01*
X-7944967Y5076807D03*
G01*
X-7944967Y4604656D03*
D28*
G01*
X-8110921Y3830337D03*
G01*
X-8109041Y3369541D03*
D29*
G01*
X-5880384Y4749111D03*
G01*
X-5419587Y4750991D03*
G01*
X-5280436Y4449137D03*
G01*
X-4819639Y4451017D03*
D30*
G01*
X-2150110Y4531283D03*
G01*
X-2150110Y5268544D03*
D29*
G01*
X-3919468Y3350948D03*
G01*
X-4380265Y3349068D03*
D30*
G01*
X-1249934Y4531283D03*
G01*
X-1249934Y5268544D03*
D31*
G01*
X-6471044Y5002244D03*
G01*
X-6929045Y5002198D03*
D32*
G01*
X-6700045Y4317493D03*
D33*
G01*
X-2908477Y3153916D03*
G01*
X-2908477Y2645916D03*
D34*
G01*
X-1891304Y2899918D03*
D35*
G01*
X-6789983Y3649992D03*
G01*
X-6989988Y3649992D03*
D14*
G01*
X-9799980Y5099989D03*
G01*
X2099995Y5100015D03*
G01*
X-9799954Y2399969D03*
G01*
X2100021Y2399969D03*
D36*
G01*
X-9608982Y4719995D03*
G01*
X-9608982Y4639995D03*
G01*
X-9608982Y4159996D03*
G01*
X-9608982Y4079996D03*
D37*
G01*
X-9608982Y4574997D03*
G01*
X-9608982Y4524997D03*
G01*
X-9608982Y4474997D03*
G01*
X-9608982Y4424997D03*
G01*
X-9608982Y4374997D03*
G01*
X-9608982Y4324997D03*
G01*
X-9608982Y4274997D03*
G01*
X-9608982Y4224997D03*
D38*
G01*
X-9675952Y4831969D03*
G01*
X-9675952Y3967962D03*
D39*
G01*
X-10090962Y4831969D03*
G01*
X-10090962Y3967962D03*
D28*
G01*
X1679054Y4180387D03*
G01*
X1680933Y3719591D03*
D40*
G01*
X-3299993Y5217791D03*
G01*
X-3299993Y4182190D03*
D41*
G01*
X-7249985Y5089240D03*
G01*
X-7249985Y4770739D03*
D42*
G01*
X-9099981Y5299989D03*
G01*
X-8999981Y5399989D03*
G01*
X-8899982Y5299989D03*
G01*
X-8799982Y5399989D03*
G01*
X-8699982Y5299989D03*
G01*
X-8599982Y5399989D03*
G01*
X-8499983Y5299989D03*
G01*
X-8399983Y5399989D03*
G01*
X-8299983Y5299989D03*
G01*
X-8199983Y5399989D03*
G01*
X-8099983Y5299989D03*
G01*
X-7999984Y5399989D03*
G01*
X-7899984Y5299989D03*
G01*
X-7799984Y5399989D03*
G01*
X-7699984Y5299989D03*
G01*
X-7599984Y5399989D03*
G01*
X-7499985Y5299989D03*
G01*
X-7399985Y5399989D03*
G01*
X-7299985Y5299989D03*
G01*
X-7199985Y5399989D03*
G01*
X-7099985Y5299989D03*
G01*
X-6999986Y5399989D03*
G01*
X-6899986Y5299989D03*
G01*
X-5749975Y5199989D03*
G01*
X-5999987Y5199989D03*
G01*
X-5899988Y5349976D03*
G01*
X-6099987Y5349976D03*
G01*
X-6249974Y5149977D03*
G01*
X-6199987Y4949977D03*
G01*
X-6249974Y4749977D03*
G01*
X-6199987Y4549978D03*
G01*
X-6249974Y4349978D03*
G01*
X-5599988Y5349976D03*
G01*
X-5449976Y5199989D03*
G01*
X-5299989Y5349976D03*
G01*
X-5149977Y5199989D03*
G01*
X-4999989Y5049977D03*
G01*
X-4849977Y4899990D03*
G01*
X-4999989Y5349976D03*
G01*
X-4849977Y5199989D03*
G01*
X-4699990Y5049977D03*
G01*
X-4549978Y4899990D03*
G01*
X-4699990Y5349976D03*
G01*
X-4549978Y5199989D03*
G01*
X-4399991Y5049977D03*
G01*
X-4249978Y4899990D03*
G01*
X-4399991Y5349976D03*
G01*
X-4249978Y5199989D03*
G01*
X-4099991Y5049977D03*
G01*
X-3949979Y4899990D03*
G01*
X-4099991Y5349976D03*
G01*
X-3949979Y5199989D03*
G01*
X-3799992Y5049977D03*
G01*
X-3799992Y5349976D03*
G01*
X-2799994Y4049979D03*
G01*
X-2599994Y3849979D03*
G01*
X-2399995Y3599992D03*
G01*
X-2149982Y3599992D03*
G01*
X-2349982Y3849979D03*
G01*
X-2549982Y4049979D03*
G01*
X-2299995Y4049979D03*
G01*
X-2549982Y4299991D03*
G01*
X-2099995Y3849979D03*
G01*
X-2499995Y5349976D03*
G01*
X-2649981Y5199989D03*
G01*
X-2799994Y5349976D03*
G01*
X-1899996Y3599992D03*
M02*
