G04 Layer: TopLayer*
G04 EasyEDA v6.5.51, 2025-12-27 20:08:00*
G04 bdb22dcb27374e0e8d35cee5088a979a,10*
G04 Gerber Generator version 0.2*
G04 Scale: 100 percent, Rotated: No, Reflected: No *
G04 Dimensions in millimeters *
G04 leading zeros omitted , absolute positions ,4 integer and 5 decimal *
%FSLAX45Y45*%
%MOMM*%

%AMMACRO1*21,1,$1,$2,0,0,$3*%
%ADD10C,1.0000*%
%ADD11C,0.8000*%
%ADD12C,0.5000*%
%ADD13C,2.0000*%
%ADD14C,0.2540*%
%ADD15C,0.6000*%
%ADD16O,1.970989X0.602005*%
%ADD17R,3.3000X2.1000*%
%ADD18R,0.0123X2.1000*%
%ADD19R,0.6000X1.5000*%
%ADD20MACRO1,1.35X1.41X0.0000*%
%ADD21R,1.3500X1.4100*%
%ADD22MACRO1,3.456X1.485X0.0000*%
%ADD23R,3.4560X1.4850*%
%ADD24R,0.5000X0.5400*%
%ADD25R,1.0000X0.8999*%
%ADD26MACRO1,1.377X1.1325X0.0000*%
%ADD27R,1.3770X1.1325*%
%ADD28MACRO1,1.377X1.1325X-90.0000*%
%ADD29MACRO1,1.701X1.2075X0.0000*%
%ADD30R,1.7010X1.2075*%
%ADD31MACRO1,1.701X1.2075X-90.0000*%
%ADD32MACRO1,1.701X1.2075X90.0000*%
%ADD33MACRO1,1.377X1.1325X90.0000*%
%ADD34MACRO1,3.456X1.2825X0.0000*%
%ADD35R,3.4560X1.2825*%
%ADD36MACRO1,3.456X1.2825X90.0000*%
%ADD37R,1.5000X1.4000*%
%ADD38R,2.1924X2.0475*%
%ADD39MACRO1,2.1924X2.0475X0.0000*%
%ADD40MACRO1,1.62X2.0464X0.0000*%
%ADD41MACRO1,1.62X2.0464X-90.0000*%
%ADD42MACRO1,1.62X2.0464X90.0000*%
%ADD43R,3.3000X2.7000*%
%ADD44MACRO1,0.9786X2.4091X0.0000*%
%ADD45MACRO1,5.5484X5.7111X0.0000*%
%ADD46R,4.0000X1.3000*%
%ADD47R,8.4000X10.5664*%
%ADD48MACRO1,1.35X1.41X90.0000*%
%ADD49R,1.1500X0.6000*%
%ADD50R,1.1500X0.3000*%
%ADD51MACRO1,5.82X3.824X0.0000*%
%ADD52R,5.8200X3.8240*%
%ADD53MACRO1,1.728X1.485X0.0000*%
%ADD54R,1.7280X1.4850*%
%ADD55C,1.8000*%
%ADD56O,2.099996X0.999998*%
%ADD57O,1.799996X0.999998*%
%ADD58C,0.6200*%

%LPD*%
G36*
X-7264704Y2848660D02*
G01*
X-7268616Y2849676D01*
X-7271766Y2852115D01*
X-7273747Y2855620D01*
X-7274204Y2860446D01*
X-7274204Y2927451D01*
X-7273442Y2931312D01*
X-7271308Y2934563D01*
X-7268514Y2936494D01*
X-7271207Y2938322D01*
X-7273391Y2941624D01*
X-7274204Y2945485D01*
X-7274204Y2967990D01*
X-7273391Y2971850D01*
X-7271207Y2975152D01*
X-7268514Y2976981D01*
X-7271308Y2978912D01*
X-7273442Y2982163D01*
X-7274204Y2986024D01*
X-7274204Y3038754D01*
X-7273391Y3042716D01*
X-7271105Y3046069D01*
X-7267702Y3048254D01*
X-7263688Y3048914D01*
X-7259777Y3048000D01*
X-7256525Y3045561D01*
X-7254443Y3042107D01*
X-7253274Y3038805D01*
X-7250175Y3033877D01*
X-7246112Y3029813D01*
X-7241184Y3026714D01*
X-7234631Y3024428D01*
X-7231075Y3022244D01*
X-7228636Y3018790D01*
X-7227874Y3013862D01*
X-7228433Y3010712D01*
X-7229906Y3007918D01*
X-7232192Y3005734D01*
X-7240930Y2999587D01*
X-7247839Y2992729D01*
X-7253427Y2984703D01*
X-7254798Y2981706D01*
X-7257796Y2978150D01*
X-7192111Y2978150D01*
X-7192111Y3013913D01*
X-7191349Y3017824D01*
X-7189165Y3021126D01*
X-7185863Y3023311D01*
X-7181951Y3024073D01*
X-7091019Y3024073D01*
X-7087158Y3023311D01*
X-7083856Y3021126D01*
X-7081621Y3017824D01*
X-7080859Y3013913D01*
X-7080859Y2978150D01*
X-7016496Y2978150D01*
X-7019594Y2984703D01*
X-7025182Y2992729D01*
X-7032091Y2999587D01*
X-7040625Y3005582D01*
X-7043521Y3008731D01*
X-7044893Y3012744D01*
X-7044486Y3016961D01*
X-7042403Y3020669D01*
X-7038949Y3023209D01*
X-7034784Y3024073D01*
X-6870293Y3024073D01*
X-6864756Y3024682D01*
X-6860641Y3024530D01*
X-6856882Y3022752D01*
X-6854190Y3019653D01*
X-6852920Y3015691D01*
X-6853326Y3011576D01*
X-6855358Y3007969D01*
X-6863232Y2998876D01*
X-6868668Y2990088D01*
X-6872630Y2980537D01*
X-6875068Y2970479D01*
X-6875881Y2959811D01*
X-6875881Y2910484D01*
X-6874916Y2898749D01*
X-6875424Y2894634D01*
X-6877507Y2891078D01*
X-6880859Y2888640D01*
X-6884873Y2887726D01*
X-6888937Y2888488D01*
X-6896912Y2891790D01*
X-6906971Y2894228D01*
X-6917639Y2895041D01*
X-7026706Y2895041D01*
X-7030872Y2895955D01*
X-7034275Y2898444D01*
X-7036358Y2902153D01*
X-7036765Y2906420D01*
X-7035393Y2910433D01*
X-7025182Y2920746D01*
X-7019594Y2928772D01*
X-7016496Y2935325D01*
X-7080859Y2935325D01*
X-7080859Y2905201D01*
X-7081621Y2901340D01*
X-7083856Y2898038D01*
X-7087158Y2895854D01*
X-7091019Y2895041D01*
X-7129881Y2895092D01*
X-7136485Y2895600D01*
X-7146798Y2894787D01*
X-7156856Y2892399D01*
X-7166406Y2888437D01*
X-7170877Y2886100D01*
X-7173671Y2885744D01*
X-7181951Y2885744D01*
X-7185863Y2886506D01*
X-7189165Y2888742D01*
X-7191349Y2891993D01*
X-7192111Y2895904D01*
X-7192111Y2935325D01*
X-7257796Y2935325D01*
X-7254798Y2931769D01*
X-7253427Y2928772D01*
X-7247839Y2920746D01*
X-7240930Y2913837D01*
X-7232903Y2908249D01*
X-7224064Y2904134D01*
X-7220000Y2903067D01*
X-7216089Y2901035D01*
X-7213447Y2897530D01*
X-7212482Y2893212D01*
X-7213447Y2888945D01*
X-7216089Y2885440D01*
X-7220000Y2883408D01*
X-7224064Y2882341D01*
X-7232903Y2878226D01*
X-7240930Y2872587D01*
X-7247839Y2865729D01*
X-7253427Y2857703D01*
X-7254900Y2854502D01*
X-7257288Y2851251D01*
X-7260742Y2849219D01*
G37*

%LPD*%
G36*
X-9799421Y2025904D02*
G01*
X-9830054Y2026869D01*
X-9859721Y2029714D01*
X-9889134Y2034387D01*
X-9918192Y2040889D01*
X-9946792Y2049221D01*
X-9974783Y2059330D01*
X-10002113Y2071166D01*
X-10028631Y2084730D01*
X-10054285Y2099919D01*
X-10078872Y2116632D01*
X-10102392Y2134920D01*
X-10124744Y2154631D01*
X-10145776Y2175713D01*
X-10165435Y2198065D01*
X-10183672Y2221585D01*
X-10200436Y2246223D01*
X-10215575Y2271877D01*
X-10229088Y2298446D01*
X-10240873Y2325776D01*
X-10250932Y2353818D01*
X-10259212Y2382418D01*
X-10265714Y2411476D01*
X-10270337Y2440889D01*
X-10273131Y2470556D01*
X-10274046Y2500528D01*
X-10274046Y4999329D01*
X-10273080Y5029962D01*
X-10270286Y5059629D01*
X-10265613Y5089042D01*
X-10259060Y5118100D01*
X-10250728Y5146700D01*
X-10240619Y5174691D01*
X-10228783Y5202021D01*
X-10215270Y5228539D01*
X-10200081Y5254193D01*
X-10183317Y5278780D01*
X-10165029Y5302300D01*
X-10145318Y5324652D01*
X-10124287Y5345684D01*
X-10101935Y5365394D01*
X-10078364Y5383631D01*
X-10053726Y5400344D01*
X-10028072Y5415483D01*
X-10001554Y5428996D01*
X-9974224Y5440781D01*
X-9946182Y5450840D01*
X-9917582Y5459120D01*
X-9888474Y5465622D01*
X-9859060Y5470245D01*
X-9829444Y5473039D01*
X-9799421Y5474004D01*
X-9137142Y5474004D01*
X-9133281Y5473192D01*
X-9129979Y5471007D01*
X-9127794Y5467705D01*
X-9126982Y5463844D01*
X-9127794Y5459933D01*
X-9129979Y5456631D01*
X-9268104Y5318506D01*
X-9271914Y5313781D01*
X-9274403Y5308549D01*
X-9275724Y5302910D01*
X-9275876Y5299710D01*
X-9275876Y4900574D01*
X-9275165Y4894224D01*
X-9275622Y4889906D01*
X-9277858Y4886147D01*
X-9458960Y4694072D01*
X-9462312Y4691735D01*
X-9466326Y4690872D01*
X-9515398Y4690872D01*
X-9519767Y4691888D01*
X-9523272Y4694631D01*
X-9525304Y4698644D01*
X-9577120Y4698644D01*
X-9580321Y4696612D01*
X-9584029Y4695901D01*
X-9633915Y4695901D01*
X-9637674Y4696612D01*
X-9640874Y4698644D01*
X-9660280Y4698644D01*
X-9664598Y4699609D01*
X-9668103Y4702302D01*
X-9670084Y4706264D01*
X-9670948Y4709414D01*
X-9675012Y4718405D01*
X-9679787Y4725517D01*
X-9681413Y4729530D01*
X-9681159Y4733899D01*
X-9679127Y4737760D01*
X-9675622Y4740402D01*
X-9671354Y4741367D01*
X-9644075Y4741367D01*
X-9644075Y4745939D01*
X-9643313Y4749800D01*
X-9641128Y4753102D01*
X-9637826Y4755337D01*
X-9633915Y4756099D01*
X-9621367Y4756099D01*
X-9609683Y4756962D01*
X-9598609Y4759502D01*
X-9587738Y4763770D01*
X-9583877Y4764430D01*
X-9580067Y4763617D01*
X-9576816Y4761433D01*
X-9574631Y4758131D01*
X-9573869Y4754270D01*
X-9573869Y4741367D01*
X-9525558Y4741367D01*
X-9525558Y4749444D01*
X-9526270Y4755743D01*
X-9528200Y4761230D01*
X-9531299Y4766106D01*
X-9535363Y4770221D01*
X-9540290Y4773269D01*
X-9545726Y4775200D01*
X-9549790Y4775657D01*
X-9553702Y4776927D01*
X-9556800Y4779721D01*
X-9558528Y4783480D01*
X-9558629Y4787646D01*
X-9557054Y4791456D01*
X-9555276Y4794046D01*
X-9550349Y4804257D01*
X-9546996Y4815128D01*
X-9545320Y4826304D01*
X-9545320Y4837684D01*
X-9546996Y4848860D01*
X-9550349Y4859731D01*
X-9555276Y4869942D01*
X-9561677Y4879289D01*
X-9569348Y4887620D01*
X-9578238Y4894681D01*
X-9588042Y4900371D01*
X-9598609Y4904486D01*
X-9609683Y4907026D01*
X-9621367Y4907889D01*
X-9730587Y4907889D01*
X-9742271Y4907026D01*
X-9753346Y4904486D01*
X-9763912Y4900371D01*
X-9773716Y4894681D01*
X-9782606Y4887620D01*
X-9790328Y4879289D01*
X-9796678Y4869942D01*
X-9801606Y4859731D01*
X-9804958Y4848860D01*
X-9806635Y4837684D01*
X-9806635Y4826304D01*
X-9804958Y4815128D01*
X-9801606Y4804257D01*
X-9796678Y4794046D01*
X-9790328Y4784699D01*
X-9782606Y4776368D01*
X-9773716Y4769307D01*
X-9763912Y4763617D01*
X-9754362Y4759858D01*
X-9750653Y4757369D01*
X-9748367Y4753508D01*
X-9748012Y4749088D01*
X-9749536Y4744872D01*
X-9752736Y4741773D01*
X-9760661Y4736896D01*
X-9768128Y4730343D01*
X-9774326Y4722622D01*
X-9779152Y4713986D01*
X-9782454Y4704689D01*
X-9784130Y4694885D01*
X-9784130Y4685030D01*
X-9782454Y4675225D01*
X-9779152Y4665929D01*
X-9774326Y4657293D01*
X-9768128Y4649571D01*
X-9760661Y4643018D01*
X-9752228Y4637836D01*
X-9743033Y4634128D01*
X-9733381Y4632045D01*
X-9723475Y4631639D01*
X-9713671Y4632909D01*
X-9705543Y4635398D01*
X-9701784Y4635804D01*
X-9698126Y4634839D01*
X-9695078Y4632604D01*
X-9693097Y4629404D01*
X-9692386Y4625695D01*
X-9692386Y4610557D01*
X-9691674Y4604258D01*
X-9690811Y4599990D01*
X-9691674Y4595723D01*
X-9692386Y4589424D01*
X-9692386Y4560570D01*
X-9691674Y4554270D01*
X-9690811Y4550003D01*
X-9691674Y4545736D01*
X-9692386Y4539437D01*
X-9692386Y4523740D01*
X-9693148Y4519879D01*
X-9695383Y4516577D01*
X-9698685Y4514342D01*
X-9702546Y4513580D01*
X-9724491Y4513580D01*
X-9732518Y4512818D01*
X-9739731Y4510582D01*
X-9746386Y4507026D01*
X-9752634Y4501946D01*
X-9777069Y4477512D01*
X-9778898Y4476038D01*
X-9783775Y4473041D01*
X-9791039Y4466691D01*
X-9797084Y4459173D01*
X-9801809Y4450740D01*
X-9805009Y4441647D01*
X-9806635Y4432147D01*
X-9806635Y4422495D01*
X-9805009Y4412996D01*
X-9801809Y4403902D01*
X-9797084Y4395470D01*
X-9791039Y4387951D01*
X-9784943Y4382617D01*
X-9782048Y4378553D01*
X-9776917Y4372356D01*
X-9752634Y4348022D01*
X-9746386Y4342942D01*
X-9739731Y4339336D01*
X-9732518Y4337151D01*
X-9724491Y4336389D01*
X-9702546Y4336389D01*
X-9698685Y4335576D01*
X-9695383Y4333392D01*
X-9693148Y4330090D01*
X-9692386Y4326229D01*
X-9692386Y4310583D01*
X-9691674Y4304233D01*
X-9690811Y4300524D01*
X-9691065Y4297629D01*
X-9691979Y4293971D01*
X-9693859Y4290060D01*
X-9697161Y4287316D01*
X-9701326Y4286199D01*
X-9705594Y4286910D01*
X-9709150Y4289298D01*
X-9712401Y4292650D01*
X-9720173Y4298391D01*
X-9728758Y4302760D01*
X-9738004Y4305554D01*
X-9747554Y4306824D01*
X-9757206Y4306366D01*
X-9766604Y4304334D01*
X-9775596Y4300778D01*
X-9783775Y4295698D01*
X-9791039Y4289348D01*
X-9797084Y4281830D01*
X-9801809Y4273397D01*
X-9805009Y4264304D01*
X-9806635Y4254804D01*
X-9806635Y4245152D01*
X-9805009Y4235653D01*
X-9801809Y4226560D01*
X-9797084Y4218127D01*
X-9791039Y4210608D01*
X-9783775Y4204258D01*
X-9775596Y4199178D01*
X-9766604Y4195622D01*
X-9757206Y4193590D01*
X-9749078Y4193235D01*
X-9744710Y4192015D01*
X-9739731Y4189374D01*
X-9732772Y4187240D01*
X-9728911Y4185107D01*
X-9726371Y4181500D01*
X-9725558Y4177131D01*
X-9726726Y4172864D01*
X-9729571Y4169460D01*
X-9733584Y4167632D01*
X-9742017Y4165803D01*
X-9751212Y4162094D01*
X-9759645Y4156913D01*
X-9767112Y4150360D01*
X-9773310Y4142638D01*
X-9778136Y4134002D01*
X-9781438Y4124706D01*
X-9783114Y4114901D01*
X-9783114Y4105046D01*
X-9781438Y4095242D01*
X-9778136Y4085945D01*
X-9773310Y4077309D01*
X-9767112Y4069587D01*
X-9759645Y4063034D01*
X-9752177Y4058462D01*
X-9748977Y4055313D01*
X-9747453Y4051147D01*
X-9747808Y4046677D01*
X-9750094Y4042816D01*
X-9753803Y4040327D01*
X-9763912Y4036364D01*
X-9773716Y4030675D01*
X-9782606Y4023614D01*
X-9790328Y4015282D01*
X-9796678Y4005935D01*
X-9801606Y3995724D01*
X-9804958Y3984904D01*
X-9806635Y3973677D01*
X-9806635Y3962349D01*
X-9804958Y3951122D01*
X-9801606Y3940251D01*
X-9796678Y3930040D01*
X-9790328Y3920693D01*
X-9782606Y3912362D01*
X-9773716Y3905300D01*
X-9763912Y3899611D01*
X-9753346Y3895496D01*
X-9742271Y3892956D01*
X-9730587Y3892092D01*
X-9621367Y3892092D01*
X-9609683Y3892956D01*
X-9598609Y3895496D01*
X-9588042Y3899611D01*
X-9578238Y3905300D01*
X-9569348Y3912362D01*
X-9561677Y3920693D01*
X-9555276Y3930040D01*
X-9550349Y3940251D01*
X-9546996Y3951122D01*
X-9545320Y3962349D01*
X-9545320Y3973677D01*
X-9546996Y3984904D01*
X-9550349Y3995724D01*
X-9555276Y4005935D01*
X-9557054Y4008526D01*
X-9558629Y4012336D01*
X-9558528Y4016501D01*
X-9556800Y4020261D01*
X-9553702Y4023055D01*
X-9549790Y4024325D01*
X-9545726Y4024782D01*
X-9540290Y4026712D01*
X-9535363Y4029811D01*
X-9531299Y4033875D01*
X-9528200Y4038803D01*
X-9526270Y4044238D01*
X-9525558Y4050588D01*
X-9525558Y4058665D01*
X-9573869Y4058665D01*
X-9573869Y4045712D01*
X-9574631Y4041851D01*
X-9576816Y4038549D01*
X-9580067Y4036364D01*
X-9583877Y4035551D01*
X-9587738Y4036263D01*
X-9598609Y4040479D01*
X-9609683Y4043019D01*
X-9621367Y4043883D01*
X-9633915Y4043883D01*
X-9637826Y4044696D01*
X-9641128Y4046880D01*
X-9643313Y4050182D01*
X-9644075Y4054043D01*
X-9644075Y4058665D01*
X-9670288Y4058665D01*
X-9674555Y4059580D01*
X-9678060Y4062222D01*
X-9680092Y4066082D01*
X-9680346Y4070451D01*
X-9678720Y4074515D01*
X-9673996Y4081526D01*
X-9669932Y4090517D01*
X-9669068Y4093768D01*
X-9667036Y4097680D01*
X-9663582Y4100372D01*
X-9659264Y4101337D01*
X-9640874Y4101337D01*
X-9637674Y4103370D01*
X-9633915Y4104081D01*
X-9584029Y4104081D01*
X-9580321Y4103370D01*
X-9577120Y4101337D01*
X-9525304Y4101337D01*
X-9523272Y4105351D01*
X-9519767Y4108094D01*
X-9515398Y4109110D01*
X-9490202Y4109110D01*
X-9485528Y4109313D01*
X-9481108Y4109872D01*
X-9476790Y4110837D01*
X-9472574Y4112158D01*
X-9468561Y4113834D01*
X-9466021Y4115257D01*
X-9462008Y4116476D01*
X-9457842Y4115968D01*
X-9454235Y4113834D01*
X-9451797Y4110431D01*
X-9450933Y4106316D01*
X-9450933Y4000195D01*
X-9450730Y3995572D01*
X-9450171Y3991152D01*
X-9449206Y3986834D01*
X-9447885Y3982567D01*
X-9446158Y3978503D01*
X-9444126Y3974541D01*
X-9441738Y3970782D01*
X-9439046Y3967276D01*
X-9435896Y3963822D01*
X-9265310Y3793286D01*
X-9263126Y3789984D01*
X-9262313Y3786073D01*
X-9263126Y3782212D01*
X-9265310Y3778910D01*
X-9268612Y3776675D01*
X-9272473Y3775913D01*
X-9732619Y3775862D01*
X-9741458Y3775049D01*
X-9743897Y3774643D01*
X-9752533Y3772509D01*
X-9754870Y3771747D01*
X-9763099Y3768344D01*
X-9765284Y3767226D01*
X-9772904Y3762603D01*
X-9781743Y3755542D01*
X-9808464Y3728872D01*
X-9811766Y3726687D01*
X-9815677Y3725875D01*
X-9874402Y3725875D01*
X-9880752Y3725164D01*
X-9886188Y3723284D01*
X-9891115Y3720185D01*
X-9895179Y3716121D01*
X-9898278Y3711194D01*
X-9900158Y3705758D01*
X-9900869Y3699408D01*
X-9900869Y3560572D01*
X-9900158Y3554222D01*
X-9898278Y3548786D01*
X-9895179Y3543858D01*
X-9891115Y3539794D01*
X-9886188Y3536696D01*
X-9880752Y3534816D01*
X-9874402Y3534105D01*
X-9725558Y3534105D01*
X-9719208Y3534816D01*
X-9713772Y3536696D01*
X-9708845Y3539794D01*
X-9704781Y3543858D01*
X-9701682Y3548786D01*
X-9699802Y3554222D01*
X-9699091Y3560572D01*
X-9699091Y3613962D01*
X-9698278Y3617823D01*
X-9696094Y3621125D01*
X-9692792Y3623360D01*
X-9688931Y3624122D01*
X-9228124Y3624122D01*
X-9224772Y3623564D01*
X-9221825Y3621887D01*
X-9219539Y3619347D01*
X-9216796Y3615029D01*
X-9212732Y3610914D01*
X-9207804Y3607866D01*
X-9202369Y3605936D01*
X-9196019Y3605225D01*
X-9083954Y3605225D01*
X-9077604Y3605936D01*
X-9072168Y3607866D01*
X-9067241Y3610914D01*
X-9063177Y3615029D01*
X-9060078Y3619906D01*
X-9058148Y3625392D01*
X-9057436Y3631692D01*
X-9057436Y3768293D01*
X-9058148Y3774592D01*
X-9060078Y3780078D01*
X-9063177Y3784955D01*
X-9067241Y3789070D01*
X-9072168Y3792118D01*
X-9077604Y3794048D01*
X-9083954Y3794760D01*
X-9118600Y3794760D01*
X-9122460Y3795522D01*
X-9125762Y3797706D01*
X-9216694Y3888638D01*
X-9218980Y3892194D01*
X-9219692Y3896309D01*
X-9218371Y3900678D01*
X-9222435Y3899458D01*
X-9226753Y3900017D01*
X-9230461Y3902405D01*
X-9346133Y4018127D01*
X-9348368Y4021378D01*
X-9349130Y4025290D01*
X-9349079Y4599787D01*
X-9349282Y4604410D01*
X-9349841Y4608830D01*
X-9350806Y4613148D01*
X-9352127Y4617415D01*
X-9353854Y4621479D01*
X-9355886Y4625441D01*
X-9358172Y4628997D01*
X-9362795Y4634534D01*
X-9364624Y4637735D01*
X-9365183Y4641392D01*
X-9364421Y4644948D01*
X-9362440Y4648047D01*
X-9272778Y4743094D01*
X-9269120Y4745583D01*
X-9264700Y4746244D01*
X-9260382Y4744974D01*
X-9257080Y4741976D01*
X-9255404Y4737862D01*
X-9254998Y4735626D01*
X-9251797Y4726533D01*
X-9247124Y4718151D01*
X-9241028Y4710633D01*
X-9233814Y4704232D01*
X-9225584Y4699203D01*
X-9216644Y4695596D01*
X-9207195Y4693564D01*
X-9197543Y4693158D01*
X-9187992Y4694377D01*
X-9181236Y4696460D01*
X-9177477Y4696866D01*
X-9173870Y4695901D01*
X-9170822Y4693615D01*
X-9168790Y4690465D01*
X-9168130Y4686757D01*
X-9168130Y4587849D01*
X-9167418Y4581499D01*
X-9165488Y4576064D01*
X-9162389Y4571136D01*
X-9158325Y4567072D01*
X-9153398Y4563973D01*
X-9147962Y4562094D01*
X-9141612Y4561382D01*
X-9082786Y4561382D01*
X-9078722Y4561840D01*
X-9075013Y4561535D01*
X-9071610Y4559909D01*
X-9069019Y4557166D01*
X-9067647Y4553712D01*
X-9067596Y4549952D01*
X-9069476Y4539234D01*
X-9069476Y4529632D01*
X-9067850Y4520082D01*
X-9064650Y4510989D01*
X-9063126Y4508296D01*
X-9061907Y4504283D01*
X-9062364Y4500118D01*
X-9064498Y4496511D01*
X-9067901Y4494022D01*
X-9072016Y4493158D01*
X-9076639Y4493158D01*
X-9082938Y4492447D01*
X-9088424Y4490567D01*
X-9093301Y4487468D01*
X-9097416Y4483404D01*
X-9100515Y4478477D01*
X-9102394Y4473041D01*
X-9103106Y4466691D01*
X-9103106Y4421124D01*
X-9001048Y4421124D01*
X-9001048Y4471263D01*
X-9000134Y4475429D01*
X-8997594Y4478883D01*
X-8993886Y4480966D01*
X-8991650Y4481677D01*
X-8983014Y4485995D01*
X-8975242Y4491736D01*
X-8968587Y4498695D01*
X-8963202Y4506722D01*
X-8959189Y4515510D01*
X-8956802Y4524806D01*
X-8955938Y4534408D01*
X-8956802Y4544060D01*
X-8958173Y4549343D01*
X-8958376Y4553254D01*
X-8957157Y4556963D01*
X-8954566Y4559909D01*
X-8951061Y4561687D01*
X-8947200Y4561992D01*
X-8941612Y4561382D01*
X-8882786Y4561382D01*
X-8876436Y4562094D01*
X-8871000Y4563973D01*
X-8867597Y4566107D01*
X-8864092Y4567478D01*
X-8860332Y4567478D01*
X-8856776Y4566107D01*
X-8853424Y4563973D01*
X-8847937Y4562094D01*
X-8841638Y4561382D01*
X-8782761Y4561382D01*
X-8775496Y4562195D01*
X-8771940Y4561941D01*
X-8768689Y4560468D01*
X-8766098Y4557979D01*
X-8730538Y4508195D01*
X-8728913Y4504690D01*
X-8728760Y4500778D01*
X-8730081Y4497120D01*
X-8732672Y4494225D01*
X-8736177Y4492498D01*
X-8740038Y4492244D01*
X-8747810Y4493158D01*
X-8823350Y4493158D01*
X-8823350Y4421124D01*
X-8721293Y4421124D01*
X-8721293Y4463542D01*
X-8720429Y4467707D01*
X-8717940Y4471111D01*
X-8714232Y4473244D01*
X-8710015Y4473651D01*
X-8706002Y4472330D01*
X-8702852Y4469485D01*
X-8571128Y4285030D01*
X-8566099Y4279798D01*
X-8561171Y4276699D01*
X-8555736Y4274820D01*
X-8549436Y4274058D01*
X-8500008Y4274058D01*
X-8496655Y4273499D01*
X-8493658Y4271873D01*
X-8491372Y4269333D01*
X-8487664Y4263390D01*
X-8483600Y4259275D01*
X-8479536Y4255770D01*
X-8477961Y4252010D01*
X-8477961Y4247946D01*
X-8479536Y4244187D01*
X-8483600Y4240682D01*
X-8487664Y4236618D01*
X-8490762Y4231690D01*
X-8492693Y4226255D01*
X-8493404Y4219905D01*
X-8493404Y4191609D01*
X-8440064Y4191609D01*
X-8440064Y4243425D01*
X-8439302Y4247337D01*
X-8437118Y4250588D01*
X-8433816Y4252823D01*
X-8429904Y4253585D01*
X-8370062Y4253585D01*
X-8366150Y4252823D01*
X-8362848Y4250588D01*
X-8360664Y4247337D01*
X-8359902Y4243425D01*
X-8359902Y4191609D01*
X-8306562Y4191609D01*
X-8306562Y4219905D01*
X-8307273Y4226255D01*
X-8309203Y4231690D01*
X-8312302Y4236618D01*
X-8316366Y4240682D01*
X-8320430Y4244187D01*
X-8322005Y4247946D01*
X-8322005Y4252010D01*
X-8320430Y4255770D01*
X-8316366Y4259275D01*
X-8312302Y4263390D01*
X-8309203Y4268266D01*
X-8307273Y4273753D01*
X-8306562Y4280052D01*
X-8306562Y4287418D01*
X-8306003Y4290771D01*
X-8304784Y4294225D01*
X-8304072Y4300575D01*
X-8304072Y4449419D01*
X-8304784Y4455718D01*
X-8306714Y4461205D01*
X-8309762Y4466082D01*
X-8313877Y4470196D01*
X-8318753Y4473295D01*
X-8324240Y4475175D01*
X-8330539Y4475886D01*
X-8521547Y4475886D01*
X-8524697Y4476394D01*
X-8527542Y4477867D01*
X-8529777Y4480102D01*
X-8652154Y4649063D01*
X-8653576Y4651857D01*
X-8654084Y4655007D01*
X-8654084Y5099405D01*
X-8654796Y5105755D01*
X-8656675Y5111191D01*
X-8659774Y5116118D01*
X-8663889Y5120182D01*
X-8668766Y5123281D01*
X-8674252Y5125161D01*
X-8680551Y5125872D01*
X-8879433Y5125872D01*
X-8885732Y5125161D01*
X-8891219Y5123281D01*
X-8896096Y5120182D01*
X-8900210Y5116118D01*
X-8903258Y5111191D01*
X-8905189Y5105755D01*
X-8905900Y5099405D01*
X-8905900Y4900117D01*
X-8904935Y4893208D01*
X-8902801Y4887823D01*
X-8899194Y4882591D01*
X-8810244Y4779975D01*
X-8808364Y4776673D01*
X-8807805Y4772863D01*
X-8808720Y4769104D01*
X-8810955Y4766005D01*
X-8814155Y4763922D01*
X-8817965Y4763160D01*
X-8841638Y4763160D01*
X-8847937Y4762449D01*
X-8853424Y4760569D01*
X-8856776Y4758436D01*
X-8860332Y4757064D01*
X-8864092Y4757064D01*
X-8867597Y4758436D01*
X-8871000Y4760569D01*
X-8876436Y4762449D01*
X-8882786Y4763160D01*
X-8941612Y4763160D01*
X-8947962Y4762449D01*
X-8953398Y4760569D01*
X-8956802Y4758436D01*
X-8960307Y4757064D01*
X-8964117Y4757064D01*
X-8967622Y4758436D01*
X-8970975Y4760569D01*
X-8976461Y4762449D01*
X-8982760Y4763160D01*
X-9041638Y4763160D01*
X-9047937Y4762449D01*
X-9053423Y4760569D01*
X-9056776Y4758436D01*
X-9060332Y4757064D01*
X-9064091Y4757064D01*
X-9067596Y4758436D01*
X-9071000Y4760569D01*
X-9076436Y4762449D01*
X-9082786Y4763160D01*
X-9104376Y4763160D01*
X-9108236Y4763973D01*
X-9111538Y4766157D01*
X-9122308Y4776927D01*
X-9128556Y4782058D01*
X-9135211Y4785614D01*
X-9142476Y4787798D01*
X-9150502Y4788611D01*
X-9154160Y4788611D01*
X-9158173Y4789424D01*
X-9170162Y4798415D01*
X-9178798Y4802733D01*
X-9187992Y4805578D01*
X-9191294Y4805984D01*
X-9195511Y4807508D01*
X-9198610Y4810658D01*
X-9200134Y4814824D01*
X-9199676Y4819243D01*
X-9197441Y4823053D01*
X-9152331Y4870907D01*
X-9148927Y4873244D01*
X-9144914Y4874056D01*
X-9050528Y4874056D01*
X-9044228Y4874818D01*
X-9038793Y4876698D01*
X-9033865Y4879797D01*
X-9029801Y4883861D01*
X-9026702Y4888788D01*
X-9024772Y4894224D01*
X-9024061Y4900574D01*
X-9024061Y4924856D01*
X-9023807Y4927803D01*
X-9023807Y5096764D01*
X-9024061Y5099710D01*
X-9024061Y5163921D01*
X-9023299Y5167833D01*
X-9021114Y5171084D01*
X-9017812Y5173319D01*
X-9013901Y5174081D01*
X-8586063Y5174081D01*
X-8582152Y5173319D01*
X-8578850Y5171084D01*
X-8576665Y5167833D01*
X-8575903Y5163921D01*
X-8575903Y5000548D01*
X-8575192Y4994249D01*
X-8573262Y4988763D01*
X-8570163Y4983886D01*
X-8566099Y4979771D01*
X-8561171Y4976723D01*
X-8555736Y4974793D01*
X-8549436Y4974082D01*
X-8300567Y4974082D01*
X-8294217Y4974793D01*
X-8288781Y4976723D01*
X-8283854Y4979771D01*
X-8279790Y4983886D01*
X-8276691Y4988763D01*
X-8274812Y4994249D01*
X-8274050Y5000548D01*
X-8274050Y5163921D01*
X-8273288Y5167833D01*
X-8271103Y5171084D01*
X-8267801Y5173319D01*
X-8263890Y5174081D01*
X-8136026Y5174081D01*
X-8132165Y5173319D01*
X-8128863Y5171084D01*
X-8126679Y5167833D01*
X-8125866Y5163921D01*
X-8125866Y5000548D01*
X-8125155Y4994249D01*
X-8123275Y4988763D01*
X-8120176Y4983886D01*
X-8116112Y4979771D01*
X-8111185Y4976723D01*
X-8105749Y4974793D01*
X-8099399Y4974082D01*
X-8088985Y4974082D01*
X-8084921Y4973218D01*
X-8081518Y4970830D01*
X-8079384Y4967274D01*
X-8077962Y4963160D01*
X-8074863Y4958283D01*
X-8070748Y4954168D01*
X-8065871Y4951069D01*
X-8060385Y4949190D01*
X-8054086Y4948478D01*
X-7836001Y4948478D01*
X-7829651Y4949190D01*
X-7824216Y4951069D01*
X-7819288Y4954168D01*
X-7815224Y4958283D01*
X-7812125Y4963160D01*
X-7810703Y4967274D01*
X-7808772Y4970576D01*
X-7805775Y4972964D01*
X-7802118Y4974031D01*
X-7794142Y4974793D01*
X-7788757Y4976723D01*
X-7783880Y4979771D01*
X-7782153Y4981498D01*
X-7778851Y4983683D01*
X-7774990Y4984445D01*
X-7771079Y4983683D01*
X-7767777Y4981498D01*
X-7766100Y4979771D01*
X-7761173Y4976723D01*
X-7755737Y4974793D01*
X-7749438Y4974082D01*
X-7704886Y4974082D01*
X-7701025Y4973320D01*
X-7697724Y4971084D01*
X-7695539Y4967833D01*
X-7694726Y4963922D01*
X-7694726Y4853940D01*
X-7694015Y4847590D01*
X-7692136Y4842154D01*
X-7689037Y4837226D01*
X-7684973Y4833162D01*
X-7680045Y4830064D01*
X-7674609Y4828184D01*
X-7668259Y4827473D01*
X-7614869Y4827473D01*
X-7611008Y4826660D01*
X-7607706Y4824476D01*
X-7507630Y4724450D01*
X-7499502Y4717440D01*
X-7490663Y4712055D01*
X-7481112Y4708093D01*
X-7471054Y4705705D01*
X-7460386Y4704842D01*
X-7402880Y4704842D01*
X-7398969Y4704080D01*
X-7395667Y4701895D01*
X-7393482Y4698593D01*
X-7392720Y4694682D01*
X-7393482Y4690821D01*
X-7395667Y4687519D01*
X-7496302Y4586884D01*
X-7503261Y4578705D01*
X-7508646Y4569917D01*
X-7512608Y4560366D01*
X-7515047Y4550308D01*
X-7515859Y4539589D01*
X-7515859Y4441901D01*
X-7516520Y4438345D01*
X-7518349Y4435246D01*
X-7521143Y4432960D01*
X-7530033Y4429912D01*
X-7534960Y4426813D01*
X-7539024Y4422749D01*
X-7542123Y4417822D01*
X-7544053Y4412386D01*
X-7544765Y4406036D01*
X-7544765Y4293920D01*
X-7544053Y4287621D01*
X-7542123Y4282135D01*
X-7539024Y4277258D01*
X-7534960Y4273143D01*
X-7530033Y4270095D01*
X-7524597Y4268165D01*
X-7518247Y4267454D01*
X-7381697Y4267454D01*
X-7375398Y4268165D01*
X-7369911Y4270095D01*
X-7365034Y4273143D01*
X-7360920Y4277258D01*
X-7357872Y4282135D01*
X-7355941Y4287621D01*
X-7355230Y4293920D01*
X-7355230Y4406036D01*
X-7355941Y4412386D01*
X-7357872Y4417822D01*
X-7360920Y4422749D01*
X-7365034Y4426813D01*
X-7369911Y4429912D01*
X-7378801Y4432960D01*
X-7381595Y4435246D01*
X-7383424Y4438345D01*
X-7384084Y4441901D01*
X-7384084Y4508500D01*
X-7383272Y4512411D01*
X-7381087Y4515662D01*
X-7229144Y4667605D01*
X-7225893Y4669790D01*
X-7221981Y4670602D01*
X-7164171Y4670602D01*
X-7157821Y4671314D01*
X-7152386Y4673193D01*
X-7147458Y4676292D01*
X-7143394Y4680356D01*
X-7140295Y4685284D01*
X-7138365Y4690719D01*
X-7137806Y4695799D01*
X-7136739Y4699355D01*
X-7134504Y4702251D01*
X-7131354Y4704181D01*
X-7127697Y4704842D01*
X-6702958Y4704842D01*
X-6692290Y4705705D01*
X-6682231Y4708093D01*
X-6672681Y4712055D01*
X-6663842Y4717440D01*
X-6655714Y4724450D01*
X-6527088Y4853025D01*
X-6523786Y4855210D01*
X-6519926Y4856022D01*
X-6422644Y4856022D01*
X-6416294Y4856734D01*
X-6410858Y4858613D01*
X-6405930Y4861712D01*
X-6401866Y4865776D01*
X-6398768Y4870704D01*
X-6396837Y4876139D01*
X-6396126Y4882489D01*
X-6396126Y5122265D01*
X-6396837Y5128564D01*
X-6398768Y5134051D01*
X-6401866Y5138928D01*
X-6405930Y5143042D01*
X-6410858Y5146090D01*
X-6416294Y5148021D01*
X-6422644Y5148732D01*
X-6519367Y5148732D01*
X-6525666Y5148021D01*
X-6531102Y5146090D01*
X-6536029Y5143042D01*
X-6540093Y5138928D01*
X-6543192Y5134051D01*
X-6545122Y5128564D01*
X-6545834Y5122265D01*
X-6545834Y5024932D01*
X-6546596Y5021021D01*
X-6548780Y5017719D01*
X-6726885Y4839614D01*
X-6730187Y4837430D01*
X-6734098Y4836668D01*
X-6871665Y4836668D01*
X-6875627Y4837480D01*
X-6878980Y4839766D01*
X-6881164Y4843170D01*
X-6881825Y4847132D01*
X-6880910Y4851095D01*
X-6878523Y4854346D01*
X-6875018Y4856429D01*
X-6868820Y4858562D01*
X-6863943Y4861661D01*
X-6859828Y4865725D01*
X-6856780Y4870653D01*
X-6854850Y4876088D01*
X-6854139Y4882438D01*
X-6854139Y4973929D01*
X-6853377Y4977790D01*
X-6851142Y4981092D01*
X-6847890Y4983327D01*
X-6843979Y4984089D01*
X-6800545Y4984089D01*
X-6794246Y4984800D01*
X-6788759Y4986680D01*
X-6783882Y4989779D01*
X-6779768Y4993894D01*
X-6776720Y4998770D01*
X-6774789Y5004257D01*
X-6774078Y5010556D01*
X-6774078Y5349443D01*
X-6774789Y5355742D01*
X-6776770Y5361381D01*
X-6778701Y5364734D01*
X-6841388Y5458206D01*
X-6842963Y5462270D01*
X-6842658Y5466638D01*
X-6840626Y5470448D01*
X-6837172Y5473039D01*
X-6832904Y5474004D01*
X-6182461Y5474004D01*
X-6178550Y5473192D01*
X-6175298Y5471007D01*
X-6173063Y5467705D01*
X-6172301Y5463844D01*
X-6173063Y5459933D01*
X-6175298Y5456631D01*
X-6363411Y5268518D01*
X-6367221Y5263743D01*
X-6369710Y5258562D01*
X-6371031Y5252872D01*
X-6371183Y5249722D01*
X-6371183Y4636058D01*
X-6371945Y4632147D01*
X-6374180Y4628896D01*
X-6377482Y4626660D01*
X-6381343Y4625898D01*
X-6408064Y4625898D01*
X-6411417Y4626457D01*
X-6416802Y4628337D01*
X-6423152Y4629048D01*
X-6976821Y4629048D01*
X-6983171Y4628337D01*
X-6988606Y4626457D01*
X-6993534Y4623358D01*
X-6997598Y4619294D01*
X-7000697Y4614367D01*
X-7002576Y4608931D01*
X-7003288Y4602581D01*
X-7003288Y4344111D01*
X-7004100Y4340199D01*
X-7006285Y4336897D01*
X-7443927Y3899255D01*
X-7447229Y3897071D01*
X-7451140Y3896258D01*
X-7993837Y3896258D01*
X-7997748Y3897071D01*
X-8001050Y3899255D01*
X-8003235Y3902557D01*
X-8003997Y3906418D01*
X-8003997Y3932123D01*
X-8004708Y3938473D01*
X-8006638Y3943908D01*
X-8009737Y3948836D01*
X-8013801Y3952900D01*
X-8018729Y3955999D01*
X-8024164Y3957878D01*
X-8030514Y3958590D01*
X-8191347Y3958590D01*
X-8197697Y3957878D01*
X-8203133Y3955999D01*
X-8208060Y3952900D01*
X-8212124Y3948836D01*
X-8215223Y3943908D01*
X-8217103Y3938473D01*
X-8217814Y3932123D01*
X-8217814Y3728618D01*
X-8217103Y3722319D01*
X-8215223Y3716832D01*
X-8212124Y3711956D01*
X-8208060Y3707841D01*
X-8203133Y3704793D01*
X-8197697Y3702862D01*
X-8191347Y3702151D01*
X-8030514Y3702151D01*
X-8024164Y3702862D01*
X-8018729Y3704793D01*
X-8013801Y3707841D01*
X-8009737Y3711956D01*
X-8006638Y3716832D01*
X-8004708Y3722319D01*
X-8003997Y3728618D01*
X-8003997Y3754323D01*
X-8003235Y3758184D01*
X-8001050Y3761486D01*
X-7997748Y3763670D01*
X-7993837Y3764483D01*
X-7511999Y3764483D01*
X-7507731Y3763518D01*
X-7504277Y3760876D01*
X-7502245Y3757015D01*
X-7501991Y3752697D01*
X-7503566Y3748633D01*
X-7506766Y3745636D01*
X-7510881Y3744214D01*
X-7512354Y3744061D01*
X-7517841Y3742131D01*
X-7522718Y3739032D01*
X-7526832Y3734968D01*
X-7529880Y3730040D01*
X-7532979Y3721150D01*
X-7535214Y3718356D01*
X-7538313Y3716528D01*
X-7541869Y3715867D01*
X-7829651Y3715867D01*
X-7840370Y3715054D01*
X-7850428Y3712616D01*
X-7859979Y3708654D01*
X-7868767Y3703269D01*
X-7876946Y3696309D01*
X-7946339Y3626662D01*
X-7953197Y3618585D01*
X-7958581Y3609797D01*
X-7962544Y3600246D01*
X-7964982Y3590188D01*
X-7965795Y3579469D01*
X-7965795Y3200298D01*
X-7964982Y3189579D01*
X-7962544Y3179521D01*
X-7958581Y3169970D01*
X-7953197Y3161182D01*
X-7946237Y3153003D01*
X-7830718Y3037484D01*
X-7822539Y3030524D01*
X-7813751Y3025140D01*
X-7804200Y3021177D01*
X-7794142Y3018739D01*
X-7792262Y3018586D01*
X-7788300Y3017469D01*
X-7785150Y3014827D01*
X-7783271Y3011170D01*
X-7783017Y3007055D01*
X-7784439Y3003143D01*
X-7794904Y2992729D01*
X-7800492Y2984703D01*
X-7804658Y2975864D01*
X-7807147Y2966466D01*
X-7808010Y2956712D01*
X-7807350Y2949397D01*
X-7807858Y2945333D01*
X-7809890Y2941777D01*
X-7813192Y2939288D01*
X-7817205Y2938373D01*
X-7821218Y2939084D01*
X-7824673Y2941320D01*
X-7931454Y3048101D01*
X-7936230Y3051911D01*
X-7941411Y3054451D01*
X-7947101Y3055721D01*
X-7950250Y3055924D01*
X-8039404Y3055924D01*
X-8045754Y3055213D01*
X-8054492Y3052318D01*
X-8058099Y3052064D01*
X-8065566Y3052876D01*
X-8078368Y3052876D01*
X-8078368Y3019856D01*
X-8076031Y3019856D01*
X-8072170Y3019094D01*
X-8068868Y3016859D01*
X-8066684Y3013557D01*
X-8065871Y3009696D01*
X-8065871Y2990291D01*
X-8066684Y2986430D01*
X-8068868Y2983128D01*
X-8072170Y2980893D01*
X-8076031Y2980131D01*
X-8078368Y2980131D01*
X-8078368Y2947060D01*
X-8065617Y2947060D01*
X-8057743Y2948076D01*
X-8054340Y2947974D01*
X-8045754Y2944774D01*
X-8039404Y2944063D01*
X-7964931Y2944063D01*
X-7961020Y2943301D01*
X-7957718Y2941116D01*
X-7885277Y2868625D01*
X-7883042Y2865272D01*
X-7882280Y2861310D01*
X-7883144Y2857398D01*
X-7885430Y2854096D01*
X-7888833Y2851962D01*
X-7892796Y2851302D01*
X-7896707Y2852216D01*
X-7901635Y2854502D01*
X-7907070Y2855722D01*
X-7910271Y2855925D01*
X-8039404Y2855925D01*
X-8045754Y2855214D01*
X-8051190Y2853283D01*
X-8056118Y2850184D01*
X-8060181Y2846120D01*
X-8063280Y2841193D01*
X-8065160Y2835757D01*
X-8065871Y2829407D01*
X-8065871Y2670556D01*
X-8065160Y2664256D01*
X-8063280Y2658770D01*
X-8060181Y2653893D01*
X-8056118Y2649778D01*
X-8051190Y2646730D01*
X-8045754Y2644800D01*
X-8039404Y2644089D01*
X-7783220Y2644089D01*
X-7779410Y2643327D01*
X-7776108Y2641193D01*
X-7773924Y2637993D01*
X-7773060Y2634183D01*
X-7773720Y2630322D01*
X-7775752Y2627020D01*
X-7787995Y2618587D01*
X-7794904Y2611729D01*
X-7800492Y2603703D01*
X-7803591Y2597150D01*
X-7739227Y2597150D01*
X-7739227Y2633929D01*
X-7738465Y2637790D01*
X-7736230Y2641092D01*
X-7732928Y2643327D01*
X-7729067Y2644089D01*
X-7638135Y2644089D01*
X-7634224Y2643327D01*
X-7630922Y2641092D01*
X-7628737Y2637790D01*
X-7627975Y2633929D01*
X-7627975Y2597150D01*
X-7563612Y2597150D01*
X-7566659Y2603703D01*
X-7572248Y2611729D01*
X-7579156Y2618587D01*
X-7587183Y2624226D01*
X-7589418Y2625242D01*
X-7592872Y2627884D01*
X-7594955Y2631744D01*
X-7595158Y2636113D01*
X-7593584Y2640177D01*
X-7590383Y2643174D01*
X-7586268Y2644546D01*
X-7584236Y2644800D01*
X-7578750Y2646730D01*
X-7573873Y2649778D01*
X-7569758Y2653893D01*
X-7566710Y2658770D01*
X-7564780Y2664256D01*
X-7564069Y2670556D01*
X-7564069Y2678074D01*
X-7563103Y2682341D01*
X-7562545Y2683611D01*
X-7560005Y2693009D01*
X-7559192Y2702712D01*
X-7560005Y2712466D01*
X-7562545Y2721864D01*
X-7563103Y2723083D01*
X-7564069Y2727401D01*
X-7564069Y2749448D01*
X-7564780Y2755747D01*
X-7566710Y2761183D01*
X-7569758Y2766110D01*
X-7571486Y2767787D01*
X-7573670Y2771089D01*
X-7574432Y2775000D01*
X-7573670Y2778861D01*
X-7571486Y2782163D01*
X-7569758Y2783890D01*
X-7566710Y2788767D01*
X-7564780Y2794254D01*
X-7564069Y2800553D01*
X-7564069Y2805074D01*
X-7563103Y2809341D01*
X-7562545Y2810611D01*
X-7560005Y2820009D01*
X-7559192Y2829712D01*
X-7560005Y2839466D01*
X-7560411Y2840837D01*
X-7560614Y2845104D01*
X-7559040Y2849118D01*
X-7555992Y2852064D01*
X-7551978Y2853537D01*
X-7547762Y2853232D01*
X-7544003Y2851200D01*
X-7538720Y2846679D01*
X-7529880Y2841294D01*
X-7520330Y2837332D01*
X-7510272Y2834944D01*
X-7499959Y2834132D01*
X-7489698Y2834944D01*
X-7479639Y2837332D01*
X-7470089Y2841294D01*
X-7461250Y2846679D01*
X-7453426Y2853436D01*
X-7446670Y2861259D01*
X-7441285Y2870098D01*
X-7437323Y2879648D01*
X-7434935Y2889707D01*
X-7434122Y2899968D01*
X-7434935Y2910281D01*
X-7437323Y2920339D01*
X-7441285Y2929890D01*
X-7446670Y2938729D01*
X-7453680Y2946857D01*
X-7509865Y3003042D01*
X-7517993Y3010052D01*
X-7526832Y3015437D01*
X-7536383Y3019399D01*
X-7546441Y3021787D01*
X-7557109Y3022650D01*
X-7572959Y3022650D01*
X-7576870Y3023412D01*
X-7580172Y3025648D01*
X-7582357Y3028950D01*
X-7583119Y3032861D01*
X-7582306Y3036722D01*
X-7580071Y3040024D01*
X-7572248Y3047796D01*
X-7566659Y3055772D01*
X-7562545Y3064611D01*
X-7560005Y3074009D01*
X-7559192Y3083712D01*
X-7560005Y3093466D01*
X-7562545Y3102864D01*
X-7566659Y3111703D01*
X-7572248Y3119678D01*
X-7580223Y3127502D01*
X-7582458Y3130804D01*
X-7583220Y3134715D01*
X-7582458Y3138576D01*
X-7580274Y3141929D01*
X-7576972Y3144113D01*
X-7573060Y3144926D01*
X-7522260Y3144926D01*
X-7518349Y3144113D01*
X-7515047Y3141929D01*
X-7408976Y3035655D01*
X-7406792Y3032353D01*
X-7405979Y3028442D01*
X-7405979Y2860446D01*
X-7405166Y2849727D01*
X-7402728Y2839669D01*
X-7398766Y2830118D01*
X-7393381Y2821330D01*
X-7386675Y2813456D01*
X-7378801Y2806750D01*
X-7370013Y2801366D01*
X-7360462Y2797403D01*
X-7350404Y2794965D01*
X-7340092Y2794152D01*
X-7329779Y2794965D01*
X-7319721Y2797403D01*
X-7310170Y2801366D01*
X-7301382Y2806750D01*
X-7293508Y2813456D01*
X-7286802Y2821330D01*
X-7281418Y2830118D01*
X-7280402Y2832506D01*
X-7277811Y2836164D01*
X-7273950Y2838399D01*
X-7269480Y2838704D01*
X-7265314Y2837027D01*
X-7262266Y2833776D01*
X-7260894Y2829509D01*
X-7260081Y2820009D01*
X-7257542Y2810611D01*
X-7253427Y2801772D01*
X-7247839Y2793796D01*
X-7240016Y2786024D01*
X-7237780Y2782722D01*
X-7236968Y2778861D01*
X-7237730Y2774950D01*
X-7239914Y2771648D01*
X-7243216Y2769412D01*
X-7247128Y2768650D01*
X-7326833Y2768650D01*
X-7337552Y2767787D01*
X-7347610Y2765399D01*
X-7357160Y2761437D01*
X-7365949Y2756052D01*
X-7374128Y2749042D01*
X-7565898Y2557322D01*
X-7569200Y2555087D01*
X-7573060Y2554325D01*
X-7627975Y2554325D01*
X-7627975Y2524810D01*
X-7628737Y2520899D01*
X-7630922Y2517597D01*
X-7634224Y2515412D01*
X-7638135Y2514650D01*
X-7683195Y2514650D01*
X-7693914Y2513787D01*
X-7703972Y2511399D01*
X-7716113Y2506268D01*
X-7718856Y2505913D01*
X-7729067Y2505913D01*
X-7732928Y2506675D01*
X-7736230Y2508859D01*
X-7738465Y2512161D01*
X-7739227Y2516073D01*
X-7739227Y2554325D01*
X-7803591Y2554325D01*
X-7800492Y2547772D01*
X-7794904Y2539746D01*
X-7787995Y2532837D01*
X-7780020Y2527249D01*
X-7775752Y2525268D01*
X-7772603Y2522982D01*
X-7770571Y2519680D01*
X-7769910Y2515819D01*
X-7770723Y2512009D01*
X-7772958Y2508808D01*
X-7776209Y2506675D01*
X-7780070Y2505913D01*
X-7849717Y2505913D01*
X-7855762Y2505252D01*
X-7861198Y2503322D01*
X-7866125Y2500223D01*
X-7868513Y2498090D01*
X-7917738Y2448864D01*
X-7921040Y2446680D01*
X-7924901Y2445918D01*
X-8059420Y2445918D01*
X-8065719Y2445207D01*
X-8071205Y2443276D01*
X-8076082Y2440178D01*
X-8080197Y2436114D01*
X-8083245Y2431186D01*
X-8085175Y2425750D01*
X-8085886Y2419400D01*
X-8085886Y2280564D01*
X-8085175Y2274265D01*
X-8083245Y2268778D01*
X-8080197Y2263902D01*
X-8076082Y2259787D01*
X-8071205Y2256688D01*
X-8065719Y2254808D01*
X-8059420Y2254097D01*
X-7910271Y2254097D01*
X-7904225Y2254758D01*
X-7898739Y2256688D01*
X-7893862Y2259736D01*
X-7891475Y2261870D01*
X-7763256Y2390089D01*
X-7759547Y2392476D01*
X-7755178Y2393035D01*
X-7751622Y2392730D01*
X-7720736Y2392730D01*
X-7717993Y2392324D01*
X-7713522Y2390038D01*
X-7703972Y2386076D01*
X-7693914Y2383688D01*
X-7683195Y2382824D01*
X-7581646Y2382824D01*
X-7570927Y2383688D01*
X-7560868Y2386076D01*
X-7551318Y2390038D01*
X-7542530Y2395423D01*
X-7534351Y2402433D01*
X-7302906Y2633878D01*
X-7299604Y2636062D01*
X-7295743Y2636824D01*
X-7247128Y2636824D01*
X-7243216Y2636062D01*
X-7239914Y2633827D01*
X-7237730Y2630525D01*
X-7236968Y2626614D01*
X-7237730Y2622753D01*
X-7239965Y2619451D01*
X-7247839Y2611678D01*
X-7253427Y2603703D01*
X-7257542Y2594864D01*
X-7260081Y2585466D01*
X-7260894Y2575712D01*
X-7260081Y2566009D01*
X-7257542Y2556611D01*
X-7253427Y2547772D01*
X-7247839Y2539746D01*
X-7240930Y2532837D01*
X-7232903Y2527249D01*
X-7224064Y2523134D01*
X-7220000Y2522067D01*
X-7216089Y2520035D01*
X-7213447Y2516530D01*
X-7212482Y2512212D01*
X-7213447Y2507945D01*
X-7216089Y2504440D01*
X-7220000Y2502408D01*
X-7224064Y2501341D01*
X-7232903Y2497226D01*
X-7240930Y2491587D01*
X-7247839Y2484729D01*
X-7253427Y2476703D01*
X-7257542Y2467864D01*
X-7260081Y2458466D01*
X-7260894Y2448712D01*
X-7260081Y2439009D01*
X-7257542Y2429611D01*
X-7253427Y2420772D01*
X-7247839Y2412746D01*
X-7240930Y2405837D01*
X-7232903Y2400249D01*
X-7224064Y2396134D01*
X-7214666Y2393594D01*
X-7204506Y2392730D01*
X-7173417Y2392730D01*
X-7170674Y2392324D01*
X-7166305Y2390140D01*
X-7156754Y2386177D01*
X-7146696Y2383739D01*
X-7136384Y2382926D01*
X-7126071Y2383739D01*
X-7116013Y2386177D01*
X-7106462Y2390140D01*
X-7102094Y2392324D01*
X-7099350Y2392730D01*
X-7068464Y2392730D01*
X-7058304Y2393594D01*
X-7048906Y2396134D01*
X-7040067Y2400249D01*
X-7032091Y2405837D01*
X-7025182Y2412746D01*
X-7019594Y2420772D01*
X-7015429Y2429611D01*
X-7012940Y2439009D01*
X-7012076Y2448712D01*
X-7012940Y2458466D01*
X-7015429Y2467864D01*
X-7019594Y2476703D01*
X-7025182Y2484729D01*
X-7027621Y2487168D01*
X-7030008Y2490876D01*
X-7030567Y2495245D01*
X-7029196Y2499461D01*
X-7026198Y2502712D01*
X-7022084Y2504338D01*
X-7019442Y2504795D01*
X-7015225Y2506014D01*
X-7009790Y2508046D01*
X-7005675Y2509977D01*
X-7000646Y2512822D01*
X-6996836Y2515362D01*
X-6992315Y2518968D01*
X-6988809Y2522220D01*
X-6942785Y2568244D01*
X-6939483Y2570480D01*
X-6935571Y2571242D01*
X-6931710Y2570480D01*
X-6928408Y2568244D01*
X-6904532Y2544368D01*
X-6902348Y2541066D01*
X-6901535Y2537206D01*
X-6901535Y2329332D01*
X-6900722Y2318613D01*
X-6898284Y2308555D01*
X-6894322Y2299004D01*
X-6888937Y2290216D01*
X-6881977Y2282037D01*
X-6802526Y2202586D01*
X-6794347Y2195626D01*
X-6785559Y2190242D01*
X-6776008Y2186279D01*
X-6765950Y2183841D01*
X-6755231Y2183028D01*
X-6715912Y2183028D01*
X-6705193Y2183841D01*
X-6695135Y2186279D01*
X-6685584Y2190242D01*
X-6676796Y2195626D01*
X-6668617Y2202586D01*
X-6589369Y2282139D01*
X-6582460Y2290216D01*
X-6577075Y2299004D01*
X-6573113Y2308555D01*
X-6570675Y2318613D01*
X-6569862Y2329332D01*
X-6569862Y2537104D01*
X-6569049Y2541016D01*
X-6566865Y2544318D01*
X-6542785Y2568346D01*
X-6539484Y2570530D01*
X-6535572Y2571292D01*
X-6531711Y2570530D01*
X-6528409Y2568295D01*
X-6504482Y2544368D01*
X-6502298Y2541066D01*
X-6501485Y2537206D01*
X-6501485Y2329332D01*
X-6500672Y2318613D01*
X-6498234Y2308555D01*
X-6494272Y2299004D01*
X-6488887Y2290216D01*
X-6481927Y2282037D01*
X-6402476Y2202586D01*
X-6394297Y2195626D01*
X-6385509Y2190242D01*
X-6375958Y2186279D01*
X-6365900Y2183841D01*
X-6355181Y2183028D01*
X-6316116Y2183028D01*
X-6305397Y2183841D01*
X-6295339Y2186279D01*
X-6285788Y2190242D01*
X-6277000Y2195626D01*
X-6268821Y2202586D01*
X-6189370Y2282037D01*
X-6182410Y2290216D01*
X-6177026Y2299004D01*
X-6173063Y2308555D01*
X-6170625Y2318613D01*
X-6169812Y2329332D01*
X-6169812Y2537206D01*
X-6168999Y2541066D01*
X-6166815Y2544368D01*
X-6142786Y2568397D01*
X-6139535Y2570581D01*
X-6135624Y2571343D01*
X-6131712Y2570581D01*
X-6128461Y2568397D01*
X-6104432Y2544368D01*
X-6102248Y2541066D01*
X-6101435Y2537206D01*
X-6101435Y2329332D01*
X-6100622Y2318613D01*
X-6098184Y2308555D01*
X-6094222Y2299004D01*
X-6088837Y2290216D01*
X-6081877Y2282037D01*
X-6002426Y2202586D01*
X-5994247Y2195626D01*
X-5985459Y2190242D01*
X-5975908Y2186279D01*
X-5965850Y2183841D01*
X-5955131Y2183028D01*
X-5916066Y2183028D01*
X-5905347Y2183841D01*
X-5895289Y2186279D01*
X-5885738Y2190242D01*
X-5876950Y2195626D01*
X-5868771Y2202586D01*
X-5789320Y2282037D01*
X-5782360Y2290216D01*
X-5776976Y2299004D01*
X-5773013Y2308555D01*
X-5770575Y2318613D01*
X-5769762Y2329332D01*
X-5769762Y2537206D01*
X-5768949Y2541066D01*
X-5766765Y2544368D01*
X-5742736Y2568397D01*
X-5739485Y2570581D01*
X-5735574Y2571343D01*
X-5731662Y2570581D01*
X-5728411Y2568397D01*
X-5704382Y2544368D01*
X-5702198Y2541066D01*
X-5701385Y2537206D01*
X-5701385Y2329332D01*
X-5700572Y2318715D01*
X-5698185Y2308656D01*
X-5694222Y2299106D01*
X-5688838Y2290267D01*
X-5681878Y2282088D01*
X-5602681Y2202688D01*
X-5594553Y2195677D01*
X-5585764Y2190242D01*
X-5576214Y2186279D01*
X-5566156Y2183892D01*
X-5555437Y2183028D01*
X-5516016Y2183028D01*
X-5505297Y2183841D01*
X-5495239Y2186279D01*
X-5485688Y2190242D01*
X-5476900Y2195626D01*
X-5468721Y2202586D01*
X-5203596Y2467711D01*
X-5196636Y2475890D01*
X-5191252Y2484678D01*
X-5187289Y2494229D01*
X-5184851Y2504287D01*
X-5184038Y2515006D01*
X-5184038Y3703167D01*
X-5184851Y3713886D01*
X-5187289Y3723944D01*
X-5191252Y3733495D01*
X-5196636Y3742283D01*
X-5203596Y3750462D01*
X-5276443Y3823309D01*
X-5284622Y3830269D01*
X-5293410Y3835654D01*
X-5302961Y3839616D01*
X-5313019Y3842054D01*
X-5323738Y3842867D01*
X-5330748Y3842867D01*
X-5333847Y3843375D01*
X-5336692Y3844848D01*
X-5338927Y3847084D01*
X-5341721Y3850843D01*
X-5351678Y3861460D01*
X-5362854Y3870756D01*
X-5375148Y3878529D01*
X-5388305Y3884726D01*
X-5402173Y3889248D01*
X-5416448Y3891991D01*
X-5430977Y3892905D01*
X-5445506Y3891991D01*
X-5459831Y3889248D01*
X-5473649Y3884726D01*
X-5486806Y3878529D01*
X-5499100Y3870756D01*
X-5510326Y3861460D01*
X-5520283Y3850843D01*
X-5528818Y3839108D01*
X-5535828Y3826357D01*
X-5541213Y3812794D01*
X-5544820Y3798722D01*
X-5546648Y3784244D01*
X-5546648Y3769715D01*
X-5544820Y3755288D01*
X-5541213Y3741165D01*
X-5535828Y3727653D01*
X-5528818Y3714902D01*
X-5520283Y3703116D01*
X-5510326Y3692499D01*
X-5499100Y3683254D01*
X-5486806Y3675430D01*
X-5473649Y3669233D01*
X-5459831Y3664762D01*
X-5445506Y3662019D01*
X-5430977Y3661105D01*
X-5416448Y3662019D01*
X-5402173Y3664762D01*
X-5388305Y3669233D01*
X-5375148Y3675430D01*
X-5362854Y3683254D01*
X-5351678Y3692499D01*
X-5349341Y3694988D01*
X-5346039Y3697325D01*
X-5342128Y3698189D01*
X-5338114Y3697427D01*
X-5334762Y3695192D01*
X-5318810Y3679240D01*
X-5316626Y3675938D01*
X-5315813Y3672078D01*
X-5315813Y3592525D01*
X-5316728Y3588410D01*
X-5319217Y3585006D01*
X-5322874Y3582873D01*
X-5327040Y3582415D01*
X-5331053Y3583736D01*
X-5334203Y3586581D01*
X-5341721Y3596843D01*
X-5351678Y3607460D01*
X-5362854Y3616756D01*
X-5375148Y3624529D01*
X-5388305Y3630726D01*
X-5402173Y3635248D01*
X-5416448Y3637991D01*
X-5430977Y3638905D01*
X-5445506Y3637991D01*
X-5459831Y3635248D01*
X-5473649Y3630726D01*
X-5486806Y3624529D01*
X-5499100Y3616756D01*
X-5510326Y3607460D01*
X-5520283Y3596843D01*
X-5528818Y3585108D01*
X-5535828Y3572357D01*
X-5541213Y3558794D01*
X-5544820Y3544722D01*
X-5546648Y3530244D01*
X-5546648Y3515715D01*
X-5544820Y3501288D01*
X-5541213Y3487165D01*
X-5535828Y3473653D01*
X-5528818Y3460902D01*
X-5520283Y3449116D01*
X-5510326Y3438499D01*
X-5499100Y3429254D01*
X-5486806Y3421430D01*
X-5473649Y3415233D01*
X-5459831Y3410762D01*
X-5445506Y3408019D01*
X-5430977Y3407105D01*
X-5416448Y3408019D01*
X-5402173Y3410762D01*
X-5388305Y3415233D01*
X-5375148Y3421430D01*
X-5362854Y3429254D01*
X-5351678Y3438499D01*
X-5341721Y3449116D01*
X-5334203Y3459429D01*
X-5331053Y3462274D01*
X-5327040Y3463544D01*
X-5322874Y3463137D01*
X-5319217Y3461004D01*
X-5316728Y3457600D01*
X-5315813Y3453434D01*
X-5315813Y3338525D01*
X-5316728Y3334410D01*
X-5319217Y3331006D01*
X-5322874Y3328873D01*
X-5327040Y3328415D01*
X-5331053Y3329736D01*
X-5334203Y3332581D01*
X-5341721Y3342843D01*
X-5351678Y3353460D01*
X-5362854Y3362756D01*
X-5375148Y3370529D01*
X-5379618Y3372662D01*
X-5379618Y3320338D01*
X-5325973Y3320338D01*
X-5322112Y3319576D01*
X-5318810Y3317341D01*
X-5316626Y3314090D01*
X-5315813Y3310178D01*
X-5315813Y3227781D01*
X-5316626Y3223920D01*
X-5318810Y3220618D01*
X-5322112Y3218434D01*
X-5325973Y3217621D01*
X-5379618Y3217621D01*
X-5379618Y3165348D01*
X-5375148Y3167430D01*
X-5362854Y3175254D01*
X-5351678Y3184499D01*
X-5341721Y3195116D01*
X-5334203Y3205429D01*
X-5331053Y3208274D01*
X-5327040Y3209544D01*
X-5322874Y3209137D01*
X-5319217Y3207004D01*
X-5316728Y3203600D01*
X-5315813Y3199434D01*
X-5315813Y2546096D01*
X-5316626Y2542235D01*
X-5318810Y2538933D01*
X-5528462Y2329281D01*
X-5531713Y2327097D01*
X-5535625Y2326335D01*
X-5539536Y2327097D01*
X-5542838Y2329332D01*
X-5566613Y2353208D01*
X-5568797Y2356459D01*
X-5569610Y2360371D01*
X-5569610Y2568295D01*
X-5570423Y2579014D01*
X-5572861Y2589072D01*
X-5576824Y2598623D01*
X-5582208Y2607411D01*
X-5589168Y2615590D01*
X-5668619Y2695041D01*
X-5676798Y2702001D01*
X-5685586Y2707386D01*
X-5695137Y2711348D01*
X-5705195Y2713786D01*
X-5715914Y2714599D01*
X-5755233Y2714599D01*
X-5765952Y2713786D01*
X-5776010Y2711348D01*
X-5785561Y2707386D01*
X-5794349Y2702001D01*
X-5802528Y2695041D01*
X-5881979Y2615590D01*
X-5888939Y2607411D01*
X-5894324Y2598623D01*
X-5898286Y2589072D01*
X-5900724Y2579014D01*
X-5901537Y2568295D01*
X-5901537Y2360422D01*
X-5902350Y2356561D01*
X-5904534Y2353259D01*
X-5928410Y2329383D01*
X-5931712Y2327148D01*
X-5935573Y2326386D01*
X-5939485Y2327148D01*
X-5942787Y2329383D01*
X-5966663Y2353259D01*
X-5968847Y2356561D01*
X-5969660Y2360422D01*
X-5969660Y2568295D01*
X-5970473Y2579014D01*
X-5972911Y2589072D01*
X-5976874Y2598623D01*
X-5982258Y2607411D01*
X-5989218Y2615590D01*
X-6068669Y2695041D01*
X-6076848Y2702001D01*
X-6085636Y2707386D01*
X-6095187Y2711348D01*
X-6105245Y2713786D01*
X-6115964Y2714599D01*
X-6155283Y2714599D01*
X-6166002Y2713786D01*
X-6176060Y2711348D01*
X-6185611Y2707386D01*
X-6194399Y2702001D01*
X-6202578Y2695041D01*
X-6282029Y2615590D01*
X-6288989Y2607411D01*
X-6294374Y2598623D01*
X-6298336Y2589072D01*
X-6300774Y2579014D01*
X-6301587Y2568295D01*
X-6301587Y2360422D01*
X-6302400Y2356561D01*
X-6304584Y2353259D01*
X-6328460Y2329383D01*
X-6331762Y2327148D01*
X-6335623Y2326386D01*
X-6339535Y2327148D01*
X-6342837Y2329383D01*
X-6366713Y2353259D01*
X-6368897Y2356561D01*
X-6369710Y2360422D01*
X-6369710Y2568295D01*
X-6370523Y2579014D01*
X-6372961Y2589072D01*
X-6376924Y2598623D01*
X-6382308Y2607411D01*
X-6389268Y2615590D01*
X-6468719Y2695041D01*
X-6476898Y2702001D01*
X-6479794Y2703779D01*
X-6482384Y2706065D01*
X-6484061Y2709062D01*
X-6484620Y2712466D01*
X-6484620Y2759202D01*
X-6532524Y2759202D01*
X-6532524Y2731719D01*
X-6531864Y2725928D01*
X-6532270Y2721711D01*
X-6534404Y2718003D01*
X-6537807Y2715514D01*
X-6541973Y2714599D01*
X-6555079Y2714599D01*
X-6557264Y2714447D01*
X-6561632Y2715056D01*
X-6565341Y2717546D01*
X-6567678Y2721305D01*
X-6568135Y2725724D01*
X-6567474Y2731719D01*
X-6567474Y2868269D01*
X-6568186Y2874619D01*
X-6570065Y2880055D01*
X-6573164Y2884982D01*
X-6577228Y2889046D01*
X-6582156Y2892145D01*
X-6587591Y2894025D01*
X-6593941Y2894736D01*
X-6697319Y2894736D01*
X-6701231Y2895549D01*
X-6704533Y2897733D01*
X-6734606Y2927858D01*
X-6736842Y2931160D01*
X-6737603Y2935020D01*
X-6736842Y2938932D01*
X-6734606Y2942234D01*
X-6702247Y2974492D01*
X-6698945Y2976676D01*
X-6695084Y2977438D01*
X-6581698Y2977438D01*
X-6575399Y2978150D01*
X-6569913Y2980080D01*
X-6565036Y2983179D01*
X-6560921Y2987243D01*
X-6557873Y2992170D01*
X-6555943Y2997606D01*
X-6555231Y3003956D01*
X-6555231Y3116021D01*
X-6555943Y3122371D01*
X-6557873Y3127806D01*
X-6560921Y3132734D01*
X-6565036Y3136798D01*
X-6569913Y3139897D01*
X-6575399Y3141827D01*
X-6581698Y3142538D01*
X-6716268Y3142538D01*
X-6720179Y3143300D01*
X-6723481Y3145485D01*
X-6725666Y3148787D01*
X-6726428Y3152698D01*
X-6725666Y3156559D01*
X-6723481Y3159861D01*
X-6712254Y3171088D01*
X-6708952Y3173323D01*
X-6705041Y3174085D01*
X-6580581Y3174085D01*
X-6574231Y3174796D01*
X-6568795Y3176727D01*
X-6563868Y3179775D01*
X-6559803Y3183890D01*
X-6556349Y3189325D01*
X-6554063Y3191865D01*
X-6551117Y3193542D01*
X-6547764Y3194100D01*
X-6448958Y3194100D01*
X-6445605Y3193542D01*
X-6442608Y3191865D01*
X-6440373Y3189325D01*
X-6439052Y3187242D01*
X-6434937Y3183178D01*
X-6430060Y3180080D01*
X-6424574Y3178200D01*
X-6418275Y3177438D01*
X-6281724Y3177438D01*
X-6275374Y3178200D01*
X-6269939Y3180080D01*
X-6265011Y3183178D01*
X-6260947Y3187242D01*
X-6257848Y3192170D01*
X-6255918Y3197606D01*
X-6255207Y3203956D01*
X-6255207Y3316071D01*
X-6255918Y3322370D01*
X-6257848Y3327857D01*
X-6260947Y3332734D01*
X-6265011Y3336848D01*
X-6269939Y3339896D01*
X-6275374Y3341827D01*
X-6281724Y3342538D01*
X-6418275Y3342538D01*
X-6424574Y3341827D01*
X-6430060Y3339896D01*
X-6434937Y3336848D01*
X-6439052Y3332734D01*
X-6440322Y3330651D01*
X-6442608Y3328111D01*
X-6445605Y3326485D01*
X-6448958Y3325926D01*
X-6547764Y3325926D01*
X-6551117Y3326485D01*
X-6554114Y3328111D01*
X-6556349Y3330651D01*
X-6559803Y3336086D01*
X-6563868Y3340201D01*
X-6568795Y3343300D01*
X-6574231Y3345179D01*
X-6580581Y3345891D01*
X-6638442Y3345891D01*
X-6642353Y3346653D01*
X-6645656Y3348888D01*
X-6721094Y3424326D01*
X-6723278Y3427628D01*
X-6724091Y3431489D01*
X-6724091Y3547059D01*
X-6723380Y3550665D01*
X-6721500Y3553815D01*
X-6718553Y3556101D01*
X-6713728Y3557320D01*
X-6708292Y3559200D01*
X-6703364Y3562299D01*
X-6699300Y3566363D01*
X-6696202Y3571290D01*
X-6694271Y3576726D01*
X-6693560Y3583076D01*
X-6693560Y3716934D01*
X-6694271Y3723233D01*
X-6696202Y3728720D01*
X-6699300Y3733596D01*
X-6703364Y3737711D01*
X-6708292Y3740759D01*
X-6713728Y3742690D01*
X-6720078Y3743401D01*
X-6859930Y3743401D01*
X-6866229Y3742690D01*
X-6871716Y3740759D01*
X-6876592Y3737711D01*
X-6880707Y3733596D01*
X-6884212Y3729532D01*
X-6887972Y3727958D01*
X-6892036Y3727958D01*
X-6895795Y3729532D01*
X-6899300Y3733596D01*
X-6903364Y3737711D01*
X-6908292Y3740759D01*
X-6913727Y3742690D01*
X-6920077Y3743401D01*
X-7059930Y3743401D01*
X-7066229Y3742690D01*
X-7071715Y3740759D01*
X-7076592Y3737711D01*
X-7080707Y3733596D01*
X-7083755Y3728720D01*
X-7085888Y3722674D01*
X-7088022Y3719118D01*
X-7091425Y3716731D01*
X-7095490Y3715867D01*
X-7158075Y3715867D01*
X-7161631Y3716528D01*
X-7164730Y3718356D01*
X-7167016Y3721150D01*
X-7170064Y3730040D01*
X-7173163Y3734968D01*
X-7177227Y3739032D01*
X-7182154Y3742131D01*
X-7187590Y3744061D01*
X-7193940Y3744772D01*
X-7306056Y3744772D01*
X-7312355Y3744061D01*
X-7317841Y3742131D01*
X-7322718Y3739032D01*
X-7326833Y3734968D01*
X-7329881Y3730040D01*
X-7331811Y3724605D01*
X-7332522Y3718255D01*
X-7332522Y3581704D01*
X-7331811Y3575405D01*
X-7329881Y3569919D01*
X-7326833Y3565042D01*
X-7322718Y3560927D01*
X-7317841Y3557879D01*
X-7312355Y3555949D01*
X-7306056Y3555237D01*
X-7193940Y3555237D01*
X-7187590Y3555949D01*
X-7182154Y3557879D01*
X-7177227Y3560927D01*
X-7173163Y3565042D01*
X-7170064Y3569919D01*
X-7167016Y3578809D01*
X-7164730Y3581603D01*
X-7161631Y3583432D01*
X-7158075Y3584092D01*
X-7095439Y3584092D01*
X-7091375Y3583228D01*
X-7088022Y3580841D01*
X-7085888Y3577285D01*
X-7083755Y3571290D01*
X-7080707Y3566363D01*
X-7076592Y3562299D01*
X-7071715Y3559200D01*
X-7066229Y3557320D01*
X-7059930Y3556558D01*
X-6920077Y3556558D01*
X-6913727Y3557320D01*
X-6908292Y3559200D01*
X-6903364Y3562299D01*
X-6899300Y3566363D01*
X-6895795Y3570427D01*
X-6892036Y3572052D01*
X-6887972Y3572052D01*
X-6884212Y3570427D01*
X-6880707Y3566363D01*
X-6876592Y3562299D01*
X-6871716Y3559200D01*
X-6866229Y3557320D01*
X-6861403Y3556101D01*
X-6858457Y3553815D01*
X-6856577Y3550665D01*
X-6855866Y3547059D01*
X-6855866Y3400399D01*
X-6855053Y3389680D01*
X-6852615Y3379622D01*
X-6848652Y3370072D01*
X-6843268Y3361283D01*
X-6836308Y3353104D01*
X-6788302Y3305098D01*
X-6786067Y3301746D01*
X-6785305Y3297783D01*
X-6786168Y3293872D01*
X-6788454Y3290570D01*
X-6816191Y3264153D01*
X-6819341Y3262122D01*
X-6823100Y3261360D01*
X-6826808Y3262020D01*
X-6830059Y3264001D01*
X-6832295Y3267049D01*
X-6833311Y3270707D01*
X-6834174Y3281781D01*
X-6836613Y3291840D01*
X-6840575Y3301390D01*
X-6845960Y3310229D01*
X-6852666Y3318052D01*
X-6860540Y3324809D01*
X-6869328Y3330194D01*
X-6878878Y3334156D01*
X-6888937Y3336544D01*
X-6899249Y3337356D01*
X-6909562Y3336544D01*
X-6919620Y3334156D01*
X-6929170Y3330194D01*
X-6937959Y3324809D01*
X-6946138Y3317798D01*
X-6984238Y3279698D01*
X-6987540Y3277514D01*
X-6991451Y3276701D01*
X-7025741Y3276701D01*
X-7029653Y3277514D01*
X-7032955Y3279698D01*
X-7035139Y3283000D01*
X-7035901Y3286912D01*
X-7035139Y3290824D01*
X-7032904Y3294075D01*
X-7025131Y3301796D01*
X-7019594Y3309772D01*
X-7015429Y3318611D01*
X-7012940Y3328009D01*
X-7012076Y3337712D01*
X-7012940Y3347465D01*
X-7015429Y3356864D01*
X-7019594Y3365703D01*
X-7025182Y3373729D01*
X-7032091Y3380587D01*
X-7040067Y3386226D01*
X-7048906Y3390341D01*
X-7058304Y3392830D01*
X-7068464Y3393744D01*
X-7098995Y3393744D01*
X-7101840Y3394151D01*
X-7105751Y3396132D01*
X-7115251Y3400196D01*
X-7125258Y3402736D01*
X-7135977Y3403701D01*
X-7318806Y3405987D01*
X-7329525Y3405276D01*
X-7339584Y3402990D01*
X-7349185Y3399180D01*
X-7358075Y3393897D01*
X-7366000Y3387242D01*
X-7372858Y3379470D01*
X-7378344Y3370732D01*
X-7382408Y3361232D01*
X-7384948Y3351225D01*
X-7385913Y3340912D01*
X-7385202Y3330600D01*
X-7382916Y3320542D01*
X-7379106Y3310940D01*
X-7373823Y3302050D01*
X-7367168Y3294126D01*
X-7359396Y3287268D01*
X-7350658Y3281781D01*
X-7341158Y3277717D01*
X-7331151Y3275177D01*
X-7320432Y3274212D01*
X-7244943Y3273247D01*
X-7240828Y3272332D01*
X-7237425Y3269792D01*
X-7235393Y3266084D01*
X-7234986Y3261867D01*
X-7236358Y3257854D01*
X-7239253Y3254756D01*
X-7240930Y3253587D01*
X-7247839Y3246729D01*
X-7253427Y3238703D01*
X-7257542Y3229864D01*
X-7260081Y3220466D01*
X-7260894Y3210712D01*
X-7260081Y3201009D01*
X-7257542Y3191611D01*
X-7253427Y3182772D01*
X-7247839Y3174746D01*
X-7240930Y3167837D01*
X-7232903Y3162249D01*
X-7231532Y3161588D01*
X-7227976Y3158896D01*
X-7225995Y3154934D01*
X-7225842Y3150514D01*
X-7227570Y3146450D01*
X-7230872Y3143504D01*
X-7236104Y3140252D01*
X-7238492Y3138119D01*
X-7248093Y3128518D01*
X-7251903Y3123793D01*
X-7254443Y3118561D01*
X-7255713Y3112973D01*
X-7255916Y3108198D01*
X-7260081Y3093466D01*
X-7260437Y3089300D01*
X-7261758Y3085033D01*
X-7264857Y3081782D01*
X-7269022Y3080156D01*
X-7273442Y3080461D01*
X-7277353Y3082645D01*
X-7279944Y3086303D01*
X-7281367Y3089808D01*
X-7286752Y3098596D01*
X-7293711Y3106775D01*
X-7443774Y3257092D01*
X-7451953Y3264052D01*
X-7460742Y3269488D01*
X-7470292Y3273450D01*
X-7480350Y3275888D01*
X-7491069Y3276701D01*
X-7495540Y3276701D01*
X-7499400Y3277514D01*
X-7502702Y3279698D01*
X-7504938Y3283000D01*
X-7505700Y3286861D01*
X-7504938Y3290773D01*
X-7502702Y3294075D01*
X-7433716Y3363061D01*
X-7426756Y3371240D01*
X-7421372Y3380028D01*
X-7417409Y3389579D01*
X-7414971Y3399637D01*
X-7414158Y3410356D01*
X-7414158Y3459581D01*
X-7414971Y3470300D01*
X-7417409Y3480358D01*
X-7421372Y3489909D01*
X-7426756Y3498697D01*
X-7433462Y3506571D01*
X-7441336Y3513277D01*
X-7450124Y3518662D01*
X-7459675Y3522624D01*
X-7469733Y3525062D01*
X-7480046Y3525875D01*
X-7490358Y3525062D01*
X-7500416Y3522624D01*
X-7509967Y3518662D01*
X-7518755Y3513277D01*
X-7526629Y3506571D01*
X-7533335Y3498697D01*
X-7538720Y3489909D01*
X-7542682Y3480358D01*
X-7545120Y3470300D01*
X-7545933Y3459581D01*
X-7545933Y3441446D01*
X-7546746Y3437585D01*
X-7548930Y3434283D01*
X-7574737Y3408426D01*
X-7577988Y3406292D01*
X-7581747Y3405479D01*
X-7684211Y3403701D01*
X-7694930Y3402685D01*
X-7704937Y3400094D01*
X-7714386Y3395979D01*
X-7718044Y3394151D01*
X-7720888Y3393744D01*
X-7751622Y3393744D01*
X-7761782Y3392830D01*
X-7771180Y3390341D01*
X-7780020Y3386226D01*
X-7787995Y3380587D01*
X-7794904Y3373729D01*
X-7800492Y3365703D01*
X-7804658Y3356864D01*
X-7807147Y3347465D01*
X-7808010Y3337712D01*
X-7807147Y3328009D01*
X-7804658Y3318611D01*
X-7800492Y3309772D01*
X-7794904Y3301746D01*
X-7787995Y3294837D01*
X-7780020Y3289249D01*
X-7771180Y3285134D01*
X-7767116Y3284067D01*
X-7763205Y3282035D01*
X-7760512Y3278530D01*
X-7759598Y3274212D01*
X-7760512Y3269945D01*
X-7763205Y3266440D01*
X-7767116Y3264408D01*
X-7771180Y3263341D01*
X-7780020Y3259226D01*
X-7787995Y3253587D01*
X-7794904Y3246729D01*
X-7800492Y3238703D01*
X-7804658Y3229864D01*
X-7806842Y3221583D01*
X-7808772Y3217824D01*
X-7812074Y3215182D01*
X-7816138Y3214065D01*
X-7820304Y3214725D01*
X-7823860Y3217062D01*
X-7831023Y3224225D01*
X-7833207Y3227527D01*
X-7834020Y3231388D01*
X-7834020Y3548430D01*
X-7833207Y3552342D01*
X-7831023Y3555644D01*
X-7805674Y3581095D01*
X-7802372Y3583279D01*
X-7798460Y3584092D01*
X-7541869Y3584092D01*
X-7538313Y3583432D01*
X-7535265Y3581603D01*
X-7532979Y3578809D01*
X-7529880Y3569919D01*
X-7526832Y3565042D01*
X-7522718Y3560927D01*
X-7517841Y3557879D01*
X-7512354Y3555949D01*
X-7506055Y3555237D01*
X-7393940Y3555237D01*
X-7387590Y3555949D01*
X-7382154Y3557879D01*
X-7377226Y3560927D01*
X-7373162Y3565042D01*
X-7370064Y3569919D01*
X-7368184Y3575405D01*
X-7367473Y3581704D01*
X-7367473Y3718255D01*
X-7368184Y3724605D01*
X-7370064Y3730040D01*
X-7373162Y3734968D01*
X-7377226Y3739032D01*
X-7382154Y3742131D01*
X-7387590Y3744061D01*
X-7393940Y3744772D01*
X-7411872Y3744772D01*
X-7416190Y3745687D01*
X-7419695Y3748379D01*
X-7421727Y3752342D01*
X-7421880Y3756710D01*
X-7420152Y3760774D01*
X-7416901Y3763772D01*
X-7412685Y3765042D01*
X-7409281Y3765296D01*
X-7399274Y3767734D01*
X-7389723Y3771696D01*
X-7380884Y3777081D01*
X-7372705Y3784041D01*
X-7020661Y4136136D01*
X-7017359Y4138320D01*
X-7013448Y4139082D01*
X-7009587Y4138320D01*
X-7006285Y4136136D01*
X-7004100Y4132834D01*
X-7003288Y4128922D01*
X-7003288Y4032605D01*
X-7002576Y4026306D01*
X-7000697Y4020820D01*
X-6997598Y4015943D01*
X-6993534Y4011828D01*
X-6988606Y4008780D01*
X-6983171Y4006850D01*
X-6976821Y4006138D01*
X-6423152Y4006138D01*
X-6416802Y4006850D01*
X-6411366Y4008780D01*
X-6406438Y4011828D01*
X-6402374Y4015943D01*
X-6400241Y4019346D01*
X-6397955Y4021886D01*
X-6394958Y4023512D01*
X-6391605Y4024071D01*
X-6295796Y4024071D01*
X-6290056Y4024680D01*
X-6284518Y4026509D01*
X-6279032Y4029811D01*
X-6084671Y4179112D01*
X-6080099Y4183532D01*
X-6076899Y4188358D01*
X-6074918Y4193743D01*
X-6074054Y4200601D01*
X-6074054Y5035042D01*
X-6073292Y5038953D01*
X-6071108Y5042255D01*
X-6043218Y5070094D01*
X-6039967Y5072278D01*
X-6036056Y5073091D01*
X-6032144Y5072278D01*
X-6028893Y5070094D01*
X-6026658Y5066792D01*
X-6025896Y5062931D01*
X-6025896Y4650536D01*
X-6025184Y4644237D01*
X-6023254Y4638802D01*
X-6020206Y4633874D01*
X-6016091Y4629810D01*
X-6011214Y4626711D01*
X-6005728Y4624781D01*
X-5999429Y4624070D01*
X-5800547Y4624070D01*
X-5794248Y4624781D01*
X-5789371Y4625695D01*
X-5785561Y4624781D01*
X-5782411Y4622495D01*
X-5780379Y4619244D01*
X-5779668Y4615383D01*
X-5780481Y4611624D01*
X-5782665Y4608372D01*
X-5903925Y4487113D01*
X-5907227Y4484928D01*
X-5911088Y4484166D01*
X-5984443Y4484166D01*
X-5990793Y4483455D01*
X-5996228Y4481525D01*
X-6001156Y4478426D01*
X-6005220Y4474362D01*
X-6008319Y4469434D01*
X-6010249Y4463999D01*
X-6010960Y4457649D01*
X-6010960Y4338066D01*
X-6010249Y4331716D01*
X-6008319Y4326280D01*
X-6005220Y4321403D01*
X-6001156Y4317288D01*
X-5996228Y4314190D01*
X-5990793Y4312310D01*
X-5984443Y4311599D01*
X-5815533Y4311599D01*
X-5809183Y4312310D01*
X-5803747Y4314190D01*
X-5798820Y4317288D01*
X-5794756Y4321403D01*
X-5791657Y4326280D01*
X-5789726Y4331716D01*
X-5789015Y4338066D01*
X-5789015Y4411370D01*
X-5788253Y4415282D01*
X-5786069Y4418584D01*
X-5553659Y4650994D01*
X-5550357Y4653178D01*
X-5546445Y4653940D01*
X-5542584Y4653178D01*
X-5539282Y4650994D01*
X-5538012Y4649724D01*
X-5533136Y4646625D01*
X-5527649Y4644745D01*
X-5521350Y4644034D01*
X-5317845Y4644034D01*
X-5311495Y4644745D01*
X-5306060Y4646625D01*
X-5301132Y4649724D01*
X-5297068Y4653838D01*
X-5293969Y4658715D01*
X-5292090Y4664151D01*
X-5291378Y4670501D01*
X-5291378Y4831334D01*
X-5292090Y4837684D01*
X-5293969Y4843119D01*
X-5297068Y4848047D01*
X-5301132Y4852111D01*
X-5306060Y4855210D01*
X-5311495Y4857140D01*
X-5317845Y4857851D01*
X-5521350Y4857851D01*
X-5527649Y4857140D01*
X-5533136Y4855210D01*
X-5538012Y4852111D01*
X-5542127Y4848047D01*
X-5545175Y4843119D01*
X-5547106Y4837684D01*
X-5547817Y4831334D01*
X-5547817Y4826101D01*
X-5548528Y4822444D01*
X-5550509Y4819243D01*
X-5553557Y4817008D01*
X-5567273Y4813604D01*
X-5576824Y4809642D01*
X-5585612Y4804206D01*
X-5593791Y4797247D01*
X-5735421Y4655616D01*
X-5738876Y4653381D01*
X-5742990Y4652670D01*
X-5747004Y4653686D01*
X-5750306Y4656175D01*
X-5752287Y4659833D01*
X-5752693Y4663948D01*
X-5752134Y4668621D01*
X-5752134Y4829454D01*
X-5752846Y4835804D01*
X-5754776Y4841240D01*
X-5757875Y4846167D01*
X-5761939Y4850231D01*
X-5770829Y4855616D01*
X-5773216Y4859020D01*
X-5774080Y4863084D01*
X-5774080Y5063896D01*
X-5773318Y5067808D01*
X-5771083Y5071110D01*
X-5767832Y5073294D01*
X-5763920Y5074056D01*
X-5214924Y5074056D01*
X-5211064Y5073294D01*
X-5207762Y5071110D01*
X-4918506Y4781854D01*
X-4913782Y4778044D01*
X-4908550Y4775555D01*
X-4902911Y4774285D01*
X-4899710Y4774082D01*
X-3710127Y4774082D01*
X-3706266Y4773320D01*
X-3702964Y4771085D01*
X-3700779Y4767834D01*
X-3699967Y4763922D01*
X-3699967Y3450132D01*
X-3700932Y3445865D01*
X-3703574Y3442411D01*
X-3707384Y3440328D01*
X-3711752Y3440074D01*
X-3715765Y3441649D01*
X-3760165Y3471214D01*
X-3765804Y3474161D01*
X-3771595Y3475634D01*
X-3775354Y3475888D01*
X-3843528Y3475888D01*
X-3847439Y3476650D01*
X-3850741Y3478885D01*
X-3852926Y3482187D01*
X-3853687Y3486048D01*
X-3853687Y3617061D01*
X-3854551Y3627780D01*
X-3856939Y3637787D01*
X-3860901Y3647338D01*
X-3866286Y3656177D01*
X-3873296Y3664356D01*
X-4012844Y3803904D01*
X-4015079Y3807206D01*
X-4015841Y3811117D01*
X-4015841Y3884472D01*
X-4016552Y3890772D01*
X-4018432Y3896258D01*
X-4021531Y3901135D01*
X-4025646Y3905250D01*
X-4030522Y3908348D01*
X-4036009Y3910228D01*
X-4042308Y3910939D01*
X-4161942Y3910939D01*
X-4168241Y3910228D01*
X-4170578Y3909415D01*
X-4174388Y3908856D01*
X-4178147Y3909771D01*
X-4181246Y3912006D01*
X-4183329Y3915206D01*
X-4184091Y3919016D01*
X-4184091Y4060444D01*
X-4183329Y4064304D01*
X-4181094Y4067606D01*
X-4177792Y4069791D01*
X-4173931Y4070604D01*
X-4077766Y4070604D01*
X-4071416Y4071315D01*
X-4065981Y4073194D01*
X-4061053Y4076293D01*
X-4056989Y4080357D01*
X-4053890Y4085285D01*
X-4052011Y4090720D01*
X-4051300Y4097070D01*
X-4051300Y4244441D01*
X-4052011Y4250740D01*
X-4053890Y4256227D01*
X-4056989Y4261104D01*
X-4061053Y4265218D01*
X-4065981Y4268266D01*
X-4071416Y4270197D01*
X-4077766Y4270908D01*
X-4422241Y4270908D01*
X-4428540Y4270197D01*
X-4434027Y4268266D01*
X-4438904Y4265218D01*
X-4443018Y4261104D01*
X-4446066Y4256227D01*
X-4447997Y4250740D01*
X-4448708Y4244441D01*
X-4448708Y4097070D01*
X-4447997Y4090720D01*
X-4446066Y4085285D01*
X-4443018Y4080357D01*
X-4438904Y4076293D01*
X-4434027Y4073194D01*
X-4428540Y4071315D01*
X-4422241Y4070604D01*
X-4326077Y4070604D01*
X-4322165Y4069791D01*
X-4318863Y4067606D01*
X-4316679Y4064304D01*
X-4315917Y4060444D01*
X-4315917Y3919016D01*
X-4316628Y3915206D01*
X-4318711Y3912006D01*
X-4321860Y3909771D01*
X-4325620Y3908856D01*
X-4329430Y3909415D01*
X-4331716Y3910228D01*
X-4338066Y3910939D01*
X-4457649Y3910939D01*
X-4463999Y3910228D01*
X-4469434Y3908348D01*
X-4474362Y3905250D01*
X-4478426Y3901135D01*
X-4481525Y3896258D01*
X-4483455Y3890772D01*
X-4484166Y3884472D01*
X-4484166Y3876040D01*
X-4484928Y3872179D01*
X-4487113Y3868877D01*
X-4490415Y3866642D01*
X-4494326Y3865879D01*
X-4591354Y3865879D01*
X-4594758Y3866489D01*
X-4597806Y3868216D01*
X-4600854Y3870756D01*
X-4613148Y3878529D01*
X-4626305Y3884726D01*
X-4640173Y3889248D01*
X-4654448Y3891991D01*
X-4668977Y3892905D01*
X-4683506Y3891991D01*
X-4697831Y3889248D01*
X-4711649Y3884726D01*
X-4724806Y3878529D01*
X-4737100Y3870756D01*
X-4748326Y3861460D01*
X-4758283Y3850843D01*
X-4766818Y3839108D01*
X-4773828Y3826357D01*
X-4779213Y3812794D01*
X-4782820Y3798722D01*
X-4784648Y3784244D01*
X-4784648Y3769715D01*
X-4782820Y3755288D01*
X-4779213Y3741165D01*
X-4773828Y3727653D01*
X-4766818Y3714902D01*
X-4758283Y3703116D01*
X-4748326Y3692499D01*
X-4737100Y3683254D01*
X-4724806Y3675430D01*
X-4711649Y3669233D01*
X-4697831Y3664762D01*
X-4683506Y3662019D01*
X-4668977Y3661105D01*
X-4654448Y3662019D01*
X-4640173Y3664762D01*
X-4626305Y3669233D01*
X-4613148Y3675430D01*
X-4600854Y3683254D01*
X-4589678Y3692499D01*
X-4579721Y3703116D01*
X-4571136Y3714851D01*
X-4563618Y3728770D01*
X-4561332Y3731564D01*
X-4558233Y3733444D01*
X-4554677Y3734054D01*
X-4494326Y3734054D01*
X-4490415Y3733292D01*
X-4487113Y3731107D01*
X-4484928Y3727805D01*
X-4484166Y3723894D01*
X-4484166Y3715512D01*
X-4483455Y3709212D01*
X-4481525Y3703726D01*
X-4478426Y3698849D01*
X-4474362Y3694734D01*
X-4468520Y3691077D01*
X-4465980Y3688791D01*
X-4464354Y3685844D01*
X-4463745Y3682441D01*
X-4463745Y3466134D01*
X-4464558Y3462223D01*
X-4466742Y3458921D01*
X-4470044Y3456736D01*
X-4473905Y3455974D01*
X-4482134Y3455974D01*
X-4488484Y3455263D01*
X-4493920Y3453333D01*
X-4498848Y3450285D01*
X-4502912Y3446170D01*
X-4506010Y3441293D01*
X-4507890Y3435807D01*
X-4508601Y3429508D01*
X-4508601Y3268624D01*
X-4507890Y3262325D01*
X-4506010Y3256838D01*
X-4502912Y3251962D01*
X-4498848Y3247847D01*
X-4493920Y3244748D01*
X-4488484Y3242868D01*
X-4482134Y3242157D01*
X-4278630Y3242157D01*
X-4277207Y3242310D01*
X-4272991Y3241903D01*
X-4269282Y3239770D01*
X-4266793Y3236366D01*
X-4265879Y3232200D01*
X-4265879Y3229356D01*
X-4266692Y3225495D01*
X-4268876Y3222193D01*
X-4403953Y3087116D01*
X-4407204Y3084931D01*
X-4411116Y3084169D01*
X-4484471Y3084169D01*
X-4490770Y3083458D01*
X-4496257Y3081528D01*
X-4501134Y3078429D01*
X-4505248Y3074365D01*
X-4508906Y3068523D01*
X-4511192Y3065983D01*
X-4514138Y3064357D01*
X-4517542Y3063748D01*
X-4716373Y3063748D01*
X-4720234Y3064560D01*
X-4723536Y3066745D01*
X-4831130Y3174339D01*
X-4833315Y3177590D01*
X-4834077Y3181502D01*
X-4834077Y3260496D01*
X-4833315Y3264357D01*
X-4831130Y3267659D01*
X-4800142Y3298596D01*
X-4796688Y3300882D01*
X-4792573Y3301593D01*
X-4788509Y3300526D01*
X-4785207Y3297986D01*
X-4783226Y3294278D01*
X-4782870Y3290163D01*
X-4784648Y3276244D01*
X-4784648Y3261715D01*
X-4782820Y3247288D01*
X-4779213Y3233166D01*
X-4773828Y3219653D01*
X-4766818Y3206902D01*
X-4758283Y3195116D01*
X-4748326Y3184499D01*
X-4737100Y3175254D01*
X-4724806Y3167430D01*
X-4711649Y3161233D01*
X-4697831Y3156762D01*
X-4683506Y3154019D01*
X-4668977Y3153105D01*
X-4654448Y3154019D01*
X-4640173Y3156762D01*
X-4626305Y3161233D01*
X-4613148Y3167430D01*
X-4600854Y3175254D01*
X-4589678Y3184499D01*
X-4579721Y3195116D01*
X-4571136Y3206902D01*
X-4564126Y3219653D01*
X-4558792Y3233166D01*
X-4555134Y3247288D01*
X-4553305Y3261715D01*
X-4553305Y3276244D01*
X-4555134Y3290722D01*
X-4558792Y3304794D01*
X-4564126Y3318357D01*
X-4571136Y3331108D01*
X-4579721Y3342843D01*
X-4589678Y3353460D01*
X-4600854Y3362756D01*
X-4613148Y3370529D01*
X-4626305Y3376726D01*
X-4640173Y3381248D01*
X-4654448Y3383991D01*
X-4668977Y3384905D01*
X-4683506Y3383991D01*
X-4689703Y3382772D01*
X-4694021Y3382873D01*
X-4697882Y3384753D01*
X-4700625Y3388004D01*
X-4701794Y3392119D01*
X-4701133Y3396335D01*
X-4698796Y3399942D01*
X-4693412Y3405378D01*
X-4690719Y3407308D01*
X-4687570Y3408273D01*
X-4668977Y3407105D01*
X-4654448Y3408019D01*
X-4640173Y3410762D01*
X-4626305Y3415233D01*
X-4613148Y3421430D01*
X-4600854Y3429254D01*
X-4589678Y3438499D01*
X-4579721Y3449116D01*
X-4571136Y3460902D01*
X-4564126Y3473653D01*
X-4558792Y3487165D01*
X-4555134Y3501288D01*
X-4553305Y3515715D01*
X-4553305Y3530244D01*
X-4555134Y3544722D01*
X-4558792Y3558794D01*
X-4564126Y3572357D01*
X-4571136Y3585108D01*
X-4579721Y3596843D01*
X-4589678Y3607460D01*
X-4600854Y3616756D01*
X-4613148Y3624529D01*
X-4626305Y3630726D01*
X-4640173Y3635248D01*
X-4654448Y3637991D01*
X-4668977Y3638905D01*
X-4683506Y3637991D01*
X-4697831Y3635248D01*
X-4711649Y3630726D01*
X-4724806Y3624529D01*
X-4737100Y3616756D01*
X-4748326Y3607460D01*
X-4758283Y3596843D01*
X-4766818Y3585108D01*
X-4773828Y3572357D01*
X-4779213Y3558794D01*
X-4782820Y3544722D01*
X-4784648Y3530244D01*
X-4784648Y3515715D01*
X-4783582Y3507181D01*
X-4783632Y3504082D01*
X-4784648Y3501186D01*
X-4786477Y3498697D01*
X-4946294Y3338880D01*
X-4953304Y3330701D01*
X-4958689Y3321862D01*
X-4962652Y3312312D01*
X-4965039Y3302304D01*
X-4965903Y3291586D01*
X-4965903Y3150412D01*
X-4965039Y3139694D01*
X-4962652Y3129635D01*
X-4958689Y3120085D01*
X-4953304Y3111296D01*
X-4946294Y3103118D01*
X-4816856Y2973679D01*
X-4814620Y2970326D01*
X-4813909Y2966415D01*
X-4815941Y2650794D01*
X-4815179Y2640126D01*
X-4812842Y2630017D01*
X-4808931Y2620467D01*
X-4803597Y2611628D01*
X-4796332Y2603042D01*
X-4596739Y2403754D01*
X-4588611Y2396794D01*
X-4579823Y2391410D01*
X-4570272Y2387447D01*
X-4560214Y2385009D01*
X-4549495Y2384196D01*
X-3710127Y2384196D01*
X-3706266Y2383383D01*
X-3702964Y2381199D01*
X-3700779Y2377897D01*
X-3699967Y2374036D01*
X-3699967Y2036064D01*
X-3700779Y2032152D01*
X-3702964Y2028901D01*
X-3706266Y2026666D01*
X-3710127Y2025904D01*
G37*

%LPC*%
G36*
X-8559901Y2253589D02*
G01*
X-8533028Y2253589D01*
X-8526729Y2254300D01*
X-8521293Y2256231D01*
X-8516366Y2259279D01*
X-8512302Y2263394D01*
X-8509203Y2268270D01*
X-8507272Y2273757D01*
X-8506561Y2280056D01*
X-8506561Y2308402D01*
X-8559901Y2308402D01*
G37*
G36*
X-8666937Y2253589D02*
G01*
X-8640064Y2253589D01*
X-8640064Y2308402D01*
X-8693404Y2308402D01*
X-8693404Y2280056D01*
X-8692692Y2273757D01*
X-8690762Y2268270D01*
X-8687663Y2263394D01*
X-8683599Y2259279D01*
X-8678672Y2256231D01*
X-8673236Y2254300D01*
G37*
G36*
X-8256066Y2255215D02*
G01*
X-8143951Y2255215D01*
X-8137601Y2255926D01*
X-8132165Y2257856D01*
X-8127238Y2260955D01*
X-8123174Y2265019D01*
X-8120075Y2269947D01*
X-8118144Y2275382D01*
X-8117433Y2281732D01*
X-8117433Y2418283D01*
X-8118144Y2424582D01*
X-8120075Y2430068D01*
X-8123174Y2434945D01*
X-8127238Y2439060D01*
X-8132165Y2442108D01*
X-8137601Y2444038D01*
X-8143951Y2444750D01*
X-8197342Y2444750D01*
X-8201253Y2445512D01*
X-8204555Y2447747D01*
X-8281111Y2524302D01*
X-8283295Y2527604D01*
X-8284057Y2531465D01*
X-8284057Y3018485D01*
X-8283295Y3022396D01*
X-8281111Y3025648D01*
X-8068360Y3238398D01*
X-8065109Y3240582D01*
X-8061198Y3241344D01*
X-8028635Y3241344D01*
X-8022285Y3242056D01*
X-8016849Y3243986D01*
X-8011922Y3247085D01*
X-8007858Y3251149D01*
X-8004759Y3256076D01*
X-8002828Y3261512D01*
X-8002117Y3267862D01*
X-8002117Y3471316D01*
X-8002828Y3477666D01*
X-8004759Y3483101D01*
X-8007858Y3488029D01*
X-8011922Y3492093D01*
X-8016849Y3495192D01*
X-8022285Y3497122D01*
X-8028635Y3497834D01*
X-8189468Y3497834D01*
X-8195818Y3497122D01*
X-8201253Y3495192D01*
X-8206181Y3492093D01*
X-8210245Y3488029D01*
X-8213344Y3483101D01*
X-8215223Y3477666D01*
X-8215934Y3471316D01*
X-8215934Y3281426D01*
X-8216747Y3277565D01*
X-8218931Y3274263D01*
X-8396325Y3096869D01*
X-8403285Y3088741D01*
X-8405368Y3085287D01*
X-8408416Y3082137D01*
X-8412429Y3080562D01*
X-8416798Y3080816D01*
X-8420658Y3082848D01*
X-8423249Y3086354D01*
X-8424214Y3090621D01*
X-8424265Y3200654D01*
X-8425078Y3209493D01*
X-8425484Y3211931D01*
X-8427618Y3220516D01*
X-8428380Y3222853D01*
X-8431784Y3231083D01*
X-8432901Y3233267D01*
X-8438946Y3242919D01*
X-8444585Y3249777D01*
X-8612835Y3418078D01*
X-8615070Y3421379D01*
X-8615832Y3425240D01*
X-8615832Y3484473D01*
X-8616543Y3490772D01*
X-8618423Y3496259D01*
X-8621522Y3501136D01*
X-8625636Y3505250D01*
X-8630513Y3508349D01*
X-8636000Y3510229D01*
X-8642299Y3510940D01*
X-8761933Y3510940D01*
X-8768232Y3510229D01*
X-8773718Y3508349D01*
X-8778595Y3505250D01*
X-8782710Y3501136D01*
X-8785758Y3496259D01*
X-8787688Y3490772D01*
X-8788400Y3484473D01*
X-8788400Y3315512D01*
X-8787688Y3309213D01*
X-8785758Y3303727D01*
X-8782710Y3298850D01*
X-8778595Y3294735D01*
X-8773718Y3291636D01*
X-8768232Y3289757D01*
X-8761933Y3289046D01*
X-8702700Y3289046D01*
X-8698839Y3288284D01*
X-8695537Y3286048D01*
X-8579002Y3169513D01*
X-8576767Y3166211D01*
X-8576005Y3162350D01*
X-8576005Y2985617D01*
X-8576767Y2981706D01*
X-8579002Y2978404D01*
X-8655507Y2901848D01*
X-8662568Y2893009D01*
X-8667191Y2885389D01*
X-8668308Y2883204D01*
X-8671712Y2874975D01*
X-8672474Y2872638D01*
X-8674608Y2864002D01*
X-8675014Y2861564D01*
X-8675827Y2852724D01*
X-8675878Y2651150D01*
X-8676436Y2647797D01*
X-8678113Y2644800D01*
X-8680653Y2642565D01*
X-8683599Y2640685D01*
X-8687663Y2636621D01*
X-8690762Y2631694D01*
X-8692692Y2626258D01*
X-8693404Y2619908D01*
X-8693404Y2480056D01*
X-8692692Y2473756D01*
X-8690762Y2468270D01*
X-8687663Y2463393D01*
X-8683599Y2459278D01*
X-8679535Y2455773D01*
X-8677960Y2452014D01*
X-8677960Y2447950D01*
X-8679535Y2444191D01*
X-8683599Y2440686D01*
X-8687663Y2436622D01*
X-8690762Y2431694D01*
X-8692692Y2426258D01*
X-8693404Y2419908D01*
X-8693404Y2391613D01*
X-8640064Y2391613D01*
X-8640064Y2443429D01*
X-8639302Y2447340D01*
X-8637117Y2450592D01*
X-8633815Y2452827D01*
X-8629904Y2453589D01*
X-8570061Y2453589D01*
X-8566150Y2452827D01*
X-8562848Y2450592D01*
X-8560663Y2447340D01*
X-8559901Y2443429D01*
X-8559901Y2391613D01*
X-8506561Y2391613D01*
X-8506561Y2419908D01*
X-8507272Y2426258D01*
X-8509203Y2431694D01*
X-8512302Y2436622D01*
X-8516366Y2440686D01*
X-8520430Y2444191D01*
X-8522004Y2447950D01*
X-8522004Y2452014D01*
X-8520430Y2455773D01*
X-8516366Y2459278D01*
X-8512302Y2463393D01*
X-8509203Y2468270D01*
X-8507272Y2473756D01*
X-8506561Y2480056D01*
X-8506561Y2619908D01*
X-8507272Y2626258D01*
X-8509203Y2631694D01*
X-8512302Y2636621D01*
X-8516366Y2640685D01*
X-8519312Y2642565D01*
X-8521852Y2644800D01*
X-8523528Y2647797D01*
X-8524087Y2651150D01*
X-8524087Y2814421D01*
X-8523325Y2818333D01*
X-8521090Y2821635D01*
X-8444585Y2898190D01*
X-8438946Y2905048D01*
X-8434730Y2911602D01*
X-8431733Y2914751D01*
X-8427669Y2916377D01*
X-8423351Y2916123D01*
X-8419490Y2914091D01*
X-8416848Y2910636D01*
X-8415883Y2906369D01*
X-8415883Y2500376D01*
X-8415070Y2489657D01*
X-8412632Y2479598D01*
X-8408670Y2470048D01*
X-8403285Y2461260D01*
X-8396325Y2453081D01*
X-8285480Y2342286D01*
X-8283295Y2338984D01*
X-8282533Y2335072D01*
X-8282533Y2281732D01*
X-8281822Y2275382D01*
X-8279892Y2269947D01*
X-8276844Y2265019D01*
X-8272729Y2260955D01*
X-8267852Y2257856D01*
X-8262366Y2255926D01*
G37*
G36*
X-9799980Y2274112D02*
G01*
X-9784791Y2275027D01*
X-9769856Y2277770D01*
X-9755327Y2282291D01*
X-9741458Y2288540D01*
X-9728454Y2296414D01*
X-9716516Y2305761D01*
X-9705746Y2316530D01*
X-9696399Y2328468D01*
X-9688525Y2341473D01*
X-9682276Y2355342D01*
X-9677755Y2369870D01*
X-9675012Y2384806D01*
X-9674098Y2399995D01*
X-9675012Y2415184D01*
X-9677755Y2430119D01*
X-9682276Y2444648D01*
X-9688525Y2458516D01*
X-9696399Y2471521D01*
X-9705746Y2483459D01*
X-9716516Y2494229D01*
X-9728454Y2503576D01*
X-9741458Y2511450D01*
X-9755327Y2517698D01*
X-9769856Y2522220D01*
X-9784791Y2524963D01*
X-9799980Y2525877D01*
X-9815169Y2524963D01*
X-9830104Y2522220D01*
X-9844633Y2517698D01*
X-9858502Y2511450D01*
X-9871506Y2503576D01*
X-9883444Y2494229D01*
X-9894214Y2483459D01*
X-9903561Y2471521D01*
X-9911435Y2458516D01*
X-9917684Y2444648D01*
X-9922205Y2430119D01*
X-9924948Y2415184D01*
X-9925862Y2399995D01*
X-9924948Y2384806D01*
X-9922205Y2369870D01*
X-9917684Y2355342D01*
X-9911435Y2341473D01*
X-9903561Y2328468D01*
X-9894214Y2316530D01*
X-9883444Y2305761D01*
X-9871506Y2296414D01*
X-9858502Y2288540D01*
X-9844633Y2282291D01*
X-9830104Y2277770D01*
X-9815169Y2275027D01*
G37*
G36*
X-8145322Y2645257D02*
G01*
X-8123936Y2645257D01*
X-8117586Y2645968D01*
X-8112150Y2647848D01*
X-8107273Y2650947D01*
X-8103158Y2655011D01*
X-8100059Y2659938D01*
X-8098180Y2665374D01*
X-8097469Y2671724D01*
X-8097469Y2699207D01*
X-8145322Y2699207D01*
G37*
G36*
X-8236051Y2645257D02*
G01*
X-8214664Y2645257D01*
X-8214664Y2699207D01*
X-8262518Y2699207D01*
X-8262518Y2671724D01*
X-8261807Y2665374D01*
X-8259876Y2659938D01*
X-8256828Y2655011D01*
X-8252714Y2650947D01*
X-8247837Y2647848D01*
X-8242350Y2645968D01*
G37*
G36*
X-6415328Y2705252D02*
G01*
X-6393942Y2705252D01*
X-6387592Y2705963D01*
X-6382156Y2707843D01*
X-6377228Y2710942D01*
X-6373164Y2715006D01*
X-6370066Y2719933D01*
X-6368135Y2725369D01*
X-6367424Y2731719D01*
X-6367424Y2759202D01*
X-6415328Y2759202D01*
G37*
G36*
X-9874402Y2774086D02*
G01*
X-9725558Y2774086D01*
X-9719208Y2774797D01*
X-9713772Y2776728D01*
X-9708845Y2779776D01*
X-9704781Y2783890D01*
X-9701682Y2788767D01*
X-9699802Y2794254D01*
X-9699091Y2800553D01*
X-9699091Y2859379D01*
X-9698278Y2863291D01*
X-9696094Y2866593D01*
X-9241536Y3321151D01*
X-9238234Y3323386D01*
X-9234322Y3324148D01*
X-9094216Y3324148D01*
X-9090558Y3323488D01*
X-9087408Y3321558D01*
X-9085173Y3318662D01*
X-9084106Y3315106D01*
X-9083446Y3309213D01*
X-9081516Y3303727D01*
X-9078417Y3298850D01*
X-9074353Y3294735D01*
X-9069425Y3291636D01*
X-9063990Y3289757D01*
X-9057640Y3289046D01*
X-8938056Y3289046D01*
X-8931706Y3289757D01*
X-8926271Y3291636D01*
X-8921394Y3294735D01*
X-8917279Y3298850D01*
X-8914180Y3303727D01*
X-8912301Y3309213D01*
X-8911590Y3315512D01*
X-8911590Y3484473D01*
X-8912301Y3490772D01*
X-8914180Y3496259D01*
X-8917279Y3501136D01*
X-8921394Y3505250D01*
X-8926271Y3508349D01*
X-8931706Y3510229D01*
X-8938056Y3510940D01*
X-9057640Y3510940D01*
X-9063990Y3510229D01*
X-9069425Y3508349D01*
X-9074353Y3505250D01*
X-9078417Y3501136D01*
X-9081516Y3496259D01*
X-9083446Y3490772D01*
X-9084106Y3484981D01*
X-9085173Y3481425D01*
X-9087408Y3478529D01*
X-9090558Y3476599D01*
X-9094165Y3475939D01*
X-9272625Y3475888D01*
X-9281464Y3475075D01*
X-9283903Y3474669D01*
X-9292539Y3472535D01*
X-9294876Y3471773D01*
X-9303105Y3468370D01*
X-9305290Y3467252D01*
X-9312910Y3462629D01*
X-9321749Y3455568D01*
X-9808514Y2968853D01*
X-9811816Y2966669D01*
X-9815677Y2965907D01*
X-9874402Y2965907D01*
X-9880752Y2965196D01*
X-9886188Y2963265D01*
X-9891115Y2960217D01*
X-9895179Y2956102D01*
X-9898278Y2951226D01*
X-9900158Y2945739D01*
X-9900869Y2939440D01*
X-9900869Y2800553D01*
X-9900158Y2794254D01*
X-9898278Y2788767D01*
X-9895179Y2783890D01*
X-9891115Y2779776D01*
X-9886188Y2776728D01*
X-9880752Y2774797D01*
G37*
G36*
X-8262518Y2780792D02*
G01*
X-8214664Y2780792D01*
X-8214664Y2834741D01*
X-8236051Y2834741D01*
X-8242350Y2834030D01*
X-8247837Y2832150D01*
X-8252714Y2829052D01*
X-8256828Y2824937D01*
X-8259876Y2820060D01*
X-8261807Y2814574D01*
X-8262518Y2808274D01*
G37*
G36*
X-8145322Y2780792D02*
G01*
X-8097469Y2780792D01*
X-8097469Y2808274D01*
X-8098180Y2814574D01*
X-8100059Y2820060D01*
X-8103158Y2824937D01*
X-8107273Y2829052D01*
X-8112150Y2832150D01*
X-8117586Y2834030D01*
X-8123936Y2834741D01*
X-8145322Y2834741D01*
G37*
G36*
X-6532524Y2840786D02*
G01*
X-6484620Y2840786D01*
X-6484620Y2894736D01*
X-6506057Y2894736D01*
X-6512356Y2894025D01*
X-6517843Y2892145D01*
X-6522720Y2889046D01*
X-6526834Y2884982D01*
X-6529882Y2880055D01*
X-6531813Y2874619D01*
X-6532524Y2868269D01*
G37*
G36*
X-6415328Y2840786D02*
G01*
X-6367424Y2840786D01*
X-6367424Y2868269D01*
X-6368135Y2874619D01*
X-6370066Y2880055D01*
X-6373164Y2884982D01*
X-6377228Y2889046D01*
X-6382156Y2892145D01*
X-6387592Y2894025D01*
X-6393942Y2894736D01*
X-6415328Y2894736D01*
G37*
G36*
X-8143443Y2947060D02*
G01*
X-8130590Y2947060D01*
X-8130590Y2980131D01*
X-8169909Y2980131D01*
X-8169909Y2973578D01*
X-8169198Y2967228D01*
X-8167268Y2961792D01*
X-8164220Y2956864D01*
X-8160105Y2952800D01*
X-8155228Y2949702D01*
X-8149742Y2947822D01*
G37*
G36*
X-6118250Y2967431D02*
G01*
X-5981700Y2967431D01*
X-5975400Y2968142D01*
X-5969914Y2970072D01*
X-5965037Y2973171D01*
X-5960922Y2977235D01*
X-5957874Y2982163D01*
X-5955944Y2987598D01*
X-5955233Y2993948D01*
X-5955233Y3087471D01*
X-5954471Y3091383D01*
X-5952236Y3094685D01*
X-5948934Y3096869D01*
X-5945073Y3097631D01*
X-5941161Y3096869D01*
X-5937910Y3094685D01*
X-5847740Y3004515D01*
X-5845505Y3001213D01*
X-5844743Y2997301D01*
X-5844743Y2993948D01*
X-5844032Y2987598D01*
X-5842101Y2982163D01*
X-5839053Y2977235D01*
X-5834938Y2973171D01*
X-5830062Y2970072D01*
X-5824575Y2968142D01*
X-5818276Y2967431D01*
X-5681726Y2967431D01*
X-5675376Y2968142D01*
X-5669940Y2970072D01*
X-5665012Y2973171D01*
X-5660948Y2977235D01*
X-5657850Y2982163D01*
X-5655919Y2987598D01*
X-5655208Y2993948D01*
X-5655208Y3106064D01*
X-5655919Y3112363D01*
X-5657850Y3117850D01*
X-5660948Y3122726D01*
X-5665012Y3126841D01*
X-5669940Y3129889D01*
X-5675376Y3131820D01*
X-5681726Y3132531D01*
X-5785104Y3132531D01*
X-5789015Y3133293D01*
X-5792317Y3135477D01*
X-5806897Y3150108D01*
X-5809132Y3153410D01*
X-5809894Y3157321D01*
X-5809132Y3161182D01*
X-5806897Y3164484D01*
X-5803646Y3166668D01*
X-5799734Y3167481D01*
X-5790742Y3167481D01*
X-5790742Y3215335D01*
X-5844743Y3215335D01*
X-5844743Y3212490D01*
X-5845505Y3208578D01*
X-5847740Y3205276D01*
X-5851042Y3203092D01*
X-5854903Y3202330D01*
X-5858814Y3203092D01*
X-5862066Y3205276D01*
X-5952236Y3295446D01*
X-5954471Y3298748D01*
X-5955233Y3302660D01*
X-5955233Y3306064D01*
X-5955944Y3312363D01*
X-5957874Y3317849D01*
X-5960922Y3322726D01*
X-5965037Y3326841D01*
X-5969914Y3329889D01*
X-5975400Y3331819D01*
X-5981700Y3332530D01*
X-6118250Y3332530D01*
X-6124600Y3331819D01*
X-6130036Y3329889D01*
X-6134963Y3326841D01*
X-6139027Y3322726D01*
X-6142126Y3317849D01*
X-6144056Y3312363D01*
X-6144768Y3306064D01*
X-6144768Y3193948D01*
X-6144056Y3187598D01*
X-6142126Y3182162D01*
X-6139027Y3177235D01*
X-6134963Y3173171D01*
X-6130036Y3170072D01*
X-6124600Y3168192D01*
X-6118250Y3167481D01*
X-6014872Y3167481D01*
X-6011011Y3166668D01*
X-6007709Y3164484D01*
X-5993079Y3149854D01*
X-5990894Y3146552D01*
X-5990132Y3142691D01*
X-5990894Y3138779D01*
X-5993079Y3135477D01*
X-5996381Y3133293D01*
X-6000292Y3132531D01*
X-6118250Y3132531D01*
X-6124600Y3131820D01*
X-6130036Y3129889D01*
X-6134963Y3126841D01*
X-6139027Y3122726D01*
X-6140348Y3120644D01*
X-6142634Y3118104D01*
X-6145580Y3116478D01*
X-6148933Y3115868D01*
X-6246469Y3115868D01*
X-6250533Y3116732D01*
X-6253937Y3119120D01*
X-6256070Y3122676D01*
X-6257848Y3127806D01*
X-6260947Y3132734D01*
X-6265011Y3136798D01*
X-6269939Y3139897D01*
X-6275374Y3141827D01*
X-6281724Y3142538D01*
X-6418275Y3142538D01*
X-6424574Y3141827D01*
X-6430060Y3139897D01*
X-6434937Y3136798D01*
X-6439052Y3132734D01*
X-6442100Y3127806D01*
X-6444030Y3122371D01*
X-6444742Y3116021D01*
X-6444742Y3003956D01*
X-6444030Y2997606D01*
X-6442100Y2992170D01*
X-6439052Y2987243D01*
X-6434937Y2983179D01*
X-6430060Y2980080D01*
X-6424574Y2978150D01*
X-6418275Y2977438D01*
X-6281724Y2977438D01*
X-6275374Y2978150D01*
X-6269939Y2980080D01*
X-6266027Y2982518D01*
X-6263436Y2983687D01*
X-6260642Y2984093D01*
X-6148933Y2984093D01*
X-6145580Y2983484D01*
X-6142634Y2981858D01*
X-6140348Y2979318D01*
X-6139027Y2977235D01*
X-6134963Y2973171D01*
X-6130036Y2970072D01*
X-6124600Y2968142D01*
G37*
G36*
X-8169909Y3019856D02*
G01*
X-8130590Y3019856D01*
X-8130590Y3052876D01*
X-8143443Y3052876D01*
X-8149742Y3052165D01*
X-8155228Y3050286D01*
X-8160105Y3047187D01*
X-8164220Y3043123D01*
X-8167268Y3038195D01*
X-8169198Y3032760D01*
X-8169909Y3026410D01*
G37*
G36*
X-5482336Y3165348D02*
G01*
X-5482336Y3217621D01*
X-5534761Y3217621D01*
X-5528818Y3206902D01*
X-5520283Y3195116D01*
X-5510326Y3184499D01*
X-5499100Y3175254D01*
X-5486806Y3167430D01*
G37*
G36*
X-5709208Y3167481D02*
G01*
X-5681726Y3167481D01*
X-5675376Y3168192D01*
X-5669940Y3170072D01*
X-5665012Y3173171D01*
X-5660948Y3177235D01*
X-5657850Y3182162D01*
X-5655919Y3187598D01*
X-5655208Y3193948D01*
X-5655208Y3215335D01*
X-5709208Y3215335D01*
G37*
G36*
X-5709208Y3284677D02*
G01*
X-5655208Y3284677D01*
X-5655208Y3306064D01*
X-5655919Y3312363D01*
X-5657850Y3317849D01*
X-5660948Y3322726D01*
X-5665012Y3326841D01*
X-5669940Y3329889D01*
X-5675376Y3331819D01*
X-5681726Y3332530D01*
X-5709208Y3332530D01*
G37*
G36*
X-5844743Y3284677D02*
G01*
X-5790742Y3284677D01*
X-5790742Y3332530D01*
X-5818276Y3332530D01*
X-5824575Y3331819D01*
X-5830062Y3329889D01*
X-5834938Y3326841D01*
X-5839053Y3322726D01*
X-5842101Y3317849D01*
X-5844032Y3312363D01*
X-5844743Y3306064D01*
G37*
G36*
X-5534761Y3320338D02*
G01*
X-5482336Y3320338D01*
X-5482336Y3372662D01*
X-5486806Y3370529D01*
X-5499100Y3362756D01*
X-5510326Y3353460D01*
X-5520283Y3342843D01*
X-5528818Y3331108D01*
G37*
G36*
X-5859881Y3503574D02*
G01*
X-5833059Y3503574D01*
X-5826760Y3504285D01*
X-5821273Y3506215D01*
X-5816396Y3509264D01*
X-5812282Y3513378D01*
X-5809183Y3518255D01*
X-5807303Y3523742D01*
X-5806592Y3530041D01*
X-5806592Y3558387D01*
X-5859881Y3558387D01*
G37*
G36*
X-5966917Y3503574D02*
G01*
X-5940094Y3503574D01*
X-5940094Y3558387D01*
X-5993384Y3558387D01*
X-5993384Y3530041D01*
X-5992672Y3523742D01*
X-5990793Y3518255D01*
X-5987694Y3513378D01*
X-5983579Y3509264D01*
X-5978702Y3506215D01*
X-5973216Y3504285D01*
G37*
G36*
X-8999423Y3584092D02*
G01*
X-8870543Y3584092D01*
X-8864244Y3584803D01*
X-8858758Y3586683D01*
X-8853881Y3589782D01*
X-8849766Y3593896D01*
X-8846718Y3598773D01*
X-8844788Y3604260D01*
X-8844076Y3610559D01*
X-8844076Y3622903D01*
X-8843314Y3626815D01*
X-8841079Y3630117D01*
X-8837777Y3632301D01*
X-8833916Y3633063D01*
X-8830005Y3632301D01*
X-8826754Y3630117D01*
X-8788501Y3591864D01*
X-8783777Y3588054D01*
X-8778544Y3585565D01*
X-8772906Y3584244D01*
X-8769705Y3584092D01*
X-8600541Y3584092D01*
X-8594242Y3584803D01*
X-8588756Y3586683D01*
X-8583879Y3589782D01*
X-8579764Y3593896D01*
X-8576716Y3598773D01*
X-8574786Y3604260D01*
X-8574074Y3610559D01*
X-8574074Y3789730D01*
X-8574735Y3795776D01*
X-8576665Y3801211D01*
X-8579764Y3806139D01*
X-8581847Y3808526D01*
X-8591448Y3818128D01*
X-8596223Y3821937D01*
X-8601456Y3824427D01*
X-8607094Y3825697D01*
X-8610244Y3825900D01*
X-8743899Y3825900D01*
X-8747810Y3826662D01*
X-8751112Y3828897D01*
X-8753297Y3832148D01*
X-8754059Y3836060D01*
X-8754059Y3951376D01*
X-8753195Y3955542D01*
X-8750706Y3958945D01*
X-8746998Y3961079D01*
X-8741613Y3961384D01*
X-8682786Y3961384D01*
X-8676436Y3962095D01*
X-8671001Y3963974D01*
X-8666073Y3967073D01*
X-8662009Y3971137D01*
X-8658910Y3976065D01*
X-8657031Y3981500D01*
X-8656320Y3987850D01*
X-8656320Y4136694D01*
X-8657031Y4143044D01*
X-8658910Y4148480D01*
X-8662009Y4153408D01*
X-8666073Y4157472D01*
X-8671001Y4160570D01*
X-8676436Y4162450D01*
X-8682786Y4163161D01*
X-8741613Y4163161D01*
X-8750554Y4162298D01*
X-8755786Y4163161D01*
X-8758986Y4165295D01*
X-8763863Y4170172D01*
X-8768791Y4173270D01*
X-8774226Y4175201D01*
X-8780576Y4175912D01*
X-8839403Y4175912D01*
X-8845753Y4175201D01*
X-8851646Y4173118D01*
X-8854998Y4172559D01*
X-8858351Y4173118D01*
X-8864244Y4175201D01*
X-8870543Y4175912D01*
X-8944559Y4175912D01*
X-8948166Y4176572D01*
X-8951315Y4178503D01*
X-8953601Y4181398D01*
X-8954668Y4184954D01*
X-8953957Y4190390D01*
X-8953093Y4199991D01*
X-8953957Y4209592D01*
X-8956344Y4218940D01*
X-8960358Y4227728D01*
X-8965742Y4235704D01*
X-8972397Y4242663D01*
X-8980170Y4248404D01*
X-8988806Y4252772D01*
X-8993886Y4254296D01*
X-8997594Y4256430D01*
X-9000134Y4259834D01*
X-9001048Y4264050D01*
X-9001048Y4303420D01*
X-9103106Y4303420D01*
X-9103106Y4257852D01*
X-9102394Y4251502D01*
X-9100515Y4246067D01*
X-9097416Y4241139D01*
X-9093301Y4237075D01*
X-9088424Y4233976D01*
X-9082938Y4232097D01*
X-9076639Y4231386D01*
X-9073388Y4231386D01*
X-9069578Y4230624D01*
X-9066326Y4228541D01*
X-9064091Y4225391D01*
X-9063228Y4221632D01*
X-9063786Y4217822D01*
X-9065006Y4214317D01*
X-9066631Y4204817D01*
X-9066631Y4195165D01*
X-9065006Y4185665D01*
X-9060281Y4172204D01*
X-9060688Y4168140D01*
X-9062618Y4164584D01*
X-9065818Y4162044D01*
X-9069730Y4160977D01*
X-9073743Y4161536D01*
X-9076436Y4162450D01*
X-9082786Y4163161D01*
X-9141612Y4163161D01*
X-9147962Y4162450D01*
X-9153398Y4160570D01*
X-9158325Y4157472D01*
X-9162389Y4153408D01*
X-9165488Y4148480D01*
X-9167418Y4143044D01*
X-9168130Y4136694D01*
X-9168130Y4016501D01*
X-9168688Y4013098D01*
X-9170365Y4010101D01*
X-9172956Y4007865D01*
X-9176156Y4006596D01*
X-9186672Y4004360D01*
X-9195612Y4000754D01*
X-9203791Y3995724D01*
X-9211056Y3989324D01*
X-9217101Y3981805D01*
X-9221825Y3973423D01*
X-9225026Y3964330D01*
X-9226651Y3954779D01*
X-9226651Y3945178D01*
X-9225026Y3935628D01*
X-9221825Y3926535D01*
X-9217101Y3918153D01*
X-9215323Y3915968D01*
X-9213392Y3912057D01*
X-9213291Y3907688D01*
X-9214713Y3904335D01*
X-9212326Y3905605D01*
X-9208160Y3905910D01*
X-9204198Y3904487D01*
X-9195612Y3899204D01*
X-9186621Y3895598D01*
X-9177223Y3893565D01*
X-9167571Y3893159D01*
X-9158020Y3894378D01*
X-9148775Y3897223D01*
X-9140190Y3901541D01*
X-9132417Y3907282D01*
X-9125712Y3914241D01*
X-9120327Y3922268D01*
X-9118803Y3925671D01*
X-9116720Y3928668D01*
X-9086697Y3958691D01*
X-9083903Y3960672D01*
X-9080652Y3961587D01*
X-9076436Y3962095D01*
X-9071000Y3963974D01*
X-9067596Y3966108D01*
X-9064091Y3967479D01*
X-9060332Y3967479D01*
X-9056827Y3966108D01*
X-9053423Y3963974D01*
X-9047937Y3962095D01*
X-9041638Y3961384D01*
X-8986062Y3961384D01*
X-8982151Y3960571D01*
X-8978849Y3958386D01*
X-8976664Y3955084D01*
X-8975902Y3951224D01*
X-8975902Y3860342D01*
X-8976258Y3857548D01*
X-8977426Y3854958D01*
X-9021826Y3783939D01*
X-9024467Y3778453D01*
X-9025737Y3772814D01*
X-9025890Y3769715D01*
X-9025890Y3610559D01*
X-9025178Y3604260D01*
X-9023248Y3598773D01*
X-9020200Y3593896D01*
X-9016085Y3589782D01*
X-9011208Y3586683D01*
X-9005722Y3584803D01*
G37*
G36*
X-8425332Y3615232D02*
G01*
X-8403945Y3615232D01*
X-8397595Y3615944D01*
X-8392160Y3617874D01*
X-8387232Y3620922D01*
X-8383168Y3625037D01*
X-8380069Y3629914D01*
X-8378139Y3635400D01*
X-8377428Y3641699D01*
X-8377428Y3669233D01*
X-8425332Y3669233D01*
G37*
G36*
X-8516010Y3615232D02*
G01*
X-8494623Y3615232D01*
X-8494623Y3669233D01*
X-8542528Y3669233D01*
X-8542528Y3641699D01*
X-8541816Y3635400D01*
X-8539886Y3629914D01*
X-8536787Y3625037D01*
X-8532723Y3620922D01*
X-8527796Y3617874D01*
X-8522360Y3615944D01*
G37*
G36*
X-5993384Y3641598D02*
G01*
X-5940094Y3641598D01*
X-5940094Y3693414D01*
X-5939332Y3697325D01*
X-5937097Y3700627D01*
X-5933795Y3702812D01*
X-5929934Y3703574D01*
X-5870041Y3703574D01*
X-5866180Y3702812D01*
X-5862878Y3700627D01*
X-5860643Y3697325D01*
X-5859881Y3693414D01*
X-5859881Y3641598D01*
X-5806592Y3641598D01*
X-5806592Y3669944D01*
X-5807303Y3676243D01*
X-5809183Y3681679D01*
X-5812282Y3686606D01*
X-5816396Y3690670D01*
X-5820410Y3694226D01*
X-5822035Y3697935D01*
X-5822035Y3702050D01*
X-5820410Y3705758D01*
X-5816396Y3709314D01*
X-5812282Y3713378D01*
X-5809183Y3718306D01*
X-5807303Y3723741D01*
X-5806592Y3730040D01*
X-5806592Y3869944D01*
X-5807303Y3876243D01*
X-5809183Y3881729D01*
X-5812282Y3886606D01*
X-5816396Y3890721D01*
X-5821273Y3893769D01*
X-5827268Y3895902D01*
X-5830824Y3898036D01*
X-5833211Y3901389D01*
X-5834075Y3905453D01*
X-5834075Y4005681D01*
X-5833313Y4009542D01*
X-5831078Y4012844D01*
X-5827776Y4015079D01*
X-5823915Y4015841D01*
X-5815533Y4015841D01*
X-5809183Y4016552D01*
X-5803747Y4018432D01*
X-5798820Y4021531D01*
X-5794756Y4025646D01*
X-5791047Y4031487D01*
X-5788812Y4033977D01*
X-5785815Y4035653D01*
X-5782462Y4036212D01*
X-5556808Y4036212D01*
X-5552897Y4035450D01*
X-5549646Y4033265D01*
X-5547410Y4029964D01*
X-5546648Y4026052D01*
X-5546648Y4023715D01*
X-5544820Y4009288D01*
X-5541213Y3995165D01*
X-5535828Y3981653D01*
X-5528818Y3968902D01*
X-5520283Y3957116D01*
X-5510326Y3946499D01*
X-5499100Y3937254D01*
X-5486806Y3929430D01*
X-5473649Y3923233D01*
X-5459831Y3918762D01*
X-5445506Y3916019D01*
X-5430977Y3915105D01*
X-5416448Y3916019D01*
X-5402173Y3918762D01*
X-5388305Y3923233D01*
X-5375148Y3929430D01*
X-5362854Y3937254D01*
X-5351678Y3946499D01*
X-5341721Y3957116D01*
X-5333136Y3968902D01*
X-5326126Y3981653D01*
X-5320792Y3995165D01*
X-5317134Y4009288D01*
X-5315305Y4023715D01*
X-5315305Y4038244D01*
X-5316423Y4046778D01*
X-5316321Y4049877D01*
X-5315356Y4052773D01*
X-5313527Y4055262D01*
X-5234076Y4134713D01*
X-5227066Y4142892D01*
X-5221681Y4151680D01*
X-5217718Y4161231D01*
X-5215331Y4171289D01*
X-5214467Y4182008D01*
X-5214467Y4331970D01*
X-5213705Y4335881D01*
X-5211521Y4339183D01*
X-5208219Y4341368D01*
X-5204307Y4342130D01*
X-5178653Y4342130D01*
X-5172303Y4342841D01*
X-5166868Y4344771D01*
X-5161940Y4347819D01*
X-5157876Y4351934D01*
X-5154777Y4356811D01*
X-5152847Y4362297D01*
X-5152136Y4368596D01*
X-5152136Y4529480D01*
X-5152847Y4535779D01*
X-5154777Y4541266D01*
X-5157876Y4546142D01*
X-5161940Y4550257D01*
X-5166868Y4553356D01*
X-5172303Y4555236D01*
X-5178653Y4555947D01*
X-5382158Y4555947D01*
X-5388457Y4555236D01*
X-5393893Y4553356D01*
X-5398820Y4550257D01*
X-5402884Y4546142D01*
X-5405983Y4541266D01*
X-5407914Y4535779D01*
X-5408625Y4529480D01*
X-5408625Y4368596D01*
X-5407914Y4362297D01*
X-5405983Y4356811D01*
X-5402884Y4351934D01*
X-5398820Y4347819D01*
X-5393893Y4344771D01*
X-5388457Y4342841D01*
X-5382158Y4342130D01*
X-5356453Y4342130D01*
X-5352542Y4341368D01*
X-5349240Y4339183D01*
X-5347055Y4335881D01*
X-5346293Y4331970D01*
X-5346293Y4213098D01*
X-5347055Y4209186D01*
X-5349240Y4205935D01*
X-5406593Y4148632D01*
X-5409234Y4146702D01*
X-5412384Y4145737D01*
X-5430977Y4146905D01*
X-5449366Y4145686D01*
X-5452262Y4146448D01*
X-5454853Y4148074D01*
X-5463438Y4155440D01*
X-5472226Y4160824D01*
X-5481777Y4164787D01*
X-5491835Y4167174D01*
X-5502554Y4168038D01*
X-5782462Y4168038D01*
X-5785815Y4168597D01*
X-5788812Y4170273D01*
X-5791098Y4172762D01*
X-5794756Y4178604D01*
X-5798820Y4182719D01*
X-5803747Y4185767D01*
X-5809183Y4187698D01*
X-5815533Y4188409D01*
X-5984443Y4188409D01*
X-5990793Y4187698D01*
X-5996228Y4185767D01*
X-6001156Y4182719D01*
X-6005220Y4178604D01*
X-6008319Y4173728D01*
X-6010249Y4168241D01*
X-6010960Y4161942D01*
X-6010960Y4042308D01*
X-6010249Y4036009D01*
X-6008319Y4030522D01*
X-6005220Y4025646D01*
X-6001156Y4021531D01*
X-5996228Y4018432D01*
X-5990793Y4016552D01*
X-5984443Y4015841D01*
X-5976061Y4015841D01*
X-5972149Y4015079D01*
X-5968847Y4012844D01*
X-5966663Y4009542D01*
X-5965901Y4005681D01*
X-5965901Y3905453D01*
X-5966764Y3901389D01*
X-5969152Y3898036D01*
X-5972708Y3895902D01*
X-5978702Y3893769D01*
X-5983579Y3890721D01*
X-5987694Y3886606D01*
X-5990793Y3881729D01*
X-5992672Y3876243D01*
X-5993384Y3869944D01*
X-5993384Y3730040D01*
X-5992672Y3723741D01*
X-5990793Y3718306D01*
X-5987694Y3713378D01*
X-5983579Y3709314D01*
X-5979566Y3705758D01*
X-5977940Y3702050D01*
X-5977940Y3697935D01*
X-5979566Y3694226D01*
X-5983579Y3690670D01*
X-5987694Y3686606D01*
X-5990793Y3681679D01*
X-5992672Y3676243D01*
X-5993384Y3669944D01*
G37*
G36*
X-8542528Y3750767D02*
G01*
X-8494623Y3750767D01*
X-8494623Y3804767D01*
X-8516010Y3804767D01*
X-8522360Y3804056D01*
X-8527796Y3802126D01*
X-8532723Y3799027D01*
X-8536787Y3794963D01*
X-8539886Y3790035D01*
X-8541816Y3784600D01*
X-8542528Y3778250D01*
G37*
G36*
X-8425332Y3750767D02*
G01*
X-8377428Y3750767D01*
X-8377428Y3778250D01*
X-8378139Y3784600D01*
X-8380069Y3790035D01*
X-8383168Y3794963D01*
X-8387232Y3799027D01*
X-8392160Y3802126D01*
X-8397595Y3804056D01*
X-8403945Y3804767D01*
X-8425332Y3804767D01*
G37*
G36*
X-10130586Y3892092D02*
G01*
X-10051338Y3892092D01*
X-10039654Y3892956D01*
X-10028631Y3895496D01*
X-10018064Y3899611D01*
X-10008260Y3905300D01*
X-9999370Y3912362D01*
X-9991648Y3920693D01*
X-9985248Y3930040D01*
X-9980371Y3940251D01*
X-9977018Y3951122D01*
X-9975291Y3962298D01*
X-9975291Y3973677D01*
X-9977018Y3984853D01*
X-9980371Y3995724D01*
X-9985248Y4005935D01*
X-9991648Y4015282D01*
X-9999370Y4023614D01*
X-10008260Y4030675D01*
X-10018064Y4036364D01*
X-10028631Y4040479D01*
X-10039654Y4043019D01*
X-10051338Y4043883D01*
X-10130586Y4043883D01*
X-10142270Y4043019D01*
X-10153345Y4040479D01*
X-10163911Y4036364D01*
X-10173716Y4030675D01*
X-10182606Y4023614D01*
X-10190327Y4015282D01*
X-10196677Y4005935D01*
X-10201605Y3995724D01*
X-10204958Y3984853D01*
X-10206634Y3973677D01*
X-10206634Y3962298D01*
X-10204958Y3951122D01*
X-10201605Y3940251D01*
X-10196677Y3930040D01*
X-10190327Y3920693D01*
X-10182606Y3912362D01*
X-10173716Y3905300D01*
X-10163911Y3899611D01*
X-10153345Y3895496D01*
X-10142270Y3892956D01*
G37*
G36*
X-4668977Y3915105D02*
G01*
X-4654448Y3916019D01*
X-4640173Y3918762D01*
X-4626305Y3923233D01*
X-4613148Y3929430D01*
X-4600854Y3937254D01*
X-4589678Y3946499D01*
X-4579721Y3957116D01*
X-4571136Y3968902D01*
X-4564126Y3981653D01*
X-4558792Y3995165D01*
X-4555134Y4009288D01*
X-4553305Y4023715D01*
X-4553305Y4038244D01*
X-4555134Y4052722D01*
X-4558792Y4066794D01*
X-4564126Y4080357D01*
X-4571136Y4093108D01*
X-4579721Y4104843D01*
X-4589678Y4115460D01*
X-4600854Y4124756D01*
X-4613148Y4132529D01*
X-4626305Y4138726D01*
X-4640173Y4143248D01*
X-4654448Y4145991D01*
X-4668977Y4146905D01*
X-4683506Y4145991D01*
X-4697831Y4143248D01*
X-4711649Y4138726D01*
X-4724806Y4132529D01*
X-4737100Y4124756D01*
X-4748326Y4115460D01*
X-4758283Y4104843D01*
X-4761026Y4101084D01*
X-4763262Y4098848D01*
X-4766106Y4097375D01*
X-4769256Y4096867D01*
X-4799584Y4096867D01*
X-4803444Y4097680D01*
X-4806746Y4099864D01*
X-4841189Y4134307D01*
X-4843373Y4137609D01*
X-4844186Y4141470D01*
X-4844186Y4328922D01*
X-4843373Y4332782D01*
X-4841189Y4336084D01*
X-4836261Y4341063D01*
X-4832959Y4343247D01*
X-4829048Y4344009D01*
X-4717846Y4344009D01*
X-4711496Y4344720D01*
X-4706061Y4346651D01*
X-4701133Y4349699D01*
X-4697069Y4353814D01*
X-4693970Y4358690D01*
X-4692091Y4364177D01*
X-4691380Y4370476D01*
X-4691380Y4481728D01*
X-4690567Y4485640D01*
X-4688382Y4488942D01*
X-4616958Y4560366D01*
X-4613656Y4562551D01*
X-4609744Y4563364D01*
X-4458665Y4563364D01*
X-4455007Y4562652D01*
X-4451908Y4560773D01*
X-4449622Y4557826D01*
X-4448556Y4554321D01*
X-4447997Y4549241D01*
X-4446066Y4543755D01*
X-4443018Y4538878D01*
X-4438904Y4534763D01*
X-4434027Y4531715D01*
X-4428540Y4529785D01*
X-4422241Y4529074D01*
X-4077766Y4529074D01*
X-4071416Y4529785D01*
X-4065981Y4531715D01*
X-4061053Y4534763D01*
X-4056989Y4538878D01*
X-4053890Y4543755D01*
X-4052011Y4549241D01*
X-4051300Y4555540D01*
X-4051300Y4702911D01*
X-4052011Y4709261D01*
X-4053890Y4714697D01*
X-4056989Y4719624D01*
X-4061053Y4723688D01*
X-4065981Y4726787D01*
X-4071416Y4728667D01*
X-4077766Y4729378D01*
X-4422241Y4729378D01*
X-4428540Y4728667D01*
X-4434027Y4726787D01*
X-4438904Y4723688D01*
X-4443018Y4719624D01*
X-4446066Y4714697D01*
X-4447997Y4709261D01*
X-4448556Y4704181D01*
X-4449622Y4700676D01*
X-4451858Y4697730D01*
X-4455007Y4695850D01*
X-4458665Y4695139D01*
X-4640884Y4695139D01*
X-4651552Y4694326D01*
X-4661611Y4691888D01*
X-4671161Y4687925D01*
X-4680000Y4682540D01*
X-4688128Y4675581D01*
X-4802936Y4560824D01*
X-4806188Y4558588D01*
X-4810099Y4557826D01*
X-4921351Y4557826D01*
X-4927650Y4557115D01*
X-4933137Y4555236D01*
X-4938014Y4552137D01*
X-4942128Y4548022D01*
X-4945176Y4543145D01*
X-4947107Y4537659D01*
X-4947818Y4531360D01*
X-4947818Y4420108D01*
X-4948580Y4416196D01*
X-4950815Y4412894D01*
X-4956403Y4407306D01*
X-4963363Y4399127D01*
X-4968748Y4390339D01*
X-4972710Y4380788D01*
X-4975148Y4370730D01*
X-4975961Y4360011D01*
X-4975961Y4110380D01*
X-4975148Y4099661D01*
X-4972710Y4089603D01*
X-4968748Y4080052D01*
X-4963363Y4071264D01*
X-4956403Y4063085D01*
X-4877968Y3984650D01*
X-4869789Y3977690D01*
X-4861001Y3972306D01*
X-4851450Y3968343D01*
X-4841392Y3965905D01*
X-4830673Y3965092D01*
X-4769256Y3965092D01*
X-4766106Y3964584D01*
X-4763262Y3963111D01*
X-4761026Y3960876D01*
X-4758283Y3957116D01*
X-4748326Y3946499D01*
X-4737100Y3937254D01*
X-4724806Y3929430D01*
X-4711649Y3923233D01*
X-4697831Y3918762D01*
X-4683506Y3916019D01*
G37*
G36*
X-8466937Y4053586D02*
G01*
X-8440064Y4053586D01*
X-8440064Y4108399D01*
X-8493404Y4108399D01*
X-8493404Y4080052D01*
X-8492693Y4073753D01*
X-8490762Y4068267D01*
X-8487664Y4063390D01*
X-8483600Y4059275D01*
X-8478672Y4056227D01*
X-8473236Y4054297D01*
G37*
G36*
X-8359902Y4053586D02*
G01*
X-8333028Y4053586D01*
X-8326729Y4054297D01*
X-8321294Y4056227D01*
X-8316366Y4059275D01*
X-8312302Y4063390D01*
X-8309203Y4068267D01*
X-8307273Y4073753D01*
X-8306562Y4080052D01*
X-8306562Y4108399D01*
X-8359902Y4108399D01*
G37*
G36*
X-7818272Y4067454D02*
G01*
X-7790738Y4067454D01*
X-7790738Y4115308D01*
X-7844739Y4115308D01*
X-7844739Y4093921D01*
X-7844028Y4087622D01*
X-7842097Y4082135D01*
X-7839049Y4077258D01*
X-7834934Y4073144D01*
X-7830058Y4070096D01*
X-7824571Y4068165D01*
G37*
G36*
X-7518247Y4067454D02*
G01*
X-7490764Y4067454D01*
X-7490764Y4115308D01*
X-7544765Y4115308D01*
X-7544765Y4093921D01*
X-7544053Y4087622D01*
X-7542123Y4082135D01*
X-7539024Y4077258D01*
X-7534960Y4073144D01*
X-7530033Y4070096D01*
X-7524597Y4068165D01*
G37*
G36*
X-7409230Y4067454D02*
G01*
X-7381697Y4067454D01*
X-7375398Y4068165D01*
X-7369911Y4070096D01*
X-7365034Y4073144D01*
X-7360920Y4077258D01*
X-7357872Y4082135D01*
X-7355941Y4087622D01*
X-7355230Y4093921D01*
X-7355230Y4115308D01*
X-7409230Y4115308D01*
G37*
G36*
X-7709204Y4067454D02*
G01*
X-7681722Y4067454D01*
X-7675372Y4068165D01*
X-7669936Y4070096D01*
X-7665008Y4073144D01*
X-7660944Y4077258D01*
X-7657846Y4082135D01*
X-7655915Y4087622D01*
X-7655204Y4093921D01*
X-7655204Y4115308D01*
X-7709204Y4115308D01*
G37*
G36*
X-8018627Y4094073D02*
G01*
X-8000542Y4094073D01*
X-7994243Y4094784D01*
X-7988757Y4096715D01*
X-7983880Y4099814D01*
X-7979765Y4103878D01*
X-7976717Y4108805D01*
X-7974787Y4114241D01*
X-7974075Y4120591D01*
X-7974075Y4136136D01*
X-8018627Y4136136D01*
G37*
G36*
X-8099399Y4094073D02*
G01*
X-8081314Y4094073D01*
X-8081314Y4136136D01*
X-8125866Y4136136D01*
X-8125866Y4120591D01*
X-8125155Y4114241D01*
X-8123275Y4108805D01*
X-8120176Y4103878D01*
X-8116112Y4099814D01*
X-8111185Y4096715D01*
X-8105749Y4094784D01*
G37*
G36*
X-7709204Y4184650D02*
G01*
X-7655204Y4184650D01*
X-7655204Y4206036D01*
X-7655915Y4212386D01*
X-7657846Y4217822D01*
X-7660944Y4222750D01*
X-7665008Y4226814D01*
X-7669936Y4229912D01*
X-7675372Y4231792D01*
X-7681722Y4232503D01*
X-7709204Y4232503D01*
G37*
G36*
X-7409230Y4184650D02*
G01*
X-7355230Y4184650D01*
X-7355230Y4206036D01*
X-7355941Y4212386D01*
X-7357872Y4217822D01*
X-7360920Y4222750D01*
X-7365034Y4226814D01*
X-7369911Y4229912D01*
X-7375398Y4231792D01*
X-7381697Y4232503D01*
X-7409230Y4232503D01*
G37*
G36*
X-7844739Y4184650D02*
G01*
X-7790738Y4184650D01*
X-7790738Y4232503D01*
X-7818272Y4232503D01*
X-7824571Y4231792D01*
X-7830058Y4229912D01*
X-7834934Y4226814D01*
X-7839049Y4222750D01*
X-7842097Y4217822D01*
X-7844028Y4212386D01*
X-7844739Y4206036D01*
G37*
G36*
X-7544765Y4184650D02*
G01*
X-7490764Y4184650D01*
X-7490764Y4232503D01*
X-7518247Y4232503D01*
X-7524597Y4231792D01*
X-7530033Y4229912D01*
X-7534960Y4226814D01*
X-7539024Y4222750D01*
X-7542123Y4217822D01*
X-7544053Y4212386D01*
X-7544765Y4206036D01*
G37*
G36*
X-8125866Y4193844D02*
G01*
X-8081314Y4193844D01*
X-8081314Y4235907D01*
X-8099399Y4235907D01*
X-8105749Y4235196D01*
X-8111185Y4233265D01*
X-8116112Y4230217D01*
X-8120176Y4226102D01*
X-8123275Y4221226D01*
X-8125155Y4215739D01*
X-8125866Y4209440D01*
G37*
G36*
X-8018627Y4193844D02*
G01*
X-7974075Y4193844D01*
X-7974075Y4209440D01*
X-7974787Y4215739D01*
X-7976717Y4221226D01*
X-7979765Y4226102D01*
X-7983880Y4230217D01*
X-7988757Y4233265D01*
X-7994243Y4235196D01*
X-8000542Y4235907D01*
X-8018627Y4235907D01*
G37*
G36*
X-8823350Y4231386D02*
G01*
X-8747760Y4231386D01*
X-8741460Y4232097D01*
X-8735974Y4233976D01*
X-8731097Y4237075D01*
X-8726982Y4241139D01*
X-8723934Y4246067D01*
X-8722004Y4251502D01*
X-8721293Y4257852D01*
X-8721293Y4303420D01*
X-8823350Y4303420D01*
G37*
G36*
X-8099399Y4264101D02*
G01*
X-8000542Y4264101D01*
X-7994243Y4264812D01*
X-7988757Y4266742D01*
X-7983880Y4269790D01*
X-7979765Y4273905D01*
X-7976717Y4278782D01*
X-7974787Y4284268D01*
X-7974075Y4290568D01*
X-7974075Y4379417D01*
X-7974787Y4385767D01*
X-7976717Y4391202D01*
X-7979765Y4396130D01*
X-7983880Y4400194D01*
X-7988757Y4403293D01*
X-7991195Y4404106D01*
X-7994192Y4405782D01*
X-8003692Y4416958D01*
X-8045703Y4458970D01*
X-8047939Y4462272D01*
X-8048701Y4466132D01*
X-8047939Y4470044D01*
X-8045703Y4473346D01*
X-8042402Y4475530D01*
X-8038541Y4476292D01*
X-7914182Y4476292D01*
X-7910271Y4475530D01*
X-7906969Y4473346D01*
X-7847685Y4414062D01*
X-7845348Y4410405D01*
X-7844739Y4406138D01*
X-7844739Y4293920D01*
X-7844028Y4287621D01*
X-7842097Y4282135D01*
X-7839049Y4277258D01*
X-7834934Y4273143D01*
X-7830058Y4270095D01*
X-7824571Y4268165D01*
X-7818272Y4267454D01*
X-7681722Y4267454D01*
X-7675372Y4268165D01*
X-7669936Y4270095D01*
X-7665008Y4273143D01*
X-7660944Y4277258D01*
X-7657846Y4282135D01*
X-7655915Y4287621D01*
X-7655204Y4293920D01*
X-7655204Y4406036D01*
X-7655915Y4412386D01*
X-7657846Y4417822D01*
X-7660944Y4422749D01*
X-7665008Y4426813D01*
X-7669936Y4429912D01*
X-7675372Y4431842D01*
X-7682280Y4432604D01*
X-7686141Y4433824D01*
X-7689189Y4436516D01*
X-7690866Y4438751D01*
X-7696657Y4448251D01*
X-7703667Y4456430D01*
X-7806537Y4559300D01*
X-7808722Y4562602D01*
X-7809484Y4566513D01*
X-7809484Y4706416D01*
X-7810195Y4712716D01*
X-7812125Y4718202D01*
X-7815224Y4723079D01*
X-7819288Y4727194D01*
X-7824216Y4730242D01*
X-7829651Y4732172D01*
X-7836001Y4732883D01*
X-8054086Y4732883D01*
X-8060385Y4732172D01*
X-8065871Y4730242D01*
X-8070748Y4727194D01*
X-8074863Y4723079D01*
X-8077962Y4718202D01*
X-8079841Y4712716D01*
X-8080552Y4706416D01*
X-8080552Y4518355D01*
X-8081314Y4514443D01*
X-8083550Y4511141D01*
X-8086852Y4508957D01*
X-8090712Y4508195D01*
X-8094624Y4508957D01*
X-8097926Y4511141D01*
X-8316315Y4729581D01*
X-8318449Y4732680D01*
X-8319312Y4736388D01*
X-8318144Y4741773D01*
X-8317433Y4748072D01*
X-8317433Y4867706D01*
X-8318144Y4874006D01*
X-8320074Y4879492D01*
X-8323122Y4884369D01*
X-8327237Y4888484D01*
X-8332114Y4891532D01*
X-8337600Y4893462D01*
X-8343900Y4894173D01*
X-8512860Y4894173D01*
X-8519210Y4893462D01*
X-8524646Y4891532D01*
X-8529574Y4888484D01*
X-8533638Y4884369D01*
X-8536736Y4879492D01*
X-8538667Y4874006D01*
X-8539378Y4867706D01*
X-8539378Y4748072D01*
X-8538667Y4741773D01*
X-8536736Y4736287D01*
X-8533638Y4731410D01*
X-8529574Y4727295D01*
X-8524646Y4724247D01*
X-8519210Y4722317D01*
X-8512860Y4721606D01*
X-8494674Y4721606D01*
X-8491270Y4720996D01*
X-8488273Y4719320D01*
X-8485987Y4716729D01*
X-8481720Y4709718D01*
X-8474710Y4701590D01*
X-8128863Y4355693D01*
X-8126679Y4352391D01*
X-8125866Y4348530D01*
X-8125866Y4290568D01*
X-8125155Y4284268D01*
X-8123275Y4278782D01*
X-8120176Y4273905D01*
X-8116112Y4269790D01*
X-8111185Y4266742D01*
X-8105749Y4264812D01*
G37*
G36*
X-10130586Y4756099D02*
G01*
X-10051338Y4756099D01*
X-10039654Y4756962D01*
X-10028631Y4759502D01*
X-10018064Y4763617D01*
X-10008260Y4769307D01*
X-9999370Y4776368D01*
X-9991648Y4784699D01*
X-9985248Y4794046D01*
X-9980371Y4804257D01*
X-9977018Y4815128D01*
X-9975291Y4826304D01*
X-9975291Y4837684D01*
X-9977018Y4848860D01*
X-9980371Y4859731D01*
X-9985248Y4869942D01*
X-9991648Y4879289D01*
X-9999370Y4887620D01*
X-10008260Y4894681D01*
X-10018064Y4900371D01*
X-10028631Y4904486D01*
X-10039654Y4907026D01*
X-10051338Y4907889D01*
X-10130586Y4907889D01*
X-10142270Y4907026D01*
X-10153345Y4904486D01*
X-10163911Y4900371D01*
X-10173716Y4894681D01*
X-10182606Y4887620D01*
X-10190327Y4879289D01*
X-10196677Y4869942D01*
X-10201605Y4859731D01*
X-10204958Y4848860D01*
X-10206634Y4837684D01*
X-10206634Y4826304D01*
X-10204958Y4815128D01*
X-10201605Y4804257D01*
X-10196677Y4794046D01*
X-10190327Y4784699D01*
X-10182606Y4776368D01*
X-10173716Y4769307D01*
X-10163911Y4763617D01*
X-10153345Y4759502D01*
X-10142270Y4756962D01*
G37*
G36*
X-9799980Y4974082D02*
G01*
X-9784791Y4974996D01*
X-9769856Y4977739D01*
X-9755327Y4982260D01*
X-9741458Y4988509D01*
X-9728454Y4996383D01*
X-9716516Y5005781D01*
X-9705746Y5016500D01*
X-9696399Y5028488D01*
X-9688525Y5041493D01*
X-9682276Y5055362D01*
X-9677755Y5069840D01*
X-9675012Y5084826D01*
X-9674098Y5099964D01*
X-9675012Y5115153D01*
X-9677755Y5130139D01*
X-9682276Y5144617D01*
X-9688525Y5158486D01*
X-9696399Y5171490D01*
X-9705746Y5183479D01*
X-9716516Y5194198D01*
X-9728454Y5203596D01*
X-9741458Y5211470D01*
X-9755327Y5217718D01*
X-9769856Y5222240D01*
X-9784791Y5224983D01*
X-9799980Y5225897D01*
X-9815169Y5224983D01*
X-9830104Y5222240D01*
X-9844633Y5217718D01*
X-9858502Y5211470D01*
X-9871506Y5203596D01*
X-9883444Y5194198D01*
X-9894214Y5183479D01*
X-9903561Y5171490D01*
X-9911435Y5158486D01*
X-9917684Y5144617D01*
X-9922205Y5130139D01*
X-9924948Y5115153D01*
X-9925862Y5099964D01*
X-9924948Y5084826D01*
X-9922205Y5069840D01*
X-9917684Y5055362D01*
X-9911435Y5041493D01*
X-9903561Y5028488D01*
X-9894214Y5016500D01*
X-9883444Y5005781D01*
X-9871506Y4996383D01*
X-9858502Y4988509D01*
X-9844633Y4982260D01*
X-9830104Y4977739D01*
X-9815169Y4974996D01*
G37*

%LPD*%
G36*
X-8039963Y2830017D02*
G01*
X-8039963Y2669997D01*
X-7589977Y2669997D01*
X-7589977Y2750007D01*
X-7830007Y2750007D01*
X-7909966Y2830017D01*
G37*
G36*
X-3100019Y5449976D02*
G01*
X-3100019Y5099964D01*
X-2350008Y5099964D01*
X-2299970Y5150002D01*
X-1950008Y5150002D01*
X-1950008Y5449976D01*
G37*
G36*
X-8749995Y4739995D02*
G01*
X-8749995Y4579975D01*
X-8549995Y4300016D01*
X-8329980Y4300016D01*
X-8329980Y4449978D01*
X-8539988Y4449978D01*
G37*
G36*
X-8839962Y4150004D02*
G01*
X-8839962Y3680002D01*
X-8769959Y3610000D01*
X-8599982Y3610000D01*
X-8599982Y3789984D01*
X-8609990Y3799992D01*
X-8760002Y3799992D01*
X-8779967Y3820007D01*
X-8779967Y4150004D01*
G37*
G36*
X-8949994Y4150004D02*
G01*
X-8949994Y3849979D01*
X-8999982Y3769969D01*
X-8999982Y3610000D01*
X-8869984Y3610000D01*
X-8869984Y4150004D01*
G37*
G36*
X-8879992Y5099964D02*
G01*
X-8879992Y4900015D01*
X-8749995Y4750003D01*
X-8749995Y4579975D01*
X-8679992Y4579975D01*
X-8679992Y5099964D01*
G37*
G36*
X-8039963Y3030016D02*
G01*
X-8039963Y2969971D01*
X-7949996Y2969971D01*
X-7779969Y2799994D01*
X-7589977Y2799994D01*
X-7589977Y2859989D01*
X-7779969Y2859989D01*
X-7949996Y3030016D01*
G37*
G36*
X-7849971Y2480005D02*
G01*
X-7909966Y2420010D01*
X-8059978Y2420010D01*
X-8059978Y2280005D01*
X-7909966Y2280005D01*
X-7769961Y2420010D01*
X-7589977Y2420010D01*
X-7589977Y2480005D01*
G37*
G36*
X-6719976Y3319983D02*
G01*
X-6929983Y3119983D01*
X-7220000Y3119983D01*
X-7230008Y3109976D01*
X-7230008Y3049981D01*
X-6869988Y3049981D01*
X-6719976Y3199993D01*
X-6579971Y3199993D01*
X-6579971Y3319983D01*
G37*
G36*
X-9049969Y5499963D02*
G01*
X-9249968Y5300014D01*
X-9249968Y4900015D01*
X-9049969Y4900015D01*
X-9049969Y5199989D01*
X-8549995Y5199989D01*
X-8549995Y4999990D01*
X-8300008Y4999990D01*
X-8300008Y5199989D01*
X-8099958Y5199989D01*
X-8099958Y4999990D01*
X-7799984Y4999990D01*
X-7799984Y5199989D01*
X-7749997Y5199989D01*
X-7749997Y4999990D01*
X-7459980Y4999990D01*
X-7459980Y5199989D01*
X-7399985Y5199989D01*
X-7399985Y4999990D01*
X-7100011Y4999990D01*
X-7100011Y5199989D01*
X-7049973Y5199989D01*
X-7048398Y5010200D01*
X-7039965Y5009997D01*
X-6799986Y5009997D01*
X-6799986Y5350002D01*
X-6855206Y5432145D01*
X-6899960Y5499963D01*
G37*
G36*
X-6145276Y5449976D02*
G01*
X-6345275Y5249976D01*
X-6345275Y4599990D01*
X-6695287Y4599990D01*
X-6695287Y4049979D01*
X-6295288Y4049979D01*
X-6100013Y4199991D01*
X-6100013Y5049977D01*
X-6049975Y5099964D01*
X-3695293Y5099964D01*
X-3695293Y5449976D01*
G37*
G36*
X-5999988Y5150002D02*
G01*
X-5999988Y4649978D01*
X-5799988Y4649978D01*
X-5799988Y5150002D01*
G37*
G36*
X-5199989Y5449976D02*
G01*
X-5199989Y5099964D01*
X-4899964Y4799990D01*
X-2950006Y4799990D01*
X-2950006Y5449976D01*
G37*
G36*
X-4024985Y3449980D02*
G01*
X-4024985Y3249980D01*
X-3299968Y3249980D01*
X-3125012Y3049981D01*
X-2674975Y3049981D01*
X-2674975Y3249980D01*
X-3150006Y3249980D01*
X-3299968Y3399993D01*
X-3699967Y3399993D01*
X-3774998Y3449980D01*
G37*
G36*
X-3550005Y4399991D02*
G01*
X-3550005Y3900017D01*
X-2799994Y3900017D01*
X-2350008Y3449980D01*
X-2350008Y2350008D01*
X-1599996Y2350008D01*
X-1599996Y3449980D01*
X-2550007Y4399991D01*
G37*
D10*
X1166619Y4160012D02*
G01*
X1679041Y4160012D01*
X1679041Y4180408D01*
X1679041Y4180408D02*
G01*
X1706600Y4207967D01*
X2399990Y4207967D01*
X-450011Y3595979D02*
G01*
X-304012Y3595979D01*
X256616Y4156608D01*
X550011Y4156608D01*
D11*
X-7136488Y2829737D02*
G01*
X-7135903Y2829153D01*
X-6917258Y2829153D01*
D12*
X-9399978Y4249991D02*
G01*
X-9400031Y4160012D01*
X-9400031Y3999992D01*
X-9139936Y3739895D01*
X-9139936Y3700018D01*
D13*
X-1249984Y4531360D02*
G01*
X-1249984Y3541420D01*
X-1891411Y2899994D01*
D12*
X-9399978Y4599985D02*
G01*
X-9439976Y4639983D01*
X-9608969Y4639983D01*
X-9608969Y4159999D02*
G01*
X-9489968Y4159999D01*
X-9399978Y4249991D01*
X-9399978Y4249991D02*
G01*
X-9399978Y4599985D01*
X-9110090Y4989878D02*
G01*
X-9110090Y5012258D01*
X-9439907Y4640069D02*
G01*
X-9110090Y4989878D01*
D11*
X-4399991Y2997860D02*
G01*
X-4199991Y3197860D01*
X-4199991Y3499993D01*
X-4249991Y3549992D01*
X-4249991Y4170730D01*
D10*
X-8702116Y3399993D02*
G01*
X-8500110Y3197987D01*
X-8500110Y2949955D01*
X-8500107Y2949953D02*
G01*
X-8599982Y2850078D01*
X-8599982Y2550007D01*
X-450087Y4103878D02*
G01*
X146050Y4700015D01*
X1297818Y4700015D01*
X1297818Y4700015D02*
G01*
X1350010Y4700015D01*
X1499870Y4849876D01*
X1499870Y5249926D01*
X1452118Y5297931D01*
X1249934Y5297931D01*
X800100Y2549903D02*
G01*
X1549907Y2549903D01*
X1680921Y2680916D01*
X1680921Y3719576D01*
D13*
X-899998Y2099995D02*
G01*
X-300027Y2099995D01*
X-300027Y2099995D01*
X-299999Y2799994D02*
G01*
X300022Y2799994D01*
X300024Y2799991D01*
D10*
X799995Y5099994D02*
G01*
X897884Y5002105D01*
X1249989Y5002105D01*
X400006Y5299989D02*
G01*
X799995Y5299994D01*
X12Y5299984D02*
G01*
X400006Y5299989D01*
X799998Y2349982D02*
G01*
X1006602Y2143379D01*
X1249994Y2143379D01*
X-249936Y4999989D02*
G01*
X-249936Y5150104D01*
X-100076Y5299963D01*
X0Y5299963D01*
D13*
X-2908579Y2645996D02*
G01*
X-2412578Y2149995D01*
X-1449994Y2149995D01*
X-1299994Y2299995D01*
X-1299994Y2649997D01*
X-1193380Y2756611D01*
X-899972Y2756611D01*
D10*
X-1249982Y5268620D02*
G01*
X-1218613Y5299989D01*
X-449986Y5299989D01*
D11*
X-4747768Y2997962D02*
G01*
X-4750054Y2649981D01*
X-4549902Y2450084D01*
X-3249929Y2450084D01*
X-3054095Y2645918D01*
X-2908554Y2645918D01*
X-4102125Y3799979D02*
G01*
X-3919601Y3617455D01*
X-3919601Y3350945D01*
X-8110931Y3830370D02*
G01*
X-7419609Y3830370D01*
X-6932358Y4317621D01*
X-6699989Y4317621D01*
X-5899975Y4397857D02*
G01*
X-5546902Y4750930D01*
X-5419597Y4750930D01*
X-4380382Y3349066D02*
G01*
X-4397857Y3366541D01*
X-4397857Y3799979D01*
X-4668989Y3522979D02*
G01*
X-4899990Y3291979D01*
X-4899990Y3149993D01*
X-4747856Y2997860D01*
X-4399991Y2997860D01*
X-4668989Y3776979D02*
G01*
X-4645990Y3799979D01*
X-4397857Y3799979D01*
X-4819599Y4450918D02*
G01*
X-4641265Y4629251D01*
X-4249991Y4629251D01*
X-4819650Y4450842D02*
G01*
X-4910073Y4360418D01*
X-4910073Y4109973D01*
X-4831079Y4030979D01*
X-4669028Y4030979D01*
X-5430989Y4030979D02*
G01*
X-5280380Y4181589D01*
X-5280380Y4449038D01*
X-5899988Y3799992D02*
G01*
X-5899975Y4102125D01*
X-5430989Y4030979D02*
G01*
X-5502135Y4102125D01*
X-5899975Y4102125D01*
X-6349987Y3059981D02*
G01*
X-6339987Y3049981D01*
X-6049975Y3049981D01*
X-5899988Y3149980D02*
G01*
X-5799993Y3049986D01*
X-5749998Y3049986D01*
X-5899988Y3149978D02*
G01*
X-5999990Y3249980D01*
X-6049975Y3249980D01*
X-6809986Y2909994D02*
G01*
X-6699986Y2799994D01*
X-6649986Y2799994D01*
X-7683500Y3337813D02*
G01*
X-7549895Y3340100D01*
X-7480045Y3409950D01*
X-7480045Y3459987D01*
X-7450073Y3649979D02*
G01*
X-7830058Y3649979D01*
X-7899908Y3579876D01*
X-7899908Y3199892D01*
X-7783829Y3083813D01*
X-7683500Y3083813D01*
X-7683500Y3210813D02*
G01*
X-7490713Y3210813D01*
X-7340092Y3059937D01*
X-7340092Y2860039D01*
X-7683601Y2448737D02*
G01*
X-7581242Y2448737D01*
X-7327242Y2702737D01*
X-7136485Y2702737D01*
X-6809994Y2910078D02*
G01*
X-6809994Y2960115D01*
X-6709918Y3059937D01*
X-6649973Y3059937D01*
X-7136384Y3337813D02*
G01*
X-7320026Y3340100D01*
X-6649986Y3260006D02*
G01*
X-6349987Y3260006D01*
X-6649986Y3260006D02*
G01*
X-6789978Y3399995D01*
X-6789978Y3649979D01*
X-6989978Y3649979D02*
G01*
X-6989978Y3649979D01*
X-7249970Y3649979D01*
X-7499985Y2899994D02*
G01*
X-7556728Y2956737D01*
X-7683599Y2956737D01*
X-8109051Y3369589D02*
G01*
X-8109051Y3290928D01*
X-8349983Y3049996D01*
X-8349983Y2499972D01*
X-8200001Y2349990D01*
X-8428405Y4807889D02*
G01*
X-8428405Y4748456D01*
X-8050019Y4370070D01*
X-8050019Y4335015D01*
X-7945018Y4604588D02*
G01*
X-7749976Y4409546D01*
X-7749976Y4349991D01*
X-7599982Y4909969D02*
G01*
X-7460767Y4770754D01*
X-7249972Y4770754D01*
X-7249972Y4770754D02*
G01*
X-7249972Y4740005D01*
X-7449969Y4540008D01*
X-7449969Y4350004D01*
X-7249970Y4770754D02*
G01*
X-6702577Y4770754D01*
X-6470980Y5002352D01*
X-4399991Y2702128D02*
G01*
X-3919601Y3182518D01*
X-3919601Y3350945D01*
X-2149982Y4531344D02*
G01*
X-1899996Y4281357D01*
X-1899996Y4199991D01*
X-5431028Y3776979D02*
G01*
X-5323331Y3776979D01*
X-5249926Y3703573D01*
X-5249926Y2514600D01*
X-5515610Y2248915D01*
X-5555742Y2248915D01*
X-5635497Y2328926D01*
X-5635497Y2568702D01*
X-5715507Y2648712D01*
X-5755639Y2648712D01*
X-5835650Y2568702D01*
X-5835650Y2328926D01*
X-5915660Y2248915D01*
X-5955537Y2248915D01*
X-6035547Y2328926D01*
X-6035547Y2568702D01*
X-6115557Y2648712D01*
X-6155689Y2648712D01*
X-6235700Y2568702D01*
X-6235700Y2328926D01*
X-6315710Y2248915D01*
X-6355587Y2248915D01*
X-6435597Y2328926D01*
X-6435597Y2568702D01*
X-6515607Y2648712D01*
X-6555486Y2648712D01*
X-6635750Y2568702D01*
X-6635750Y2328926D01*
X-6715505Y2248915D01*
X-6755637Y2248915D01*
X-6835647Y2328926D01*
X-6835647Y2568702D01*
X-6915658Y2648712D01*
X-6955536Y2648712D01*
X-7035545Y2568702D01*
X-7136384Y2575813D01*
X-7136384Y2448813D01*
X-7136384Y3210811D02*
G01*
X-6990842Y3210811D01*
X-6959932Y3210811D01*
X-6899249Y3271494D01*
X-7136485Y2956737D02*
G01*
X-6973295Y2956737D01*
X-7683601Y2575737D02*
G01*
X-7944241Y2575737D01*
X-7979984Y2539994D01*
D13*
X-1249984Y5268620D02*
G01*
X-849998Y4868633D01*
X-849998Y4499990D01*
X-453986Y4103979D01*
X-450011Y4103979D01*
D10*
X550014Y4156608D02*
G01*
X550011Y4156608D01*
X550011Y4449978D01*
X399999Y4849977D02*
G01*
X399999Y5099992D01*
X399999Y5099992D01*
X399999Y4849977D02*
G01*
X250014Y4849977D01*
X0Y5099992D01*
X-449988Y4899980D02*
G01*
X-449988Y4899980D01*
X-449988Y5099992D01*
X399999Y4849977D02*
G01*
X399983Y4849992D01*
X-399999Y4849992D01*
X-449988Y4899980D01*
X800100Y2549905D02*
G01*
X-693165Y2549905D01*
X-899921Y2756662D01*
X0Y2299970D02*
G01*
X156590Y2143379D01*
X299999Y2143379D01*
D14*
X-9009989Y4199991D02*
G01*
X-9012199Y4197781D01*
X-9012199Y4062270D01*
X-9608969Y4524994D02*
G01*
X-9494987Y4524994D01*
X-9489975Y4519978D01*
X-9169984Y3949979D02*
G01*
X-9149996Y3949979D01*
X-9112199Y3987774D01*
X-9112199Y4062270D01*
X-9608969Y4224995D02*
G01*
X-9724981Y4224995D01*
X-9749965Y4249978D01*
X-9749977Y4427321D02*
G01*
X-9749977Y4399991D01*
X-9724974Y4374982D01*
X-9608969Y4374982D01*
X-9199981Y4749990D02*
G01*
X-9149981Y4749990D01*
X-9112199Y4712207D01*
X-9112199Y4662271D01*
X-9608969Y4474982D02*
G01*
X-9724986Y4474982D01*
X-9749977Y4449991D01*
X-9749977Y4427321D01*
X-9499978Y4366364D02*
G01*
X-9499978Y4399991D01*
X-9524987Y4424994D01*
X-9608969Y4424994D01*
X-9012834Y4534433D02*
G01*
X-9012834Y4661512D01*
X-9012176Y4662170D01*
X-9608969Y4324995D02*
G01*
X-9524974Y4324995D01*
X-9499978Y4349991D01*
X-9499978Y4366364D01*
D10*
X1249934Y2756662D02*
G01*
X856742Y3150107D01*
X-999997Y3150107D01*
X-1249934Y3400044D01*
X-1249934Y3541521D01*
X-9800081Y2869945D02*
G01*
X-9269984Y3400044D01*
X-8997950Y3400044D01*
X-9800081Y3629913D02*
G01*
X-9729978Y3700018D01*
X-9139936Y3700018D01*
D15*
X-1899920Y3999992D02*
G01*
X-1999995Y3999992D01*
X-2500121Y4500118D01*
X-3749992Y4499990D01*
D16*
G01*
X-7683500Y3337813D03*
G01*
X-7683500Y3210813D03*
G01*
X-7683500Y3083813D03*
G01*
X-7683500Y2956813D03*
G01*
X-7683500Y2829813D03*
G01*
X-7683500Y2702813D03*
G01*
X-7683500Y2575813D03*
G01*
X-7683500Y2448813D03*
G01*
X-7136384Y3337813D03*
G01*
X-7136384Y3210813D03*
G01*
X-7136384Y3083813D03*
G01*
X-7136384Y2956813D03*
G01*
X-7136384Y2829813D03*
G01*
X-7136384Y2702813D03*
G01*
X-7136384Y2575813D03*
G01*
X-7136384Y2448813D03*
D17*
G01*
X-8912097Y4362170D03*
D19*
G01*
X-8712098Y4662170D03*
G01*
X-8812098Y4662170D03*
G01*
X-8912097Y4662170D03*
G01*
X-9012097Y4662170D03*
G01*
X-9112097Y4662170D03*
G01*
X-9112097Y4062171D03*
G01*
X-9012097Y4062171D03*
G01*
X-8912097Y4062171D03*
G01*
X-8812098Y4062171D03*
G01*
X-8712098Y4062171D03*
D20*
G01*
X-5899912Y3600015D03*
D21*
G01*
X-5899912Y3800017D03*
D20*
G01*
X-8400033Y4149925D03*
D21*
G01*
X-8400034Y4349927D03*
D22*
G01*
X-4249927Y4170791D03*
D23*
G01*
X-4249928Y4629302D03*
D20*
G01*
X-8599932Y2350081D03*
D21*
G01*
X-8599931Y2550083D03*
D20*
G01*
X800100Y2550086D03*
D21*
G01*
X800100Y2350084D03*
D24*
G01*
X-8008010Y2999994D03*
G01*
X-8092033Y2999994D03*
D20*
G01*
X-450088Y5299890D03*
D21*
G01*
X-450087Y5099888D03*
D20*
G01*
X400050Y5099885D03*
D21*
G01*
X400050Y5299887D03*
D25*
G01*
X-8049945Y4165117D03*
G01*
X-8049945Y4335119D03*
D26*
G01*
X-7599934Y4909891D03*
D27*
G01*
X-7599934Y5109895D03*
D26*
G01*
X-7450073Y4349932D03*
D27*
G01*
X-7450073Y4149928D03*
D28*
G01*
X-9139864Y3700018D03*
G01*
X-8939855Y3700018D03*
D29*
G01*
X-8428481Y5103670D03*
D30*
G01*
X-8428481Y4807915D03*
D28*
G01*
X-8200064Y2350007D03*
G01*
X-8000055Y2350007D03*
D29*
G01*
X-5899912Y4397804D03*
D30*
G01*
X-5899912Y4102049D03*
D26*
G01*
X-7750047Y4349932D03*
D27*
G01*
X-7750047Y4149928D03*
D31*
G01*
X-8997744Y3400043D03*
G01*
X-8701991Y3400043D03*
D32*
G01*
X-8814259Y5012181D03*
G01*
X-9110012Y5012181D03*
D33*
G01*
X-8460049Y3709923D03*
G01*
X-8660058Y3709923D03*
D26*
G01*
X-1899919Y4200072D03*
D27*
G01*
X-1899920Y4000068D03*
D34*
G01*
X299973Y2756710D03*
D35*
G01*
X299973Y2143455D03*
D32*
G01*
X-4102051Y3800093D03*
G01*
X-4397804Y3800093D03*
D34*
G01*
X-299973Y2143457D03*
D35*
G01*
X-299973Y2756712D03*
D29*
G01*
X-4400042Y2702003D03*
D30*
G01*
X-4400042Y2997758D03*
D26*
G01*
X-6649973Y3260018D03*
D27*
G01*
X-6649973Y3060014D03*
D28*
G01*
X-6649902Y2800096D03*
G01*
X-6449893Y2800096D03*
D34*
G01*
X-899922Y2756710D03*
D35*
G01*
X-899921Y2143455D03*
D26*
G01*
X-6350000Y3260018D03*
D27*
G01*
X-6350000Y3060014D03*
D26*
G01*
X-6050026Y3050103D03*
D27*
G01*
X-6050026Y3250107D03*
D26*
G01*
X-5750052Y3050103D03*
D27*
G01*
X-5750052Y3250107D03*
D34*
G01*
X1249934Y2756710D03*
D35*
G01*
X1249934Y2143455D03*
D33*
G01*
X-7979989Y2739897D03*
G01*
X-8179998Y2739897D03*
D28*
G01*
X-7450002Y3649980D03*
G01*
X-7249993Y3649980D03*
D29*
G01*
X1249934Y5297980D03*
D30*
G01*
X1249934Y5002225D03*
D26*
G01*
X800100Y5099883D03*
D27*
G01*
X800100Y5299887D03*
D26*
G01*
X0Y5299892D03*
D27*
G01*
X0Y5099888D03*
D36*
G01*
X1166670Y4160011D03*
G01*
X553417Y4160011D03*
D37*
G01*
X-9800081Y2869945D03*
G01*
X-9800081Y3629913D03*
D38*
G01*
X-7944967Y5076799D03*
D39*
G01*
X-7944967Y4604656D03*
D40*
G01*
X-8110921Y3830337D03*
G01*
X-8109041Y3369541D03*
D41*
G01*
X-5880384Y4749111D03*
D42*
G01*
X-5419587Y4750991D03*
D41*
G01*
X-5280436Y4449137D03*
D42*
G01*
X-4819639Y4451017D03*
D43*
G01*
X-2150110Y4531283D03*
G01*
X-2150110Y5268544D03*
D42*
G01*
X-3919468Y3350948D03*
D41*
G01*
X-4380265Y3349068D03*
D43*
G01*
X-1249934Y4531283D03*
G01*
X-1249934Y5268544D03*
D44*
G01*
X-6471044Y5002244D03*
G01*
X-6929045Y5002198D03*
D45*
G01*
X-6700045Y4317493D03*
D46*
G01*
X-2908477Y3153918D03*
G01*
X-2908477Y2645918D03*
D47*
G01*
X-1891309Y2899918D03*
D48*
G01*
X-6789983Y3649992D03*
G01*
X-6989988Y3649992D03*
D49*
G01*
X-9608972Y4720005D03*
G01*
X-9608972Y4639995D03*
G01*
X-9608972Y4159986D03*
G01*
X-9608972Y4080002D03*
D50*
G01*
X-9608972Y4574997D03*
G01*
X-9608972Y4524984D03*
G01*
X-9608972Y4474997D03*
G01*
X-9608972Y4424984D03*
G01*
X-9608972Y4374997D03*
G01*
X-9608972Y4324985D03*
G01*
X-9608972Y4274997D03*
G01*
X-9608972Y4224985D03*
D40*
G01*
X1679054Y4180387D03*
G01*
X1680933Y3719591D03*
D51*
G01*
X-3299993Y5217791D03*
D52*
G01*
X-3299993Y4182186D03*
D53*
G01*
X-7249985Y5089240D03*
D54*
G01*
X-7249972Y4770729D03*
D55*
G01*
X-5431028Y4030903D03*
G01*
X-5431028Y3776903D03*
G01*
X-4669028Y3776903D03*
G01*
X-4669028Y4030903D03*
G01*
X-5431028Y3522903D03*
G01*
X-5431028Y3268903D03*
G01*
X-4669028Y3522903D03*
G01*
X-4669028Y3268903D03*
D13*
G01*
X2399893Y4207916D03*
G01*
X2399893Y3191916D03*
G01*
X2399893Y3699916D03*
G01*
X-449961Y4103878D03*
G01*
X-449961Y3595878D03*
G01*
X-9799980Y5099989D03*
G01*
X2099995Y5100015D03*
G01*
X-9799954Y2399969D03*
G01*
X2100021Y2399969D03*
D56*
G01*
X-9675952Y4831969D03*
G01*
X-9675952Y3967962D03*
D57*
G01*
X-10090962Y4831969D03*
G01*
X-10090962Y3967962D03*
D10*
G01*
X-9099981Y5299989D03*
G01*
X-8999981Y5399989D03*
G01*
X-8899982Y5299989D03*
G01*
X-8799982Y5399989D03*
G01*
X-8699982Y5299989D03*
G01*
X-8599982Y5399989D03*
G01*
X-8499983Y5299989D03*
G01*
X-8399983Y5399989D03*
G01*
X-8299983Y5299989D03*
G01*
X-8199983Y5399989D03*
G01*
X-8099983Y5299989D03*
G01*
X-7999984Y5399989D03*
G01*
X-7899984Y5299989D03*
G01*
X-7799984Y5399989D03*
G01*
X-7699984Y5299989D03*
G01*
X-7599984Y5399989D03*
G01*
X-7499985Y5299989D03*
G01*
X-7399985Y5399989D03*
G01*
X-7299985Y5299989D03*
G01*
X-7199985Y5399989D03*
G01*
X-7099985Y5299989D03*
G01*
X-6999986Y5399989D03*
G01*
X-6899986Y5299989D03*
G01*
X-5749975Y5199989D03*
G01*
X-5999987Y5199989D03*
G01*
X-5899988Y5349976D03*
G01*
X-6099987Y5349976D03*
G01*
X-6249974Y5149977D03*
G01*
X-6199987Y4949977D03*
G01*
X-6249974Y4749977D03*
G01*
X-6199987Y4549978D03*
G01*
X-6249974Y4349978D03*
G01*
X-5599988Y5349976D03*
G01*
X-5449976Y5199989D03*
G01*
X-5299989Y5349976D03*
G01*
X-5149977Y5199989D03*
G01*
X-4999989Y5049977D03*
G01*
X-4849977Y4899990D03*
G01*
X-4999989Y5349976D03*
G01*
X-4849977Y5199989D03*
G01*
X-4699990Y5049977D03*
G01*
X-4549978Y4899990D03*
G01*
X-4699990Y5349976D03*
G01*
X-4549978Y5199989D03*
G01*
X-4399991Y5049977D03*
G01*
X-4249978Y4899990D03*
G01*
X-4399991Y5349976D03*
G01*
X-4249978Y5199989D03*
G01*
X-4099991Y5049977D03*
G01*
X-3949979Y4899990D03*
G01*
X-4099991Y5349976D03*
G01*
X-3949979Y5199989D03*
G01*
X-3799992Y5049977D03*
G01*
X-3799992Y5349976D03*
G01*
X-2799994Y4049979D03*
G01*
X-2599994Y3849979D03*
G01*
X-2399995Y3599992D03*
G01*
X-2149982Y3599992D03*
G01*
X-2349982Y3849979D03*
G01*
X-2549982Y4049979D03*
G01*
X-2299995Y4049979D03*
G01*
X-2549982Y4299991D03*
G01*
X-2099995Y3849979D03*
G01*
X-2499995Y5349976D03*
G01*
X-2649981Y5199989D03*
G01*
X-2799994Y5349976D03*
G01*
X-1899996Y3599992D03*
D58*
G01*
X-7499985Y2899994D03*
G01*
X-6789165Y3500653D03*
G01*
X-7319975Y3339998D03*
G01*
X-6899249Y3271494D03*
G01*
X-6809994Y2910001D03*
G01*
X-7340092Y2860039D03*
G01*
X-5899988Y3149980D03*
G01*
X-6917258Y2829153D03*
G01*
X-7480045Y3459987D03*
D10*
G01*
X-8999981Y5399989D03*
G01*
X-8899982Y5299989D03*
G01*
X-8799982Y5399989D03*
G01*
X-8699982Y5299989D03*
G01*
X-8599982Y5399989D03*
G01*
X-8499983Y5299989D03*
G01*
X-8399983Y5399989D03*
G01*
X-9099981Y5299989D03*
G01*
X-8299983Y5299989D03*
G01*
X-8199983Y5399989D03*
G01*
X-8099983Y5299989D03*
G01*
X-7999984Y5399989D03*
G01*
X-7899984Y5299989D03*
G01*
X-7799984Y5399989D03*
G01*
X-7699984Y5299989D03*
G01*
X-7599984Y5399989D03*
G01*
X-7499985Y5299989D03*
G01*
X-7399985Y5399989D03*
G01*
X-7299985Y5299989D03*
G01*
X-7199985Y5399989D03*
G01*
X-7099985Y5299989D03*
G01*
X-6999986Y5399989D03*
G01*
X-6899986Y5299989D03*
G01*
X-6199987Y4549978D03*
G01*
X-6249974Y4349978D03*
G01*
X-6249974Y4749977D03*
G01*
X-6199987Y4949977D03*
G01*
X-6249974Y5149977D03*
G01*
X-5999987Y5199989D03*
G01*
X-6099987Y5349976D03*
G01*
X-5899988Y5349976D03*
G01*
X-5749975Y5199989D03*
G01*
X-5599988Y5349976D03*
G01*
X-5449976Y5199989D03*
G01*
X-5299989Y5349976D03*
G01*
X-5149977Y5199989D03*
G01*
X-4999989Y5349976D03*
G01*
X-4999989Y5049977D03*
G01*
X-4849977Y4899990D03*
G01*
X-4849977Y5199989D03*
G01*
X-4699990Y5049977D03*
G01*
X-4549978Y4899990D03*
G01*
X-4699990Y5349976D03*
G01*
X-4549978Y5199989D03*
G01*
X-4399991Y5049977D03*
G01*
X-4249978Y4899990D03*
G01*
X-4399991Y5349976D03*
G01*
X-4249978Y5199989D03*
G01*
X-4099991Y5049977D03*
G01*
X-3949979Y4899990D03*
G01*
X-4099991Y5349976D03*
G01*
X-3949979Y5199989D03*
G01*
X-3799992Y5049977D03*
G01*
X-3799992Y5349976D03*
G01*
X-2549982Y4299991D03*
G01*
X-2549982Y4049979D03*
G01*
X-2799994Y4049979D03*
G01*
X-2599994Y3849979D03*
G01*
X-2299995Y4049979D03*
G01*
X-2349982Y3849979D03*
G01*
X-2399995Y3599992D03*
G01*
X-2099995Y3849979D03*
G01*
X-2149982Y3599992D03*
D58*
G01*
X-249986Y4999989D03*
G01*
X1297812Y4700015D03*
G01*
X-8500110Y2949955D03*
G01*
X-9749967Y4249978D03*
G01*
X-9169984Y3949979D03*
G01*
X-9749967Y4427321D03*
G01*
X-9199981Y4749977D03*
G01*
X-9499980Y4366361D03*
G01*
X-9012834Y4534433D03*
G01*
X-9489973Y4519980D03*
G01*
X-9009989Y4199991D03*
G01*
X-6973290Y2956737D03*
G01*
X-7979994Y2540000D03*
G01*
X550011Y4449978D03*
G01*
X399999Y4849977D03*
G01*
X-449986Y4899990D03*
G01*
X0Y2299970D03*
M02*
