G04 Layer: BottomLayer*
G04 EasyEDA v6.5.51, 2025-12-27 20:08:00*
G04 bdb22dcb27374e0e8d35cee5088a979a,10*
G04 Gerber Generator version 0.2*
G04 Scale: 100 percent, Rotated: No, Reflected: No *
G04 Dimensions in millimeters *
G04 leading zeros omitted , absolute positions ,4 integer and 5 decimal *
%FSLAX45Y45*%
%MOMM*%

%AMMACRO1*21,1,$1,$2,0,0,$3*%
%ADD10C,0.8000*%
%ADD11C,1.0000*%
%ADD12C,0.2540*%
%ADD13C,0.6000*%
%ADD14R,1.3500X1.4100*%
%ADD15MACRO1,1.35X1.41X0.0000*%
%ADD16C,0.0109*%
%ADD17R,1.3770X1.1325*%
%ADD18MACRO1,1.377X1.1325X0.0000*%
%ADD19C,1.8000*%
%ADD20C,2.0000*%
%ADD21O,2.099996X0.999998*%
%ADD22O,1.799996X0.999998*%
%ADD23C,0.6200*%

%LPD*%
G36*
X-4718558Y2165959D02*
G01*
X-4722418Y2166772D01*
X-4725720Y2168956D01*
X-5581091Y3024327D01*
X-5583275Y3027629D01*
X-5584088Y3031490D01*
X-5584088Y3549497D01*
X-5584901Y3560216D01*
X-5587339Y3570274D01*
X-5591302Y3579825D01*
X-5596686Y3588613D01*
X-5603646Y3596792D01*
X-5753201Y3746347D01*
X-5761380Y3753307D01*
X-5770168Y3758692D01*
X-5779719Y3762654D01*
X-5789777Y3765092D01*
X-5800496Y3765905D01*
X-7049617Y3765905D01*
X-7056120Y3765397D01*
X-7060184Y3765905D01*
X-7063689Y3767988D01*
X-7066127Y3771290D01*
X-7067092Y3775252D01*
X-7066330Y3779316D01*
X-7064095Y3782720D01*
X-6965746Y3881069D01*
X-6962444Y3883253D01*
X-6958584Y3884066D01*
X-5850280Y3884066D01*
X-5839561Y3884879D01*
X-5829503Y3887317D01*
X-5819952Y3891279D01*
X-5811164Y3896664D01*
X-5802985Y3903624D01*
X-5525566Y4181043D01*
X-5522264Y4183227D01*
X-5518404Y4184040D01*
X-5331460Y4184040D01*
X-5327599Y4183227D01*
X-5324297Y4181043D01*
X-5118912Y3975658D01*
X-5116728Y3972356D01*
X-5115915Y3968496D01*
X-5115915Y3650386D01*
X-5115102Y3639667D01*
X-5112664Y3629609D01*
X-5108702Y3620058D01*
X-5103317Y3611270D01*
X-5096357Y3603091D01*
X-4969916Y3476650D01*
X-4961737Y3469690D01*
X-4952949Y3464306D01*
X-4943398Y3460343D01*
X-4933340Y3457905D01*
X-4922621Y3457092D01*
X-4769256Y3457092D01*
X-4766106Y3456584D01*
X-4763262Y3455111D01*
X-4761026Y3452876D01*
X-4758283Y3449116D01*
X-4748326Y3438499D01*
X-4737100Y3429254D01*
X-4724806Y3421430D01*
X-4711649Y3415233D01*
X-4697831Y3410762D01*
X-4683506Y3408019D01*
X-4668977Y3407105D01*
X-4654448Y3408019D01*
X-4640173Y3410762D01*
X-4626305Y3415233D01*
X-4613148Y3421430D01*
X-4600854Y3429254D01*
X-4589678Y3438499D01*
X-4579721Y3449116D01*
X-4571136Y3460902D01*
X-4564126Y3473653D01*
X-4558792Y3487165D01*
X-4555134Y3501288D01*
X-4553305Y3515715D01*
X-4553305Y3530244D01*
X-4555134Y3544722D01*
X-4558792Y3558794D01*
X-4564126Y3572357D01*
X-4571136Y3585108D01*
X-4579721Y3596843D01*
X-4589678Y3607460D01*
X-4600854Y3616756D01*
X-4613148Y3624529D01*
X-4626305Y3630726D01*
X-4640173Y3635248D01*
X-4654448Y3637991D01*
X-4668977Y3638905D01*
X-4683506Y3637991D01*
X-4697831Y3635248D01*
X-4711649Y3630726D01*
X-4724806Y3624529D01*
X-4737100Y3616756D01*
X-4748326Y3607460D01*
X-4758283Y3596843D01*
X-4761026Y3593084D01*
X-4763262Y3590848D01*
X-4766106Y3589375D01*
X-4769256Y3588867D01*
X-4891532Y3588867D01*
X-4895392Y3589680D01*
X-4898694Y3591864D01*
X-4981143Y3674313D01*
X-4983327Y3677615D01*
X-4984140Y3681476D01*
X-4984140Y3999585D01*
X-4984953Y4010304D01*
X-4987391Y4020362D01*
X-4991354Y4029913D01*
X-4996738Y4038701D01*
X-5003698Y4046880D01*
X-5253075Y4296257D01*
X-5261254Y4303217D01*
X-5270042Y4308602D01*
X-5279593Y4312564D01*
X-5289651Y4315002D01*
X-5300370Y4315815D01*
X-5549493Y4315815D01*
X-5560212Y4315002D01*
X-5570270Y4312564D01*
X-5579821Y4308602D01*
X-5588609Y4303217D01*
X-5596788Y4296257D01*
X-5874207Y4018838D01*
X-5877509Y4016654D01*
X-5881370Y4015841D01*
X-6271818Y4015841D01*
X-6275933Y4016705D01*
X-6279337Y4019194D01*
X-6281470Y4022801D01*
X-6281928Y4026966D01*
X-6280708Y4030979D01*
X-6277914Y4034129D01*
X-6084874Y4178909D01*
X-6081979Y4181703D01*
X-6078677Y4183786D01*
X-6074867Y4184446D01*
X-6071057Y4183634D01*
X-6067806Y4181500D01*
X-6066078Y4179773D01*
X-6061202Y4176674D01*
X-6055715Y4174794D01*
X-6049416Y4174032D01*
X-6000546Y4174032D01*
X-5994196Y4174794D01*
X-5988761Y4176674D01*
X-5983833Y4179773D01*
X-5982157Y4181449D01*
X-5978855Y4183634D01*
X-5974943Y4184446D01*
X-5971082Y4183634D01*
X-5967780Y4181449D01*
X-5966104Y4179773D01*
X-5961176Y4176674D01*
X-5955741Y4174794D01*
X-5949391Y4174032D01*
X-5900521Y4174032D01*
X-5894222Y4174794D01*
X-5888736Y4176674D01*
X-5883859Y4179773D01*
X-5882132Y4181449D01*
X-5878880Y4183634D01*
X-5874969Y4184446D01*
X-5871057Y4183634D01*
X-5867806Y4181449D01*
X-5866079Y4179773D01*
X-5861202Y4176674D01*
X-5855716Y4174794D01*
X-5849416Y4174032D01*
X-5800547Y4174032D01*
X-5794197Y4174794D01*
X-5788761Y4176674D01*
X-5783834Y4179773D01*
X-5779770Y4183837D01*
X-5776671Y4188764D01*
X-5774791Y4194200D01*
X-5774029Y4200550D01*
X-5774029Y4266844D01*
X-5773318Y4270654D01*
X-5771235Y4273905D01*
X-5768086Y4276090D01*
X-5764326Y4277004D01*
X-5760516Y4276445D01*
X-5755741Y4274769D01*
X-5749391Y4274058D01*
X-5700522Y4274058D01*
X-5694222Y4274769D01*
X-5688736Y4276699D01*
X-5683859Y4279747D01*
X-5679744Y4283862D01*
X-5676696Y4288739D01*
X-5674766Y4294225D01*
X-5674055Y4300524D01*
X-5674055Y4366869D01*
X-5673344Y4370628D01*
X-5671261Y4373880D01*
X-5668111Y4376115D01*
X-5664352Y4377029D01*
X-5660542Y4376470D01*
X-5655716Y4374794D01*
X-5649417Y4374032D01*
X-5600547Y4374032D01*
X-5594197Y4374794D01*
X-5588762Y4376674D01*
X-5583834Y4379772D01*
X-5582158Y4381449D01*
X-5578856Y4383633D01*
X-5574944Y4384446D01*
X-5571083Y4383633D01*
X-5567781Y4381449D01*
X-5566105Y4379772D01*
X-5561177Y4376674D01*
X-5555742Y4374794D01*
X-5549392Y4374032D01*
X-5500522Y4374032D01*
X-5494223Y4374794D01*
X-5488736Y4376674D01*
X-5483860Y4379772D01*
X-5482132Y4381449D01*
X-5478881Y4383633D01*
X-5474970Y4384446D01*
X-5471058Y4383633D01*
X-5467807Y4381449D01*
X-5466080Y4379772D01*
X-5461203Y4376674D01*
X-5455716Y4374794D01*
X-5449417Y4374032D01*
X-5400548Y4374032D01*
X-5394198Y4374794D01*
X-5388762Y4376674D01*
X-5383834Y4379772D01*
X-5382158Y4381449D01*
X-5378856Y4383633D01*
X-5374944Y4384446D01*
X-5371084Y4383633D01*
X-5367782Y4381449D01*
X-5366105Y4379772D01*
X-5361178Y4376674D01*
X-5355742Y4374794D01*
X-5349392Y4374032D01*
X-5300522Y4374032D01*
X-5294223Y4374794D01*
X-5288737Y4376674D01*
X-5283860Y4379772D01*
X-5282133Y4381449D01*
X-5278882Y4383633D01*
X-5274970Y4384446D01*
X-5271058Y4383633D01*
X-5267807Y4381449D01*
X-5266080Y4379772D01*
X-5261203Y4376674D01*
X-5255717Y4374794D01*
X-5249418Y4374032D01*
X-5200548Y4374032D01*
X-5194198Y4374794D01*
X-5189423Y4376470D01*
X-5185613Y4377029D01*
X-5181854Y4376115D01*
X-5178704Y4373880D01*
X-5176621Y4370628D01*
X-5175859Y4366869D01*
X-5175859Y4300575D01*
X-5175148Y4294225D01*
X-5173268Y4288790D01*
X-5170170Y4283862D01*
X-5166106Y4279798D01*
X-5161178Y4276699D01*
X-5155742Y4274820D01*
X-5149392Y4274058D01*
X-5100523Y4274058D01*
X-5094224Y4274820D01*
X-5089398Y4276496D01*
X-5085588Y4277055D01*
X-5081828Y4276140D01*
X-5078679Y4273905D01*
X-5076596Y4270654D01*
X-5075885Y4266895D01*
X-5075885Y4200550D01*
X-5075174Y4194251D01*
X-5073243Y4188764D01*
X-5070195Y4183887D01*
X-5066080Y4179773D01*
X-5061204Y4176725D01*
X-5055717Y4174794D01*
X-5049418Y4174083D01*
X-5000548Y4174083D01*
X-4994198Y4174794D01*
X-4988763Y4176725D01*
X-4983835Y4179773D01*
X-4982159Y4181449D01*
X-4978857Y4183684D01*
X-4974996Y4184446D01*
X-4971084Y4183684D01*
X-4967782Y4181449D01*
X-4966106Y4179773D01*
X-4961178Y4176674D01*
X-4955743Y4174794D01*
X-4949393Y4174032D01*
X-4900523Y4174032D01*
X-4894224Y4174794D01*
X-4888738Y4176674D01*
X-4883861Y4179773D01*
X-4882134Y4181449D01*
X-4878882Y4183634D01*
X-4874971Y4184446D01*
X-4871059Y4183634D01*
X-4867808Y4181449D01*
X-4866081Y4179773D01*
X-4861204Y4176674D01*
X-4855718Y4174794D01*
X-4849418Y4174032D01*
X-4800549Y4174032D01*
X-4794199Y4174794D01*
X-4788763Y4176674D01*
X-4783836Y4179773D01*
X-4782159Y4181449D01*
X-4778857Y4183634D01*
X-4774946Y4184446D01*
X-4771085Y4183634D01*
X-4767783Y4181449D01*
X-4766106Y4179773D01*
X-4761179Y4176674D01*
X-4755743Y4174794D01*
X-4749393Y4174032D01*
X-4700524Y4174032D01*
X-4694224Y4174794D01*
X-4688738Y4176674D01*
X-4683861Y4179773D01*
X-4682134Y4181449D01*
X-4678883Y4183634D01*
X-4674971Y4184446D01*
X-4671060Y4183634D01*
X-4667808Y4181449D01*
X-4666081Y4179773D01*
X-4661204Y4176674D01*
X-4655718Y4174794D01*
X-4649419Y4174032D01*
X-4600549Y4174032D01*
X-4594199Y4174794D01*
X-4588764Y4176674D01*
X-4583836Y4179773D01*
X-4582160Y4181449D01*
X-4578858Y4183634D01*
X-4574946Y4184446D01*
X-4571085Y4183634D01*
X-4567783Y4181449D01*
X-4566107Y4179773D01*
X-4561179Y4176674D01*
X-4555744Y4174794D01*
X-4549394Y4174032D01*
X-4500524Y4174032D01*
X-4494225Y4174794D01*
X-4488738Y4176674D01*
X-4483862Y4179773D01*
X-4482134Y4181449D01*
X-4478883Y4183634D01*
X-4474972Y4184446D01*
X-4471060Y4183634D01*
X-4467809Y4181449D01*
X-4466082Y4179773D01*
X-4461205Y4176674D01*
X-4455718Y4174794D01*
X-4449419Y4174032D01*
X-4400550Y4174032D01*
X-4394200Y4174794D01*
X-4388764Y4176674D01*
X-4383836Y4179773D01*
X-4382160Y4181449D01*
X-4378858Y4183634D01*
X-4374946Y4184446D01*
X-4371086Y4183634D01*
X-4367784Y4181449D01*
X-4366107Y4179773D01*
X-4361180Y4176674D01*
X-4355744Y4174794D01*
X-4349394Y4174032D01*
X-4300524Y4174032D01*
X-4294225Y4174794D01*
X-4288739Y4176674D01*
X-4283862Y4179773D01*
X-4282135Y4181449D01*
X-4278884Y4183634D01*
X-4274972Y4184446D01*
X-4271060Y4183634D01*
X-4267809Y4181449D01*
X-4266082Y4179773D01*
X-4261205Y4176674D01*
X-4255719Y4174794D01*
X-4249420Y4174032D01*
X-4200550Y4174032D01*
X-4194200Y4174794D01*
X-4188764Y4176674D01*
X-4183837Y4179773D01*
X-4182160Y4181449D01*
X-4178858Y4183634D01*
X-4174947Y4184446D01*
X-4171086Y4183634D01*
X-4167784Y4181449D01*
X-4166108Y4179773D01*
X-4161180Y4176674D01*
X-4155744Y4174794D01*
X-4149394Y4174032D01*
X-4100525Y4174032D01*
X-4094226Y4174794D01*
X-4088739Y4176674D01*
X-4083862Y4179773D01*
X-4082135Y4181449D01*
X-4078884Y4183634D01*
X-4074972Y4184446D01*
X-4071061Y4183634D01*
X-4067810Y4181449D01*
X-4066082Y4179773D01*
X-4061206Y4176674D01*
X-4055719Y4174794D01*
X-4049420Y4174032D01*
X-4000550Y4174032D01*
X-3994200Y4174794D01*
X-3988765Y4176674D01*
X-3983837Y4179773D01*
X-3982161Y4181449D01*
X-3978859Y4183634D01*
X-3974947Y4184446D01*
X-3971086Y4183634D01*
X-3967784Y4181449D01*
X-3966108Y4179773D01*
X-3961180Y4176674D01*
X-3955745Y4174794D01*
X-3949395Y4174032D01*
X-3900525Y4174032D01*
X-3894226Y4174794D01*
X-3888740Y4176674D01*
X-3883863Y4179773D01*
X-3882136Y4181449D01*
X-3878884Y4183634D01*
X-3874973Y4184446D01*
X-3871061Y4183634D01*
X-3867810Y4181449D01*
X-3866083Y4179773D01*
X-3861206Y4176674D01*
X-3855720Y4174794D01*
X-3849420Y4174032D01*
X-3800551Y4174032D01*
X-3794201Y4174794D01*
X-3788765Y4176674D01*
X-3783837Y4179773D01*
X-3782161Y4181449D01*
X-3778859Y4183634D01*
X-3774948Y4184446D01*
X-3771087Y4183634D01*
X-3767785Y4181449D01*
X-3766108Y4179773D01*
X-3761181Y4176674D01*
X-3755745Y4174794D01*
X-3749395Y4174032D01*
X-3710127Y4174032D01*
X-3706266Y4173270D01*
X-3702964Y4171086D01*
X-3700779Y4167784D01*
X-3699967Y4163872D01*
X-3699967Y4086047D01*
X-3700779Y4082135D01*
X-3702964Y4078884D01*
X-3706266Y4076649D01*
X-3710127Y4075887D01*
X-4499406Y4075887D01*
X-4505756Y4075176D01*
X-4511192Y4073245D01*
X-4516120Y4070197D01*
X-4520184Y4066082D01*
X-4523282Y4061206D01*
X-4525162Y4055719D01*
X-4525873Y4049420D01*
X-4525873Y4000550D01*
X-4525162Y3994200D01*
X-4523282Y3988765D01*
X-4520184Y3983837D01*
X-4518507Y3982161D01*
X-4516272Y3978859D01*
X-4515510Y3974947D01*
X-4516272Y3971086D01*
X-4518507Y3967784D01*
X-4520184Y3966108D01*
X-4523282Y3961180D01*
X-4525162Y3955745D01*
X-4525873Y3949395D01*
X-4525873Y3900525D01*
X-4525162Y3894226D01*
X-4523282Y3888740D01*
X-4520184Y3883863D01*
X-4518507Y3882136D01*
X-4516272Y3878884D01*
X-4515510Y3874973D01*
X-4516272Y3871061D01*
X-4518507Y3867810D01*
X-4520184Y3866083D01*
X-4523282Y3861206D01*
X-4525162Y3855720D01*
X-4525873Y3849420D01*
X-4525873Y3800551D01*
X-4525162Y3794201D01*
X-4523282Y3788765D01*
X-4520184Y3783837D01*
X-4518507Y3782161D01*
X-4516272Y3778859D01*
X-4515510Y3774948D01*
X-4516272Y3771087D01*
X-4518507Y3767785D01*
X-4520184Y3766108D01*
X-4523282Y3761181D01*
X-4525162Y3755745D01*
X-4525873Y3749395D01*
X-4525873Y3700526D01*
X-4525162Y3694226D01*
X-4523282Y3688740D01*
X-4520184Y3683863D01*
X-4518507Y3682136D01*
X-4516272Y3678885D01*
X-4515510Y3674973D01*
X-4516272Y3671062D01*
X-4518507Y3667810D01*
X-4520184Y3666083D01*
X-4523282Y3661206D01*
X-4525162Y3655720D01*
X-4525873Y3649421D01*
X-4525873Y3600551D01*
X-4525162Y3594201D01*
X-4523282Y3588765D01*
X-4520184Y3583838D01*
X-4518507Y3582162D01*
X-4516272Y3578860D01*
X-4515510Y3574948D01*
X-4516272Y3571087D01*
X-4518507Y3567785D01*
X-4520184Y3566109D01*
X-4523282Y3561181D01*
X-4525162Y3555746D01*
X-4525873Y3549396D01*
X-4525873Y3500526D01*
X-4525162Y3494227D01*
X-4523282Y3488740D01*
X-4520184Y3483864D01*
X-4518507Y3482136D01*
X-4516272Y3478885D01*
X-4515510Y3474974D01*
X-4516272Y3471062D01*
X-4518507Y3467811D01*
X-4520184Y3466084D01*
X-4523282Y3461207D01*
X-4525162Y3455720D01*
X-4525873Y3449421D01*
X-4525873Y3400551D01*
X-4525162Y3394201D01*
X-4523282Y3388766D01*
X-4520184Y3383838D01*
X-4518507Y3382162D01*
X-4516272Y3378860D01*
X-4515510Y3374948D01*
X-4516272Y3371087D01*
X-4518507Y3367786D01*
X-4520184Y3366109D01*
X-4523282Y3361182D01*
X-4525162Y3355746D01*
X-4525873Y3349396D01*
X-4525873Y3300526D01*
X-4525162Y3294227D01*
X-4523282Y3288741D01*
X-4520184Y3283864D01*
X-4518507Y3282137D01*
X-4516272Y3278886D01*
X-4515510Y3274974D01*
X-4516272Y3271062D01*
X-4518507Y3267811D01*
X-4520184Y3266084D01*
X-4523282Y3261207D01*
X-4525162Y3255721D01*
X-4525873Y3249422D01*
X-4525873Y3200552D01*
X-4525162Y3194202D01*
X-4523282Y3188766D01*
X-4520184Y3183839D01*
X-4518507Y3182162D01*
X-4516272Y3178860D01*
X-4515510Y3174949D01*
X-4516272Y3171088D01*
X-4518507Y3167786D01*
X-4520184Y3166110D01*
X-4523282Y3161182D01*
X-4525162Y3155746D01*
X-4525873Y3149396D01*
X-4525873Y3100527D01*
X-4525162Y3094228D01*
X-4523282Y3088741D01*
X-4520184Y3083864D01*
X-4518507Y3082137D01*
X-4516272Y3078886D01*
X-4515510Y3074974D01*
X-4516272Y3071063D01*
X-4518507Y3067812D01*
X-4520184Y3066084D01*
X-4523282Y3061208D01*
X-4525162Y3055721D01*
X-4525873Y3049422D01*
X-4525873Y3000552D01*
X-4525162Y2994202D01*
X-4523282Y2988767D01*
X-4520184Y2983839D01*
X-4518507Y2982163D01*
X-4516272Y2978861D01*
X-4515510Y2974949D01*
X-4516272Y2971088D01*
X-4518507Y2967786D01*
X-4520184Y2966110D01*
X-4523282Y2961182D01*
X-4525162Y2955747D01*
X-4525873Y2949397D01*
X-4525873Y2900527D01*
X-4525162Y2894228D01*
X-4523282Y2888742D01*
X-4520184Y2883865D01*
X-4518507Y2882138D01*
X-4516272Y2878886D01*
X-4515510Y2874975D01*
X-4516272Y2871063D01*
X-4518507Y2867812D01*
X-4520184Y2866085D01*
X-4523282Y2861208D01*
X-4525162Y2855722D01*
X-4525873Y2849422D01*
X-4525873Y2800553D01*
X-4525162Y2794203D01*
X-4523282Y2788767D01*
X-4520184Y2783840D01*
X-4518507Y2782163D01*
X-4516272Y2778861D01*
X-4515510Y2774950D01*
X-4516272Y2771089D01*
X-4518507Y2767787D01*
X-4520184Y2766110D01*
X-4523282Y2761183D01*
X-4525162Y2755747D01*
X-4525873Y2749397D01*
X-4525873Y2700528D01*
X-4525162Y2694228D01*
X-4523282Y2688742D01*
X-4520184Y2683865D01*
X-4518507Y2682138D01*
X-4516272Y2678887D01*
X-4515510Y2674975D01*
X-4516272Y2671064D01*
X-4518507Y2667812D01*
X-4520184Y2666085D01*
X-4523282Y2661208D01*
X-4525162Y2655722D01*
X-4525873Y2649423D01*
X-4525873Y2600553D01*
X-4525162Y2594203D01*
X-4523282Y2588768D01*
X-4520184Y2583840D01*
X-4518507Y2582164D01*
X-4516272Y2578862D01*
X-4515510Y2574950D01*
X-4516272Y2571089D01*
X-4518507Y2567787D01*
X-4520184Y2566111D01*
X-4523282Y2561183D01*
X-4525162Y2555748D01*
X-4525873Y2549398D01*
X-4525873Y2500528D01*
X-4525162Y2494229D01*
X-4523282Y2488742D01*
X-4520184Y2483866D01*
X-4518507Y2482138D01*
X-4516272Y2478887D01*
X-4515510Y2474976D01*
X-4516272Y2471064D01*
X-4518507Y2467813D01*
X-4520184Y2466086D01*
X-4523282Y2461209D01*
X-4525162Y2455722D01*
X-4525873Y2449423D01*
X-4525873Y2400554D01*
X-4525162Y2394204D01*
X-4523282Y2388768D01*
X-4520184Y2383840D01*
X-4516120Y2379776D01*
X-4511192Y2376678D01*
X-4505756Y2374798D01*
X-4499406Y2374036D01*
X-3710127Y2374036D01*
X-3706266Y2373274D01*
X-3702964Y2371090D01*
X-3700779Y2367788D01*
X-3699967Y2363876D01*
X-3699967Y2176119D01*
X-3700779Y2172258D01*
X-3702964Y2168956D01*
X-3706266Y2166772D01*
X-3710127Y2165959D01*
G37*

%LPC*%
G36*
X-4668977Y3153105D02*
G01*
X-4654448Y3154019D01*
X-4640173Y3156762D01*
X-4626305Y3161233D01*
X-4613148Y3167430D01*
X-4600854Y3175254D01*
X-4589678Y3184499D01*
X-4579721Y3195116D01*
X-4571136Y3206902D01*
X-4564126Y3219653D01*
X-4558792Y3233166D01*
X-4555134Y3247288D01*
X-4553305Y3261715D01*
X-4553305Y3276244D01*
X-4555134Y3290722D01*
X-4558792Y3304794D01*
X-4564126Y3318357D01*
X-4571136Y3331108D01*
X-4579721Y3342843D01*
X-4589678Y3353460D01*
X-4600854Y3362756D01*
X-4613148Y3370529D01*
X-4626305Y3376726D01*
X-4640173Y3381248D01*
X-4654448Y3383991D01*
X-4668977Y3384905D01*
X-4683506Y3383991D01*
X-4697831Y3381248D01*
X-4711649Y3376726D01*
X-4724806Y3370529D01*
X-4737100Y3362756D01*
X-4748326Y3353460D01*
X-4758283Y3342843D01*
X-4766818Y3331108D01*
X-4773828Y3318357D01*
X-4779213Y3304794D01*
X-4782820Y3290722D01*
X-4784648Y3276244D01*
X-4784648Y3261715D01*
X-4782820Y3247288D01*
X-4779213Y3233166D01*
X-4773828Y3219653D01*
X-4766818Y3206902D01*
X-4758283Y3195116D01*
X-4748326Y3184499D01*
X-4737100Y3175254D01*
X-4724806Y3167430D01*
X-4711649Y3161233D01*
X-4697831Y3156762D01*
X-4683506Y3154019D01*
G37*
G36*
X-5482336Y3165348D02*
G01*
X-5482336Y3217621D01*
X-5534761Y3217621D01*
X-5528818Y3206902D01*
X-5520283Y3195116D01*
X-5510326Y3184499D01*
X-5499100Y3175254D01*
X-5486806Y3167430D01*
G37*
G36*
X-5379618Y3165348D02*
G01*
X-5375148Y3167430D01*
X-5362854Y3175254D01*
X-5351678Y3184499D01*
X-5341721Y3195116D01*
X-5333136Y3206902D01*
X-5327243Y3217621D01*
X-5379618Y3217621D01*
G37*
G36*
X-5379618Y3320338D02*
G01*
X-5327243Y3320338D01*
X-5333136Y3331108D01*
X-5341721Y3342843D01*
X-5351678Y3353460D01*
X-5362854Y3362756D01*
X-5375148Y3370529D01*
X-5379618Y3372662D01*
G37*
G36*
X-5534761Y3320338D02*
G01*
X-5482336Y3320338D01*
X-5482336Y3372662D01*
X-5486806Y3370529D01*
X-5499100Y3362756D01*
X-5510326Y3353460D01*
X-5520283Y3342843D01*
X-5528818Y3331108D01*
G37*
G36*
X-5430977Y3407105D02*
G01*
X-5416448Y3408019D01*
X-5402173Y3410762D01*
X-5388305Y3415233D01*
X-5375148Y3421430D01*
X-5362854Y3429254D01*
X-5351678Y3438499D01*
X-5341721Y3449116D01*
X-5333136Y3460902D01*
X-5326126Y3473653D01*
X-5320792Y3487165D01*
X-5317134Y3501288D01*
X-5315305Y3515715D01*
X-5315305Y3530244D01*
X-5317134Y3544722D01*
X-5320792Y3558794D01*
X-5326126Y3572357D01*
X-5333136Y3585108D01*
X-5341721Y3596843D01*
X-5351678Y3607460D01*
X-5362854Y3616756D01*
X-5375148Y3624529D01*
X-5388305Y3630726D01*
X-5402173Y3635248D01*
X-5416448Y3637991D01*
X-5430977Y3638905D01*
X-5445506Y3637991D01*
X-5459831Y3635248D01*
X-5473649Y3630726D01*
X-5486806Y3624529D01*
X-5499100Y3616756D01*
X-5510326Y3607460D01*
X-5520283Y3596843D01*
X-5528818Y3585108D01*
X-5535828Y3572357D01*
X-5541213Y3558794D01*
X-5544820Y3544722D01*
X-5546648Y3530244D01*
X-5546648Y3515715D01*
X-5544820Y3501288D01*
X-5541213Y3487165D01*
X-5535828Y3473653D01*
X-5528818Y3460902D01*
X-5520283Y3449116D01*
X-5510326Y3438499D01*
X-5499100Y3429254D01*
X-5486806Y3421430D01*
X-5473649Y3415233D01*
X-5459831Y3410762D01*
X-5445506Y3408019D01*
G37*
G36*
X-4668977Y3661105D02*
G01*
X-4654448Y3662019D01*
X-4640173Y3664762D01*
X-4626305Y3669233D01*
X-4613148Y3675430D01*
X-4600854Y3683254D01*
X-4589678Y3692499D01*
X-4579721Y3703116D01*
X-4571136Y3714902D01*
X-4564126Y3727653D01*
X-4558792Y3741165D01*
X-4555134Y3755288D01*
X-4553305Y3769715D01*
X-4553305Y3784244D01*
X-4555134Y3798722D01*
X-4558792Y3812794D01*
X-4564126Y3826357D01*
X-4571136Y3839108D01*
X-4579721Y3850843D01*
X-4589678Y3861460D01*
X-4600854Y3870756D01*
X-4613148Y3878529D01*
X-4626305Y3884726D01*
X-4640173Y3889248D01*
X-4654448Y3891991D01*
X-4668977Y3892905D01*
X-4683506Y3891991D01*
X-4697831Y3889248D01*
X-4711649Y3884726D01*
X-4724806Y3878529D01*
X-4737100Y3870756D01*
X-4748326Y3861460D01*
X-4758283Y3850843D01*
X-4766818Y3839108D01*
X-4773828Y3826357D01*
X-4779213Y3812794D01*
X-4782820Y3798722D01*
X-4784648Y3784244D01*
X-4784648Y3769715D01*
X-4782820Y3755288D01*
X-4779213Y3741165D01*
X-4773828Y3727653D01*
X-4766818Y3714902D01*
X-4758283Y3703116D01*
X-4748326Y3692499D01*
X-4737100Y3683254D01*
X-4724806Y3675430D01*
X-4711649Y3669233D01*
X-4697831Y3664762D01*
X-4683506Y3662019D01*
G37*
G36*
X-5430977Y3661105D02*
G01*
X-5416448Y3662019D01*
X-5402173Y3664762D01*
X-5388305Y3669233D01*
X-5375148Y3675430D01*
X-5362854Y3683254D01*
X-5351678Y3692499D01*
X-5341721Y3703116D01*
X-5333136Y3714902D01*
X-5326126Y3727653D01*
X-5320792Y3741165D01*
X-5317134Y3755288D01*
X-5315305Y3769715D01*
X-5315305Y3784244D01*
X-5317134Y3798722D01*
X-5320792Y3812794D01*
X-5326126Y3826357D01*
X-5333136Y3839108D01*
X-5341721Y3850843D01*
X-5351678Y3861460D01*
X-5362854Y3870756D01*
X-5375148Y3878529D01*
X-5388305Y3884726D01*
X-5402173Y3889248D01*
X-5416448Y3891991D01*
X-5430977Y3892905D01*
X-5445506Y3891991D01*
X-5459831Y3889248D01*
X-5473649Y3884726D01*
X-5486806Y3878529D01*
X-5499100Y3870756D01*
X-5510326Y3861460D01*
X-5520283Y3850843D01*
X-5528818Y3839108D01*
X-5535828Y3826357D01*
X-5541213Y3812794D01*
X-5544820Y3798722D01*
X-5546648Y3784244D01*
X-5546648Y3769715D01*
X-5544820Y3755288D01*
X-5541213Y3741165D01*
X-5535828Y3727653D01*
X-5528818Y3714902D01*
X-5520283Y3703116D01*
X-5510326Y3692499D01*
X-5499100Y3683254D01*
X-5486806Y3675430D01*
X-5473649Y3669233D01*
X-5459831Y3664762D01*
X-5445506Y3662019D01*
G37*
G36*
X-4668977Y3915105D02*
G01*
X-4654448Y3916019D01*
X-4640173Y3918762D01*
X-4626305Y3923233D01*
X-4613148Y3929430D01*
X-4600854Y3937254D01*
X-4589678Y3946499D01*
X-4579721Y3957116D01*
X-4571136Y3968902D01*
X-4564126Y3981653D01*
X-4558792Y3995165D01*
X-4555134Y4009288D01*
X-4553305Y4023715D01*
X-4553305Y4038244D01*
X-4555134Y4052722D01*
X-4558792Y4066794D01*
X-4564126Y4080357D01*
X-4571136Y4093108D01*
X-4579721Y4104843D01*
X-4589678Y4115460D01*
X-4600854Y4124756D01*
X-4613148Y4132529D01*
X-4626305Y4138726D01*
X-4640173Y4143248D01*
X-4654448Y4145991D01*
X-4668977Y4146905D01*
X-4683506Y4145991D01*
X-4697831Y4143248D01*
X-4711649Y4138726D01*
X-4724806Y4132529D01*
X-4737100Y4124756D01*
X-4748326Y4115460D01*
X-4758283Y4104843D01*
X-4766818Y4093108D01*
X-4773828Y4080357D01*
X-4779213Y4066794D01*
X-4782820Y4052722D01*
X-4784648Y4038244D01*
X-4784648Y4023715D01*
X-4782820Y4009288D01*
X-4779213Y3995165D01*
X-4773828Y3981653D01*
X-4766818Y3968902D01*
X-4758283Y3957116D01*
X-4748326Y3946499D01*
X-4737100Y3937254D01*
X-4724806Y3929430D01*
X-4711649Y3923233D01*
X-4697831Y3918762D01*
X-4683506Y3916019D01*
G37*
G36*
X-5430977Y3915105D02*
G01*
X-5416448Y3916019D01*
X-5402173Y3918762D01*
X-5388305Y3923233D01*
X-5375148Y3929430D01*
X-5362854Y3937254D01*
X-5351678Y3946499D01*
X-5341721Y3957116D01*
X-5333136Y3968902D01*
X-5326126Y3981653D01*
X-5320792Y3995165D01*
X-5317134Y4009288D01*
X-5315305Y4023715D01*
X-5315305Y4038244D01*
X-5317134Y4052722D01*
X-5320792Y4066794D01*
X-5326126Y4080357D01*
X-5333136Y4093108D01*
X-5341721Y4104843D01*
X-5351678Y4115460D01*
X-5362854Y4124756D01*
X-5375148Y4132529D01*
X-5388305Y4138726D01*
X-5402173Y4143248D01*
X-5416448Y4145991D01*
X-5430977Y4146905D01*
X-5445506Y4145991D01*
X-5459831Y4143248D01*
X-5473649Y4138726D01*
X-5486806Y4132529D01*
X-5499100Y4124756D01*
X-5510326Y4115460D01*
X-5520283Y4104843D01*
X-5528818Y4093108D01*
X-5535828Y4080357D01*
X-5541213Y4066794D01*
X-5544820Y4052722D01*
X-5546648Y4038244D01*
X-5546648Y4023715D01*
X-5544820Y4009288D01*
X-5541213Y3995165D01*
X-5535828Y3981653D01*
X-5528818Y3968902D01*
X-5520283Y3957116D01*
X-5510326Y3946499D01*
X-5499100Y3937254D01*
X-5486806Y3929430D01*
X-5473649Y3923233D01*
X-5459831Y3918762D01*
X-5445506Y3916019D01*
G37*

%LPD*%
G36*
X-9799421Y2025904D02*
G01*
X-9830054Y2026869D01*
X-9859721Y2029714D01*
X-9889134Y2034387D01*
X-9918192Y2040889D01*
X-9946792Y2049221D01*
X-9974783Y2059330D01*
X-10002113Y2071166D01*
X-10028631Y2084730D01*
X-10054285Y2099919D01*
X-10078872Y2116632D01*
X-10102392Y2134920D01*
X-10124744Y2154631D01*
X-10145776Y2175713D01*
X-10165435Y2198065D01*
X-10183672Y2221585D01*
X-10200436Y2246223D01*
X-10215575Y2271877D01*
X-10229088Y2298446D01*
X-10240873Y2325776D01*
X-10250932Y2353818D01*
X-10259212Y2382418D01*
X-10265714Y2411476D01*
X-10270337Y2440889D01*
X-10273131Y2470556D01*
X-10274046Y2500528D01*
X-10274046Y4999329D01*
X-10273080Y5029962D01*
X-10270286Y5059629D01*
X-10265613Y5089042D01*
X-10259060Y5118100D01*
X-10250728Y5146700D01*
X-10240619Y5174691D01*
X-10228783Y5202021D01*
X-10215270Y5228539D01*
X-10200081Y5254193D01*
X-10183317Y5278780D01*
X-10165029Y5302300D01*
X-10145318Y5324652D01*
X-10124287Y5345684D01*
X-10101935Y5365394D01*
X-10078364Y5383631D01*
X-10053726Y5400344D01*
X-10028072Y5415483D01*
X-10001554Y5428996D01*
X-9974224Y5440781D01*
X-9946182Y5450840D01*
X-9917582Y5459120D01*
X-9888474Y5465622D01*
X-9859060Y5470245D01*
X-9829444Y5473039D01*
X-9799421Y5474004D01*
X-9137142Y5474004D01*
X-9133281Y5473192D01*
X-9129979Y5471007D01*
X-9127794Y5467705D01*
X-9126982Y5463844D01*
X-9127794Y5459933D01*
X-9129979Y5456631D01*
X-9268104Y5318506D01*
X-9271914Y5313781D01*
X-9274403Y5308549D01*
X-9275724Y5302910D01*
X-9275876Y5299710D01*
X-9275876Y4800549D01*
X-9276232Y4795672D01*
X-9278315Y4791964D01*
X-9281769Y4789474D01*
X-9285884Y4788611D01*
X-9449511Y4788611D01*
X-9457537Y4787798D01*
X-9464751Y4785614D01*
X-9471406Y4782058D01*
X-9477654Y4776927D01*
X-9777069Y4477512D01*
X-9778898Y4476038D01*
X-9783775Y4473041D01*
X-9791039Y4466691D01*
X-9797084Y4459173D01*
X-9801809Y4450740D01*
X-9805009Y4441647D01*
X-9806635Y4432147D01*
X-9806635Y4422495D01*
X-9805009Y4412996D01*
X-9801809Y4403902D01*
X-9797084Y4395470D01*
X-9791039Y4387951D01*
X-9783775Y4381601D01*
X-9775596Y4376521D01*
X-9766604Y4372965D01*
X-9757206Y4370933D01*
X-9747554Y4370476D01*
X-9738004Y4371746D01*
X-9728758Y4374540D01*
X-9720173Y4378909D01*
X-9712401Y4384649D01*
X-9705695Y4391609D01*
X-9700310Y4399584D01*
X-9696348Y4408373D01*
X-9693910Y4417720D01*
X-9693097Y4427321D01*
X-9693910Y4436922D01*
X-9695434Y4442815D01*
X-9695738Y4446320D01*
X-9694824Y4449724D01*
X-9692792Y4452569D01*
X-9436963Y4708398D01*
X-9433661Y4710582D01*
X-9429800Y4711395D01*
X-9245701Y4711395D01*
X-9242145Y4710734D01*
X-9238996Y4708855D01*
X-9233814Y4704232D01*
X-9225584Y4699203D01*
X-9216644Y4695596D01*
X-9207195Y4693564D01*
X-9197543Y4693158D01*
X-9187992Y4694377D01*
X-9178798Y4697222D01*
X-9170162Y4701540D01*
X-9162389Y4707280D01*
X-9155734Y4714240D01*
X-9150350Y4722266D01*
X-9146336Y4731054D01*
X-9143949Y4740351D01*
X-9143085Y4749952D01*
X-9143949Y4759604D01*
X-9144660Y4765040D01*
X-9143593Y4768596D01*
X-9141358Y4771491D01*
X-9138208Y4773422D01*
X-9134551Y4774082D01*
X-9100515Y4774082D01*
X-9094216Y4774793D01*
X-9088729Y4776724D01*
X-9083852Y4779772D01*
X-9082176Y4781448D01*
X-9078874Y4783683D01*
X-9074962Y4784445D01*
X-9071102Y4783683D01*
X-9067800Y4781448D01*
X-9066072Y4779772D01*
X-9061196Y4776673D01*
X-9055709Y4774793D01*
X-9049410Y4774031D01*
X-9000540Y4774031D01*
X-8994190Y4774793D01*
X-8988755Y4776673D01*
X-8983827Y4779772D01*
X-8982151Y4781448D01*
X-8978849Y4783632D01*
X-8974937Y4784445D01*
X-8971076Y4783632D01*
X-8967774Y4781448D01*
X-8966098Y4779772D01*
X-8961170Y4776673D01*
X-8955735Y4774793D01*
X-8949385Y4774031D01*
X-8900515Y4774031D01*
X-8894216Y4774793D01*
X-8888730Y4776673D01*
X-8883853Y4779772D01*
X-8882126Y4781448D01*
X-8878874Y4783632D01*
X-8874963Y4784445D01*
X-8871051Y4783632D01*
X-8867800Y4781448D01*
X-8866073Y4779772D01*
X-8861196Y4776673D01*
X-8855710Y4774793D01*
X-8849410Y4774031D01*
X-8800541Y4774031D01*
X-8794191Y4774793D01*
X-8788755Y4776673D01*
X-8783828Y4779772D01*
X-8782151Y4781448D01*
X-8778849Y4783632D01*
X-8774938Y4784445D01*
X-8771077Y4783632D01*
X-8767775Y4781448D01*
X-8766098Y4779772D01*
X-8761171Y4776673D01*
X-8755735Y4774793D01*
X-8749385Y4774031D01*
X-8700516Y4774031D01*
X-8694216Y4774793D01*
X-8688730Y4776673D01*
X-8683853Y4779772D01*
X-8682126Y4781448D01*
X-8678875Y4783632D01*
X-8674963Y4784445D01*
X-8671052Y4783632D01*
X-8667800Y4781448D01*
X-8666073Y4779772D01*
X-8661196Y4776673D01*
X-8655710Y4774793D01*
X-8649411Y4774031D01*
X-8600541Y4774031D01*
X-8594191Y4774793D01*
X-8589416Y4776470D01*
X-8585606Y4777028D01*
X-8581847Y4776114D01*
X-8578697Y4773879D01*
X-8576614Y4770628D01*
X-8575852Y4766868D01*
X-8575852Y3850538D01*
X-8575141Y3844239D01*
X-8573262Y3838752D01*
X-8570163Y3833876D01*
X-8566099Y3829761D01*
X-8561171Y3826713D01*
X-8555736Y3824782D01*
X-8549386Y3824071D01*
X-8500516Y3824071D01*
X-8494217Y3824782D01*
X-8488730Y3826713D01*
X-8483854Y3829761D01*
X-8482126Y3831488D01*
X-8478875Y3833672D01*
X-8474964Y3834434D01*
X-8471052Y3833672D01*
X-8467801Y3831488D01*
X-8466074Y3829761D01*
X-8461197Y3826713D01*
X-8455710Y3824782D01*
X-8449411Y3824071D01*
X-8400542Y3824071D01*
X-8394192Y3824782D01*
X-8388756Y3826713D01*
X-8383828Y3829761D01*
X-8382152Y3831488D01*
X-8378850Y3833672D01*
X-8374938Y3834434D01*
X-8371078Y3833672D01*
X-8367775Y3831488D01*
X-8366099Y3829761D01*
X-8361172Y3826713D01*
X-8355736Y3824782D01*
X-8349386Y3824071D01*
X-8300516Y3824071D01*
X-8294217Y3824782D01*
X-8288731Y3826713D01*
X-8283854Y3829761D01*
X-8282127Y3831488D01*
X-8278875Y3833672D01*
X-8274964Y3834434D01*
X-8271052Y3833672D01*
X-8267801Y3831488D01*
X-8266074Y3829761D01*
X-8261197Y3826713D01*
X-8255711Y3824782D01*
X-8249412Y3824071D01*
X-8200542Y3824071D01*
X-8194192Y3824782D01*
X-8188756Y3826713D01*
X-8183829Y3829761D01*
X-8182152Y3831488D01*
X-8178850Y3833672D01*
X-8174939Y3834434D01*
X-8171078Y3833672D01*
X-8167776Y3831488D01*
X-8166100Y3829761D01*
X-8161172Y3826713D01*
X-8155736Y3824782D01*
X-8149386Y3824071D01*
X-8100517Y3824071D01*
X-8094218Y3824782D01*
X-8088731Y3826713D01*
X-8083854Y3829761D01*
X-8082127Y3831488D01*
X-8078876Y3833672D01*
X-8074964Y3834434D01*
X-8071053Y3833672D01*
X-8067802Y3831488D01*
X-8066074Y3829761D01*
X-8061198Y3826713D01*
X-8055711Y3824782D01*
X-8049412Y3824071D01*
X-8000542Y3824071D01*
X-7994192Y3824782D01*
X-7988757Y3826713D01*
X-7983829Y3829761D01*
X-7982153Y3831488D01*
X-7978851Y3833672D01*
X-7974939Y3834434D01*
X-7971078Y3833672D01*
X-7967776Y3831488D01*
X-7966100Y3829761D01*
X-7961172Y3826713D01*
X-7955737Y3824782D01*
X-7949387Y3824071D01*
X-7900517Y3824071D01*
X-7894218Y3824782D01*
X-7888731Y3826713D01*
X-7883855Y3829761D01*
X-7882128Y3831488D01*
X-7878876Y3833672D01*
X-7874965Y3834434D01*
X-7871053Y3833672D01*
X-7867802Y3831488D01*
X-7866075Y3829761D01*
X-7861198Y3826713D01*
X-7855712Y3824782D01*
X-7849412Y3824071D01*
X-7800543Y3824071D01*
X-7794193Y3824782D01*
X-7788757Y3826713D01*
X-7783830Y3829761D01*
X-7782153Y3831488D01*
X-7778851Y3833672D01*
X-7774940Y3834434D01*
X-7771079Y3833672D01*
X-7767777Y3831488D01*
X-7766100Y3829761D01*
X-7761173Y3826713D01*
X-7755737Y3824782D01*
X-7749387Y3824071D01*
X-7700518Y3824071D01*
X-7694218Y3824782D01*
X-7688732Y3826713D01*
X-7683855Y3829761D01*
X-7682128Y3831488D01*
X-7678877Y3833672D01*
X-7674965Y3834434D01*
X-7671053Y3833672D01*
X-7667802Y3831488D01*
X-7666075Y3829761D01*
X-7661198Y3826713D01*
X-7655712Y3824782D01*
X-7649413Y3824071D01*
X-7600543Y3824071D01*
X-7594193Y3824782D01*
X-7588758Y3826713D01*
X-7583830Y3829761D01*
X-7582153Y3831488D01*
X-7578852Y3833672D01*
X-7574940Y3834434D01*
X-7571079Y3833672D01*
X-7567777Y3831488D01*
X-7566101Y3829761D01*
X-7561173Y3826713D01*
X-7555738Y3824782D01*
X-7549388Y3824071D01*
X-7500518Y3824071D01*
X-7494219Y3824782D01*
X-7488732Y3826713D01*
X-7483856Y3829761D01*
X-7482128Y3831488D01*
X-7478877Y3833672D01*
X-7474966Y3834434D01*
X-7471054Y3833672D01*
X-7467803Y3831488D01*
X-7466075Y3829761D01*
X-7461199Y3826713D01*
X-7455712Y3824782D01*
X-7449413Y3824071D01*
X-7400544Y3824071D01*
X-7394194Y3824782D01*
X-7388758Y3826713D01*
X-7383830Y3829761D01*
X-7382154Y3831488D01*
X-7378852Y3833672D01*
X-7374940Y3834434D01*
X-7371080Y3833672D01*
X-7367778Y3831488D01*
X-7366101Y3829761D01*
X-7361174Y3826713D01*
X-7355738Y3824782D01*
X-7349388Y3824071D01*
X-7300518Y3824071D01*
X-7294219Y3824782D01*
X-7288733Y3826713D01*
X-7283856Y3829761D01*
X-7279741Y3833876D01*
X-7276693Y3838752D01*
X-7274763Y3844239D01*
X-7274052Y3850538D01*
X-7274052Y3866845D01*
X-7273340Y3870655D01*
X-7271258Y3873906D01*
X-7268108Y3876090D01*
X-7264349Y3877005D01*
X-7260539Y3876446D01*
X-7255713Y3874770D01*
X-7249414Y3874058D01*
X-7200544Y3874058D01*
X-7194194Y3874770D01*
X-7188758Y3876700D01*
X-7183831Y3879748D01*
X-7179767Y3883863D01*
X-7176668Y3888740D01*
X-7174788Y3894226D01*
X-7174026Y3900525D01*
X-7174026Y4016857D01*
X-7173315Y4020667D01*
X-7171232Y4023918D01*
X-7168083Y4026103D01*
X-7164324Y4027017D01*
X-7160514Y4026458D01*
X-7155738Y4024782D01*
X-7149388Y4024071D01*
X-7100519Y4024071D01*
X-7094220Y4024782D01*
X-7088733Y4026712D01*
X-7083856Y4029760D01*
X-7079742Y4033875D01*
X-7076694Y4038752D01*
X-7074763Y4044238D01*
X-7074052Y4050537D01*
X-7074052Y4166870D01*
X-7073341Y4170629D01*
X-7071258Y4173880D01*
X-7068108Y4176115D01*
X-7064349Y4177029D01*
X-7060539Y4176471D01*
X-7055713Y4174794D01*
X-7049414Y4174032D01*
X-7000544Y4174032D01*
X-6994194Y4174794D01*
X-6988759Y4176674D01*
X-6983831Y4179773D01*
X-6982155Y4181449D01*
X-6978853Y4183634D01*
X-6974941Y4184446D01*
X-6971080Y4183634D01*
X-6967778Y4181449D01*
X-6966102Y4179773D01*
X-6961174Y4176674D01*
X-6955739Y4174794D01*
X-6949389Y4174032D01*
X-6900519Y4174032D01*
X-6894220Y4174794D01*
X-6888734Y4176674D01*
X-6883857Y4179773D01*
X-6882130Y4181449D01*
X-6878878Y4183634D01*
X-6874967Y4184446D01*
X-6871055Y4183634D01*
X-6867804Y4181449D01*
X-6866077Y4179773D01*
X-6861200Y4176674D01*
X-6855714Y4174794D01*
X-6849414Y4174032D01*
X-6800545Y4174032D01*
X-6794195Y4174794D01*
X-6788759Y4176674D01*
X-6783831Y4179773D01*
X-6779768Y4183837D01*
X-6776669Y4188764D01*
X-6774789Y4194200D01*
X-6774027Y4200550D01*
X-6774078Y5349443D01*
X-6774789Y5355742D01*
X-6776770Y5361432D01*
X-6778599Y5364581D01*
X-6840829Y5458155D01*
X-6842455Y5462219D01*
X-6842201Y5466588D01*
X-6840118Y5470398D01*
X-6836664Y5473039D01*
X-6832396Y5474004D01*
X-6187186Y5474004D01*
X-6183274Y5473192D01*
X-6179972Y5471007D01*
X-6177788Y5467705D01*
X-6177026Y5463844D01*
X-6177788Y5459933D01*
X-6179972Y5456631D01*
X-6368084Y5268518D01*
X-6371894Y5263743D01*
X-6374434Y5258562D01*
X-6375704Y5252872D01*
X-6375908Y5249722D01*
X-6375908Y4636058D01*
X-6376670Y4632147D01*
X-6378854Y4628896D01*
X-6382156Y4626660D01*
X-6386068Y4625898D01*
X-6699402Y4625898D01*
X-6705752Y4625187D01*
X-6711188Y4623257D01*
X-6716115Y4620209D01*
X-6720179Y4616094D01*
X-6723278Y4611217D01*
X-6725158Y4605731D01*
X-6725869Y4599432D01*
X-6725869Y4050537D01*
X-6725158Y4044238D01*
X-6723278Y4038803D01*
X-6717334Y4029913D01*
X-6716522Y4026001D01*
X-6717334Y4022140D01*
X-6719519Y4018838D01*
X-6722821Y4016654D01*
X-6726681Y4015841D01*
X-6989673Y4015841D01*
X-7000392Y4015028D01*
X-7010450Y4012590D01*
X-7020001Y4008628D01*
X-7028789Y4003243D01*
X-7036968Y3996283D01*
X-7526375Y3506876D01*
X-7533335Y3498697D01*
X-7538720Y3489909D01*
X-7542682Y3480358D01*
X-7545120Y3470300D01*
X-7545933Y3459987D01*
X-7545120Y3449675D01*
X-7542682Y3439617D01*
X-7538720Y3430066D01*
X-7533335Y3421278D01*
X-7526426Y3413150D01*
X-7524546Y3409848D01*
X-7523988Y3406038D01*
X-7524902Y3402329D01*
X-7527137Y3399180D01*
X-7530388Y3397148D01*
X-7534148Y3396386D01*
X-7566914Y3396386D01*
X-7573213Y3395675D01*
X-7578699Y3393795D01*
X-7583576Y3390696D01*
X-7587691Y3386632D01*
X-7590790Y3381705D01*
X-7592669Y3376269D01*
X-7593380Y3369919D01*
X-7593380Y3230067D01*
X-7592669Y3223768D01*
X-7590790Y3218281D01*
X-7587691Y3213404D01*
X-7583576Y3209290D01*
X-7579563Y3205784D01*
X-7577937Y3202025D01*
X-7577937Y3197961D01*
X-7579563Y3194202D01*
X-7583576Y3190697D01*
X-7587691Y3186582D01*
X-7590790Y3181705D01*
X-7592669Y3176219D01*
X-7593380Y3169920D01*
X-7593380Y3030067D01*
X-7592669Y3023717D01*
X-7590790Y3018282D01*
X-7587691Y3013354D01*
X-7583576Y3009290D01*
X-7578699Y3006191D01*
X-7572705Y3004108D01*
X-7569149Y3001975D01*
X-7566761Y2998571D01*
X-7565898Y2994507D01*
X-7565898Y2808122D01*
X-7566456Y2804769D01*
X-7568082Y2801823D01*
X-7570622Y2799537D01*
X-7574940Y2796844D01*
X-7579055Y2792730D01*
X-7582103Y2787853D01*
X-7584033Y2782366D01*
X-7584744Y2776067D01*
X-7584744Y2663952D01*
X-7584033Y2657602D01*
X-7582103Y2652166D01*
X-7579055Y2647238D01*
X-7574940Y2643174D01*
X-7570063Y2640076D01*
X-7564577Y2638196D01*
X-7558278Y2637485D01*
X-7421727Y2637485D01*
X-7415377Y2638196D01*
X-7409942Y2640076D01*
X-7405014Y2643174D01*
X-7400950Y2647238D01*
X-7397851Y2652166D01*
X-7395921Y2657602D01*
X-7395209Y2663952D01*
X-7395209Y2776067D01*
X-7395921Y2782366D01*
X-7397851Y2787853D01*
X-7400950Y2792730D01*
X-7405014Y2796844D01*
X-7409942Y2799892D01*
X-7415377Y2801823D01*
X-7421727Y2802534D01*
X-7423912Y2802534D01*
X-7427823Y2803296D01*
X-7431074Y2805531D01*
X-7433309Y2808782D01*
X-7434072Y2812694D01*
X-7434072Y2994507D01*
X-7433208Y2998571D01*
X-7430820Y3001975D01*
X-7427264Y3004108D01*
X-7421270Y3006191D01*
X-7416393Y3009290D01*
X-7412278Y3013354D01*
X-7409180Y3018282D01*
X-7407300Y3023717D01*
X-7406081Y3028594D01*
X-7403795Y3031490D01*
X-7400645Y3033420D01*
X-7397038Y3034080D01*
X-7218934Y3034080D01*
X-7215581Y3033522D01*
X-7212584Y3031845D01*
X-7210348Y3029305D01*
X-7209028Y3027273D01*
X-7204964Y3023158D01*
X-7200036Y3020060D01*
X-7194600Y3018180D01*
X-7188250Y3017469D01*
X-7051700Y3017469D01*
X-7045401Y3018180D01*
X-7039914Y3020060D01*
X-7035038Y3023158D01*
X-7030923Y3027273D01*
X-7027875Y3032150D01*
X-7025944Y3037586D01*
X-7025233Y3043936D01*
X-7025233Y3156051D01*
X-7025944Y3162350D01*
X-7027875Y3167837D01*
X-7030923Y3172714D01*
X-7035038Y3176828D01*
X-7039914Y3179876D01*
X-7045401Y3181807D01*
X-7051700Y3182518D01*
X-7119721Y3182518D01*
X-7123582Y3183280D01*
X-7126884Y3185515D01*
X-7129119Y3188817D01*
X-7129881Y3192678D01*
X-7129119Y3196590D01*
X-7126884Y3199892D01*
X-7112253Y3214471D01*
X-7108952Y3216706D01*
X-7105091Y3217468D01*
X-7051700Y3217468D01*
X-7045401Y3218180D01*
X-7039914Y3220110D01*
X-7035038Y3223158D01*
X-7030923Y3227273D01*
X-7027875Y3232150D01*
X-7025944Y3237636D01*
X-7025233Y3243935D01*
X-7025233Y3356051D01*
X-7025944Y3362401D01*
X-7027875Y3367836D01*
X-7030923Y3372713D01*
X-7035038Y3376828D01*
X-7039914Y3379927D01*
X-7048804Y3382975D01*
X-7051598Y3385261D01*
X-7053427Y3388360D01*
X-7054088Y3391865D01*
X-7054088Y3418484D01*
X-7053275Y3422396D01*
X-7051090Y3425698D01*
X-7045655Y3431082D01*
X-7042353Y3433318D01*
X-7038492Y3434079D01*
X-6880402Y3434079D01*
X-6871563Y3434740D01*
X-6789572Y3434740D01*
X-6778853Y3435604D01*
X-6768795Y3437991D01*
X-6759244Y3441954D01*
X-6750456Y3447338D01*
X-6742582Y3454095D01*
X-6735876Y3461918D01*
X-6730492Y3470757D01*
X-6726529Y3480308D01*
X-6724091Y3490366D01*
X-6723278Y3500628D01*
X-6724091Y3510940D01*
X-6726529Y3520998D01*
X-6730492Y3530549D01*
X-6735876Y3539388D01*
X-6742582Y3547211D01*
X-6750456Y3553968D01*
X-6759244Y3559352D01*
X-6768795Y3563315D01*
X-6778853Y3565702D01*
X-6789572Y3566566D01*
X-6878929Y3566566D01*
X-6887768Y3565906D01*
X-7066432Y3565906D01*
X-7070293Y3566668D01*
X-7073595Y3568852D01*
X-7075779Y3572154D01*
X-7076592Y3576065D01*
X-7075779Y3579926D01*
X-7073595Y3583228D01*
X-7025690Y3631133D01*
X-7022388Y3633317D01*
X-7018528Y3634130D01*
X-5831586Y3634130D01*
X-5827725Y3633317D01*
X-5824423Y3631133D01*
X-5718860Y3525570D01*
X-5716676Y3522268D01*
X-5715863Y3518408D01*
X-5715863Y3216300D01*
X-5716727Y3212185D01*
X-5719216Y3208782D01*
X-5722823Y3206699D01*
X-5726938Y3206191D01*
X-5730951Y3207410D01*
X-5734151Y3210153D01*
X-5735929Y3213963D01*
X-5737402Y3220161D01*
X-5741365Y3229711D01*
X-5746750Y3238550D01*
X-5753709Y3246729D01*
X-5852972Y3346246D01*
X-5861100Y3353206D01*
X-5869940Y3358642D01*
X-5879490Y3362604D01*
X-5889548Y3365042D01*
X-5900216Y3365855D01*
X-6059779Y3365855D01*
X-6070498Y3365042D01*
X-6080556Y3362604D01*
X-6090107Y3358642D01*
X-6098895Y3353257D01*
X-6107074Y3346297D01*
X-6613347Y2840024D01*
X-6616649Y2837840D01*
X-6620509Y2837027D01*
X-6767474Y2837027D01*
X-6771690Y2837992D01*
X-6775196Y2840634D01*
X-6777228Y2844444D01*
X-6777481Y2848813D01*
X-6775907Y2852877D01*
X-6772757Y2855874D01*
X-6771284Y2856788D01*
X-6763410Y2863494D01*
X-6756704Y2871368D01*
X-6751320Y2880156D01*
X-6747357Y2889707D01*
X-6744919Y2899765D01*
X-6744106Y2910484D01*
X-6744106Y3181858D01*
X-6744919Y3192526D01*
X-6747357Y3202584D01*
X-6751320Y3212134D01*
X-6756704Y3220974D01*
X-6763664Y3229152D01*
X-6852361Y3317798D01*
X-6860540Y3324809D01*
X-6869328Y3330194D01*
X-6878878Y3334156D01*
X-6888937Y3336544D01*
X-6899249Y3337356D01*
X-6909562Y3336544D01*
X-6919620Y3334156D01*
X-6929170Y3330194D01*
X-6937959Y3324809D01*
X-6945833Y3318052D01*
X-6952538Y3310229D01*
X-6957923Y3301390D01*
X-6961886Y3291840D01*
X-6964324Y3281781D01*
X-6965137Y3271469D01*
X-6964324Y3261207D01*
X-6961886Y3251149D01*
X-6957923Y3241598D01*
X-6952538Y3232759D01*
X-6945579Y3224631D01*
X-6878878Y3157931D01*
X-6876694Y3154629D01*
X-6875881Y3150717D01*
X-6875881Y2910484D01*
X-6874916Y2898648D01*
X-6875424Y2894584D01*
X-6877507Y2891028D01*
X-6880859Y2888589D01*
X-6884873Y2887675D01*
X-6888937Y2888437D01*
X-6896811Y2891688D01*
X-6906869Y2894126D01*
X-6917181Y2894939D01*
X-6927494Y2894126D01*
X-6937552Y2891688D01*
X-6947103Y2887726D01*
X-6955891Y2882341D01*
X-6963765Y2875635D01*
X-6970471Y2867761D01*
X-6975856Y2858973D01*
X-6979818Y2849422D01*
X-6982256Y2839364D01*
X-6983069Y2829052D01*
X-6982256Y2818739D01*
X-6979818Y2808681D01*
X-6975856Y2799130D01*
X-6970471Y2790342D01*
X-6963511Y2782163D01*
X-6914591Y2733243D01*
X-6912356Y2729941D01*
X-6911594Y2726029D01*
X-6912356Y2722168D01*
X-6914591Y2718866D01*
X-6917893Y2716682D01*
X-6921753Y2715869D01*
X-7098538Y2715869D01*
X-7102398Y2716682D01*
X-7105700Y2718866D01*
X-7293203Y2906369D01*
X-7301382Y2913329D01*
X-7310170Y2918714D01*
X-7319721Y2922676D01*
X-7329779Y2925114D01*
X-7340092Y2925927D01*
X-7350404Y2925114D01*
X-7360462Y2922676D01*
X-7370013Y2918714D01*
X-7378801Y2913329D01*
X-7386675Y2906623D01*
X-7393381Y2898749D01*
X-7398766Y2889961D01*
X-7402728Y2880410D01*
X-7405166Y2870352D01*
X-7405979Y2860040D01*
X-7405166Y2849727D01*
X-7402728Y2839669D01*
X-7398766Y2830118D01*
X-7393381Y2821330D01*
X-7386421Y2813151D01*
X-7176922Y2603652D01*
X-7168743Y2596692D01*
X-7159955Y2591308D01*
X-7150404Y2587345D01*
X-7140346Y2584907D01*
X-7129627Y2584094D01*
X-6400393Y2584094D01*
X-6389674Y2584907D01*
X-6379616Y2587345D01*
X-6370066Y2591308D01*
X-6361277Y2596692D01*
X-6353098Y2603652D01*
X-5883351Y3073400D01*
X-5880049Y3075635D01*
X-5876137Y3076397D01*
X-5872276Y3075635D01*
X-5868974Y3073400D01*
X-5866790Y3070098D01*
X-5865977Y3066237D01*
X-5865977Y3031490D01*
X-5866790Y3027629D01*
X-5868974Y3024327D01*
X-6484315Y2408986D01*
X-6487617Y2406802D01*
X-6491478Y2405989D01*
X-8028686Y2405989D01*
X-8032546Y2406802D01*
X-8035848Y2408986D01*
X-8431225Y2804363D01*
X-8433409Y2807665D01*
X-8434222Y2811526D01*
X-8434222Y2949549D01*
X-8435035Y2960268D01*
X-8437473Y2970326D01*
X-8441436Y2979877D01*
X-8446820Y2988665D01*
X-8453526Y2996539D01*
X-8461400Y3003245D01*
X-8470188Y3008630D01*
X-8479739Y3012592D01*
X-8489797Y3015030D01*
X-8500110Y3015843D01*
X-8510422Y3015030D01*
X-8520480Y3012592D01*
X-8530031Y3008630D01*
X-8538819Y3003245D01*
X-8546693Y2996539D01*
X-8553399Y2988665D01*
X-8558784Y2979877D01*
X-8562746Y2970326D01*
X-8565184Y2960268D01*
X-8565997Y2949549D01*
X-8565997Y2780436D01*
X-8565184Y2769717D01*
X-8562746Y2759659D01*
X-8558784Y2750108D01*
X-8553399Y2741320D01*
X-8546439Y2733141D01*
X-8107070Y2293772D01*
X-8098891Y2286812D01*
X-8090103Y2281428D01*
X-8080552Y2277465D01*
X-8070494Y2275027D01*
X-8059775Y2274214D01*
X-6460388Y2274214D01*
X-6449669Y2275027D01*
X-6439611Y2277465D01*
X-6430060Y2281428D01*
X-6421272Y2286812D01*
X-6413093Y2293772D01*
X-5753760Y2953105D01*
X-5746800Y2961284D01*
X-5741416Y2970072D01*
X-5737453Y2979623D01*
X-5734913Y2990138D01*
X-5732932Y2994202D01*
X-5729427Y2996946D01*
X-5725007Y2997962D01*
X-5720638Y2996946D01*
X-5717133Y2994202D01*
X-5715152Y2990138D01*
X-5712612Y2979623D01*
X-5708650Y2970072D01*
X-5703265Y2961284D01*
X-5696305Y2953105D01*
X-4796942Y2053742D01*
X-4788763Y2046782D01*
X-4785410Y2044750D01*
X-4782312Y2041702D01*
X-4780686Y2037638D01*
X-4780940Y2033320D01*
X-4783023Y2029460D01*
X-4786477Y2026818D01*
X-4790744Y2025904D01*
G37*

%LPC*%
G36*
X-9799980Y2274112D02*
G01*
X-9784791Y2275027D01*
X-9769856Y2277770D01*
X-9755327Y2282291D01*
X-9741458Y2288540D01*
X-9728454Y2296414D01*
X-9716516Y2305761D01*
X-9705746Y2316530D01*
X-9696399Y2328468D01*
X-9688525Y2341473D01*
X-9682276Y2355342D01*
X-9677755Y2369870D01*
X-9675012Y2384806D01*
X-9674098Y2399995D01*
X-9675012Y2415184D01*
X-9677755Y2430119D01*
X-9682276Y2444648D01*
X-9688525Y2458516D01*
X-9696399Y2471521D01*
X-9705746Y2483459D01*
X-9716516Y2494229D01*
X-9728454Y2503576D01*
X-9741458Y2511450D01*
X-9755327Y2517698D01*
X-9769856Y2522220D01*
X-9784791Y2524963D01*
X-9799980Y2525877D01*
X-9815169Y2524963D01*
X-9830104Y2522220D01*
X-9844633Y2517698D01*
X-9858502Y2511450D01*
X-9871506Y2503576D01*
X-9883444Y2494229D01*
X-9894214Y2483459D01*
X-9903561Y2471521D01*
X-9911435Y2458516D01*
X-9917684Y2444648D01*
X-9922205Y2430119D01*
X-9924948Y2415184D01*
X-9925862Y2399995D01*
X-9924948Y2384806D01*
X-9922205Y2369870D01*
X-9917684Y2355342D01*
X-9911435Y2341473D01*
X-9903561Y2328468D01*
X-9894214Y2316530D01*
X-9883444Y2305761D01*
X-9871506Y2296414D01*
X-9858502Y2288540D01*
X-9844633Y2282291D01*
X-9830104Y2277770D01*
X-9815169Y2275027D01*
G37*
G36*
X-7558278Y2437434D02*
G01*
X-7530744Y2437434D01*
X-7530744Y2485339D01*
X-7584744Y2485339D01*
X-7584744Y2463952D01*
X-7584033Y2457602D01*
X-7582103Y2452166D01*
X-7579055Y2447239D01*
X-7574940Y2443175D01*
X-7570063Y2440076D01*
X-7564577Y2438146D01*
G37*
G36*
X-7449210Y2437434D02*
G01*
X-7421727Y2437434D01*
X-7415377Y2438146D01*
X-7409942Y2440076D01*
X-7405014Y2443175D01*
X-7400950Y2447239D01*
X-7397851Y2452166D01*
X-7395921Y2457602D01*
X-7395209Y2463952D01*
X-7395209Y2485339D01*
X-7449210Y2485339D01*
G37*
G36*
X-7449210Y2554630D02*
G01*
X-7395209Y2554630D01*
X-7395209Y2576068D01*
X-7395921Y2582367D01*
X-7397851Y2587853D01*
X-7400950Y2592730D01*
X-7405014Y2596845D01*
X-7409942Y2599893D01*
X-7415377Y2601823D01*
X-7421727Y2602534D01*
X-7449210Y2602534D01*
G37*
G36*
X-7584744Y2554630D02*
G01*
X-7530744Y2554630D01*
X-7530744Y2602534D01*
X-7558278Y2602534D01*
X-7564577Y2601823D01*
X-7570063Y2599893D01*
X-7574940Y2596845D01*
X-7579055Y2592730D01*
X-7582103Y2587853D01*
X-7584033Y2582367D01*
X-7584744Y2576068D01*
G37*
G36*
X-9801352Y3661410D02*
G01*
X-9400540Y3661410D01*
X-9392513Y3662222D01*
X-9385300Y3664407D01*
X-9378594Y3667963D01*
X-9372396Y3673094D01*
X-9148826Y3896614D01*
X-9146235Y3898493D01*
X-9140190Y3901541D01*
X-9132417Y3907282D01*
X-9125712Y3914241D01*
X-9120327Y3922268D01*
X-9116364Y3931056D01*
X-9113926Y3940352D01*
X-9113113Y3949954D01*
X-9113926Y3959606D01*
X-9116364Y3968902D01*
X-9120327Y3977690D01*
X-9125712Y3985717D01*
X-9132417Y3992676D01*
X-9140190Y3998417D01*
X-9148775Y4002735D01*
X-9158020Y4005579D01*
X-9167571Y4006799D01*
X-9177223Y4006392D01*
X-9186621Y4004360D01*
X-9195612Y4000754D01*
X-9203791Y3995724D01*
X-9211056Y3989324D01*
X-9217101Y3981805D01*
X-9221825Y3973423D01*
X-9225026Y3964330D01*
X-9226651Y3954779D01*
X-9226651Y3945178D01*
X-9225026Y3935679D01*
X-9224975Y3932478D01*
X-9225991Y3929379D01*
X-9227870Y3926789D01*
X-9413036Y3741623D01*
X-9416338Y3739387D01*
X-9420250Y3738626D01*
X-9782505Y3738626D01*
X-9786264Y3739337D01*
X-9789464Y3741369D01*
X-9858095Y3806139D01*
X-9860483Y3809492D01*
X-9861296Y3813505D01*
X-9861296Y4182262D01*
X-9860686Y4185716D01*
X-9858959Y4188764D01*
X-9843211Y4207662D01*
X-9839706Y4210354D01*
X-9835388Y4211320D01*
X-9795662Y4211320D01*
X-9792055Y4210659D01*
X-9788956Y4208780D01*
X-9783775Y4204258D01*
X-9775596Y4199178D01*
X-9766604Y4195622D01*
X-9757206Y4193590D01*
X-9747554Y4193133D01*
X-9738004Y4194403D01*
X-9728758Y4197197D01*
X-9720173Y4201566D01*
X-9712401Y4207306D01*
X-9705695Y4214266D01*
X-9700310Y4222242D01*
X-9696348Y4231030D01*
X-9693910Y4240377D01*
X-9693097Y4249978D01*
X-9693910Y4259580D01*
X-9696348Y4268927D01*
X-9700310Y4277715D01*
X-9705695Y4285691D01*
X-9712401Y4292650D01*
X-9720173Y4298391D01*
X-9728758Y4302760D01*
X-9738004Y4305554D01*
X-9747554Y4306824D01*
X-9757206Y4306366D01*
X-9766604Y4304334D01*
X-9775596Y4300778D01*
X-9783775Y4295698D01*
X-9789058Y4291076D01*
X-9792157Y4289196D01*
X-9795764Y4288536D01*
X-9857994Y4288536D01*
X-9861702Y4288383D01*
X-9865817Y4287774D01*
X-9869170Y4286961D01*
X-9873030Y4285589D01*
X-9876180Y4284116D01*
X-9879736Y4281982D01*
X-9882479Y4279950D01*
X-9885578Y4277207D01*
X-9888067Y4274464D01*
X-9929418Y4224782D01*
X-9932009Y4221327D01*
X-9933787Y4218330D01*
X-9935565Y4214622D01*
X-9936734Y4211370D01*
X-9937750Y4207408D01*
X-9938258Y4203954D01*
X-9938512Y4199636D01*
X-9938512Y3792524D01*
X-9937496Y3783837D01*
X-9935057Y3776675D01*
X-9931298Y3770122D01*
X-9926015Y3764026D01*
X-9828631Y3672230D01*
X-9823348Y3668014D01*
X-9816592Y3664407D01*
X-9809378Y3662222D01*
G37*
G36*
X-10130586Y3892092D02*
G01*
X-10051338Y3892092D01*
X-10039654Y3892956D01*
X-10028631Y3895496D01*
X-10018064Y3899611D01*
X-10008260Y3905300D01*
X-9999370Y3912362D01*
X-9991648Y3920693D01*
X-9985248Y3930040D01*
X-9980371Y3940251D01*
X-9977018Y3951122D01*
X-9975291Y3962298D01*
X-9975291Y3973677D01*
X-9977018Y3984853D01*
X-9980371Y3995724D01*
X-9985248Y4005935D01*
X-9991648Y4015282D01*
X-9999370Y4023614D01*
X-10008260Y4030675D01*
X-10018064Y4036364D01*
X-10028631Y4040479D01*
X-10039654Y4043019D01*
X-10051338Y4043883D01*
X-10130586Y4043883D01*
X-10142270Y4043019D01*
X-10153345Y4040479D01*
X-10163911Y4036364D01*
X-10173716Y4030675D01*
X-10182606Y4023614D01*
X-10190327Y4015282D01*
X-10196677Y4005935D01*
X-10201605Y3995724D01*
X-10204958Y3984853D01*
X-10206634Y3973677D01*
X-10206634Y3962298D01*
X-10204958Y3951122D01*
X-10201605Y3940251D01*
X-10196677Y3930040D01*
X-10190327Y3920693D01*
X-10182606Y3912362D01*
X-10173716Y3905300D01*
X-10163911Y3899611D01*
X-10153345Y3895496D01*
X-10142270Y3892956D01*
G37*
G36*
X-9730587Y3892092D02*
G01*
X-9621367Y3892092D01*
X-9609683Y3892956D01*
X-9598609Y3895496D01*
X-9588042Y3899611D01*
X-9578238Y3905300D01*
X-9569348Y3912362D01*
X-9561677Y3920693D01*
X-9555276Y3930040D01*
X-9550349Y3940251D01*
X-9546996Y3951122D01*
X-9545320Y3962349D01*
X-9545320Y3973677D01*
X-9546996Y3984904D01*
X-9550349Y3995724D01*
X-9555276Y4005935D01*
X-9561677Y4015282D01*
X-9569348Y4023614D01*
X-9578238Y4030675D01*
X-9588042Y4036364D01*
X-9598609Y4040479D01*
X-9609683Y4043019D01*
X-9621367Y4043883D01*
X-9685629Y4043883D01*
X-9689744Y4044797D01*
X-9693198Y4047236D01*
X-9695281Y4050893D01*
X-9695738Y4055059D01*
X-9694468Y4059072D01*
X-9691674Y4062222D01*
X-9686391Y4066133D01*
X-9679533Y4073296D01*
X-9673996Y4081526D01*
X-9669932Y4090517D01*
X-9667392Y4100118D01*
X-9666579Y4109974D01*
X-9667392Y4119829D01*
X-9669932Y4129430D01*
X-9673996Y4138422D01*
X-9679533Y4146651D01*
X-9686391Y4153814D01*
X-9694367Y4159656D01*
X-9703206Y4164126D01*
X-9712655Y4167022D01*
X-9722459Y4168292D01*
X-9732365Y4167886D01*
X-9742017Y4165803D01*
X-9751212Y4162094D01*
X-9759645Y4156913D01*
X-9767112Y4150360D01*
X-9773310Y4142638D01*
X-9778136Y4134002D01*
X-9781438Y4124706D01*
X-9783114Y4114901D01*
X-9783114Y4105046D01*
X-9781438Y4095242D01*
X-9778136Y4085945D01*
X-9773310Y4077309D01*
X-9767112Y4069587D01*
X-9759645Y4063034D01*
X-9752177Y4058462D01*
X-9748977Y4055313D01*
X-9747453Y4051147D01*
X-9747808Y4046677D01*
X-9750094Y4042816D01*
X-9753803Y4040327D01*
X-9763912Y4036364D01*
X-9773716Y4030675D01*
X-9782606Y4023614D01*
X-9790328Y4015282D01*
X-9796678Y4005935D01*
X-9801606Y3995724D01*
X-9804958Y3984904D01*
X-9806635Y3973677D01*
X-9806635Y3962349D01*
X-9804958Y3951122D01*
X-9801606Y3940251D01*
X-9796678Y3930040D01*
X-9790328Y3920693D01*
X-9782606Y3912362D01*
X-9773716Y3905300D01*
X-9763912Y3899611D01*
X-9753346Y3895496D01*
X-9742271Y3892956D01*
G37*
G36*
X-9449460Y4111396D02*
G01*
X-9210497Y4111396D01*
X-9202470Y4112158D01*
X-9195206Y4114342D01*
X-9188551Y4117949D01*
X-9182303Y4123029D01*
X-9146946Y4158386D01*
X-9143644Y4160621D01*
X-9139783Y4161383D01*
X-9055709Y4161383D01*
X-9052153Y4160723D01*
X-9049004Y4158843D01*
X-9043822Y4154271D01*
X-9035592Y4149191D01*
X-9026652Y4145635D01*
X-9017203Y4143603D01*
X-9007551Y4143146D01*
X-8998000Y4144416D01*
X-8988806Y4147210D01*
X-8980170Y4151579D01*
X-8972397Y4157319D01*
X-8965742Y4164279D01*
X-8960358Y4172254D01*
X-8956344Y4181043D01*
X-8953957Y4190390D01*
X-8953093Y4199991D01*
X-8953957Y4209592D01*
X-8956344Y4218940D01*
X-8960358Y4227728D01*
X-8965742Y4235704D01*
X-8972397Y4242663D01*
X-8980170Y4248404D01*
X-8988806Y4252772D01*
X-8998000Y4255566D01*
X-9007551Y4256836D01*
X-9017203Y4256379D01*
X-9026652Y4254347D01*
X-9035592Y4250791D01*
X-9043822Y4245711D01*
X-9049004Y4241139D01*
X-9052153Y4239260D01*
X-9055709Y4238599D01*
X-9159494Y4238599D01*
X-9167520Y4237786D01*
X-9174734Y4235602D01*
X-9181388Y4232046D01*
X-9187637Y4226915D01*
X-9222994Y4191558D01*
X-9226296Y4189374D01*
X-9230156Y4188612D01*
X-9429800Y4188612D01*
X-9433661Y4189374D01*
X-9436963Y4191558D01*
X-9588398Y4342993D01*
X-9590582Y4346295D01*
X-9591395Y4350207D01*
X-9591395Y4359808D01*
X-9590582Y4363669D01*
X-9588398Y4366971D01*
X-9573564Y4381804D01*
X-9570008Y4384141D01*
X-9565792Y4384802D01*
X-9561677Y4383684D01*
X-9558426Y4380992D01*
X-9556546Y4377182D01*
X-9556343Y4372914D01*
X-9556648Y4371187D01*
X-9556648Y4361535D01*
X-9555022Y4352036D01*
X-9551822Y4342942D01*
X-9547098Y4334510D01*
X-9541052Y4326991D01*
X-9533788Y4320641D01*
X-9525609Y4315561D01*
X-9516618Y4312005D01*
X-9507220Y4309973D01*
X-9497568Y4309516D01*
X-9488017Y4310786D01*
X-9478772Y4313580D01*
X-9470186Y4317949D01*
X-9462414Y4323689D01*
X-9455708Y4330649D01*
X-9450324Y4338624D01*
X-9446361Y4347413D01*
X-9443923Y4356760D01*
X-9443212Y4365142D01*
X-9442297Y4368546D01*
X-9440265Y4371492D01*
X-9353346Y4458411D01*
X-9350044Y4460595D01*
X-9346133Y4461357D01*
X-9047784Y4461357D01*
X-9039758Y4462170D01*
X-9032544Y4464354D01*
X-9025839Y4467910D01*
X-9019641Y4473041D01*
X-9018016Y4474667D01*
X-9014510Y4476902D01*
X-9010396Y4477613D01*
X-9000845Y4478832D01*
X-8991650Y4481677D01*
X-8983014Y4485995D01*
X-8975242Y4491736D01*
X-8968587Y4498695D01*
X-8963202Y4506722D01*
X-8959189Y4515510D01*
X-8956802Y4524806D01*
X-8955938Y4534408D01*
X-8956802Y4544060D01*
X-8959189Y4553356D01*
X-8963202Y4562144D01*
X-8968587Y4570171D01*
X-8975242Y4577130D01*
X-8983014Y4582871D01*
X-8991650Y4587189D01*
X-9000845Y4590034D01*
X-9010396Y4591253D01*
X-9020048Y4590846D01*
X-9029496Y4588814D01*
X-9038437Y4585208D01*
X-9046667Y4580178D01*
X-9053880Y4573778D01*
X-9059976Y4566259D01*
X-9064650Y4557877D01*
X-9067850Y4548784D01*
X-9069374Y4543704D01*
X-9071610Y4541012D01*
X-9074708Y4539234D01*
X-9078163Y4538573D01*
X-9365843Y4538573D01*
X-9373870Y4537811D01*
X-9381083Y4535627D01*
X-9387789Y4532071D01*
X-9393986Y4526940D01*
X-9416440Y4504537D01*
X-9419844Y4502251D01*
X-9423908Y4501540D01*
X-9427870Y4502505D01*
X-9431172Y4504944D01*
X-9433255Y4508500D01*
X-9433712Y4512564D01*
X-9433102Y4519980D01*
X-9433915Y4529582D01*
X-9436354Y4538929D01*
X-9440316Y4547717D01*
X-9445701Y4555693D01*
X-9452406Y4562652D01*
X-9460179Y4568393D01*
X-9468764Y4572762D01*
X-9478010Y4575556D01*
X-9487560Y4576826D01*
X-9497212Y4576368D01*
X-9506610Y4574336D01*
X-9515602Y4570780D01*
X-9523780Y4565700D01*
X-9531045Y4559350D01*
X-9537090Y4551832D01*
X-9541814Y4543399D01*
X-9545015Y4534306D01*
X-9546640Y4524806D01*
X-9546640Y4522165D01*
X-9547402Y4518253D01*
X-9549638Y4514951D01*
X-9656927Y4407662D01*
X-9662058Y4401413D01*
X-9665614Y4394758D01*
X-9667798Y4387494D01*
X-9668611Y4379518D01*
X-9668611Y4330496D01*
X-9667798Y4322470D01*
X-9665614Y4315256D01*
X-9662058Y4308551D01*
X-9656927Y4302353D01*
X-9477654Y4123029D01*
X-9471406Y4117949D01*
X-9464751Y4114342D01*
X-9457486Y4112158D01*
G37*
G36*
X-9723475Y4631639D02*
G01*
X-9713671Y4632909D01*
X-9704222Y4635804D01*
X-9695383Y4640275D01*
X-9687407Y4646117D01*
X-9680549Y4653280D01*
X-9675012Y4661509D01*
X-9670948Y4670501D01*
X-9668408Y4680102D01*
X-9667595Y4689957D01*
X-9668408Y4699812D01*
X-9670948Y4709414D01*
X-9675012Y4718405D01*
X-9680549Y4726635D01*
X-9687407Y4733798D01*
X-9692792Y4737760D01*
X-9695586Y4740910D01*
X-9696856Y4744923D01*
X-9696399Y4749088D01*
X-9694265Y4752746D01*
X-9690862Y4755235D01*
X-9686747Y4756099D01*
X-9621367Y4756099D01*
X-9609683Y4756962D01*
X-9598609Y4759502D01*
X-9588042Y4763617D01*
X-9578238Y4769307D01*
X-9569348Y4776368D01*
X-9561677Y4784699D01*
X-9555276Y4794046D01*
X-9550349Y4804257D01*
X-9546996Y4815128D01*
X-9545320Y4826304D01*
X-9545320Y4837684D01*
X-9546996Y4848860D01*
X-9550349Y4859731D01*
X-9555276Y4869942D01*
X-9561677Y4879289D01*
X-9569348Y4887620D01*
X-9578238Y4894681D01*
X-9588042Y4900371D01*
X-9598609Y4904486D01*
X-9609683Y4907026D01*
X-9621367Y4907889D01*
X-9730587Y4907889D01*
X-9742271Y4907026D01*
X-9753346Y4904486D01*
X-9763912Y4900371D01*
X-9773716Y4894681D01*
X-9782606Y4887620D01*
X-9790328Y4879289D01*
X-9796678Y4869942D01*
X-9801606Y4859731D01*
X-9804958Y4848860D01*
X-9806635Y4837684D01*
X-9806635Y4826304D01*
X-9804958Y4815128D01*
X-9801606Y4804257D01*
X-9796678Y4794046D01*
X-9790328Y4784699D01*
X-9782606Y4776368D01*
X-9773716Y4769307D01*
X-9763912Y4763617D01*
X-9754362Y4759858D01*
X-9750653Y4757369D01*
X-9748367Y4753508D01*
X-9748012Y4749088D01*
X-9749536Y4744872D01*
X-9752736Y4741773D01*
X-9760661Y4736896D01*
X-9768128Y4730343D01*
X-9774326Y4722622D01*
X-9779152Y4713986D01*
X-9782454Y4704689D01*
X-9784130Y4694885D01*
X-9784130Y4685030D01*
X-9782454Y4675225D01*
X-9779152Y4665929D01*
X-9774326Y4657293D01*
X-9768128Y4649571D01*
X-9760661Y4643018D01*
X-9752228Y4637836D01*
X-9743033Y4634128D01*
X-9733381Y4632045D01*
G37*
G36*
X-10130586Y4756099D02*
G01*
X-10051338Y4756099D01*
X-10039654Y4756962D01*
X-10028631Y4759502D01*
X-10018064Y4763617D01*
X-10008260Y4769307D01*
X-9999370Y4776368D01*
X-9991648Y4784699D01*
X-9985248Y4794046D01*
X-9980371Y4804257D01*
X-9977018Y4815128D01*
X-9975291Y4826304D01*
X-9975291Y4837684D01*
X-9977018Y4848860D01*
X-9980371Y4859731D01*
X-9985248Y4869942D01*
X-9991648Y4879289D01*
X-9999370Y4887620D01*
X-10008260Y4894681D01*
X-10018064Y4900371D01*
X-10028631Y4904486D01*
X-10039654Y4907026D01*
X-10051338Y4907889D01*
X-10130586Y4907889D01*
X-10142270Y4907026D01*
X-10153345Y4904486D01*
X-10163911Y4900371D01*
X-10173716Y4894681D01*
X-10182606Y4887620D01*
X-10190327Y4879289D01*
X-10196677Y4869942D01*
X-10201605Y4859731D01*
X-10204958Y4848860D01*
X-10206634Y4837684D01*
X-10206634Y4826304D01*
X-10204958Y4815128D01*
X-10201605Y4804257D01*
X-10196677Y4794046D01*
X-10190327Y4784699D01*
X-10182606Y4776368D01*
X-10173716Y4769307D01*
X-10163911Y4763617D01*
X-10153345Y4759502D01*
X-10142270Y4756962D01*
G37*
G36*
X-9799980Y4974082D02*
G01*
X-9784791Y4974996D01*
X-9769856Y4977739D01*
X-9755327Y4982260D01*
X-9741458Y4988509D01*
X-9728454Y4996383D01*
X-9716516Y5005781D01*
X-9705746Y5016500D01*
X-9696399Y5028488D01*
X-9688525Y5041493D01*
X-9682276Y5055362D01*
X-9677755Y5069840D01*
X-9675012Y5084826D01*
X-9674098Y5099964D01*
X-9675012Y5115153D01*
X-9677755Y5130139D01*
X-9682276Y5144617D01*
X-9688525Y5158486D01*
X-9696399Y5171490D01*
X-9705746Y5183479D01*
X-9716516Y5194198D01*
X-9728454Y5203596D01*
X-9741458Y5211470D01*
X-9755327Y5217718D01*
X-9769856Y5222240D01*
X-9784791Y5224983D01*
X-9799980Y5225897D01*
X-9815169Y5224983D01*
X-9830104Y5222240D01*
X-9844633Y5217718D01*
X-9858502Y5211470D01*
X-9871506Y5203596D01*
X-9883444Y5194198D01*
X-9894214Y5183479D01*
X-9903561Y5171490D01*
X-9911435Y5158486D01*
X-9917684Y5144617D01*
X-9922205Y5130139D01*
X-9924948Y5115153D01*
X-9925862Y5099964D01*
X-9924948Y5084826D01*
X-9922205Y5069840D01*
X-9917684Y5055362D01*
X-9911435Y5041493D01*
X-9903561Y5028488D01*
X-9894214Y5016500D01*
X-9883444Y5005781D01*
X-9871506Y4996383D01*
X-9858502Y4988509D01*
X-9844633Y4982260D01*
X-9830104Y4977739D01*
X-9815169Y4974996D01*
G37*

%LPD*%
G36*
X-9049969Y5499963D02*
G01*
X-9249968Y5300014D01*
X-9249968Y5150002D01*
X-9049969Y5150002D01*
X-9049969Y5199989D01*
X-6799986Y5199989D01*
X-6799986Y5350002D01*
X-6837172Y5406085D01*
X-6899960Y5499963D01*
G37*
G36*
X-6150000Y5449976D02*
G01*
X-6350000Y5249976D01*
X-6350000Y4599990D01*
X-6699961Y4599990D01*
X-6699961Y4049979D01*
X-6299962Y4049979D01*
X-6100013Y4199991D01*
X-6100013Y5049977D01*
X-6049975Y5099964D01*
X-3699967Y5099964D01*
X-3699967Y5449976D01*
G37*
G36*
X-5350002Y5449976D02*
G01*
X-5350002Y5249976D01*
X-4899964Y4799990D01*
X-2950006Y4799990D01*
X-2950006Y5449976D01*
G37*
G36*
X-3550005Y4399991D02*
G01*
X-3550005Y3900017D01*
X-2799994Y3900017D01*
X-2350008Y3449980D01*
X-2350008Y2350008D01*
X-1599996Y2350008D01*
X-1599996Y3449980D01*
X-2550007Y4399991D01*
G37*
D10*
X-7499985Y3299993D02*
G01*
X-7438450Y3238459D01*
X-7181509Y3238459D01*
X-7119975Y3299993D01*
X-6789165Y3500653D02*
G01*
X-6879320Y3500653D01*
X-6879983Y3499990D01*
X-7069985Y3499990D01*
X-7119975Y3450003D01*
X-7119975Y3299990D01*
X-7480045Y3459987D02*
G01*
X-6990079Y3949954D01*
X-5849873Y3949954D01*
X-5549900Y4249928D01*
X-5299963Y4249928D01*
X-5050028Y3999992D01*
X-5050028Y3649979D01*
X-4923028Y3522979D01*
X-4669028Y3522979D01*
X-7340092Y2860042D02*
G01*
X-7130031Y2649981D01*
X-6399987Y2649981D01*
X-5899988Y3149980D01*
X-7119975Y3099968D02*
G01*
X-7119985Y3099978D01*
X-7499982Y3099978D01*
X-7499982Y3099978D02*
G01*
X-7499985Y3099976D01*
X-7499985Y2899994D01*
X-7499982Y2899996D02*
G01*
X-7499982Y2730014D01*
X-7489977Y2720009D01*
X-6899249Y3271494D02*
G01*
X-6809996Y3182241D01*
X-6809996Y2910080D01*
X-6917181Y2829052D02*
G01*
X-6859270Y2771139D01*
X-6589013Y2771139D01*
X-6060186Y3299968D01*
X-5899912Y3299968D01*
X-5800089Y3199892D01*
X-5800089Y2999994D01*
X-6459981Y2340102D01*
X-8060181Y2340102D01*
X-8500110Y2780029D01*
X-8500110Y2949955D01*
D11*
X550001Y4449991D02*
G01*
X550001Y4699975D01*
X399999Y4849977D01*
X2399995Y3191967D02*
G01*
X1299994Y4291967D01*
X1299994Y4699993D01*
X-450087Y3595878D02*
G01*
X-450087Y3450081D01*
X0Y2999994D01*
X0Y2299970D01*
D12*
X-9209981Y4149991D02*
G01*
X-9159981Y4199991D01*
X-9009992Y4199991D01*
X-9489981Y4519990D02*
G01*
X-9629980Y4379993D01*
X-9629980Y4329993D01*
X-9449978Y4149991D01*
X-9209981Y4149991D01*
X-9750044Y4249928D02*
G01*
X-9858247Y4249928D01*
X-9899904Y4199889D01*
X-9899904Y3792473D01*
X-9801860Y3700018D01*
X-9400031Y3700018D01*
X-9169908Y3930142D01*
X-9169908Y3949954D01*
X-9749977Y4427321D02*
G01*
X-9749977Y4449991D01*
X-9449991Y4749980D01*
X-9199984Y4749980D01*
X-9366349Y4499990D02*
G01*
X-9047276Y4499990D01*
X-9012834Y4534433D01*
X-9499978Y4366364D02*
G01*
X-9366349Y4499990D01*
D10*
X-7320026Y3340100D02*
G01*
X-7320026Y3430015D01*
X-7050023Y3700018D01*
X-5800089Y3700018D01*
X-5649976Y3549904D01*
X-5649976Y2999994D01*
X-4750054Y2100071D01*
X-1549907Y2100071D01*
X-949960Y2700020D01*
X-949960Y4050029D01*
X-249936Y4750054D01*
X-249936Y4999989D01*
D13*
X-450087Y4899913D02*
G01*
X-1150112Y4199889D01*
X-1150112Y2700020D01*
X-1599945Y2249931D01*
X-3749992Y2249995D01*
D14*
G01*
X-7499858Y3299891D03*
D15*
G01*
X-7499858Y3099889D03*
D17*
G01*
X-7119873Y3299891D03*
D18*
G01*
X-7119873Y3099887D03*
D17*
G01*
X-7489952Y2720009D03*
D18*
G01*
X-7489952Y2520005D03*
G36*
X-9249968Y5199989D02*
G01*
X-9199956Y5199989D01*
X-9199956Y4799990D01*
X-9249968Y4799990D01*
G37*
G36*
X-9149969Y5199989D02*
G01*
X-9099956Y5199989D01*
X-9099956Y4799990D01*
X-9149969Y4799990D01*
G37*
G36*
X-9049969Y5249976D02*
G01*
X-8999956Y5249976D01*
X-8999956Y4799964D01*
X-9049969Y4799964D01*
G37*
G36*
X-8949969Y5249976D02*
G01*
X-8899956Y5249976D01*
X-8899956Y4799964D01*
X-8949969Y4799964D01*
G37*
G36*
X-8849969Y5249976D02*
G01*
X-8799956Y5249976D01*
X-8799956Y4799964D01*
X-8849969Y4799964D01*
G37*
G36*
X-8749969Y5249976D02*
G01*
X-8699957Y5249976D01*
X-8699957Y4799964D01*
X-8749969Y4799964D01*
G37*
G36*
X-8649970Y5249976D02*
G01*
X-8599957Y5249976D01*
X-8599957Y4799964D01*
X-8649970Y4799964D01*
G37*
G36*
X-8549970Y5249976D02*
G01*
X-8499957Y5249976D01*
X-8499957Y3849979D01*
X-8549970Y3849979D01*
G37*
G36*
X-8449970Y5249976D02*
G01*
X-8399957Y5249976D01*
X-8399957Y3849979D01*
X-8449970Y3849979D01*
G37*
G36*
X-8349970Y5249976D02*
G01*
X-8299958Y5249976D01*
X-8299958Y3849979D01*
X-8349970Y3849979D01*
G37*
G36*
X-8249970Y5249976D02*
G01*
X-8199958Y5249976D01*
X-8199958Y3849979D01*
X-8249970Y3849979D01*
G37*
G36*
X-8149970Y5249976D02*
G01*
X-8099958Y5249976D01*
X-8099958Y3849979D01*
X-8149970Y3849979D01*
G37*
G36*
X-8049971Y5249976D02*
G01*
X-7999958Y5249976D01*
X-7999958Y3849979D01*
X-8049971Y3849979D01*
G37*
G36*
X-7949971Y5249976D02*
G01*
X-7899958Y5249976D01*
X-7899958Y3849979D01*
X-7949971Y3849979D01*
G37*
G36*
X-7849971Y5249976D02*
G01*
X-7799959Y5249976D01*
X-7799959Y3849979D01*
X-7849971Y3849979D01*
G37*
G36*
X-7749971Y5249976D02*
G01*
X-7699959Y5249976D01*
X-7699959Y3849979D01*
X-7749971Y3849979D01*
G37*
G36*
X-7649971Y5249976D02*
G01*
X-7599959Y5249976D01*
X-7599959Y3849979D01*
X-7649971Y3849979D01*
G37*
G36*
X-7549972Y5249976D02*
G01*
X-7499959Y5249976D01*
X-7499959Y3849979D01*
X-7549972Y3849979D01*
G37*
G36*
X-7449972Y5249976D02*
G01*
X-7399959Y5249976D01*
X-7399959Y3849979D01*
X-7449972Y3849979D01*
G37*
G36*
X-7349972Y5249976D02*
G01*
X-7299960Y5249976D01*
X-7299960Y3849979D01*
X-7349972Y3849979D01*
G37*
G36*
X-7249972Y5249976D02*
G01*
X-7199960Y5249976D01*
X-7199960Y3899966D01*
X-7249972Y3899966D01*
G37*
G36*
X-7149972Y5249976D02*
G01*
X-7099960Y5249976D01*
X-7099960Y4049979D01*
X-7149972Y4049979D01*
G37*
G36*
X-7049973Y5249976D02*
G01*
X-6999960Y5249976D01*
X-6999960Y4199966D01*
X-7049973Y4199966D01*
G37*
G36*
X-6949973Y5249976D02*
G01*
X-6899960Y5249976D01*
X-6899960Y4199966D01*
X-6949973Y4199966D01*
G37*
G36*
X-6849973Y5249976D02*
G01*
X-6799961Y5249976D01*
X-6799961Y4199966D01*
X-6849973Y4199966D01*
G37*
G36*
X-6049975Y5149977D02*
G01*
X-5999962Y5149977D01*
X-5999962Y4199966D01*
X-6049975Y4199966D01*
G37*
G36*
X-5949975Y5149977D02*
G01*
X-5899962Y5149977D01*
X-5899962Y4199966D01*
X-5949975Y4199966D01*
G37*
G36*
X-5849975Y5149977D02*
G01*
X-5799962Y5149977D01*
X-5799962Y4199966D01*
X-5849975Y4199966D01*
G37*
G36*
X-5749975Y5149977D02*
G01*
X-5699963Y5149977D01*
X-5699963Y4299965D01*
X-5749975Y4299965D01*
G37*
G36*
X-5649976Y5149977D02*
G01*
X-5599963Y5149977D01*
X-5599963Y4399965D01*
X-5649976Y4399965D01*
G37*
G36*
X-5549976Y5149977D02*
G01*
X-5499963Y5149977D01*
X-5499963Y4399965D01*
X-5549976Y4399965D01*
G37*
G36*
X-5449976Y5149977D02*
G01*
X-5399963Y5149977D01*
X-5399963Y4399965D01*
X-5449976Y4399965D01*
G37*
G36*
X-5349976Y5149977D02*
G01*
X-5299963Y5149977D01*
X-5299963Y4399965D01*
X-5349976Y4399965D01*
G37*
G36*
X-5249976Y5149977D02*
G01*
X-5199964Y5149977D01*
X-5199964Y4399965D01*
X-5249976Y4399965D01*
G37*
G36*
X-5149977Y5099989D02*
G01*
X-5099964Y5099989D01*
X-5099964Y4299991D01*
X-5149977Y4299991D01*
G37*
G36*
X-5049977Y4999989D02*
G01*
X-4999964Y4999989D01*
X-4999964Y4199991D01*
X-5049977Y4199991D01*
G37*
G36*
X-4949977Y4849977D02*
G01*
X-4899964Y4849977D01*
X-4899964Y4199966D01*
X-4949977Y4199966D01*
G37*
G36*
X-4849977Y4849977D02*
G01*
X-4799964Y4849977D01*
X-4799964Y4199966D01*
X-4849977Y4199966D01*
G37*
G36*
X-4749977Y4849977D02*
G01*
X-4699965Y4849977D01*
X-4699965Y4199966D01*
X-4749977Y4199966D01*
G37*
G36*
X-4649978Y4849977D02*
G01*
X-4599965Y4849977D01*
X-4599965Y4199966D01*
X-4649978Y4199966D01*
G37*
G36*
X-4549978Y4849977D02*
G01*
X-4499965Y4849977D01*
X-4499965Y4199966D01*
X-4549978Y4199966D01*
G37*
G36*
X-4449978Y4849977D02*
G01*
X-4399965Y4849977D01*
X-4399965Y4199966D01*
X-4449978Y4199966D01*
G37*
G36*
X-4349978Y4849977D02*
G01*
X-4299965Y4849977D01*
X-4299965Y4199966D01*
X-4349978Y4199966D01*
G37*
G36*
X-4249978Y4849977D02*
G01*
X-4199966Y4849977D01*
X-4199966Y4199966D01*
X-4249978Y4199966D01*
G37*
G36*
X-4149979Y4849977D02*
G01*
X-4099966Y4849977D01*
X-4099966Y4199966D01*
X-4149979Y4199966D01*
G37*
G36*
X-4049979Y4849977D02*
G01*
X-3999966Y4849977D01*
X-3999966Y4199966D01*
X-4049979Y4199966D01*
G37*
G36*
X-3949979Y4849977D02*
G01*
X-3899966Y4849977D01*
X-3899966Y4199966D01*
X-3949979Y4199966D01*
G37*
G36*
X-3849979Y4849977D02*
G01*
X-3799967Y4849977D01*
X-3799967Y4199966D01*
X-3849979Y4199966D01*
G37*
G36*
X-3749979Y4849977D02*
G01*
X-3699967Y4849977D01*
X-3699967Y4199966D01*
X-3749979Y4199966D01*
G37*
G36*
X-4499990Y3849979D02*
G01*
X-2699994Y3849979D01*
X-2699994Y3799967D01*
X-4499990Y3799967D01*
G37*
G36*
X-4499990Y3949979D02*
G01*
X-3499993Y3949979D01*
X-3499993Y3899966D01*
X-4499990Y3899966D01*
G37*
G36*
X-4499990Y4049979D02*
G01*
X-3499993Y4049979D01*
X-3499993Y3999966D01*
X-4499990Y3999966D01*
G37*
G36*
X-4499990Y3749979D02*
G01*
X-2599994Y3749979D01*
X-2599994Y3699967D01*
X-4499990Y3699967D01*
G37*
G36*
X-4499990Y3649979D02*
G01*
X-2449982Y3649979D01*
X-2449982Y3599967D01*
X-4499990Y3599967D01*
G37*
G36*
X-4499990Y3549980D02*
G01*
X-2399995Y3549980D01*
X-2399995Y3499967D01*
X-4499990Y3499967D01*
G37*
G36*
X-4499990Y3449980D02*
G01*
X-2299995Y3449980D01*
X-2299995Y3399967D01*
X-4499990Y3399967D01*
G37*
G36*
X-4499990Y3349980D02*
G01*
X-2299995Y3349980D01*
X-2299995Y3299968D01*
X-4499990Y3299968D01*
G37*
G36*
X-4499990Y3249980D02*
G01*
X-2299995Y3249980D01*
X-2299995Y3199968D01*
X-4499990Y3199968D01*
G37*
G36*
X-4499990Y3149980D02*
G01*
X-2299995Y3149980D01*
X-2299995Y3099968D01*
X-4499990Y3099968D01*
G37*
G36*
X-4499990Y3049981D02*
G01*
X-2299995Y3049981D01*
X-2299995Y2999968D01*
X-4499990Y2999968D01*
G37*
G36*
X-4499990Y2949981D02*
G01*
X-2299995Y2949981D01*
X-2299995Y2899968D01*
X-4499990Y2899968D01*
G37*
G36*
X-4499990Y2849981D02*
G01*
X-2299995Y2849981D01*
X-2299995Y2799969D01*
X-4499990Y2799969D01*
G37*
G36*
X-4499990Y2749981D02*
G01*
X-2299995Y2749981D01*
X-2299995Y2699969D01*
X-4499990Y2699969D01*
G37*
G36*
X-4499990Y2649981D02*
G01*
X-2299995Y2649981D01*
X-2299995Y2599969D01*
X-4499990Y2599969D01*
G37*
G36*
X-4499990Y2549982D02*
G01*
X-2299995Y2549982D01*
X-2299995Y2499969D01*
X-4499990Y2499969D01*
G37*
G36*
X-4499990Y2449982D02*
G01*
X-2299995Y2449982D01*
X-2299995Y2399969D01*
X-4499990Y2399969D01*
G37*
G36*
X-2999994Y5449976D02*
G01*
X-2349982Y5449976D01*
X-2349982Y5099964D01*
X-2999994Y5099964D01*
G37*
D19*
G01*
X-5431028Y4030903D03*
G01*
X-5431028Y3776903D03*
G01*
X-4669028Y3776903D03*
G01*
X-4669028Y4030903D03*
G01*
X-5431028Y3522903D03*
G01*
X-5431028Y3268903D03*
G01*
X-4669028Y3522903D03*
G01*
X-4669028Y3268903D03*
D20*
G01*
X2399893Y4207916D03*
G01*
X2399893Y3191916D03*
G01*
X2399893Y3699916D03*
G01*
X-449961Y4103878D03*
G01*
X-449961Y3595878D03*
G01*
X-9799980Y5099989D03*
G01*
X2099995Y5100015D03*
G01*
X-9799954Y2399969D03*
G01*
X2100021Y2399969D03*
D21*
G01*
X-9675952Y4831969D03*
G01*
X-9675952Y3967962D03*
D22*
G01*
X-10090962Y4831969D03*
G01*
X-10090962Y3967962D03*
D11*
G01*
X-9099981Y5299989D03*
G01*
X-8999981Y5399989D03*
G01*
X-8899982Y5299989D03*
G01*
X-8799982Y5399989D03*
G01*
X-8699982Y5299989D03*
G01*
X-8599982Y5399989D03*
G01*
X-8499983Y5299989D03*
G01*
X-8399983Y5399989D03*
G01*
X-8299983Y5299989D03*
G01*
X-8199983Y5399989D03*
G01*
X-8099983Y5299989D03*
G01*
X-7999984Y5399989D03*
G01*
X-7899984Y5299989D03*
G01*
X-7799984Y5399989D03*
G01*
X-7699984Y5299989D03*
G01*
X-7599984Y5399989D03*
G01*
X-7499985Y5299989D03*
G01*
X-7399985Y5399989D03*
G01*
X-7299985Y5299989D03*
G01*
X-7199985Y5399989D03*
G01*
X-7099985Y5299989D03*
G01*
X-6999986Y5399989D03*
G01*
X-6899986Y5299989D03*
G01*
X-5749975Y5199989D03*
G01*
X-5999987Y5199989D03*
G01*
X-5899988Y5349976D03*
G01*
X-6099987Y5349976D03*
G01*
X-6249974Y5149977D03*
G01*
X-6199987Y4949977D03*
G01*
X-6249974Y4749977D03*
G01*
X-6199987Y4549978D03*
G01*
X-6249974Y4349978D03*
G01*
X-5599988Y5349976D03*
G01*
X-5449976Y5199989D03*
G01*
X-5299989Y5349976D03*
G01*
X-5149977Y5199989D03*
G01*
X-4999989Y5049977D03*
G01*
X-4849977Y4899990D03*
G01*
X-4999989Y5349976D03*
G01*
X-4849977Y5199989D03*
G01*
X-4699990Y5049977D03*
G01*
X-4549978Y4899990D03*
G01*
X-4699990Y5349976D03*
G01*
X-4549978Y5199989D03*
G01*
X-4399991Y5049977D03*
G01*
X-4249978Y4899990D03*
G01*
X-4399991Y5349976D03*
G01*
X-4249978Y5199989D03*
G01*
X-4099991Y5049977D03*
G01*
X-3949979Y4899990D03*
G01*
X-4099991Y5349976D03*
G01*
X-3949979Y5199989D03*
G01*
X-3799992Y5049977D03*
G01*
X-3799992Y5349976D03*
G01*
X-2799994Y4049979D03*
G01*
X-2599994Y3849979D03*
G01*
X-2399995Y3599992D03*
G01*
X-2149982Y3599992D03*
G01*
X-2349982Y3849979D03*
G01*
X-2549982Y4049979D03*
G01*
X-2299995Y4049979D03*
G01*
X-2549982Y4299991D03*
G01*
X-2099995Y3849979D03*
G01*
X-2499995Y5349976D03*
G01*
X-2649981Y5199989D03*
G01*
X-2799994Y5349976D03*
G01*
X-1899996Y3599992D03*
D23*
G01*
X-7499985Y2899994D03*
G01*
X-6789165Y3500653D03*
G01*
X-7319975Y3339998D03*
G01*
X-6899249Y3271494D03*
G01*
X-6809994Y2910001D03*
G01*
X-7340092Y2860039D03*
G01*
X-5899988Y3149980D03*
G01*
X-6917258Y2829153D03*
G01*
X-7480045Y3459987D03*
D11*
G01*
X-8999981Y5399989D03*
G01*
X-8899982Y5299989D03*
G01*
X-8799982Y5399989D03*
G01*
X-8699982Y5299989D03*
G01*
X-8599982Y5399989D03*
G01*
X-8499983Y5299989D03*
G01*
X-8399983Y5399989D03*
G01*
X-9099981Y5299989D03*
G01*
X-8299983Y5299989D03*
G01*
X-8199983Y5399989D03*
G01*
X-8099983Y5299989D03*
G01*
X-7999984Y5399989D03*
G01*
X-7899984Y5299989D03*
G01*
X-7799984Y5399989D03*
G01*
X-7699984Y5299989D03*
G01*
X-7599984Y5399989D03*
G01*
X-7499985Y5299989D03*
G01*
X-7399985Y5399989D03*
G01*
X-7299985Y5299989D03*
G01*
X-7199985Y5399989D03*
G01*
X-7099985Y5299989D03*
G01*
X-6999986Y5399989D03*
G01*
X-6899986Y5299989D03*
G01*
X-6199987Y4549978D03*
G01*
X-6249974Y4349978D03*
G01*
X-6249974Y4749977D03*
G01*
X-6199987Y4949977D03*
G01*
X-6249974Y5149977D03*
G01*
X-5999987Y5199989D03*
G01*
X-6099987Y5349976D03*
G01*
X-5899988Y5349976D03*
G01*
X-5749975Y5199989D03*
G01*
X-5599988Y5349976D03*
G01*
X-5449976Y5199989D03*
G01*
X-5299989Y5349976D03*
G01*
X-5149977Y5199989D03*
G01*
X-4999989Y5349976D03*
G01*
X-4999989Y5049977D03*
G01*
X-4849977Y4899990D03*
G01*
X-4849977Y5199989D03*
G01*
X-4699990Y5049977D03*
G01*
X-4549978Y4899990D03*
G01*
X-4699990Y5349976D03*
G01*
X-4549978Y5199989D03*
G01*
X-4399991Y5049977D03*
G01*
X-4249978Y4899990D03*
G01*
X-4399991Y5349976D03*
G01*
X-4249978Y5199989D03*
G01*
X-4099991Y5049977D03*
G01*
X-3949979Y4899990D03*
G01*
X-4099991Y5349976D03*
G01*
X-3949979Y5199989D03*
G01*
X-3799992Y5049977D03*
G01*
X-3799992Y5349976D03*
G01*
X-2549982Y4299991D03*
G01*
X-2549982Y4049979D03*
G01*
X-2799994Y4049979D03*
G01*
X-2599994Y3849979D03*
G01*
X-2299995Y4049979D03*
G01*
X-2349982Y3849979D03*
G01*
X-2399995Y3599992D03*
G01*
X-2099995Y3849979D03*
G01*
X-2149982Y3599992D03*
D23*
G01*
X-249986Y4999989D03*
G01*
X1297812Y4700015D03*
G01*
X-8500110Y2949955D03*
G01*
X-9749967Y4249978D03*
G01*
X-9169984Y3949979D03*
G01*
X-9749967Y4427321D03*
G01*
X-9199981Y4749977D03*
G01*
X-9499980Y4366361D03*
G01*
X-9012834Y4534433D03*
G01*
X-9489973Y4519980D03*
G01*
X-9009989Y4199991D03*
G01*
X-6973290Y2956737D03*
G01*
X-7979994Y2540000D03*
G01*
X550011Y4449978D03*
G01*
X399999Y4849977D03*
G01*
X-449986Y4899990D03*
G01*
X0Y2299970D03*
M02*
