G04 Layer: BottomPasteMaskLayer*
G04 EasyEDA v6.5.51, 2025-12-27 20:08:00*
G04 bdb22dcb27374e0e8d35cee5088a979a,10*
G04 Gerber Generator version 0.2*
G04 Scale: 100 percent, Rotated: No, Reflected: No *
G04 Dimensions in millimeters *
G04 leading zeros omitted , absolute positions ,4 integer and 5 decimal *
%FSLAX45Y45*%
%MOMM*%

%ADD10C,0.0190*%

%LPD*%
G36*
X-7476845Y3154883D02*
G01*
X-7476845Y3109874D01*
X-7521854Y3109874D01*
X-7521854Y3153918D01*
X-7563866Y3154375D01*
X-7568844Y3149396D01*
X-7568844Y3034385D01*
X-7563866Y3029407D01*
X-7435850Y3029407D01*
X-7430871Y3034385D01*
X-7430871Y3149396D01*
X-7435850Y3154375D01*
G37*
G36*
X-7563866Y3370376D02*
G01*
X-7568844Y3365398D01*
X-7568844Y3250387D01*
X-7563866Y3245408D01*
X-7522870Y3244900D01*
X-7522870Y3289909D01*
X-7477861Y3289909D01*
X-7477861Y3245866D01*
X-7435850Y3245408D01*
X-7430871Y3250387D01*
X-7430871Y3365398D01*
X-7435850Y3370376D01*
G37*
G36*
X-7096861Y3155391D02*
G01*
X-7096861Y3110382D01*
X-7141870Y3110382D01*
X-7141870Y3154375D01*
X-7183881Y3154883D01*
X-7188860Y3149904D01*
X-7188860Y3034893D01*
X-7183881Y3029864D01*
X-7055866Y3029864D01*
X-7050887Y3034893D01*
X-7050887Y3149904D01*
X-7055866Y3154883D01*
G37*
G36*
X-7183881Y3369868D02*
G01*
X-7188860Y3364890D01*
X-7188860Y3249879D01*
X-7183881Y3244900D01*
X-7141870Y3244900D01*
X-7141870Y3289401D01*
X-7096861Y3289401D01*
X-7096861Y3245408D01*
X-7055866Y3244900D01*
X-7050887Y3249879D01*
X-7050887Y3364890D01*
X-7055866Y3369868D01*
G37*
G36*
X-7466939Y2575509D02*
G01*
X-7466939Y2530500D01*
X-7511948Y2530500D01*
X-7511948Y2574493D01*
X-7553959Y2575001D01*
X-7558938Y2570022D01*
X-7558938Y2455011D01*
X-7553959Y2449982D01*
X-7425944Y2449982D01*
X-7420965Y2455011D01*
X-7420965Y2570022D01*
X-7425944Y2575001D01*
G37*
G36*
X-7553959Y2789986D02*
G01*
X-7558938Y2785008D01*
X-7558938Y2669997D01*
X-7553959Y2665018D01*
X-7511948Y2665018D01*
X-7511948Y2709519D01*
X-7466939Y2709519D01*
X-7466939Y2665526D01*
X-7425944Y2665018D01*
X-7420965Y2669997D01*
X-7420965Y2785008D01*
X-7425944Y2789986D01*
G37*
M02*
